<?xml version="1.0" standalone="no"?>
<!DOCTYPE svg PUBLIC "-//W3C//DTD SVG 1.1//EN" "http://www.w3.org/Graphics/SVG/1.1/DTD/svg11.dtd" >
<svg xmlns="http://www.w3.org/2000/svg" xmlns:xlink="http://www.w3.org/1999/xlink" version="1.1">
<metadata>
Created by FontForge 20170731 at Sun Oct 18 22:53:25 2009
 By Aleksey,,,
Copyright (c) 2009 by Alexandra Korolkova. All rights reserved.
</metadata>
<defs>
<font id="LeksaSans" horiz-adv-x="458" >
  <font-face 
    font-family="Leksa Sans"
    font-weight="400"
    font-stretch="normal"
    units-per-em="1000"
    panose-1="2 1 5 2 5 3 2 2 2 2"
    ascent="750"
    descent="-250"
    x-height="471"
    cap-height="605"
    bbox="-125 -283 1060 927"
    underline-thickness="50"
    underline-position="-200"
    unicode-range="U+0020-FB02"
  />
<missing-glyph horiz-adv-x="226" 
 />
    <glyph glyph-name=".notdef" horiz-adv-x="226" 
 />
    <glyph glyph-name=".null" horiz-adv-x="0" 
 />
    <glyph glyph-name="nonmarkingreturn" horiz-adv-x="333" 
 />
    <glyph glyph-name="space" unicode=" " horiz-adv-x="194" 
 />
    <glyph glyph-name="exclam" unicode="!" horiz-adv-x="248" 
d="M139 186l-29 421q58 21 110 0l-27 -421h-54zM106 48q0 23 17 39.5t40 16.5q24 0 42 -16.5t18 -39.5q0 -24 -17.5 -39.5t-42.5 -15.5q-24 0 -40.5 15.5t-16.5 39.5z" />
    <glyph glyph-name="quotedbl" unicode="&#x22;" horiz-adv-x="322" 
d="M65 424l-14 181q14 10 41 10t43 -10l-13 -181h-57zM200 424l-14 181q14 10 41 10t43 -10l-13 -181h-57z" />
    <glyph glyph-name="numbersign" unicode="#" horiz-adv-x="693" 
d="M349 13l52 207h-187l-55 -223q-23 -10 -51 16l50 207h-111q-8 26 2 59h126l37 159h-160q-10 32 0 59h177l53 210q29 6 50 -18l-50 -192h189l53 210q28 12 52 -15l-53 -195h121q12 -29 1 -59h-136l-37 -159h170q12 -23 1 -59h-186l-56 -223q-27 -9 -52 16zM267 441
l-40 -165h191l39 165h-190z" />
    <glyph glyph-name="dollar" unicode="$" horiz-adv-x="459" 
d="M391 595q0 -40 -21 -74q-49 32 -118 32q-56 0 -78.5 -19t-22.5 -58q0 -34 26.5 -63.5t64.5 -53.5t76 -50.5t64.5 -66t26.5 -87.5q0 -68 -41 -113.5t-109 -52.5v-89q-32 -12 -61 0v89q-50 0 -97.5 25.5t-54.5 50.5q13 38 40 55q18 -32 52.5 -50t65.5 -18q108 0 111 81
q1 36 -16 64q-15 25 -52.5 53t-73 49.5t-68 57t-41.5 75.5q-6 20 -4 44q3 66 46 102.5t96 37.5v88q30 13 61 0v-88q52 0 128 -21z" />
    <glyph glyph-name="percent" unicode="%" horiz-adv-x="761" 
d="M118 32l499 547q30 -12 42 -43l-500 -548q-30 7 -41 44zM54 429q0 68 41 111.5t109 43.5q67 0 109 -44t42 -111q0 -68 -42 -111.5t-109 -43.5q-68 0 -109 43.5t-41 111.5zM194 528q-30 0 -46 -14q-30 -26 -30 -84q0 -47 26 -75t63 -28q26 0 53 15q31 29 31 83
q0 49 -26 76t-71 27zM421 144q0 67 41 111t109 44t109 -44t41 -111t-41 -111t-109 -44t-109 44t-41 111zM563 245q-33 0 -48 -15q-31 -24 -31 -85q0 -47 26.5 -74.5t65.5 -27.5q27 0 51 15q31 29 31 82q0 49 -26 77t-69 28z" />
    <glyph glyph-name="ampersand" unicode="&#x26;" horiz-adv-x="653" 
d="M282 616q60 0 91 -29t31 -68q0 -23 -10.5 -45t-32 -42.5t-35 -31t-39.5 -28.5q23 -47 66.5 -112.5t71.5 -87.5q39 55 61 151.5t6 174.5q17 2 41.5 -4t34.5 -17q14 -67 -14 -173.5t-80 -175.5q41 -44 124 -85q-12 -43 -36 -57q-25 4 -64.5 30.5t-73.5 60.5
q-77 -88 -191 -88q-89 0 -139 49.5t-50 126.5q0 72 39.5 123.5t111.5 98.5q-43 63 -43 123q0 49 37 77.5t93 28.5zM228 499q0 -43 28 -86q81 49 81 92q0 25 -15 40.5t-41 15.5t-39 -12q-14 -16 -14 -50zM132 166q0 -50 32.5 -83.5t86.5 -33.5q39 0 76 19.5t57 51.5
q-35 33 -78 97t-68 120q-106 -68 -106 -171z" />
    <glyph glyph-name="quotesingle" unicode="'" horiz-adv-x="186" 
d="M65 424l-14 181q14 10 41 10t43 -10l-13 -181h-57z" />
    <glyph glyph-name="parenleft" unicode="(" horiz-adv-x="329" 
d="M275 -92q-5 -22 -23 -29q-83 43 -142.5 152.5t-59.5 251.5q0 129 66 240.5t136 151.5q14 -7 22 -28q-67 -76 -102 -165t-35 -208q0 -221 138 -366z" />
    <glyph glyph-name="parenright" unicode=")" horiz-adv-x="329" 
d="M53 648q6 22 24 29q82 -43 142 -153t60 -250q0 -129 -66 -241.5t-136 -151.5q-15 5 -22 28q67 76 101.5 165t34.5 208q0 223 -138 366z" />
    <glyph glyph-name="asterisk" unicode="*" horiz-adv-x="454" 
d="M279 717q-14 -49 -26 -120l3 -3q13 4 26.5 11t21 12.5t25 19t25.5 19.5q22 -7 30 -37t-4 -49q-76 -2 -111 -10v-6q37 -42 85 -76q-2 -25 -24 -43t-47 -14q-7 26 -43 109h-7q-43 -63 -61 -107q-25 -5 -48 14.5t-23 45.5q62 33 98 70l-2 5q-52 11 -113 11q-12 22 -4 49.5
t31 40.5q78 -55 101 -64l3 4q-24 116 -25 119q18 18 44.5 18t44.5 -19z" />
    <glyph glyph-name="plus" unicode="+" horiz-adv-x="549" 
d="M481 255h-185v-196q-28 -8 -56 0v196h-172q-9 27 0 57h172v190q33 10 56 0v-190h185q8 -26 0 -57z" />
    <glyph glyph-name="comma" unicode="," horiz-adv-x="207" 
d="M73 51q0 22 16.5 37.5t41.5 15.5q28 0 44.5 -21.5t16.5 -61.5q0 -64 -36 -103.5t-82 -41.5q-6 17 -2 39q26 -1 48.5 27t17.5 62q-24 -11 -44.5 4t-20.5 43z" />
    <glyph glyph-name="hyphen" unicode="-" horiz-adv-x="355" 
d="M288 241h-220q-11 37 0 68h220q8 -30 0 -68z" />
    <glyph glyph-name="period" unicode="." horiz-adv-x="199" 
d="M54 48q0 23 16.5 39.5t39.5 16.5q25 0 42.5 -16.5t17.5 -39.5q0 -24 -17 -39.5t-43 -15.5q-24 0 -40 15.5t-16 39.5z" />
    <glyph glyph-name="slash" unicode="/" horiz-adv-x="400" 
d="M0 28l351 622q34 -7 49 -30l-350 -622q-34 3 -50 30z" />
    <glyph glyph-name="zero" unicode="0" horiz-adv-x="500" 
d="M257 606q94 0 146.5 -81t52.5 -219q0 -151 -52 -234t-153 -83q-96 0 -151.5 80.5t-55.5 227.5q0 149 57.5 229t155.5 80zM243 546q-38 0 -64 -22q-16 -14 -33 -71t-17 -141q0 -128 36 -195.5t97 -67.5q40 0 67 23q41 41 41 210q0 264 -127 264z" />
    <glyph glyph-name="one" unicode="1" horiz-adv-x="299" 
d="M209 0h-103q11 87 11 258v242q-46 -25 -94 -19q-8 22 0 43q33 0 67 23t49 56h63v-352q0 -171 7 -251z" />
    <glyph glyph-name="two" unicode="2" horiz-adv-x="424" 
d="M59 484q-22 12 -26 41q83 81 192 81q70 0 112 -43t42 -118q0 -93 -74.5 -200t-169.5 -177l1 -3l125 2q73 2 130 11v-78h-359q-8 26 0 58q81 47 167 161t86 200q0 55 -27.5 86.5t-72.5 31.5q-65 0 -126 -53z" />
    <glyph glyph-name="three" unicode="3" horiz-adv-x="421" 
d="M27 595h325q9 -35 0 -68l-163 -168q181 -13 181 -150q0 -51 -22.5 -95t-57.5 -74t-79 -51.5t-85.5 -32t-77.5 -11.5q-17 18 -11 54q50 3 102.5 23.5t94.5 66t42 103.5q0 60 -47.5 89.5t-126.5 25.5q-8 20 0 37l163 181v4h-97q-94 0 -141 -5v71z" />
    <glyph glyph-name="four" unicode="4" horiz-adv-x="457" 
d="M363 603v-398h78q13 -32 0 -62h-78v-155h-89v155h-251q-10 25 0 56l259 404h81zM91 205h191v300z" />
    <glyph glyph-name="five" unicode="5" horiz-adv-x="387" 
d="M112 526v-133q110 4 174 -42.5t64 -131.5q0 -52 -22.5 -97t-57 -75t-75.5 -52.5t-77 -33t-64 -11.5q-8 9 -11.5 27t-0.5 31q50 6 97 29.5t81.5 68t34.5 100.5q0 73 -57.5 109t-148.5 28v252h149q115 0 139 15q13 -32 7 -70q-28 -14 -135 -14h-97z" />
    <glyph glyph-name="six" unicode="6" horiz-adv-x="486" 
d="M248 -11q-94 0 -149 69t-55 194q0 155 87.5 260t246.5 120q6 -8 10 -24.5t1 -29.5q-45 -6 -85 -22t-78 -45t-64.5 -78t-34.5 -113l3 -1q22 37 62 57.5t87 20.5q76 0 123.5 -54t47.5 -141q0 -92 -59 -152.5t-143 -60.5zM255 49q41 0 70 21q42 37 42 114q0 74 -32.5 116
t-90.5 42q-49 0 -83.5 -38t-34.5 -90q0 -67 33.5 -116t95.5 -49z" />
    <glyph glyph-name="seven" unicode="7" horiz-adv-x="352" 
d="M11 521v74h334q9 -29 -4 -66q-60 -80 -107 -218t-47 -237q0 -50 5 -81h-93v14q0 109 45.5 252.5t125.5 265.5v4h-57q-157 0 -202 -8z" />
    <glyph glyph-name="eight" unicode="8" horiz-adv-x="470" 
d="M237 609q77 0 121.5 -40t44.5 -96q0 -52 -27.5 -87.5t-78.5 -69.5v-4q65 -38 95.5 -74t30.5 -93q0 -71 -52.5 -115t-135.5 -44q-91 0 -139.5 41.5t-48.5 112.5q0 102 121 162v4q-53 34 -81 67t-28 86q0 68 50.5 109t127.5 41zM245 337q81 55 81 116q0 43 -24.5 71.5
t-70.5 28.5q-45 0 -72 -18q-23 -23 -23 -64q0 -42 25 -70t84 -64zM221 279q-52 -33 -74.5 -60t-22.5 -67q0 -51 33.5 -81t82.5 -30q59 0 79 20q27 25 27 72q0 41 -26 72.5t-99 73.5z" />
    <glyph glyph-name="nine" unicode="9" horiz-adv-x="489" 
d="M241 606q95 0 150 -65.5t55 -189.5q0 -91 -27 -163t-73.5 -117t-102.5 -70.5t-119 -31.5q-9 8 -14 25.5t-3 31.5q42 4 81.5 19.5t76 43.5t63 75t35.5 107l-5 1q-51 -64 -146 -64q-77 0 -126.5 50.5t-49.5 133.5q0 96 59.5 155t145.5 59zM231 546q-43 0 -71 -22
q-41 -37 -41 -113q0 -72 34 -109t95 -37q50 0 82.5 32t32.5 84q0 70 -34 117.5t-98 47.5z" />
    <glyph glyph-name="colon" unicode=":" horiz-adv-x="260" 
d="M108 85q0 23 16.5 39.5t39.5 16.5q25 0 42.5 -16.5t17.5 -39.5q0 -24 -17 -39.5t-43 -15.5q-24 0 -40 15.5t-16 39.5zM108 381q0 23 16.5 39.5t39.5 16.5q25 0 42.5 -16.5t17.5 -39.5q0 -24 -17 -39.5t-43 -15.5q-24 0 -40 15.5t-16 39.5z" />
    <glyph glyph-name="semicolon" unicode=";" horiz-adv-x="223" 
d="M82 51q0 22 16.5 37.5t41.5 15.5q28 0 44.5 -21.5t16.5 -61.5q0 -64 -36 -103.5t-82 -41.5q-6 17 -2 39q26 -1 48.5 27t17.5 62q-24 -11 -44.5 4t-20.5 43zM84 417q0 23 16.5 39.5t39.5 16.5q25 0 42.5 -16.5t17.5 -39.5q0 -24 -17 -39.5t-43 -15.5q-24 0 -40 15.5
t-16 39.5z" />
    <glyph glyph-name="less" unicode="&#x3c;" horiz-adv-x="477" 
d="M413 47l-386 216q-10 30 -1 51l392 227q22 -18 23 -45l-351 -199l352 -193q0 -15 -8 -31.5t-21 -25.5z" />
    <glyph glyph-name="equal" unicode="=" horiz-adv-x="540" 
d="M474 337h-407q-9 32 0 60h407q5 -25 0 -60zM474 195h-407q-9 32 0 60h407q5 -25 0 -60z" />
    <glyph glyph-name="greater" unicode="&#x3e;" horiz-adv-x="477" 
d="M64 538l386 -216q10 -30 1 -51l-391 -226q-23 16 -24 44l351 199l-353 194q0 14 8.5 30.5t21.5 25.5z" />
    <glyph glyph-name="question" unicode="?" horiz-adv-x="396" 
d="M193 537q-64 0 -108 -44q-13 6 -24.5 27t-9.5 33q12 13 29 25t53.5 25t77.5 13q77 0 120.5 -44t43.5 -116q0 -73 -45 -115.5t-106 -60.5q-5 -13 -5.5 -55.5t1.5 -52.5q-12 -5 -31 -5t-30 7q0 75 11 105.5t46 49.5q40 22 61 45.5t21 62.5q0 43 -25 71.5t-80 28.5zM134 48
q0 24 16 40t41 16q24 0 41.5 -16.5t17.5 -39.5q0 -24 -17 -39.5t-42 -15.5t-41 15t-16 40z" />
    <glyph glyph-name="at" unicode="@" horiz-adv-x="927" 
d="M628 0q-90 0 -71 165l-5 2q-27 -74 -72.5 -120.5t-99.5 -46.5q-47 0 -79.5 42.5t-32.5 119.5q0 76 24.5 139t64 100.5t85 58t90.5 20.5q49 0 74.5 -7.5t50.5 -24.5q-36 -193 -37 -311q0 -39 7.5 -57t30.5 -18q32 0 60 18q34 30 57.5 87t23.5 131q0 143 -85 232.5
t-234 89.5q-137 0 -221 -64q-54 -47 -92 -127.5t-38 -183.5q0 -171 95 -275.5t243 -104.5q105 0 171 52q28 -21 25 -53q-27 -26 -85 -44t-119 -18q-183 0 -292.5 119.5t-109.5 311.5q0 101 35.5 186.5t95 142.5t137 89t161.5 32q178 0 281 -103.5t103 -264.5
q0 -138 -72 -226.5t-170 -88.5zM575 414q-23 13 -69 9.5t-75 -24.5q-39 -34 -60.5 -91t-21.5 -125q0 -56 15 -88t41 -32q25 0 54.5 30.5t54.5 78t42.5 113t18.5 129.5z" />
    <glyph glyph-name="A" unicode="A" horiz-adv-x="570" 
d="M555 0h-107q-14 51 -26 91l-28 83q-30 3 -115 3t-114 -3l-26 -72q-7 -16 -17.5 -52t-15.5 -50h-85q46 106 127 326t97 279h98q25 -84 95.5 -288.5t116.5 -316.5zM282 513l-96 -280q25 -3 93.5 -3t94.5 3l-88 280h-4z" />
    <glyph glyph-name="B" unicode="B" horiz-adv-x="523" 
d="M235 616q111 0 164 -39.5t53 -120.5q0 -55 -30.5 -91t-74.5 -48v-5q50 -7 87.5 -42t37.5 -97q0 -93 -67 -138.5t-176 -45.5q-67 0 -155 13q7 84 7 273v55q0 128 -7 275q11 0 72.5 5.5t88.5 5.5zM166 555v-218q65 -9 120 3q33 11 56.5 38t23.5 72q0 56 -37.5 83.5
t-96.5 27.5q-51 0 -66 -6zM166 279v-226q24 -8 73 -8q59 0 98 20q46 32 46 111q0 134 -217 103z" />
    <glyph glyph-name="C" unicode="C" horiz-adv-x="519" 
d="M328 618q90 0 141 -22q1 -40 -17 -71q-57 24 -130 24q-69 0 -99 -23q-82 -70 -82 -206q0 -114 54.5 -187t150.5 -73q69 0 122 34q18 -26 18 -54q-75 -51 -169 -51q-121 0 -196 81t-75 232q0 142 78.5 229t203.5 87z" />
    <glyph glyph-name="D" unicode="D" horiz-adv-x="569" 
d="M74 0q7 76 7 280v42q0 225 -7 283q68 10 154 11q34 0 71 -5q107 -15 166.5 -91t59.5 -215q0 -131 -61 -212.5t-176 -97.5q-38 -6 -80 -6q-83 1 -134 11zM167 550q-4 -79 -4 -249.5t4 -238.5q14 -8 67 -10q23 0 47 3q50 8 79 27q30 24 53 78t23 135q0 126 -51.5 192
t-151.5 66q-50 0 -66 -3z" />
    <glyph glyph-name="E" unicode="E" 
d="M421 0h-347q7 63 7 280v42q0 211 -7 283h340v-67q-46 4 -244 4v-202q159 0 216 4v-67q-55 4 -216 4v-216q204 0 251 4v-69z" />
    <glyph glyph-name="F" unicode="F" horiz-adv-x="454" 
d="M183 0h-109q7 63 7 280v42q0 211 -7 283h346v-71q-68 6 -244 6v-214q172 0 224 6v-73q-51 5 -224 5q0 -188 7 -264z" />
    <glyph glyph-name="G" unicode="G" horiz-adv-x="558" 
d="M332 618q67 0 147 -23q0 -38 -18 -72q-64 26 -128 26q-74 0 -111 -23q-38 -28 -61 -83.5t-23 -126.5q0 -118 52.5 -190t142.5 -72q26 0 55 6.5t41 14.5q2 25 2.5 81.5t-2.5 82.5h-110q-11 30 0 59h188q-6 -111 0 -250q-99 -59 -194 -59q-116 0 -191.5 79.5t-75.5 236.5
q0 139 80.5 226t205.5 87z" />
    <glyph glyph-name="H" unicode="H" horiz-adv-x="617" 
d="M546 0h-102q6 88 6 281q-30 2 -139.5 2t-140.5 -2q0 -193 6 -281h-102q7 89 7 280v31q0 215 -7 294h102q-6 -79 -6 -264q30 -2 140 -2t140 2q0 189 -6 264h101q-6 -70 -6 -289v-33q0 -185 7 -283z" />
    <glyph glyph-name="I" unicode="I" horiz-adv-x="285" 
d="M197 0h-108q8 58 8 275v48q0 235 -8 282h108q-6 -54 -6 -252v-41q0 -243 6 -312z" />
    <glyph glyph-name="J" unicode="J" horiz-adv-x="295" 
d="M203 234v-162q0 -56 -14.5 -94.5t-39.5 -57t-53 -24t-60 -0.5q-13 31 2 67q38 0 57 29t19 114v140q0 284 -9 359h104q-6 -124 -6 -371z" />
    <glyph glyph-name="K" unicode="K" horiz-adv-x="553" 
d="M414 605h100q-63 -71 -236 -277q50 -72 132.5 -176t127.5 -147q-30 -16 -94 -16q-25 15 -91 96q-19 25 -62.5 86t-67 91t-31.5 30h-22q0 -204 6 -292h-102q7 91 7 283v33q0 198 -7 289h102q-6 -79 -6 -272h21q13 0 99 107.5t124 164.5z" />
    <glyph glyph-name="L" unicode="L" horiz-adv-x="457" 
d="M438 0h-364q7 62 7 311v33q0 198 -7 261h109q-7 -83 -7 -267v-270h57q145 0 205 7v-75z" />
    <glyph glyph-name="M" unicode="M" horiz-adv-x="715" 
d="M143 0h-81q8 58 22 260t20 345h92q13 -32 43.5 -96.5t69.5 -144.5t57 -118l4 -1q17 41 77.5 179.5t76.5 180.5h92q3 -111 17 -336.5t21 -268.5h-101q2 87 -4 188l-1 39q-9 209 -5 265h-6l-159 -372h-57l-168 374h-4q3 -24 3.5 -66t-1 -74t-4 -76.5t-2.5 -48.5l-1 -44
q-3 -123 -1 -185z" />
    <glyph glyph-name="N" unicode="N" horiz-adv-x="621" 
d="M74 605h96q10 -31 66.5 -116.5t131.5 -194t109 -165.5h2v203q0 221 -6 273h75q-5 -79 -5 -436v-169h-89q-23 47 -151.5 235.5t-153.5 235.5h-4v-178q0 -237 7 -293h-78q7 63 7 286v42q0 233 -7 277z" />
    <glyph glyph-name="O" unicode="O" horiz-adv-x="619" 
d="M319 626q115 0 186 -81t71 -232q0 -153 -77 -238.5t-194 -85.5q-111 0 -185 82t-74 228q0 158 80.5 242.5t192.5 84.5zM304 563q-50 0 -84 -23q-29 -26 -54 -81.5t-25 -130.5q0 -133 50.5 -205t126.5 -72q59 0 96 32q26 24 46.5 77t20.5 125q0 135 -47 206.5t-130 71.5z
" />
    <glyph glyph-name="P" unicode="P" horiz-adv-x="499" 
d="M175 0h-101q7 55 7 305v44q0 205 -7 256q86 11 171 11q109 0 165 -50t56 -138q0 -58 -22.5 -101t-59.5 -66t-78 -34t-85 -11q-35 0 -51 3q0 -183 5 -219zM378 418q0 65 -36.5 101.5t-102.5 36.5q-51 0 -69 -4v-270q17 -7 54 -7q64 0 95 18q24 18 41.5 51t17.5 74z" />
    <glyph glyph-name="Q" unicode="Q" horiz-adv-x="619" 
d="M319 626q115 0 186 -81t71 -232q0 -202 -132 -286q81 -110 147 -150q-19 -31 -60 -31q-29 0 -72.5 42.5t-84.5 109.5q-33 -9 -69 -9q-111 0 -185 82t-74 228q0 158 80.5 242.5t192.5 84.5zM304 563q-50 0 -84 -23q-29 -26 -54 -81.5t-25 -130.5q0 -133 50.5 -205
t126.5 -72q59 0 96 32q26 24 46.5 77t20.5 125q0 135 -47 206.5t-130 71.5z" />
    <glyph glyph-name="R" unicode="R" horiz-adv-x="529" 
d="M170 0h-96q5 55 5 305v43q0 205 -5 256q82 12 156 12q107 0 163 -47.5t56 -132.5q0 -56 -31.5 -100t-80.5 -64q34 -67 87.5 -149.5t89.5 -123.5q-23 -14 -55 -14q-52 0 -108 87q-32 51 -100 185h-85v-53q0 -171 4 -204zM360 433q0 55 -37 89t-93 34q-42 0 -64 -5v-243
q21 -8 62 -5.5t69 15.5q63 33 63 115z" />
    <glyph glyph-name="S" unicode="S" horiz-adv-x="459" 
d="M393 588q-3 -38 -21 -68q-51 33 -121 33q-54 0 -77 -19.5t-23 -57.5q0 -29 19 -54.5t48 -44t62 -42t62 -46.5t48 -58.5t19 -76.5q0 -74 -55 -119.5t-138 -45.5q-104 0 -169 61q0 18 12.5 35t25.5 23q20 -24 57 -40.5t69 -16.5q47 0 76.5 21t29.5 67q0 34 -22 64
t-55.5 53.5t-68.5 47t-65 55t-40 67.5q-7 22 -5 51q4 65 57 102t124 37q86 0 151 -28z" />
    <glyph glyph-name="T" unicode="T" horiz-adv-x="490" 
d="M18 535v70h458v-70q-57 5 -147 5h-38v-226q0 -249 6 -314h-101q6 70 6 318v222h-35q-101 0 -149 -5z" />
    <glyph glyph-name="U" unicode="U" horiz-adv-x="589" 
d="M65 605h100q-7 -37 -7 -199v-45q0 -161 39 -231.5t120 -70.5q52 0 82 28q53 57 53 227v30q0 217 -7 261h86q-6 -56 -6 -207v-69q0 -176 -54 -258t-171 -82q-123 0 -176.5 86t-53.5 252v62q0 174 -5 216z" />
    <glyph glyph-name="V" unicode="V" horiz-adv-x="563" 
d="M18 605h115q5 -31 28 -101t70 -203.5t72 -208.5h3q12 42 82.5 252t78.5 261h82q-15 -41 -189 -541l-24 -72h-92l-23 63q-12 34 -58.5 164t-79.5 218.5t-65 167.5z" />
    <glyph glyph-name="W" unicode="W" horiz-adv-x="804" 
d="M250 117h5q9 34 27.5 102.5t32 120t28.5 109t24 98t12 58.5h84q28 -141 125 -488h5l47 186q64 275 67 302h81q-71 -230 -151 -537l-18 -68h-86l-8 41q-8 34 -54 196t-61 238h-2q-15 -66 -60.5 -223.5t-56.5 -208.5l-10 -43h-85l-23 78q-19 63 -70.5 250t-81.5 277h109
q7 -44 71 -301z" />
    <glyph glyph-name="X" unicode="X" horiz-adv-x="550" 
d="M39 605h119q4 -16 25 -55t53.5 -96t49.5 -90h3q122 227 129 241h97q-103 -145 -178 -284q148 -249 196 -321h-120q-8 15 -60 109.5t-85 156.5h-4q-24 -45 -58 -106.5t-57.5 -103.5t-29.5 -56h-101q101 147 198 315q-82 139 -177 290z" />
    <glyph glyph-name="Y" unicode="Y" horiz-adv-x="542" 
d="M295 301h4q126 249 139 304h89q-106 -181 -203 -376v-26q0 -167 6 -203h-104q7 42 7 197v32q-71 138 -215 376h121q5 -20 27.5 -64t66 -123.5t62.5 -116.5z" />
    <glyph glyph-name="Z" unicode="Z" horiz-adv-x="488" 
d="M39 528v77h407v-67l-310 -471v-4l117 4q154 5 199 12v-79h-413v67l307 472v3l-113 -4q-169 -5 -194 -10z" />
    <glyph glyph-name="bracketleft" unicode="[" horiz-adv-x="328" 
d="M78 -125v829h230q10 -26 0 -57h-153v-713h153q10 -41 0 -59h-230z" />
    <glyph glyph-name="backslash" unicode="\" horiz-adv-x="420" 
d="M48 645l373 -665q-17 -27 -51 -31l-370 666q13 22 48 30z" />
    <glyph glyph-name="bracketright" unicode="]" horiz-adv-x="328" 
d="M251 704v-829h-231q-10 26 0 59h154v710h-154q-12 30 0 60h231z" />
    <glyph glyph-name="asciicircum" unicode="^" horiz-adv-x="389" 
d="M30 513l132 190q34 11 59 0l139 -190h-94l-88 128l-87 -128h-61z" />
    <glyph glyph-name="underscore" unicode="_" horiz-adv-x="209" 
d="M0 -166v63h209v-63h-209z" />
    <glyph glyph-name="grave" unicode="`" horiz-adv-x="207" 
d="M171 546l-171 146q0 18 19.5 38.5t36.5 22.5l151 -170z" />
    <glyph glyph-name="a" unicode="a" horiz-adv-x="486" 
d="M416 302v-101q0 -166 7 -201l-81 -8q-4 19 -7 78h-3q-24 -32 -65 -55.5t-94 -23.5q-56 0 -93.5 34.5t-37.5 92.5q0 83 67.5 118.5t220.5 37.5q1 80 -20 114.5t-81 34.5q-66 0 -143 -42q-18 16 -18 50q108 52 196 52q77 0 114.5 -41.5t37.5 -139.5zM129 136q0 -41 25 -63
t58 -22q37 0 69 18.5t50 47.5v98q-37 8 -57 8q-89 0 -121 -24q-24 -27 -24 -63z" />
    <glyph glyph-name="b" unicode="b" horiz-adv-x="520" 
d="M161 409h5q51 67 140 67q78 0 124 -55t46 -163q0 -126 -75 -197.5t-190 -71.5q-21 0 -44 3t-37.5 6t-34 7.5t-24.5 5.5q7 108 7 289v66q0 226 -7 334q17 5 46.5 6t48.5 -3q-3 -70 -5 -294zM161 354v-297q21 -13 70 -13q66 0 101 30q24 21 41 67t17 98q0 90 -32 134
t-88 44q-35 0 -65.5 -17.5t-43.5 -45.5z" />
    <glyph glyph-name="c" unicode="c" horiz-adv-x="447" 
d="M272 484q54 0 90 -12.5t49 -27.5q-1 -13 -11.5 -32t-23.5 -29q-46 39 -116 39q-51 0 -78 -24q-50 -50 -50 -138q0 -93 46.5 -151t124.5 -58q51 0 100 26q14 -18 12 -43q-21 -18 -64 -31.5t-87 -13.5q-99 0 -159.5 67.5t-60.5 179.5q0 110 66.5 179t161.5 69z" />
    <glyph glyph-name="d" unicode="d" horiz-adv-x="524" 
d="M453 -1l-83 -7q-1 25 -3 73l-1 1q-20 -31 -52 -51.5t-69 -22.5q-21 -2 -51 1q-67 11 -108.5 66.5t-41.5 148.5q0 128 71 199t167 71q47 0 81 -13v37q0 120 -6 198q49 14 92 2q0 -6 -2 -154t-2 -210v-104q0 -157 8 -235zM363 114v288q-34 21 -84 21q-53 0 -89 -26
q-58 -58 -58 -172q0 -82 35 -129t92 -47q30 0 58 17.5t46 47.5z" />
    <glyph glyph-name="e" unicode="e" horiz-adv-x="495" 
d="M272 484q86 0 133 -48.5t47 -113.5q0 -29 -10 -59q-116 -26 -241 -32l-73 -6q3 -88 47 -129.5t115 -41.5q80 0 130 36q16 -18 16 -42q-22 -22 -71 -39.5t-103 -17.5q-103 0 -160.5 65.5t-57.5 178.5q0 103 60 176t168 73zM129 275q39 0 125 6t105 13q7 10 7 30
q0 46 -31 75t-77 29t-82 -23q-17 -17 -32 -58t-15 -72z" />
    <glyph glyph-name="f" unicode="f" horiz-adv-x="330" 
d="M249 711q64 0 116 -26q-2 -15 -12 -33.5t-20 -25.5q-43 25 -76 25q-35 0 -51 -26q-23 -45 -20 -154h110q6 -7 6 -28.5t-7 -31.5h-104v-146q0 -185 6 -265h-97q8 91 8 272v139h-70q-4 11 -4 30t4 30h68q-6 131 32 185.5t111 54.5z" />
    <glyph glyph-name="g" unicode="g" horiz-adv-x="523" 
d="M487 488q4 -11 4 -31.5t-4 -31.5l-95 11v-4q26 -16 43.5 -47t17.5 -69q0 -64 -53 -111.5t-142 -47.5q-68 0 -108 23q-30 -16 -30 -46q0 -23 38.5 -37t129.5 -27q105 -16 153 -43.5t48 -87.5q0 -61 -62.5 -106t-179.5 -45q-95 0 -156 33t-61 83q0 47 32 73q5 5 24.5 1
t30.5 -12q-22 -19 -22 -42q0 -35 43 -59.5t125 -24.5q68 0 105.5 22t37.5 55q0 34 -40.5 53.5t-125.5 33.5q-100 18 -140 42.5t-40 65.5q0 38 59 86q-67 38 -67 120q0 78 60 124t150 46q26 0 63 -5t49 -6q59 1 113 11zM248 435q-113 0 -113 -110q0 -49 33.5 -82.5
t90.5 -33.5q111 0 111 104q0 56 -31 89t-91 33z" />
    <glyph glyph-name="h" unicode="h" horiz-adv-x="537" 
d="M161 409h5q73 79 156 79q78 0 113 -43t35 -154v-59q0 -190 6 -232h-97q8 31 8 211v49q0 93 -22 129t-71 36q-36 0 -72.5 -21t-60.5 -52v-53q0 -179 7 -299h-97q7 109 7 300v54q0 215 -7 346q18 5 45.5 7t47.5 -3q0 -12 -1.5 -128t-1.5 -167z" />
    <glyph glyph-name="i" unicode="i" horiz-adv-x="281" 
d="M96 230v36q0 158 -9 205h106q-9 -54 -9 -208v-33q0 -176 9 -230h-106q9 53 9 230zM96 612q0 21 16 35.5t39 14.5q24 0 41 -14.5t17 -35.5t-16.5 -34.5t-41.5 -13.5q-23 0 -39 13.5t-16 34.5z" />
    <glyph glyph-name="j" unicode="j" horiz-adv-x="289" 
d="M198 124v-151q0 -106 -44 -147.5t-124 -25.5q-5 17 -4.5 39.5t5.5 33.5q43 -6 60.5 21t17.5 115v127q0 272 -9 335h103q-5 -124 -5 -347zM96 612q0 21 16 35.5t39 14.5q24 0 41 -14.5t17 -35.5t-17 -34.5t-41 -13.5q-23 0 -39 13.5t-16 34.5z" />
    <glyph glyph-name="k" unicode="k" horiz-adv-x="477" 
d="M158 280l28 1q13 0 77 78t80 112q55 10 92 0q-69 -91 -170 -200q11 -15 45.5 -65.5t56 -81.5t50 -67.5t46.5 -52.5q-15 -8 -46 -12q-30 -2 -32 -2q-23 1 -48 37q-35 47 -72 105.5t-54.5 83.5t-28.5 25h-24v-61q0 -124 6 -180h-90q4 117 4 300v50q0 192 -7 350q58 13 92 3
q-5 -190 -5 -363v-60z" />
    <glyph glyph-name="l" unicode="l" horiz-adv-x="263" 
d="M74 89v385q0 151 -6 226q64 9 96 1q0 -22 -2 -156.5t-2 -227.5v-162q0 -76 15 -92.5t70 -5.5q7 -25 0 -40q-44 -23 -101 -23q-70 0 -70 95z" />
    <glyph glyph-name="m" unicode="m" horiz-adv-x="776" 
d="M443 0h-95q9 33 9 210v67q0 84 -17 116t-60 32q-33 0 -67 -20.5t-51 -43.5v-88q0 -164 6 -273h-97q8 68 8 232v29q0 134 -8 208l90 11q0 -24 -2 -70h4q78 78 158 78q88 0 105 -89q28 38 71.5 63.5t86.5 25.5q67 0 96 -41t29 -136v-83q0 -186 7 -228h-97q7 31 7 207v65
q0 84 -16 118.5t-56 34.5q-62 0 -117 -63v-110q0 -210 6 -252z" />
    <glyph glyph-name="n" unicode="n" horiz-adv-x="541" 
d="M479 0h-97q8 35 8 206v44q0 97 -20 136t-74 39q-38 0 -73 -21t-59 -54v-74q0 -140 7 -276h-97q7 78 7 239v22q0 127 -9 208l91 11q0 -27 -2 -73h4q74 81 168 81q75 0 107.5 -48t32.5 -147v-67q0 -185 6 -226z" />
    <glyph glyph-name="o" unicode="o" horiz-adv-x="530" 
d="M276 488q100 0 155 -67.5t55 -181.5q0 -111 -62 -180.5t-159 -69.5q-103 0 -162 67t-59 176q0 115 65 185.5t167 70.5zM260 428q-58 0 -86 -28q-44 -46 -44 -143q0 -99 40.5 -153.5t109.5 -54.5q36 0 71 23q50 48 50 154q0 88 -35 145t-106 57z" />
    <glyph glyph-name="p" unicode="p" horiz-adv-x="527" 
d="M71 466l90 11q0 -46 -1 -69l-1 -9q18 27 48.5 45t62.5 18q38 14 69 12q68 -12 107 -67t39 -149q0 -126 -76 -197.5t-183 -71.5q-30 0 -64 8v-28q0 -105 6 -163h-97q8 69 8 318v49q0 208 -8 293zM162 349v-292q28 -12 69 -12q68 0 105 29q58 54 58 172q0 82 -30.5 125.5
t-85.5 45.5q-17 1 -38 -4q-48 -15 -78 -64z" />
    <glyph glyph-name="q" unicode="q" horiz-adv-x="520" 
d="M359 63h-5q-16 -31 -52.5 -52.5t-81.5 -21.5q-80 0 -128 59.5t-48 171.5q0 105 62 174t163 82q17 3 55 3q67 -1 125 -23q-8 -98 -8 -263v-90q0 -197 8 -297h-100q10 49 10 191v66zM358 132v279q-20 13 -68 13q-69 0 -102 -30q-25 -22 -42 -66t-17 -98q0 -81 30 -130
t84 -51q18 0 34 4q61 18 81 79z" />
    <glyph glyph-name="r" unicode="r" horiz-adv-x="334" 
d="M322 471q-2 -48 -28 -74q-16 14 -42 14q-25 0 -50 -16.5t-40 -45.5v-91q0 -182 9 -258h-98q6 78 6 239v27q0 99 -8 203l89 11q1 -26 -1 -76h3q45 76 119 76q23 0 41 -9z" />
    <glyph glyph-name="s" unicode="s" horiz-adv-x="420" 
d="M354 449q0 -11 -8 -27.5t-17 -24.5q-35 28 -96 28q-80 0 -80 -58q0 -24 22 -44.5t53.5 -38t63.5 -38t54 -52t22 -70.5q0 -59 -47.5 -97t-120.5 -38q-51 0 -88.5 19t-54.5 40q-1 16 8 32.5t22 24.5q41 -56 117 -56q78 0 78 68q0 29 -22 53t-53.5 42t-63.5 37t-54 48.5
t-22 66.5q0 52 42 86t116 34q54 0 91 -11.5t38 -23.5z" />
    <glyph glyph-name="t" unicode="t" horiz-adv-x="323" 
d="M85 97v314h-48q-10 29 0 60q58 11 85 84q7 3 24 2.5t24 -2.5v-84h107q5 -9 4.5 -31t-5.5 -29h-106v-264q0 -71 18.5 -85t95.5 -1q4 -7 4 -21t-4 -21q-13 -9 -51 -17t-68 -8q-41 0 -60.5 22.5t-19.5 80.5z" />
    <glyph glyph-name="u" unicode="u" horiz-adv-x="532" 
d="M58 471h97q-6 -28 -6 -208v-44q0 -93 21 -130.5t75 -37.5q71 0 124 69v79q0 175 -7 272h97q-7 -77 -7 -237v-27q0 -125 10 -207l-85 -9q-3 27 -5 83h-3q-24 -35 -64.5 -60t-93.5 -25q-78 0 -111.5 46t-33.5 143v61q0 182 -8 232z" />
    <glyph glyph-name="v" unicode="v" horiz-adv-x="481" 
d="M18 471h104q20 -78 133 -380h4q10 29 40.5 116.5t54 158.5t31.5 105h79q-32 -67 -155 -399l-29 -80h-64l-34 82q-21 50 -58 142t-64 157t-42 98z" />
    <glyph glyph-name="w" unicode="w" horiz-adv-x="659" 
d="M17 471h101q11 -105 91 -368h2q68 236 91 368h79q5 -32 17 -78.5t22.5 -81.5t32 -104.5t31.5 -103.5h3q71 294 79 368h77q-70 -210 -123 -422l-15 -57h-62q-3 11 -46.5 145.5t-64.5 211.5h-2q-21 -80 -57.5 -200.5t-45.5 -156.5h-63l-14 52q-67 232 -133 427z" />
    <glyph glyph-name="x" unicode="x" horiz-adv-x="476" 
d="M35 471h112q42 -85 100 -173h5q73 109 107 173h90q-112 -142 -163 -224q99 -154 167 -247h-108q-17 30 -65 106.5t-54 86.5h-4q-64 -100 -112 -193h-89q104 149 166 245q-72 116 -152 226z" />
    <glyph glyph-name="y" unicode="y" horiz-adv-x="460" 
d="M18 471h107q19 -85 133 -391h5q23 57 58.5 185t52.5 206h81q-16 -42 -49.5 -143t-43.5 -131l-37 -107q-82 -237 -131 -302q-19 1 -39 14.5t-25 31.5q47 47 103 166h-25q-17 40 -190 471z" />
    <glyph glyph-name="z" unicode="z" horiz-adv-x="433" 
d="M38 395v76h358v-65l-277 -338v-3l105 3q141 3 172 9v-77h-359v65l274 337v3l-95 -2q-156 -2 -178 -8z" />
    <glyph glyph-name="braceleft" unicode="{" horiz-adv-x="347" 
d="M26 228q-8 21 0 50q34 0 47 24.5t13 86.5v64q0 87 27.5 120.5t104.5 32.5l82 -1q9 -28 0 -55l-8 1q-77 11 -102.5 -13t-25.5 -104v-72q0 -91 -52 -106v-6q52 -13 52 -107v-71q0 -84 26.5 -111.5t101.5 -17.5l8 2q11 -25 0 -55l-82 -1q-77 -1 -104.5 38t-27.5 128v63
q0 63 -13 85.5t-47 24.5z" />
    <glyph glyph-name="bar" unicode="|" horiz-adv-x="234" 
d="M87 0v704q30 21 61 0v-704q-12 -8 -30 -8t-31 8z" />
    <glyph glyph-name="braceright" unicode="}" horiz-adv-x="347" 
d="M321 267q9 -23 0 -49q-36 0 -48 -27.5t-12 -101.5v-47q0 -87 -27.5 -120t-104.5 -32h-82q-9 29 0 56l8 -2q83 -12 106 16t23 124v49q0 92 51 107v6q-51 12 -51 129v49q0 84 -27 111t-102 16l-8 -1q-10 28 0 55l82 2q77 1 104.5 -38.5t27.5 -128.5v-62q0 -64 13 -86.5
t47 -24.5z" />
    <glyph glyph-name="asciitilde" unicode="~" horiz-adv-x="521" 
d="M448 255q-45 -36 -87.5 -37.5t-75.5 17t-65.5 37t-68 15.5t-71.5 -40q-1 2 -3.5 9.5t-3.5 10t-3 9t-2 10.5t1 10t3 11q39 40 78 43.5t72 -15t66.5 -37.5t73.5 -18t80 37q17 -30 6 -62z" />
    <glyph glyph-name="uni00A0" unicode="&#xa0;" horiz-adv-x="194" 
 />
    <glyph glyph-name="exclamdown" unicode="&#xa1;" horiz-adv-x="248" 
d="M106 298l28 -421q-53 -22 -109 0l27 421h54zM26 423q0 23 17 39.5t40 16.5q24 0 42 -16.5t18 -39.5t-18 -38.5t-42 -15.5t-40.5 15.5t-16.5 38.5z" />
    <glyph glyph-name="cent" unicode="&#xa2;" horiz-adv-x="447" 
d="M297 -110q-24 -13 -59 -2v102q-88 9 -141 75.5t-53 170.5q0 100 55 166.5t139 78.5l1 114q31 13 58 0v-112q85 -5 114 -39q-1 -13 -11.5 -32t-23.5 -29q-39 31 -85 37v-369h12q51 0 100 26q14 -18 12 -43q-37 -32 -117 -43zM132 260q0 -76 31.5 -129.5t86.5 -71.5l-3 363
q-43 -3 -65 -24q-50 -50 -50 -138z" />
    <glyph glyph-name="sterling" unicode="&#xa3;" horiz-adv-x="489" 
d="M385 300h-186q23 -58 13 -128t-49 -103v-4q227 0 269 10v-75h-390q-10 25 0 57q48 0 77 37.5t29 103.5q0 52 -21 102h-86q-9 24 0 60h65q-24 48 -24 100q0 78 49.5 120.5t142.5 42.5q81 0 146 -28q1 -16 -5.5 -39t-15.5 -36q-51 37 -117 37q-46 0 -73 -13
q-44 -30 -44 -94q0 -50 20 -90h200q10 -33 0 -60z" />
    <glyph glyph-name="yen" unicode="&#xa5;" horiz-adv-x="542" 
d="M476 242h-152v-63v-10h152q5 -24 0 -57h-152q0 -76 6 -112h-104q5 31 7 112h-164q-9 30 0 57h164v4v69h-164q-9 30 0 56h151q-31 55 -66 108.5t-80.5 118.5t-55.5 80h121q9 -19 31 -55t59.5 -96t65.5 -106h4q15 27 40 70.5t36 63t25.5 46.5t23 44.5t14.5 32.5h89
q-146 -229 -191 -307h140q5 -23 0 -56z" />
    <glyph glyph-name="brokenbar" unicode="&#xa6;" horiz-adv-x="234" 
d="M87 282l61 1v-283q-12 -8 -30 -8t-31 8v282zM148 446h-61v258q30 21 61 0v-258z" />
    <glyph glyph-name="section" unicode="&#xa7;" horiz-adv-x="547" 
d="M113 -124q17 37 45 50q13 -31 42.5 -52.5t59.5 -21.5q66 0 66 65q0 29 -25 58t-86 75q-78 57 -110 109.5t-32 119.5q0 61 39 112t89 80q-59 55 -59 114q0 60 47.5 95t101.5 35q42 0 71 -15.5t40 -31.5q1 -10 -12.5 -27.5t-24.5 -24.5q-33 41 -85 41q-28 0 -48 -15
t-20 -49q0 -28 16 -52.5t64 -60.5q4 -3 25.5 -19t26 -20t22.5 -18.5t22.5 -20t18.5 -19.5t18 -22t12.5 -22.5t11.5 -26.5t5.5 -27.5t2.5 -32.5q0 -67 -37 -124t-85 -85q47 -46 57 -95q2 -16 0 -36q-4 -47 -45.5 -82t-101.5 -35q-99 0 -132 81zM293 75q17 12 39.5 43t33.5 65
q8 31 7 54q0 18 -2.5 34.5t-8.5 31t-10.5 25.5t-15.5 24t-16 19.5t-19.5 18.5t-19 15.5t-21.5 16.5t-20 15q-29 -20 -56.5 -61.5t-27.5 -97.5q0 -107 137 -203z" />
    <glyph glyph-name="dieresis" unicode="&#xa8;" horiz-adv-x="383" 
d="M127 592q0 19 13 31.5t33 12.5q19 0 32.5 -12.5t13.5 -31.5q0 -18 -13.5 -30.5t-32.5 -12.5q-20 0 -33 12t-13 31zM319 592q0 18 13.5 31t31.5 13q20 0 33 -12.5t13 -31.5t-13 -31t-33 -12q-18 0 -31.5 12.5t-13.5 30.5z" />
    <glyph glyph-name="copyright" unicode="&#xa9;" horiz-adv-x="711" 
d="M36 248q0 126 78 211.5t202 85.5q126 0 203.5 -85.5t77.5 -211.5q0 -127 -77.5 -212.5t-203.5 -85.5q-124 0 -202 86t-78 212zM305 494q-99 0 -160 -75q-48 -67 -48 -155q0 -120 68 -190.5t165 -70.5q55 0 97 21.5t66 52.5q43 57 43 153q0 126 -64.5 195t-166.5 69z
M327 417q37 0 80 -16q4 -10 1 -29t-10 -30q-29 19 -70 19q-38 0 -60 -20q-31 -33 -31 -91q0 -49 29 -83t79 -34q34 0 70 18q5 -5 10 -18t4 -22q-50 -34 -106 -34q-64 0 -108.5 45.5t-44.5 124.5q0 73 42.5 121.5t114.5 48.5z" />
    <glyph glyph-name="ordfeminine" unicode="&#xaa;" 
d="M398 469v-37q0 -154 7 -187l-81 -7q-6 22 -6 86h-4q-18 -36 -53.5 -61.5t-88.5 -25.5q-51 0 -84.5 28.5t-33.5 72.5q0 64 63.5 94.5t197.5 30.5q0 44 -17.5 71t-66.5 27q-59 0 -136 -43q-8 5 -13 20t-5 25q99 53 181 53q67 0 103.5 -38.5t36.5 -108.5zM135 351
q0 -59 72 -59q37 0 70 30.5t38 66.5v25q-13 3 -45 3q-49 0 -104 -13q-31 -24 -31 -53z" />
    <glyph glyph-name="guillemotleft" unicode="&#xab;" horiz-adv-x="424" 
d="M197 449l-106 -198l96 -183q-10 -13 -27 -18.5t-31 0.5l-108 209l107 195q16 8 35 6t34 -11zM353 446l-108 -189l110 -189q-9 -10 -33 -17t-38 -2l-111 197l116 208q26 14 64 -8z" />
    <glyph glyph-name="logicalnot" unicode="&#xac;" horiz-adv-x="513" 
d="M378 263h-303q-16 29 0 68h367v-219q-38 -13 -64 0v151z" />
    <glyph glyph-name="registered" unicode="&#xae;" horiz-adv-x="563" 
d="M84 484q0 98 61.5 164.5t158.5 66.5q103 0 162.5 -68t59.5 -163t-61.5 -163.5t-160.5 -68.5q-100 0 -160 66t-60 166zM301 665q-76 0 -118 -42.5t-42 -126.5q0 -89 49 -141.5t118 -52.5q81 0 121 45t40 129q0 87 -47.5 138t-120.5 51zM269 369h-18q-27 0 -32 21.5
t-5 99.5v17q0 69 -7 90q50 6 100 6q94 0 94 -69q0 -20 -12.5 -37.5t-34.5 -27.5q20 -43 60 -93q-12 -12 -28 -12q-9 -2 -18 3q-8 4 -15.5 10t-14.5 17t-11 19l-12.5 25t-13.5 25h-36v-39q0 -41 4 -55zM347 529q0 38 -62 38q-8 0 -20 -2v-76q82 -8 82 40z" />
    <glyph glyph-name="macron" unicode="&#xaf;" horiz-adv-x="347" 
d="M32 649h274q5 -11 4.5 -35.5t-6.5 -32.5h-277q-7 11 -5 35t10 33z" />
    <glyph glyph-name="degree" unicode="&#xb0;" horiz-adv-x="420" 
d="M91 560q0 67 41.5 111t108.5 44q68 0 109 -44t41 -111t-41 -111t-109 -44q-67 0 -108.5 44t-41.5 111zM232 659q-30 0 -47 -14q-31 -26 -31 -84q0 -46 26.5 -73.5t64.5 -27.5q27 0 53 14q29 27 29 81q0 48 -25.5 76t-69.5 28z" />
    <glyph glyph-name="plusminus" unicode="&#xb1;" horiz-adv-x="538" 
d="M474 339h-182v-143q-26 -9 -55 0v143h-171q-10 31 0 57h171v190q27 12 55 0v-190h182q8 -30 0 -57zM472 71h-406q-9 34 0 60h406q6 -29 0 -60z" />
    <glyph glyph-name="twosuperior" unicode="&#xb2;" horiz-adv-x="361" 
d="M66 448q-10 1 -21 11t-12 21q21 37 63.5 66t99.5 29q53 0 87 -28t34 -75q0 -117 -185 -190v-3l62 1q68 3 127 12v-72h-280q-7 23 0 54q100 53 129 77q57 47 58 101q0 39 -31 52q-18 7 -40 4q-48 -1 -91 -60z" />
    <glyph glyph-name="threesuperior" unicode="&#xb3;" horiz-adv-x="412" 
d="M57 564h266q7 -32 0 -61l-120 -71q68 0 104 -19.5t36 -70.5q0 -57 -43.5 -95t-100.5 -52.5t-122 -14.5q-15 18 -10 52q79 2 136 27t57 75q0 36 -37.5 47t-120.5 3q-8 22 0 41l128 76v4h-68q-71 0 -105 -5v64z" />
    <glyph glyph-name="acute" unicode="&#xb4;" horiz-adv-x="337" 
d="M491 678l-188 -135l-27 34l163 166q14 -1 33 -24t19 -41z" />
    <glyph glyph-name="mu" unicode="&#xb5;" horiz-adv-x="562" 
d="M80 471h73q-5 -50 -5 -151v-167q16 -37 48.5 -58t70.5 -21q66 0 103 55.5t37 162.5v17q0 54 -5 162h75q-6 -68 -6 -181v-39q0 -181 14 -250l-65 -12q-10 36 -8 118h-6q-10 -53 -50.5 -85.5t-91.5 -32.5q-76 0 -113 60h-3q0 -203 7 -247q-18 -13 -40.5 -12.5t-36.5 12.5
q6 60 6 332v73q0 206 -4 264z" />
    <glyph glyph-name="paragraph" unicode="&#xb6;" horiz-adv-x="543" 
d="M446 -198h-76q6 130 6 405v338q-57 8 -110 0v-338q0 -306 6 -405h-77q7 108 7 372q-66 0 -116 57.5t-50 140.5q0 121 70.5 177t192.5 56h204q9 -27 0 -60h-63v-338q0 -286 6 -405z" />
    <glyph glyph-name="periodcentered" unicode="&#xb7;" horiz-adv-x="194" 
d="M40 278q0 23 16.5 39.5t39.5 16.5q25 0 42.5 -16.5t17.5 -39.5q0 -24 -17 -39.5t-43 -15.5q-24 0 -40 15.5t-16 39.5z" />
    <glyph glyph-name="cedilla" unicode="&#xb8;" horiz-adv-x="163" 
d="M31 -98q-1 26 7 42q49 9 88.5 -10.5t39.5 -71.5q0 -56 -41.5 -92.5t-106.5 -52.5q-13 20 -12 38q40 11 64.5 36.5t24.5 56.5t-19 45t-45 9z" />
    <glyph glyph-name="onesuperior" unicode="&#xb9;" horiz-adv-x="299" 
d="M207 220h-96q6 42 6 115v135q-9 -5 -17 -8.5t-17 -4.5t-13 -1.5t-14 0t-13 0.5q-7 24 0 46q62 0 96 71h63v-246q0 -62 5 -107z" />
    <glyph glyph-name="ordmasculine" unicode="&#xba;" horiz-adv-x="462" 
d="M39 422q0 87 53 140.5t139 53.5q92 0 142 -52.5t50 -141.5q0 -86 -53 -139t-139 -53q-92 0 -142 53.5t-50 138.5zM228 556q-44 0 -67 -20q-15 -14 -27 -44t-12 -68q0 -61 31.5 -98t81.5 -37q41 0 67 21q38 36 38 108q0 64 -31 101t-81 37z" />
    <glyph glyph-name="guillemotright" unicode="&#xbb;" horiz-adv-x="424" 
d="M227 59l106 198l-96 183q10 13 27 18.5t31 -0.5l108 -209l-107 -195q-16 -8 -35 -6t-34 11zM71 62l108 189l-110 189q9 10 33 17t38 2l111 -197l-116 -208q-26 -14 -64 8z" />
    <glyph glyph-name="onequarter" unicode="&#xbc;" horiz-adv-x="717" 
d="M575 570l-413 -581q-31 5 -45 36l410 580q33 -7 48 -35zM196 220h-96q6 42 6 115v135q-9 -5 -17 -8.5t-17 -4.5t-13 -1.5t-14 0t-13 0.5q-7 24 0 46q62 0 96 71h63v-246q0 -62 5 -107zM624 353v-293h49q11 -31 0 -60h-49v-64h-83v64h-206q-11 26 0 54l214 299h75zM402 60
h146v203z" />
    <glyph glyph-name="onehalf" unicode="&#xbd;" horiz-adv-x="773" 
d="M575 570l-413 -581q-31 5 -45 36l410 580q33 -7 48 -35zM196 220h-96q6 42 6 115v135q-9 -5 -17 -8.5t-17 -4.5t-13 -1.5t-14 0t-13 0.5q-7 24 0 46q62 0 96 71h63v-246q0 -62 5 -107zM468 228q-10 1 -21 11t-12 21q21 37 64 66.5t99 29.5q53 0 87 -28.5t34 -75.5
q0 -117 -185 -190v-3l62 1q81 3 127 12v-72h-280q-7 23 0 54q6 3 29 15.5t30.5 17t27.5 16t28 18t22.5 18t21 20.5t14.5 21.5t11 25t3 26.5q0 37 -31 52q-18 7 -40 4q-48 -1 -91 -60z" />
    <glyph glyph-name="threequarters" unicode="&#xbe;" horiz-adv-x="799" 
d="M662 570l-413 -581q-31 5 -45 36l410 580q33 -7 48 -35zM716 353v-293h49q11 -31 0 -60h-49v-64h-83v64h-206q-11 26 0 54l214 299h75zM494 60h146v203zM39 564h266q7 -32 0 -61l-120 -71q68 0 104 -19.5t36 -70.5q0 -57 -43.5 -95t-100.5 -52.5t-122 -14.5
q-15 18 -10 52q79 2 136 27t57 75q0 36 -37.5 47t-120.5 3q-8 22 0 41l128 76v4h-68q-71 0 -105 -5v64z" />
    <glyph glyph-name="questiondown" unicode="&#xbf;" horiz-adv-x="396" 
d="M204 -58q63 0 106 46q13 -7 25.5 -27.5t10.5 -32.5q-61 -65 -160 -65q-77 0 -121 44.5t-44 116.5t45.5 114.5t106.5 60.5q9 25 4 108q37 13 61 -3q0 -75 -11 -105t-46 -49q-40 -22 -61.5 -45.5t-21.5 -62.5q0 -42 25 -71t81 -29zM151 423q0 23 17 39.5t40 16.5
q24 0 42 -16.5t18 -39.5t-18 -38.5t-42 -15.5t-40.5 15.5t-16.5 38.5z" />
    <glyph glyph-name="Agrave" unicode="&#xc0;" horiz-adv-x="570" 
d="M555 0h-107q-14 51 -26 91l-28 83q-30 3 -115 3t-114 -3l-26 -72q-7 -16 -17.5 -52t-15.5 -50h-85q46 106 127 326t97 279h98q25 -84 95.5 -288.5t116.5 -316.5zM282 513l-96 -280q25 -3 93.5 -3t94.5 3l-88 280h-4zM352 680l-171 146q0 18 19.5 38.5t36.5 22.5l151 -170
z" />
    <glyph glyph-name="Aacute" unicode="&#xc1;" horiz-adv-x="570" 
d="M555 0h-107q-14 51 -26 91l-28 83q-30 3 -115 3t-114 -3l-26 -72q-7 -16 -17.5 -52t-15.5 -50h-85q46 106 127 326t97 279h98q25 -84 95.5 -288.5t116.5 -316.5zM282 513l-96 -280q25 -3 93.5 -3t94.5 3l-88 280h-4zM484 812l-188 -135l-27 34l163 166q14 -1 33 -24
t19 -41z" />
    <glyph glyph-name="Acircumflex" unicode="&#xc2;" horiz-adv-x="570" 
d="M555 0h-107q-14 51 -26 91l-28 83q-30 3 -115 3t-114 -3l-26 -72q-7 -16 -17.5 -52t-15.5 -50h-85q46 106 127 326t97 279h98q25 -84 95.5 -288.5t116.5 -316.5zM282 513l-96 -280q25 -3 93.5 -3t94.5 3l-88 280h-4zM312 834l112 -111q-4 -12 -19 -23t-29 -15l-93 82
l-90 -77q-11 1 -22 11t-14 20l119 113q17 9 36 0z" />
    <glyph glyph-name="Atilde" unicode="&#xc3;" horiz-adv-x="570" 
d="M555 0h-107q-14 51 -26 91l-28 83q-30 3 -115 3t-114 -3l-26 -72q-7 -16 -17.5 -52t-15.5 -50h-85q46 106 127 326t97 279h98q25 -84 95.5 -288.5t116.5 -316.5zM282 513l-96 -280q25 -3 93.5 -3t94.5 3l-88 280h-4zM153 764q28 28 50.5 39.5t38 8.5t29.5 -11.5t27.5 -18
t28 -14.5t35 2t45.5 29q9 -5 15.5 -24t3.5 -32q-39 -37 -70 -44.5t-51.5 4.5t-39.5 25.5t-43 12.5t-52 -29q-9 4 -13.5 22t-3.5 30z" />
    <glyph glyph-name="Adieresis" unicode="&#xc4;" horiz-adv-x="570" 
d="M555 0h-107q-14 51 -26 91l-28 83q-30 3 -115 3t-114 -3l-26 -72q-7 -16 -17.5 -52t-15.5 -50h-85q46 106 127 326t97 279h98q25 -84 95.5 -288.5t116.5 -316.5zM282 513l-96 -280q25 -3 93.5 -3t94.5 3l-88 280h-4zM150 726q0 19 13 31.5t33 12.5q19 0 32.5 -12.5
t13.5 -31.5q0 -18 -13.5 -30.5t-32.5 -12.5q-20 0 -33 12t-13 31zM342 726q0 18 13.5 31t31.5 13q20 0 33 -12.5t13 -31.5t-13 -31t-33 -12q-18 0 -31.5 12.5t-13.5 30.5z" />
    <glyph glyph-name="Aring" unicode="&#xc5;" horiz-adv-x="570" 
d="M555 0h-107q-14 51 -26 91l-28 83q-30 3 -115 3t-114 -3l-26 -72q-7 -16 -17.5 -52t-15.5 -50h-85q46 106 127 326t97 279h98q25 -84 95.5 -288.5t116.5 -316.5zM282 513l-96 -280q25 -3 93.5 -3t94.5 3l-88 280h-4zM391 789q0 -54 -30 -80.5t-68 -26.5q-44 0 -72 26.5
t-28 69.5q0 54 34 81t66 27q42 0 70 -27.5t28 -69.5zM240 785q0 -25 15.5 -40.5t41.5 -16.5q2 0 6 0.5t7 0.5q33 4 33 53q0 27 -16 43t-41 16q-8 0 -13.5 -1t-14 -6t-13.5 -17.5t-5 -31.5z" />
    <glyph glyph-name="AE" unicode="&#xc6;" horiz-adv-x="763" 
d="M726 0h-347q4 51 6 175q-35 2 -89 2t-78 -3l-39 -72q-35 -67 -48 -102h-110q61 99 177 318.5t146 286.5h376v-67q-46 4 -244 4v-202q158 0 215 4v-67q-55 4 -215 4v-216q203 0 250 4v-69zM381 513l-141 -280q22 -3 69.5 -3.5t76.5 1.5v49v42q0 122 -2 191h-3z" />
    <glyph glyph-name="Ccedilla" unicode="&#xc7;" horiz-adv-x="519" 
d="M328 618q90 0 141 -22q1 -40 -17 -71q-57 24 -130 24q-69 0 -99 -23q-82 -70 -82 -206q0 -114 54.5 -187t150.5 -73q69 0 122 34q18 -26 18 -54q-75 -51 -169 -51q-121 0 -196 81t-75 232q0 142 78.5 229t203.5 87zM239 -98q-1 26 7 42q49 9 88.5 -10.5t39.5 -71.5
q0 -56 -41.5 -92.5t-106.5 -52.5q-13 20 -12 38q40 11 64.5 36.5t24.5 56.5t-19 45t-45 9z" />
    <glyph glyph-name="Egrave" unicode="&#xc8;" 
d="M421 0h-347q7 63 7 280v42q0 211 -7 283h340v-67q-46 4 -244 4v-202q159 0 216 4v-67q-55 4 -216 4v-216q204 0 251 4v-69zM284 680l-171 146q0 18 19.5 38.5t36.5 22.5l151 -170z" />
    <glyph glyph-name="Eacute" unicode="&#xc9;" 
d="M421 0h-347q7 63 7 280v42q0 211 -7 283h340v-67q-46 4 -244 4v-202q159 0 216 4v-67q-55 4 -216 4v-216q204 0 251 4v-69zM406 812l-188 -135l-27 34l163 166q14 -1 33 -24t19 -41z" />
    <glyph glyph-name="Ecircumflex" unicode="&#xca;" 
d="M421 0h-347q7 63 7 280v42q0 211 -7 283h340v-67q-46 4 -244 4v-202q159 0 216 4v-67q-55 4 -216 4v-216q204 0 251 4v-69zM271 834l112 -111q-4 -12 -19 -23t-29 -15l-93 82l-90 -77q-11 1 -22 11t-14 20l119 113q17 9 36 0z" />
    <glyph glyph-name="Edieresis" unicode="&#xcb;" 
d="M421 0h-347q7 63 7 280v42q0 211 -7 283h340v-67q-46 4 -244 4v-202q159 0 216 4v-67q-55 4 -216 4v-216q204 0 251 4v-69zM103 726q0 19 13 31.5t33 12.5q19 0 32.5 -12.5t13.5 -31.5q0 -18 -13.5 -30.5t-32.5 -12.5q-20 0 -33 12t-13 31zM295 726q0 18 13.5 31t31.5 13
q20 0 33 -12.5t13 -31.5t-13 -31t-33 -12q-18 0 -31.5 12.5t-13.5 30.5z" />
    <glyph glyph-name="Igrave" unicode="&#xcc;" horiz-adv-x="285" 
d="M197 0h-108q8 58 8 275v48q0 235 -8 282h108q-6 -54 -6 -252v-41q0 -243 6 -312zM149 680l-171 146q0 18 19.5 38.5t36.5 22.5l151 -170z" />
    <glyph glyph-name="Iacute" unicode="&#xcd;" horiz-adv-x="285" 
d="M197 0h-108q8 58 8 275v48q0 235 -8 282h108q-6 -54 -6 -252v-41q0 -243 6 -312zM330 812l-188 -135l-27 34l163 166q14 -1 33 -24t19 -41z" />
    <glyph glyph-name="Icircumflex" unicode="&#xce;" horiz-adv-x="285" 
d="M197 0h-108q8 58 8 275v48q0 235 -8 282h108q-6 -54 -6 -252v-41q0 -243 6 -312zM165 834l112 -111q-4 -12 -19 -23t-29 -15l-93 82l-90 -77q-11 1 -22 11t-14 20l119 113q17 9 36 0z" />
    <glyph glyph-name="Idieresis" unicode="&#xcf;" horiz-adv-x="285" 
d="M197 0h-108q8 58 8 275v48q0 235 -8 282h108q-6 -54 -6 -252v-41q0 -243 6 -312zM2 726q0 19 13 31.5t33 12.5q19 0 32.5 -12.5t13.5 -31.5q0 -18 -13.5 -30.5t-32.5 -12.5q-20 0 -33 12t-13 31zM194 726q0 18 13.5 31t31.5 13q20 0 33 -12.5t13 -31.5t-13 -31t-33 -12
q-18 0 -31.5 12.5t-13.5 30.5z" />
    <glyph glyph-name="Eth" unicode="&#xd0;" horiz-adv-x="597" 
d="M103 0q7 84 7 267h-86q-12 37 0 67h86q0 206 -7 271q68 10 154 11q36 0 71 -5q106 -15 166 -91.5t60 -214.5q0 -127 -62 -210.5t-175 -99.5q-37 -6 -80 -6q-83 1 -134 11zM196 550q-5 -77 -5 -216h106q13 -34 0 -67h-106q0 -141 5 -204q13 -10 65 -10q22 -1 47 2
q49 9 81 28q29 23 52 78t23 134q0 123 -51.5 190.5t-151.5 67.5q-50 0 -65 -3z" />
    <glyph glyph-name="Ntilde" unicode="&#xd1;" horiz-adv-x="621" 
d="M74 605h96q10 -31 66.5 -116.5t131.5 -194t109 -165.5h2v203q0 221 -6 273h75q-5 -79 -5 -436v-169h-89q-23 47 -151.5 235.5t-153.5 235.5h-4v-178q0 -237 7 -293h-78q7 63 7 286v42q0 233 -7 277zM172 764q28 28 50.5 39.5t38 8.5t29.5 -11.5t27.5 -18t28 -14.5t35 2
t45.5 29q9 -5 15.5 -24t3.5 -32q-39 -37 -70 -44.5t-51.5 4.5t-39.5 25.5t-43 12.5t-52 -29q-9 4 -13.5 22t-3.5 30z" />
    <glyph glyph-name="Ograve" unicode="&#xd2;" horiz-adv-x="619" 
d="M319 626q115 0 186 -81t71 -232q0 -153 -77 -238.5t-194 -85.5q-111 0 -185 82t-74 228q0 158 80.5 242.5t192.5 84.5zM304 563q-50 0 -84 -23q-29 -26 -54 -81.5t-25 -130.5q0 -133 50.5 -205t126.5 -72q59 0 96 32q26 24 46.5 77t20.5 125q0 135 -47 206.5t-130 71.5z
M319 680l-171 146q0 18 19.5 38.5t36.5 22.5l151 -170z" />
    <glyph glyph-name="Oacute" unicode="&#xd3;" horiz-adv-x="619" 
d="M319 626q115 0 186 -81t71 -232q0 -153 -77 -238.5t-194 -85.5q-111 0 -185 82t-74 228q0 158 80.5 242.5t192.5 84.5zM304 563q-50 0 -84 -23q-29 -26 -54 -81.5t-25 -130.5q0 -133 50.5 -205t126.5 -72q59 0 96 32q26 24 46.5 77t20.5 125q0 135 -47 206.5t-130 71.5z
M486 812l-188 -135l-27 34l163 166q14 -1 33 -24t19 -41z" />
    <glyph glyph-name="Ocircumflex" unicode="&#xd4;" horiz-adv-x="619" 
d="M319 626q115 0 186 -81t71 -232q0 -153 -77 -238.5t-194 -85.5q-111 0 -185 82t-74 228q0 158 80.5 242.5t192.5 84.5zM304 563q-50 0 -84 -23q-29 -26 -54 -81.5t-25 -130.5q0 -133 50.5 -205t126.5 -72q59 0 96 32q26 24 46.5 77t20.5 125q0 135 -47 206.5t-130 71.5z
M335 834l112 -111q-4 -12 -19 -23t-29 -15l-93 82l-90 -77q-11 1 -22 11t-14 20l119 113q17 9 36 0z" />
    <glyph glyph-name="Otilde" unicode="&#xd5;" horiz-adv-x="619" 
d="M319 626q115 0 186 -81t71 -232q0 -153 -77 -238.5t-194 -85.5q-111 0 -185 82t-74 228q0 158 80.5 242.5t192.5 84.5zM304 563q-50 0 -84 -23q-29 -26 -54 -81.5t-25 -130.5q0 -133 50.5 -205t126.5 -72q59 0 96 32q26 24 46.5 77t20.5 125q0 135 -47 206.5t-130 71.5z
M175 764q28 28 50.5 39.5t38 8.5t29.5 -11.5t27.5 -18t28 -14.5t35 2t45.5 29q9 -5 15.5 -24t3.5 -32q-39 -37 -70 -44.5t-51.5 4.5t-39.5 25.5t-43 12.5t-52 -29q-9 4 -13.5 22t-3.5 30z" />
    <glyph glyph-name="Odieresis" unicode="&#xd6;" horiz-adv-x="619" 
d="M319 626q115 0 186 -81t71 -232q0 -153 -77 -238.5t-194 -85.5q-111 0 -185 82t-74 228q0 158 80.5 242.5t192.5 84.5zM304 563q-50 0 -84 -23q-29 -26 -54 -81.5t-25 -130.5q0 -133 50.5 -205t126.5 -72q59 0 96 32q26 24 46.5 77t20.5 125q0 135 -47 206.5t-130 71.5z
M169 726q0 19 13 31.5t33 12.5q19 0 32.5 -12.5t13.5 -31.5q0 -18 -13.5 -30.5t-32.5 -12.5q-20 0 -33 12t-13 31zM361 726q0 18 13.5 31t31.5 13q20 0 33 -12.5t13 -31.5t-13 -31t-33 -12q-18 0 -31.5 12.5t-13.5 30.5z" />
    <glyph glyph-name="multiply" unicode="&#xd7;" horiz-adv-x="549" 
d="M441 413l-132 -138l121 -129q-13 -26 -39 -40l-121 129l-122 -129q-26 13 -38 40l121 129l-132 139q15 30 39 41l132 -140l131 138q24 -11 40 -40z" />
    <glyph glyph-name="Oslash" unicode="&#xd8;" horiz-adv-x="619" 
d="M319 626q69 0 124 -30l27 50q29 -3 50 -30l-31 -54q87 -84 87 -249q0 -153 -77 -238.5t-194 -85.5q-66 0 -123 31l-25 -46q-37 5 -49 31l28 49q-90 85 -90 245q0 158 80.5 242.5t192.5 84.5zM304 563q-50 0 -84 -23q-29 -26 -54 -81.5t-25 -130.5q0 -122 45 -196l222 390
q-43 41 -104 41zM481 285q0 124 -42 197l-221 -391q43 -40 100 -40q59 0 96 32q26 24 46.5 77t20.5 125z" />
    <glyph glyph-name="Ugrave" unicode="&#xd9;" horiz-adv-x="589" 
d="M65 605h100q-7 -37 -7 -199v-45q0 -161 39 -231.5t120 -70.5q52 0 82 28q53 57 53 227v30q0 217 -7 261h86q-6 -56 -6 -207v-69q0 -176 -54 -258t-171 -82q-123 0 -176.5 86t-53.5 252v62q0 174 -5 216zM312 680l-171 146q0 18 19.5 38.5t36.5 22.5l151 -170z" />
    <glyph glyph-name="Uacute" unicode="&#xda;" horiz-adv-x="589" 
d="M65 605h100q-7 -37 -7 -199v-45q0 -161 39 -231.5t120 -70.5q52 0 82 28q53 57 53 227v30q0 217 -7 261h86q-6 -56 -6 -207v-69q0 -176 -54 -258t-171 -82q-123 0 -176.5 86t-53.5 252v62q0 174 -5 216zM486 812l-188 -135l-27 34l163 166q14 -1 33 -24t19 -41z" />
    <glyph glyph-name="Ucircumflex" unicode="&#xdb;" horiz-adv-x="589" 
d="M65 605h100q-7 -37 -7 -199v-45q0 -161 39 -231.5t120 -70.5q52 0 82 28q53 57 53 227v30q0 217 -7 261h86q-6 -56 -6 -207v-69q0 -176 -54 -258t-171 -82q-123 0 -176.5 86t-53.5 252v62q0 174 -5 216zM322 834l112 -111q-4 -12 -19 -23t-29 -15l-93 82l-90 -77
q-11 1 -22 11t-14 20l119 113q17 9 36 0z" />
    <glyph glyph-name="Udieresis" unicode="&#xdc;" horiz-adv-x="589" 
d="M65 605h100q-7 -37 -7 -199v-45q0 -161 39 -231.5t120 -70.5q52 0 82 28q53 57 53 227v30q0 217 -7 261h86q-6 -56 -6 -207v-69q0 -176 -54 -258t-171 -82q-123 0 -176.5 86t-53.5 252v62q0 174 -5 216zM159 726q0 19 13 31.5t33 12.5q19 0 32.5 -12.5t13.5 -31.5
q0 -18 -13.5 -30.5t-32.5 -12.5q-20 0 -33 12t-13 31zM351 726q0 18 13.5 31t31.5 13q20 0 33 -12.5t13 -31.5t-13 -31t-33 -12q-18 0 -31.5 12.5t-13.5 30.5z" />
    <glyph glyph-name="Yacute" unicode="&#xdd;" horiz-adv-x="542" 
d="M295 301h4q126 249 139 304h89q-106 -181 -203 -376v-26q0 -167 6 -203h-104q7 42 7 197v32q-71 138 -215 376h121q5 -20 27.5 -64t66 -123.5t62.5 -116.5zM447 812l-188 -135l-27 34l163 166q14 -1 33 -24t19 -41z" />
    <glyph glyph-name="Thorn" unicode="&#xde;" horiz-adv-x="499" 
d="M175 0h-101q7 55 7 305v44q0 302 -6 353q15 4 49 5.5t48 -2.5q-2 -34 -2 -93q44 4 77 4q108 0 163.5 -50.5t55.5 -137.5q0 -58 -22.5 -101t-59.5 -66t-78 -34t-85 -11q-35 0 -51 3q0 -183 5 -219zM378 418q0 65 -36.5 101.5t-101.5 36.5q-52 0 -70 -4v-270q18 -7 53 -7
q63 0 96 19q24 18 41.5 50.5t17.5 73.5z" />
    <glyph glyph-name="germandbls" unicode="&#xdf;" horiz-adv-x="601" 
d="M363 412q-22 -30 -22 -46q0 -23 23 -43.5t56 -37.5t66 -36.5t56 -51.5t23 -72q0 -59 -49.5 -97.5t-125.5 -38.5q-48 0 -87 19t-57 39q-1 17 7.5 33.5t22.5 25.5q16 -24 48.5 -40.5t66.5 -16.5q44 0 63 14q25 20 25 56q0 29 -23 52.5t-55.5 41t-65.5 36.5t-56 48t-23 66
q0 26 15 52.5t33 46t33 51t15 66.5q0 34 -23 55t-55 21q-40 0 -58 -22q-26 -45 -25 -162v-206q0 -185 6 -265h-97q8 91 8 272v139h-70q-4 11 -4 30t4 30h68q-6 124 40.5 184t128.5 60q71 0 115.5 -39.5t44.5 -103.5q0 -30 -11.5 -59.5t-23 -47.5t-37.5 -53z" />
    <glyph glyph-name="agrave" unicode="&#xe0;" horiz-adv-x="485" 
d="M416 302v-101q0 -166 7 -201l-81 -8q-4 19 -7 78h-3q-24 -32 -65 -55.5t-94 -23.5q-56 0 -93.5 34.5t-37.5 92.5q0 83 67.5 118.5t220.5 37.5q1 80 -20 114.5t-81 34.5q-66 0 -143 -42q-18 16 -18 50q108 52 196 52q77 0 114.5 -41.5t37.5 -139.5zM129 136q0 -41 25 -63
t58 -22q37 0 69 18.5t50 47.5v98q-37 8 -57 8q-89 0 -121 -24q-24 -27 -24 -63zM305 546l-171 146q0 18 19.5 38.5t36.5 22.5l151 -170z" />
    <glyph glyph-name="aacute" unicode="&#xe1;" horiz-adv-x="485" 
d="M416 302v-101q0 -166 7 -201l-81 -8q-4 19 -7 78h-3q-24 -32 -65 -55.5t-94 -23.5q-56 0 -93.5 34.5t-37.5 92.5q0 83 67.5 118.5t220.5 37.5q1 80 -20 114.5t-81 34.5q-66 0 -143 -42q-18 16 -18 50q108 52 196 52q77 0 114.5 -41.5t37.5 -139.5zM129 136q0 -41 25 -63
t58 -22q37 0 69 18.5t50 47.5v98q-37 8 -57 8q-89 0 -121 -24q-24 -27 -24 -63zM399 678l-188 -135l-27 34l163 166q14 -1 33 -24t19 -41z" />
    <glyph glyph-name="acircumflex" unicode="&#xe2;" horiz-adv-x="485" 
d="M416 302v-101q0 -166 7 -201l-81 -8q-4 19 -7 78h-3q-24 -32 -65 -55.5t-94 -23.5q-56 0 -93.5 34.5t-37.5 92.5q0 83 67.5 118.5t220.5 37.5q1 80 -20 114.5t-81 34.5q-66 0 -143 -42q-18 16 -18 50q108 52 196 52q77 0 114.5 -41.5t37.5 -139.5zM129 136q0 -41 25 -63
t58 -22q37 0 69 18.5t50 47.5v98q-37 8 -57 8q-89 0 -121 -24q-24 -27 -24 -63zM264 700l112 -111q-4 -12 -19 -23t-29 -15l-93 82l-90 -77q-11 1 -22 11t-14 20l119 113q17 9 36 0z" />
    <glyph glyph-name="atilde" unicode="&#xe3;" horiz-adv-x="485" 
d="M416 302v-101q0 -166 7 -201l-81 -8q-4 19 -7 78h-3q-24 -32 -65 -55.5t-94 -23.5q-56 0 -93.5 34.5t-37.5 92.5q0 83 67.5 118.5t220.5 37.5q1 80 -20 114.5t-81 34.5q-66 0 -143 -42q-18 16 -18 50q108 52 196 52q77 0 114.5 -41.5t37.5 -139.5zM129 136q0 -41 25 -63
t58 -22q37 0 69 18.5t50 47.5v98q-37 8 -57 8q-89 0 -121 -24q-24 -27 -24 -63zM104 630q28 28 50.5 39.5t38 8.5t29.5 -11.5t27.5 -18t28 -14.5t35 2t45.5 29q9 -5 15.5 -24t3.5 -32q-39 -37 -70 -44.5t-51.5 4.5t-39.5 25.5t-43 12.5t-52 -29q-9 4 -13.5 22t-3.5 30z" />
    <glyph glyph-name="adieresis" unicode="&#xe4;" horiz-adv-x="485" 
d="M416 302v-101q0 -166 7 -201l-81 -8q-4 19 -7 78h-3q-24 -32 -65 -55.5t-94 -23.5q-56 0 -93.5 34.5t-37.5 92.5q0 83 67.5 118.5t220.5 37.5q1 80 -20 114.5t-81 34.5q-66 0 -143 -42q-18 16 -18 50q108 52 196 52q77 0 114.5 -41.5t37.5 -139.5zM129 136q0 -41 25 -63
t58 -22q37 0 69 18.5t50 47.5v98q-37 8 -57 8q-89 0 -121 -24q-24 -27 -24 -63zM104 592q0 19 13 31.5t33 12.5q19 0 32.5 -12.5t13.5 -31.5q0 -18 -13.5 -30.5t-32.5 -12.5q-20 0 -33 12t-13 31zM296 592q0 18 13.5 31t31.5 13q20 0 33 -12.5t13 -31.5t-13 -31t-33 -12
q-18 0 -31.5 12.5t-13.5 30.5z" />
    <glyph glyph-name="aring" unicode="&#xe5;" horiz-adv-x="485" 
d="M416 302v-101q0 -166 7 -201l-81 -8q-4 19 -7 78h-3q-24 -32 -65 -55.5t-94 -23.5q-56 0 -93.5 34.5t-37.5 92.5q0 83 67.5 118.5t220.5 37.5q1 80 -20 114.5t-81 34.5q-66 0 -143 -42q-18 16 -18 50q108 52 196 52q77 0 114.5 -41.5t37.5 -139.5zM129 136q0 -41 25 -63
t58 -22q37 0 69 18.5t50 47.5v98q-37 8 -57 8q-89 0 -121 -24q-24 -27 -24 -63zM343 655q0 -54 -30 -80.5t-68 -26.5q-44 0 -72 26.5t-28 69.5q0 54 34 81t66 27q42 0 70 -27.5t28 -69.5zM192 651q0 -25 15.5 -40.5t41.5 -16.5q2 0 6 0.5t7 0.5q33 4 33 53q0 27 -16 43
t-41 16q-8 0 -13.5 -1t-14 -6t-13.5 -17.5t-5 -31.5z" />
    <glyph glyph-name="ae" unicode="&#xe6;" horiz-adv-x="784" 
d="M128 139q0 -42 25 -65t58 -23q42 0 75 30t45 66v85q-14 4 -57 4q-72 0 -113 -24q-33 -30 -33 -73zM362 95h-4q-22 -39 -67 -71.5t-111 -32.5q-60 0 -99 34t-39 91q0 85 68 126.5t220 48.5q0 63 -22 97.5t-76 34.5q-71 0 -147 -44q-18 18 -18 49q103 55 197 55
q101 0 129 -85q58 87 169 87q86 0 132.5 -49t46.5 -114q0 -34 -10 -59q-112 -26 -241 -32l-73 -6q3 -88 47 -129.5t115 -41.5q76 0 131 36q15 -19 15 -42q-23 -22 -72 -39.5t-103 -17.5q-57 0 -108 26.5t-80 77.5zM418 275q37 0 124.5 6.5t106.5 13.5q6 12 6 29q0 46 -31 75
t-77 29q-50 0 -82 -24q-17 -16 -32 -57t-15 -72z" />
    <glyph glyph-name="ccedilla" unicode="&#xe7;" horiz-adv-x="447" 
d="M272 484q54 0 90 -12.5t49 -27.5q-1 -13 -11.5 -32t-23.5 -29q-46 39 -116 39q-51 0 -78 -24q-50 -50 -50 -138q0 -93 46.5 -151t124.5 -58q51 0 100 26q14 -18 12 -43q-21 -18 -64 -31.5t-87 -13.5q-99 0 -159.5 67.5t-60.5 179.5q0 110 66.5 179t161.5 69zM191 -98
q-1 26 7 42q49 9 88.5 -10.5t39.5 -71.5q0 -56 -41.5 -92.5t-106.5 -52.5q-13 20 -12 38q40 11 64.5 36.5t24.5 56.5t-19 45t-45 9z" />
    <glyph glyph-name="egrave" unicode="&#xe8;" horiz-adv-x="495" 
d="M272 484q86 0 133 -48.5t47 -113.5q0 -29 -10 -59q-116 -26 -241 -32l-73 -6q3 -88 47 -129.5t115 -41.5q80 0 130 36q16 -18 16 -42q-22 -22 -71 -39.5t-103 -17.5q-103 0 -160.5 65.5t-57.5 178.5q0 103 60 176t168 73zM129 275q39 0 125 6t105 13q7 10 7 30
q0 46 -31 75t-77 29t-82 -23q-17 -17 -32 -58t-15 -72zM314 546l-171 146q0 18 19.5 38.5t36.5 22.5l151 -170z" />
    <glyph glyph-name="eacute" unicode="&#xe9;" horiz-adv-x="495" 
d="M272 484q86 0 133 -48.5t47 -113.5q0 -29 -10 -59q-116 -26 -241 -32l-73 -6q3 -88 47 -129.5t115 -41.5q80 0 130 36q16 -18 16 -42q-22 -22 -71 -39.5t-103 -17.5q-103 0 -160.5 65.5t-57.5 178.5q0 103 60 176t168 73zM129 275q39 0 125 6t105 13q7 10 7 30
q0 46 -31 75t-77 29t-82 -23q-17 -17 -32 -58t-15 -72zM423 678l-188 -135l-27 34l163 166q14 -1 33 -24t19 -41z" />
    <glyph glyph-name="ecircumflex" unicode="&#xea;" horiz-adv-x="495" 
d="M272 484q86 0 133 -48.5t47 -113.5q0 -29 -10 -59q-116 -26 -241 -32l-73 -6q3 -88 47 -129.5t115 -41.5q80 0 130 36q16 -18 16 -42q-22 -22 -71 -39.5t-103 -17.5q-103 0 -160.5 65.5t-57.5 178.5q0 103 60 176t168 73zM129 275q39 0 125 6t105 13q7 10 7 30
q0 46 -31 75t-77 29t-82 -23q-17 -17 -32 -58t-15 -72zM274 700l112 -111q-4 -12 -19 -23t-29 -15l-93 82l-90 -77q-11 1 -22 11t-14 20l119 113q17 9 36 0z" />
    <glyph glyph-name="edieresis" unicode="&#xeb;" horiz-adv-x="495" 
d="M272 484q86 0 133 -48.5t47 -113.5q0 -29 -10 -59q-116 -26 -241 -32l-73 -6q3 -88 47 -129.5t115 -41.5q80 0 130 36q16 -18 16 -42q-22 -22 -71 -39.5t-103 -17.5q-103 0 -160.5 65.5t-57.5 178.5q0 103 60 176t168 73zM129 275q39 0 125 6t105 13q7 10 7 30
q0 46 -31 75t-77 29t-82 -23q-17 -17 -32 -58t-15 -72zM117 592q0 19 13 31.5t33 12.5q19 0 32.5 -12.5t13.5 -31.5q0 -18 -13.5 -30.5t-32.5 -12.5q-20 0 -33 12t-13 31zM309 592q0 18 13.5 31t31.5 13q20 0 33 -12.5t13 -31.5t-13 -31t-33 -12q-18 0 -31.5 12.5
t-13.5 30.5z" />
    <glyph glyph-name="igrave" unicode="&#xec;" horiz-adv-x="273" 
d="M92 230v36q0 151 -9 205h106q-8 -56 -8 -208v-33q0 -174 8 -230h-106q9 62 9 230zM168 546l-171 146q0 18 19.5 38.5t36.5 22.5l151 -170z" />
    <glyph glyph-name="iacute" unicode="&#xed;" horiz-adv-x="273" 
d="M92 230v36q0 151 -9 205h106q-8 -56 -8 -208v-33q0 -174 8 -230h-106q9 62 9 230zM320 678l-188 -135l-27 34l163 166q14 -1 33 -24t19 -41z" />
    <glyph glyph-name="icircumflex" unicode="&#xee;" horiz-adv-x="273" 
d="M92 230v36q0 151 -9 205h106q-8 -56 -8 -208v-33q0 -174 8 -230h-106q9 62 9 230zM159 700l112 -111q-4 -12 -19 -23t-29 -15l-93 82l-90 -77q-11 1 -22 11t-14 20l119 113q17 9 36 0z" />
    <glyph glyph-name="idieresis" unicode="&#xef;" horiz-adv-x="273" 
d="M92 230v36q0 151 -9 205h106q-8 -56 -8 -208v-33q0 -174 8 -230h-106q9 62 9 230zM-5 592q0 19 13 31.5t33 12.5q19 0 32.5 -12.5t13.5 -31.5q0 -18 -13.5 -30.5t-32.5 -12.5q-20 0 -33 12t-13 31zM187 592q0 18 13.5 31t31.5 13q20 0 33 -12.5t13 -31.5t-13 -31t-33 -12
q-18 0 -31.5 12.5t-13.5 30.5z" />
    <glyph glyph-name="eth" unicode="&#xf0;" horiz-adv-x="528" 
d="M266 472q70 0 101 -30l1 2q-27 81 -88 145l-75 -73q-10 7 -20.5 20t-12.5 22l75 63q-41 35 -87 55q2 17 13 30.5t27 16.5q46 -17 97 -56l72 78q22 -13 37 -45l-74 -63q154 -144 154 -368q0 -134 -60.5 -207t-155.5 -73q-106 0 -166 67t-60 173q0 112 63 177.5t159 65.5z
M260 412q-60 0 -88 -30q-43 -45 -43 -133q0 -92 41 -146t109 -54q39 0 64 20q57 52 57 172q0 76 -19 130q-42 41 -121 41z" />
    <glyph glyph-name="ntilde" unicode="&#xf1;" horiz-adv-x="539" 
d="M478 0h-97q8 35 8 206v44q0 97 -20 136t-74 39q-38 0 -73 -21t-59 -54v-74q0 -140 7 -276h-97q7 78 7 239v22q0 127 -9 208l91 11q0 -27 -2 -73h4q74 81 168 81q75 0 107.5 -48t32.5 -147v-67q0 -185 6 -226zM130 630q28 28 50.5 39.5t38 8.5t29.5 -11.5t27.5 -18
t28 -14.5t35 2t45.5 29q9 -5 15.5 -24t3.5 -32q-39 -37 -70 -44.5t-51.5 4.5t-39.5 25.5t-43 12.5t-52 -29q-9 4 -13.5 22t-3.5 30z" />
    <glyph glyph-name="ograve" unicode="&#xf2;" horiz-adv-x="528" 
d="M275 488q100 0 155 -67.5t55 -181.5q0 -111 -62 -180.5t-159 -69.5q-103 0 -162 67t-59 176q0 115 65 185.5t167 70.5zM259 428q-58 0 -86 -28q-44 -46 -44 -143q0 -99 40.5 -153.5t109.5 -54.5q36 0 71 23q50 48 50 154q0 88 -35 145t-106 57zM286 546l-171 146
q0 18 19.5 38.5t36.5 22.5l151 -170z" />
    <glyph glyph-name="oacute" unicode="&#xf3;" horiz-adv-x="528" 
d="M275 488q100 0 155 -67.5t55 -181.5q0 -111 -62 -180.5t-159 -69.5q-103 0 -162 67t-59 176q0 115 65 185.5t167 70.5zM259 428q-58 0 -86 -28q-44 -46 -44 -143q0 -99 40.5 -153.5t109.5 -54.5q36 0 71 23q50 48 50 154q0 88 -35 145t-106 57zM440 678l-188 -135l-27 34
l163 166q14 -1 33 -24t19 -41z" />
    <glyph glyph-name="ocircumflex" unicode="&#xf4;" horiz-adv-x="528" 
d="M275 488q100 0 155 -67.5t55 -181.5q0 -111 -62 -180.5t-159 -69.5q-103 0 -162 67t-59 176q0 115 65 185.5t167 70.5zM259 428q-58 0 -86 -28q-44 -46 -44 -143q0 -99 40.5 -153.5t109.5 -54.5q36 0 71 23q50 48 50 154q0 88 -35 145t-106 57zM286 700l112 -111
q-4 -12 -19 -23t-29 -15l-93 82l-90 -77q-11 1 -22 11t-14 20l119 113q17 9 36 0z" />
    <glyph glyph-name="otilde" unicode="&#xf5;" horiz-adv-x="528" 
d="M275 488q100 0 155 -67.5t55 -181.5q0 -111 -62 -180.5t-159 -69.5q-103 0 -162 67t-59 176q0 115 65 185.5t167 70.5zM259 428q-58 0 -86 -28q-44 -46 -44 -143q0 -99 40.5 -153.5t109.5 -54.5q36 0 71 23q50 48 50 154q0 88 -35 145t-106 57zM126 630q28 28 50.5 39.5
t38 8.5t29.5 -11.5t27.5 -18t28 -14.5t35 2t45.5 29q9 -5 15.5 -24t3.5 -32q-39 -37 -70 -44.5t-51.5 4.5t-39.5 25.5t-43 12.5t-52 -29q-9 4 -13.5 22t-3.5 30z" />
    <glyph glyph-name="odieresis" unicode="&#xf6;" horiz-adv-x="528" 
d="M275 488q100 0 155 -67.5t55 -181.5q0 -111 -62 -180.5t-159 -69.5q-103 0 -162 67t-59 176q0 115 65 185.5t167 70.5zM259 428q-58 0 -86 -28q-44 -46 -44 -143q0 -99 40.5 -153.5t109.5 -54.5q36 0 71 23q50 48 50 154q0 88 -35 145t-106 57zM123 592q0 19 13 31.5
t33 12.5q19 0 32.5 -12.5t13.5 -31.5q0 -18 -13.5 -30.5t-32.5 -12.5q-20 0 -33 12t-13 31zM315 592q0 18 13.5 31t31.5 13q20 0 33 -12.5t13 -31.5t-13 -31t-33 -12q-18 0 -31.5 12.5t-13.5 30.5z" />
    <glyph glyph-name="divide" unicode="&#xf7;" horiz-adv-x="532" 
d="M210 472q0 20 15 35t36 15q22 0 37 -15t15 -35q0 -21 -15 -35t-37 -14t-36.5 13.5t-14.5 35.5zM210 115q0 21 14.5 36t36.5 15t37 -15t15 -36t-15 -34.5t-37 -13.5t-36.5 13.5t-14.5 34.5zM474 269h-407q-9 32 0 60h407q5 -25 0 -60z" />
    <glyph glyph-name="oslash" unicode="&#xf8;" horiz-adv-x="528" 
d="M276 488q48 0 87 -17l32 55q33 -6 49 -31l-32 -55q74 -68 74 -201q0 -111 -62 -180.5t-159 -69.5q-52 0 -96 19l-29 -54q-38 3 -50 31l30 54q-76 65 -76 193q0 115 65 185.5t167 70.5zM260 428q-58 0 -86 -28q-44 -46 -44 -143q0 -92 36 -147l167 296q-31 22 -73 22z
M401 226q0 88 -34 143l-168 -295q34 -25 81 -25q36 0 71 23q50 48 50 154z" />
    <glyph glyph-name="ugrave" unicode="&#xf9;" horiz-adv-x="532" 
d="M58 471h97q-6 -28 -6 -208v-44q0 -93 21 -130.5t75 -37.5q71 0 124 69v79q0 175 -7 272h97q-7 -77 -7 -237v-27q0 -125 10 -207l-85 -9q-3 27 -5 83h-3q-24 -35 -64.5 -60t-93.5 -25q-78 0 -111.5 46t-33.5 143v61q0 182 -8 232zM264 546l-171 146q0 18 19.5 38.5
t36.5 22.5l151 -170z" />
    <glyph glyph-name="uacute" unicode="&#xfa;" horiz-adv-x="532" 
d="M58 471h97q-6 -28 -6 -208v-44q0 -93 21 -130.5t75 -37.5q71 0 124 69v79q0 175 -7 272h97q-7 -77 -7 -237v-27q0 -125 10 -207l-85 -9q-3 27 -5 83h-3q-24 -35 -64.5 -60t-93.5 -25q-78 0 -111.5 46t-33.5 143v61q0 182 -8 232zM427 678l-188 -135l-27 34l163 166
q14 -1 33 -24t19 -41z" />
    <glyph glyph-name="ucircumflex" unicode="&#xfb;" horiz-adv-x="532" 
d="M58 471h97q-6 -28 -6 -208v-44q0 -93 21 -130.5t75 -37.5q71 0 124 69v79q0 175 -7 272h97q-7 -77 -7 -237v-27q0 -125 10 -207l-85 -9q-3 27 -5 83h-3q-24 -35 -64.5 -60t-93.5 -25q-78 0 -111.5 46t-33.5 143v61q0 182 -8 232zM287 700l112 -111q-4 -12 -19 -23
t-29 -15l-93 82l-90 -77q-11 1 -22 11t-14 20l119 113q17 9 36 0z" />
    <glyph glyph-name="udieresis" unicode="&#xfc;" horiz-adv-x="532" 
d="M58 471h97q-6 -28 -6 -208v-44q0 -93 21 -130.5t75 -37.5q71 0 124 69v79q0 175 -7 272h97q-7 -77 -7 -237v-27q0 -125 10 -207l-85 -9q-3 27 -5 83h-3q-24 -35 -64.5 -60t-93.5 -25q-78 0 -111.5 46t-33.5 143v61q0 182 -8 232zM114 592q0 19 13 31.5t33 12.5
q19 0 32.5 -12.5t13.5 -31.5q0 -18 -13.5 -30.5t-32.5 -12.5q-20 0 -33 12t-13 31zM306 592q0 18 13.5 31t31.5 13q20 0 33 -12.5t13 -31.5t-13 -31t-33 -12q-18 0 -31.5 12.5t-13.5 30.5z" />
    <glyph glyph-name="yacute" unicode="&#xfd;" horiz-adv-x="460" 
d="M19 471h107q19 -85 133 -391h5q23 57 58.5 185t52.5 206h81q-16 -42 -49.5 -143t-43.5 -131l-37 -107q-82 -237 -131 -302q-19 1 -39 14.5t-25 31.5q47 47 103 166h-25q-17 40 -190 471zM421 678l-188 -135l-27 34l163 166q14 -1 33 -24t19 -41z" />
    <glyph glyph-name="thorn" unicode="&#xfe;" horiz-adv-x="527" 
d="M73 698q17 6 47 8t50 -3q-9 -118 -11 -304l2 -2q24 35 62 57.5t83 22.5q82 0 130.5 -57t48.5 -162q0 -124 -76 -196.5t-183 -72.5q-30 0 -64 8v-28q0 -110 6 -167h-97q8 68 8 322v275q0 198 -6 299zM162 345v-287q27 -13 69 -13q67 0 105 31q58 54 58 170q0 81 -30 125
t-86 46q-50 0 -87 -39q-18 -13 -29 -33z" />
    <glyph glyph-name="ydieresis" unicode="&#xff;" horiz-adv-x="460" 
d="M19 471h107q19 -85 133 -391h5q23 57 58.5 185t52.5 206h81q-16 -42 -49.5 -143t-43.5 -131l-37 -107q-82 -237 -131 -302q-19 1 -39 14.5t-25 31.5q47 47 103 166h-25q-17 40 -190 471zM95 592q0 19 13 31.5t33 12.5q19 0 32.5 -12.5t13.5 -31.5q0 -18 -13.5 -30.5
t-32.5 -12.5q-20 0 -33 12t-13 31zM287 592q0 18 13.5 31t31.5 13q20 0 33 -12.5t13 -31.5t-13 -31t-33 -12q-18 0 -31.5 12.5t-13.5 30.5z" />
    <glyph glyph-name="Amacron" unicode="&#x100;" horiz-adv-x="570" 
d="M555 0h-107q-14 51 -26 91l-28 83q-30 3 -115 3t-114 -3l-26 -72q-7 -16 -17.5 -52t-15.5 -50h-85q46 106 127 326t97 279h98q25 -84 95.5 -288.5t116.5 -316.5zM282 513l-96 -280q25 -3 93.5 -3t94.5 3l-88 280h-4zM153 731h274q5 -11 4.5 -35.5t-6.5 -32.5h-277
q-7 11 -5 35t10 33z" />
    <glyph glyph-name="amacron" unicode="&#x101;" horiz-adv-x="486" 
d="M416 302v-101q0 -166 7 -201l-81 -8q-4 19 -7 78h-3q-24 -32 -65 -55.5t-94 -23.5q-56 0 -93.5 34.5t-37.5 92.5q0 83 67.5 118.5t220.5 37.5q1 80 -20 114.5t-81 34.5q-66 0 -143 -42q-18 16 -18 50q108 52 196 52q77 0 114.5 -41.5t37.5 -139.5zM129 136q0 -41 25 -63
t58 -22q37 0 69 18.5t50 47.5v98q-37 8 -57 8q-89 0 -121 -24q-24 -27 -24 -63zM112 649h274q5 -11 4.5 -35.5t-6.5 -32.5h-277q-7 11 -5 35t10 33z" />
    <glyph glyph-name="Aogonek" unicode="&#x104;" horiz-adv-x="570" 
d="M555 0h-22q-38 -26 -65 -63t-27 -75q0 -27 15.5 -43t37.5 -16q26 0 63 16q11 -10 15 -31q-37 -27 -100 -37q-47 0 -73 23t-26 63q0 48 34.5 93t81.5 70h-41q-14 51 -26 91l-28 83q-30 3 -115 3t-114 -3l-26 -72q-7 -16 -17.5 -52t-15.5 -50h-85q46 106 127 326t97 279h98
q24 -80 92 -279t115 -314h2q-1 -1 -2 -1q1 -1 2.5 -5t2.5 -6zM282 513l-96 -280q25 -3 93.5 -3t94.5 3l-88 280h-4z" />
    <glyph glyph-name="aogonek" unicode="&#x105;" horiz-adv-x="486" 
d="M416 302v-101q0 -166 7 -201l-22 -2q-39 -26 -66 -63t-27 -76q0 -27 15.5 -43t37.5 -16q26 0 63 16q11 -10 15 -31q-37 -27 -100 -37q-47 0 -73 23t-26 63q0 46 32 89.5t76 69.5l-6 -1q-4 19 -7 78h-3q-24 -32 -65 -55.5t-94 -23.5q-56 0 -93.5 34.5t-37.5 92.5
q0 83 67.5 118.5t220.5 37.5q1 80 -20 114.5t-81 34.5q-66 0 -143 -42q-18 16 -18 50q108 52 196 52q77 0 114.5 -41.5t37.5 -139.5zM129 136q0 -41 25 -63t58 -22q37 0 69 18.5t50 47.5v98q-37 8 -57 8q-89 0 -121 -24q-24 -27 -24 -63z" />
    <glyph glyph-name="Cacute" unicode="&#x106;" horiz-adv-x="519" 
d="M328 618q90 0 141 -22q1 -40 -17 -71q-57 24 -130 24q-69 0 -99 -23q-82 -70 -82 -206q0 -114 54.5 -187t150.5 -73q69 0 122 34q18 -26 18 -54q-75 -51 -169 -51q-121 0 -196 81t-75 232q0 142 78.5 229t203.5 87zM491 779l-188 -135l-27 34l163 166q14 -1 33 -24
t19 -41z" />
    <glyph glyph-name="cacute" unicode="&#x107;" horiz-adv-x="447" 
d="M272 484q54 0 90 -12.5t49 -27.5q-1 -13 -11.5 -32t-23.5 -29q-46 39 -116 39q-51 0 -78 -24q-50 -50 -50 -138q0 -93 46.5 -151t124.5 -58q51 0 100 26q14 -18 12 -43q-21 -18 -64 -31.5t-87 -13.5q-99 0 -159.5 67.5t-60.5 179.5q0 110 66.5 179t161.5 69zM439 678
l-188 -135l-27 34l163 166q14 -1 33 -24t19 -41z" />
    <glyph glyph-name="Ccaron" unicode="&#x10c;" horiz-adv-x="519" 
d="M328 618q90 0 141 -22q1 -40 -17 -71q-57 24 -130 24q-69 0 -99 -23q-82 -70 -82 -206q0 -114 54.5 -187t150.5 -73q69 0 122 34q18 -26 18 -54q-75 -51 -169 -51q-121 0 -196 81t-75 232q0 142 78.5 229t203.5 87zM298 649l-128 141q3 13 15.5 26t26.5 18l107 -109
l101 102q10 -1 21.5 -12t17.5 -24l-130 -142h-31z" />
    <glyph glyph-name="ccaron" unicode="&#x10d;" horiz-adv-x="447" 
d="M272 484q54 0 90 -12.5t49 -27.5q-1 -13 -11.5 -32t-23.5 -29q-46 39 -116 39q-51 0 -78 -24q-50 -50 -50 -138q0 -93 46.5 -151t124.5 -58q51 0 100 26q14 -18 12 -43q-21 -18 -64 -31.5t-87 -13.5q-99 0 -159.5 67.5t-60.5 179.5q0 110 66.5 179t161.5 69zM242 545
l-128 141q3 13 15.5 26t26.5 18l107 -109l101 102q10 -1 21.5 -12t17.5 -24l-130 -142h-31z" />
    <glyph glyph-name="Dcaron" unicode="&#x10e;" horiz-adv-x="569" 
d="M74 0q7 76 7 280v42q0 225 -7 283q68 10 154 11q34 0 71 -5q107 -15 166.5 -91t59.5 -215q0 -131 -61 -212.5t-176 -97.5q-38 -6 -80 -6q-83 1 -134 11zM167 550q-4 -79 -4 -249.5t4 -238.5q14 -8 67 -10q23 0 47 3q50 8 79 27q30 24 53 78t23 135q0 126 -51.5 192
t-151.5 66q-50 0 -66 -3zM229 646l-128 141q3 13 15.5 26t26.5 18l107 -109l101 102q10 -1 21.5 -12t17.5 -24l-130 -142h-31z" />
    <glyph glyph-name="dcaron" unicode="&#x10f;" horiz-adv-x="622" 
d="M453 -1l-83 -7q-1 25 -3 73l-1 1q-20 -31 -52 -51.5t-69 -22.5q-21 -2 -51 1q-67 11 -108.5 66.5t-41.5 148.5q0 128 71 199t167 71q47 0 81 -13v37q0 120 -6 198q49 14 92 2q0 -6 -2 -154t-2 -210v-104q0 -157 8 -235zM363 114v288q-34 21 -84 21q-53 0 -89 -26
q-58 -58 -58 -172q0 -82 35 -129t92 -47q30 0 58 17.5t46 47.5zM492 582q0 22 16.5 37.5t41.5 15.5q28 0 44.5 -21.5t16.5 -61.5q0 -64 -36 -103.5t-82 -41.5q-6 17 -2 39q26 -1 48.5 27t17.5 62q-24 -11 -44.5 4t-20.5 43z" />
    <glyph glyph-name="Dcroat" unicode="&#x110;" horiz-adv-x="597" 
d="M103 0q7 84 7 267h-86q-12 37 0 67h86q0 206 -7 271q68 10 154 11q36 0 71 -5q106 -15 166 -91.5t60 -214.5q0 -127 -62 -210.5t-175 -99.5q-37 -6 -80 -6q-83 1 -134 11zM196 550q-5 -77 -5 -216h106q13 -34 0 -67h-106q0 -141 5 -204q13 -10 65 -10q22 -1 47 2
q49 9 81 28q29 23 52 78t23 134q0 123 -51.5 190.5t-151.5 67.5q-50 0 -65 -3z" />
    <glyph glyph-name="dcroat" unicode="&#x111;" horiz-adv-x="524" 
d="M453 -1l-83 -7q-1 25 -3 73l-1 1q-20 -31 -52 -51.5t-69 -22.5q-21 -2 -51 1q-67 11 -108.5 66.5t-41.5 148.5q0 128 71 199t167 71q47 0 81 -13v37v49h-108q-11 29 0 55h106q-2 68 -4 94q49 14 92 2l-2 -96h57q7 -27 0 -55h-57q-2 -150 -2 -213v-104q0 -157 8 -235z
M363 114v288q-34 21 -84 21q-53 0 -89 -26q-58 -58 -58 -172q0 -82 35 -129t92 -47q30 0 58 17.5t46 47.5z" />
    <glyph glyph-name="Emacron" unicode="&#x112;" 
d="M421 0h-347q7 63 7 280v42q0 211 -7 283h340v-67q-46 4 -244 4v-202q159 0 216 4v-67q-55 4 -216 4v-216q204 0 251 4v-69zM110 731h274q5 -11 4.5 -35.5t-6.5 -32.5h-277q-7 11 -5 35t10 33z" />
    <glyph glyph-name="emacron" unicode="&#x113;" horiz-adv-x="495" 
d="M272 484q86 0 133 -48.5t47 -113.5q0 -29 -10 -59q-116 -26 -241 -32l-73 -6q3 -88 47 -129.5t115 -41.5q80 0 130 36q16 -18 16 -42q-22 -22 -71 -39.5t-103 -17.5q-103 0 -160.5 65.5t-57.5 178.5q0 103 60 176t168 73zM129 275q39 0 125 6t105 13q7 10 7 30
q0 46 -31 75t-77 29t-82 -23q-17 -17 -32 -58t-15 -72zM125 649h274q5 -11 4.5 -35.5t-6.5 -32.5h-277q-7 11 -5 35t10 33z" />
    <glyph glyph-name="Edotaccent" unicode="&#x116;" 
d="M421 0h-347q7 63 7 280v42q0 211 -7 283h340v-67q-46 4 -244 4v-202q159 0 216 4v-67q-55 4 -216 4v-216q204 0 251 4v-69zM191 720q0 21 16.5 35.5t38.5 14.5q24 0 40.5 -14.5t16.5 -35.5t-16.5 -35t-40.5 -14q-22 0 -38.5 14t-16.5 35z" />
    <glyph glyph-name="edotaccent" unicode="&#x117;" horiz-adv-x="495" 
d="M272 484q86 0 133 -48.5t47 -113.5q0 -29 -10 -59q-116 -26 -241 -32l-73 -6q3 -88 47 -129.5t115 -41.5q80 0 130 36q16 -18 16 -42q-22 -22 -71 -39.5t-103 -17.5q-103 0 -160.5 65.5t-57.5 178.5q0 103 60 176t168 73zM129 275q39 0 125 6t105 13q7 10 7 30
q0 46 -31 75t-77 29t-82 -23q-17 -17 -32 -58t-15 -72zM216 611q0 21 16.5 35.5t38.5 14.5q24 0 40.5 -14.5t16.5 -35.5t-16.5 -35t-40.5 -14q-22 0 -38.5 14t-16.5 35z" />
    <glyph glyph-name="Eogonek" unicode="&#x118;" 
d="M421 0h-20q-38 -26 -65 -63t-27 -75q0 -27 15.5 -43t37.5 -16q26 0 63 16q11 -10 15 -31q-37 -27 -100 -37q-47 0 -73 23t-26 63q0 48 34.5 93t81.5 70h-283q7 63 7 280v42q0 211 -7 283h340v-67q-46 4 -244 4v-202q159 0 216 4v-67q-55 4 -216 4v-216q204 0 251 4v-69z
" />
    <glyph glyph-name="eogonek" unicode="&#x119;" horiz-adv-x="495" 
d="M272 484q86 0 133 -48.5t47 -113.5q0 -29 -10 -59q-116 -26 -241 -32l-73 -6q3 -88 47 -129.5t115 -41.5q80 0 130 36q16 -18 16 -42q-22 -22 -62 -36q-40 -27 -68.5 -64.5t-28.5 -77.5q0 -27 15.5 -43t37.5 -16q26 0 63 16q11 -10 15 -31q-37 -27 -100 -37q-47 0 -73 23
t-26 63q0 42 26.5 81.5t66.5 67.5q-20 -3 -40 -3q-103 0 -160.5 65.5t-57.5 178.5q0 103 60 176t168 73zM129 275q39 0 125 6t105 13q7 10 7 30q0 46 -31 75t-77 29t-82 -23q-17 -17 -32 -58t-15 -72z" />
    <glyph glyph-name="Ecaron" unicode="&#x11a;" 
d="M421 0h-347q7 63 7 280v42q0 211 -7 283h340v-67q-46 4 -244 4v-202q159 0 216 4v-67q-55 4 -216 4v-216q204 0 251 4v-69zM232 638l-128 141q3 13 15.5 26t26.5 18l107 -109l101 102q10 -1 21.5 -12t17.5 -24l-130 -142h-31z" />
    <glyph glyph-name="ecaron" unicode="&#x11b;" horiz-adv-x="495" 
d="M272 484q86 0 133 -48.5t47 -113.5q0 -29 -10 -59q-116 -26 -241 -32l-73 -6q3 -88 47 -129.5t115 -41.5q80 0 130 36q16 -18 16 -42q-22 -22 -71 -39.5t-103 -17.5q-103 0 -160.5 65.5t-57.5 178.5q0 103 60 176t168 73zM129 275q39 0 125 6t105 13q7 10 7 30
q0 46 -31 75t-77 29t-82 -23q-17 -17 -32 -58t-15 -72zM250 545l-128 141q3 13 15.5 26t26.5 18l107 -109l101 102q10 -1 21.5 -12t17.5 -24l-130 -142h-31z" />
    <glyph glyph-name="Gcommaaccent" unicode="&#x122;" horiz-adv-x="558" 
d="M332 618q67 0 147 -23q0 -38 -18 -72q-64 26 -128 26q-74 0 -111 -23q-38 -28 -61 -83.5t-23 -126.5q0 -118 52.5 -190t142.5 -72q26 0 55 6.5t41 14.5q2 25 2.5 81.5t-2.5 82.5h-110q-11 30 0 59h188q-6 -111 0 -250q-99 -59 -194 -59q-116 0 -191.5 79.5t-75.5 236.5
q0 139 80.5 226t205.5 87zM264 -80q0 19 13.5 32t34.5 13q24 0 38 -18.5t14 -52.5q0 -55 -30.5 -89t-69.5 -35q-6 17 -1 33q21 -1 40.5 24t15.5 54q-21 -10 -38 2.5t-17 36.5z" />
    <glyph glyph-name="gcommaaccent" unicode="&#x123;" horiz-adv-x="523" 
d="M308 581q0 -23 -14 -37t-37 -14q-24 0 -38.5 19t-14.5 52q0 51 32.5 82t71.5 32q5 -13 2 -35q-22 0 -38 -15.5t-15 -38.5q22 2 36.5 -11t14.5 -34zM487 488q4 -11 4 -31.5t-4 -31.5l-95 11v-4q26 -16 43.5 -47t17.5 -69q0 -64 -53 -111.5t-142 -47.5q-68 0 -108 23
q-30 -16 -30 -46q0 -23 38.5 -37t129.5 -27q105 -16 153 -43.5t48 -87.5q0 -61 -62.5 -106t-179.5 -45q-95 0 -156 33t-61 83q0 47 32 73q5 5 24.5 1t30.5 -12q-22 -19 -22 -42q0 -35 43 -59.5t125 -24.5q68 0 105.5 22t37.5 55q0 34 -40.5 53.5t-125.5 33.5
q-100 18 -140 42.5t-40 65.5q0 38 59 86q-67 38 -67 120q0 78 60 124t150 46q26 0 63 -5t49 -6q59 1 113 11zM248 435q-113 0 -113 -110q0 -49 33.5 -82.5t90.5 -33.5q111 0 111 104q0 56 -31 89t-91 33z" />
    <glyph glyph-name="imacron" unicode="&#x12b;" horiz-adv-x="273" 
d="M92 230v36q0 151 -9 205h106q-8 -56 -8 -208v-33q0 -174 8 -230h-106q9 62 9 230zM3 649h274q5 -11 4.5 -35.5t-6.5 -32.5h-277q-7 11 -5 35t10 33z" />
    <glyph glyph-name="Iogonek" unicode="&#x12e;" horiz-adv-x="285" 
d="M197 0h-21q-38 -26 -65 -63t-27 -75q0 -27 15.5 -43t37.5 -16q26 0 63 16q11 -10 15 -31q-37 -27 -100 -37q-47 0 -73 23t-26 63q0 48 34.5 93t81.5 70h-43q8 58 8 275v48q0 235 -8 282h108q-6 -54 -6 -252v-41q0 -243 6 -312z" />
    <glyph glyph-name="iogonek" unicode="&#x12f;" horiz-adv-x="281" 
d="M96 230v36q0 158 -9 205h106q-9 -54 -9 -208v-33q0 -176 9 -230h-21q-38 -26 -65 -63t-27 -75q0 -27 15.5 -43t37.5 -16q26 0 63 16q11 -10 15 -31q-37 -27 -100 -37q-47 0 -73 23t-26 63q0 48 34.5 93t81.5 70h-41q9 53 9 230zM96 612q0 21 16 35.5t39 14.5
q24 0 41 -14.5t17 -35.5t-16.5 -34.5t-41.5 -13.5q-23 0 -39 13.5t-16 34.5z" />
    <glyph glyph-name="dotlessi" unicode="&#x131;" horiz-adv-x="273" 
d="M92 230v36q0 151 -9 205h106q-8 -56 -8 -208v-33q0 -174 8 -230h-106q9 62 9 230z" />
    <glyph glyph-name="Kcommaaccent" unicode="&#x136;" horiz-adv-x="553" 
d="M414 605h100q-63 -71 -236 -277q50 -72 132.5 -176t127.5 -147q-30 -16 -94 -16q-25 15 -91 96q-19 25 -62.5 86t-67 91t-31.5 30h-22q0 -204 6 -292h-102q7 91 7 283v33q0 198 -7 289h102q-6 -79 -6 -272h21q13 0 99 107.5t124 164.5zM213 -80q0 19 13.5 32t34.5 13
q24 0 38 -18.5t14 -52.5q0 -55 -30.5 -89t-69.5 -35q-6 17 -1 33q21 -1 40.5 24t15.5 54q-21 -10 -38 2.5t-17 36.5z" />
    <glyph glyph-name="kcommaaccent" unicode="&#x137;" horiz-adv-x="477" 
d="M158 280l28 1q13 0 77 78t80 112q55 10 92 0q-69 -91 -170 -200q11 -15 45.5 -65.5t56 -81.5t50 -67.5t46.5 -52.5q-15 -8 -46 -12q-30 -2 -32 -2q-23 1 -48 37q-35 47 -72 105.5t-54.5 83.5t-28.5 25h-24v-61q0 -124 6 -180h-90q4 117 4 300v50q0 192 -7 350q58 13 92 3
q-5 -190 -5 -363v-60zM190 -80q0 19 13.5 32t34.5 13q24 0 38 -18.5t14 -52.5q0 -55 -30.5 -89t-69.5 -35q-6 17 -1 33q21 -1 40.5 24t15.5 54q-21 -10 -38 2.5t-17 36.5z" />
    <glyph glyph-name="Lacute" unicode="&#x139;" horiz-adv-x="457" 
d="M438 0h-364q7 62 7 311v33q0 198 -7 261h109q-7 -83 -7 -267v-270h57q145 0 205 7v-75zM374 776l-188 -135l-27 34l163 166q14 -1 33 -24t19 -41z" />
    <glyph glyph-name="lacute" unicode="&#x13a;" horiz-adv-x="263" 
d="M74 89v385q0 151 -6 226q64 9 96 1q0 -22 -2 -156.5t-2 -227.5v-162q0 -76 15 -92.5t70 -5.5q7 -25 0 -40q-44 -23 -101 -23q-70 0 -70 95zM306 862l-188 -135l-27 34l163 166q14 -1 33 -24t19 -41z" />
    <glyph glyph-name="Lcommaaccent" unicode="&#x13b;" horiz-adv-x="457" 
d="M438 0h-364q7 62 7 311v33q0 198 -7 261h109q-7 -83 -7 -267v-270h57q145 0 205 7v-75zM181 -80q0 19 13.5 32t34.5 13q24 0 38 -18.5t14 -52.5q0 -55 -30.5 -89t-69.5 -35q-6 17 -1 33q21 -1 40.5 24t15.5 54q-21 -10 -38 2.5t-17 36.5z" />
    <glyph glyph-name="lcommaaccent" unicode="&#x13c;" horiz-adv-x="263" 
d="M74 89v385q0 151 -6 226q64 9 96 1q0 -22 -2 -156.5t-2 -227.5v-162q0 -76 15 -92.5t70 -5.5q7 -25 0 -40q-44 -23 -101 -23q-70 0 -70 95zM108 -80q0 19 13.5 32t34.5 13q24 0 38 -18.5t14 -52.5q0 -55 -30.5 -89t-69.5 -35q-6 17 -1 33q21 -1 40.5 24t15.5 54
q-21 -10 -38 2.5t-17 36.5z" />
    <glyph glyph-name="Lcaron" unicode="&#x13d;" horiz-adv-x="457" 
d="M438 0h-364q7 62 7 311v33q0 198 -7 261h109q-7 -83 -7 -267v-270h57q145 0 205 7v-75zM263 560q0 22 16.5 37.5t41.5 15.5q28 0 44.5 -21.5t16.5 -61.5q0 -64 -36 -103.5t-82 -41.5q-6 17 -2 39q26 -1 48.5 27t17.5 62q-24 -11 -44.5 4t-20.5 43z" />
    <glyph glyph-name="lcaron" unicode="&#x13e;" horiz-adv-x="333" 
d="M74 89v385q0 151 -6 226q64 9 96 1q0 -22 -2 -156.5t-2 -227.5v-162q0 -76 15 -92.5t70 -5.5q7 -25 0 -40q-44 -23 -101 -23q-70 0 -70 95zM208 561q0 22 16.5 37.5t41.5 15.5q28 0 44.5 -21.5t16.5 -61.5q0 -64 -36 -103.5t-82 -41.5q-6 17 -2 39q26 -1 48.5 27t17.5 62
q-24 -11 -44.5 4t-20.5 43z" />
    <glyph glyph-name="Lslash" unicode="&#x141;" horiz-adv-x="486" 
d="M467 0h-364q7 70 7 242l-78 -29q-6 13 -6 36t6 37l78 29v29q0 198 -7 261h108q-7 -80 -7 -255l125 46q6 -12 5.5 -35.5t-5.5 -37.5l-125 -46v-209h58q144 0 205 7v-75z" />
    <glyph glyph-name="lslash" unicode="&#x142;" horiz-adv-x="284" 
d="M85 90v178l-59 -22q-7 14 -7.5 35t6.5 37l60 22v134q0 147 -5 230q62 11 96 1q0 -26 -2 -141t-3 -192l87 33q16 -27 3 -72l-90 -33v-140q0 -80 15 -97t70 -6q8 -21 0 -38q-42 -25 -103 -25q-68 0 -68 96z" />
    <glyph glyph-name="Nacute" unicode="&#x143;" horiz-adv-x="621" 
d="M74 605h96q10 -31 66.5 -116.5t131.5 -194t109 -165.5h2v203q0 221 -6 273h75q-5 -79 -5 -436v-169h-89q-23 47 -151.5 235.5t-153.5 235.5h-4v-178q0 -237 7 -293h-78q7 63 7 286v42q0 233 -7 277zM480 776l-188 -135l-27 34l163 166q14 -1 33 -24t19 -41z" />
    <glyph glyph-name="nacute" unicode="&#x144;" horiz-adv-x="541" 
d="M479 0h-97q8 35 8 206v44q0 97 -20 136t-74 39q-38 0 -73 -21t-59 -54v-74q0 -140 7 -276h-97q7 78 7 239v22q0 127 -9 208l91 11q0 -27 -2 -73h4q74 81 168 81q75 0 107.5 -48t32.5 -147v-67q0 -185 6 -226zM452 678l-188 -135l-27 34l163 166q14 -1 33 -24t19 -41z" />
    <glyph glyph-name="Ncommaaccent" unicode="&#x145;" horiz-adv-x="621" 
d="M74 605h96q10 -31 66.5 -116.5t131.5 -194t109 -165.5h2v203q0 221 -6 273h75q-5 -79 -5 -436v-169h-89q-23 47 -151.5 235.5t-153.5 235.5h-4v-178q0 -237 7 -293h-78q7 63 7 286v42q0 233 -7 277zM263 -80q0 19 13.5 32t34.5 13q24 0 38 -18.5t14 -52.5
q0 -55 -30.5 -89t-69.5 -35q-6 17 -1 33q21 -1 40.5 24t15.5 54q-21 -10 -38 2.5t-17 36.5z" />
    <glyph glyph-name="ncommaaccent" unicode="&#x146;" horiz-adv-x="541" 
d="M479 0h-97q8 35 8 206v44q0 97 -20 136t-74 39q-38 0 -73 -21t-59 -54v-74q0 -140 7 -276h-97q7 78 7 239v22q0 127 -9 208l91 11q0 -27 -2 -73h4q74 81 168 81q75 0 107.5 -48t32.5 -147v-67q0 -185 6 -226zM222 -80q0 19 13.5 32t34.5 13q24 0 38 -18.5t14 -52.5
q0 -55 -30.5 -89t-69.5 -35q-6 17 -1 33q21 -1 40.5 24t15.5 54q-21 -10 -38 2.5t-17 36.5z" />
    <glyph glyph-name="Ncaron" unicode="&#x147;" horiz-adv-x="621" 
d="M74 605h96q10 -31 66.5 -116.5t131.5 -194t109 -165.5h2v203q0 221 -6 273h75q-5 -79 -5 -436v-169h-89q-23 47 -151.5 235.5t-153.5 235.5h-4v-178q0 -237 7 -293h-78q7 63 7 286v42q0 233 -7 277zM296 638l-128 141q3 13 15.5 26t26.5 18l107 -109l101 102
q10 -1 21.5 -12t17.5 -24l-130 -142h-31z" />
    <glyph glyph-name="ncaron" unicode="&#x148;" horiz-adv-x="541" 
d="M479 0h-97q8 35 8 206v44q0 97 -20 136t-74 39q-38 0 -73 -21t-59 -54v-74q0 -140 7 -276h-97q7 78 7 239v22q0 127 -9 208l91 11q0 -27 -2 -73h4q74 81 168 81q75 0 107.5 -48t32.5 -147v-67q0 -185 6 -226zM253 545l-128 141q3 13 15.5 26t26.5 18l107 -109l101 102
q10 -1 21.5 -12t17.5 -24l-130 -142h-31z" />
    <glyph glyph-name="Omacron" unicode="&#x14c;" horiz-adv-x="619" 
d="M319 626q115 0 186 -81t71 -232q0 -153 -77 -238.5t-194 -85.5q-111 0 -185 82t-74 228q0 158 80.5 242.5t192.5 84.5zM304 563q-50 0 -84 -23q-29 -26 -54 -81.5t-25 -130.5q0 -133 50.5 -205t126.5 -72q59 0 96 32q26 24 46.5 77t20.5 125q0 135 -47 206.5t-130 71.5z
M181 734h274q5 -11 4.5 -35.5t-6.5 -32.5h-277q-7 11 -5 35t10 33z" />
    <glyph glyph-name="omacron" unicode="&#x14d;" horiz-adv-x="530" 
d="M276 488q100 0 155 -67.5t55 -181.5q0 -111 -62 -180.5t-159 -69.5q-103 0 -162 67t-59 176q0 115 65 185.5t167 70.5zM260 428q-58 0 -86 -28q-44 -46 -44 -143q0 -99 40.5 -153.5t109.5 -54.5q36 0 71 23q50 48 50 154q0 88 -35 145t-106 57zM131 649h274
q5 -11 4.5 -35.5t-6.5 -32.5h-277q-7 11 -5 35t10 33z" />
    <glyph glyph-name="Ohungarumlaut" unicode="&#x150;" horiz-adv-x="619" 
d="M319 626q115 0 186 -81t71 -232q0 -153 -77 -238.5t-194 -85.5q-111 0 -185 82t-74 228q0 158 80.5 242.5t192.5 84.5zM304 563q-50 0 -84 -23q-29 -26 -54 -81.5t-25 -130.5q0 -133 50.5 -205t126.5 -72q59 0 96 32q26 24 46.5 77t20.5 125q0 135 -47 206.5t-130 71.5z
M276 650h-58l62 172q17 7 39.5 -3t27.5 -27zM399 650h-54l82 168q17 6 39.5 -2t28.5 -26z" />
    <glyph glyph-name="ohungarumlaut" unicode="&#x151;" horiz-adv-x="530" 
d="M276 488q100 0 155 -67.5t55 -181.5q0 -111 -62 -180.5t-159 -69.5q-103 0 -162 67t-59 176q0 115 65 185.5t167 70.5zM260 428q-58 0 -86 -28q-44 -46 -44 -143q0 -99 40.5 -153.5t109.5 -54.5q36 0 71 23q50 48 50 154q0 88 -35 145t-106 57zM232 549h-58l62 172
q17 7 39.5 -3t27.5 -27zM355 549h-54l82 168q17 6 39.5 -2t28.5 -26z" />
    <glyph glyph-name="OE" unicode="&#x152;" horiz-adv-x="831" 
d="M795 0h-347q2 18 2 31q-63 -42 -145 -42q-110 0 -184.5 83t-74.5 227q0 156 81 242t192 86q75 0 130 -35q-1 4 -1 13h340v-67q-46 4 -244 4v-202q159 0 216 4v-67q-55 4 -216 4v-216q204 0 251 4v-69zM309 564q-53 0 -89 -24q-29 -26 -54 -81.5t-25 -130.5
q0 -131 51 -203.5t126 -72.5q60 0 96 33q27 23 41 63q1 43 1 132v42q0 81 -1 132q-20 49 -57.5 79.5t-88.5 30.5z" />
    <glyph glyph-name="oe" unicode="&#x153;" horiz-adv-x="851" 
d="M260 429q-60 0 -88 -30q-43 -47 -43 -142q0 -96 41 -152t109 -56q36 0 72 25q49 49 49 152q0 87 -35 145t-105 58zM440 96q-23 -53 -74 -80t-102 -27q-102 0 -161 68t-59 175q0 114 65 185.5t166 71.5q121 0 170 -109q27 52 76 78.5t107 26.5q86 0 133 -49t47 -114
q0 -34 -10 -59q-116 -26 -242 -32l-71 -6q2 -87 46 -129t114 -42q75 0 132 36q14 -18 14 -42q-22 -22 -71 -39.5t-103 -17.5q-127 0 -177 105zM484 275q37 0 124.5 6.5t106.5 13.5q7 10 7 29q0 46 -31 75t-77 29q-49 0 -83 -24q-17 -17 -32 -58t-15 -71z" />
    <glyph glyph-name="Racute" unicode="&#x154;" horiz-adv-x="529" 
d="M170 0h-96q5 55 5 305v43q0 205 -5 256q82 12 156 12q107 0 163 -47.5t56 -132.5q0 -56 -31.5 -100t-80.5 -64q34 -67 87.5 -149.5t89.5 -123.5q-23 -14 -55 -14q-52 0 -108 87q-32 51 -100 185h-85v-53q0 -171 4 -204zM360 433q0 55 -37 89t-93 34q-42 0 -64 -5v-243
q21 -8 62 -5.5t69 15.5q63 33 63 115zM419 779l-188 -135l-27 34l163 166q14 -1 33 -24t19 -41z" />
    <glyph glyph-name="racute" unicode="&#x155;" horiz-adv-x="334" 
d="M322 471q-2 -48 -28 -74q-16 14 -42 14q-25 0 -50 -16.5t-40 -45.5v-91q0 -182 9 -258h-98q6 78 6 239v27q0 99 -8 203l89 11q1 -26 -1 -76h3q45 76 119 76q23 0 41 -9zM360 678l-188 -135l-27 34l163 166q14 -1 33 -24t19 -41z" />
    <glyph glyph-name="Rcommaaccent" unicode="&#x156;" horiz-adv-x="529" 
d="M170 0h-96q5 55 5 305v43q0 205 -5 256q82 12 156 12q107 0 163 -47.5t56 -132.5q0 -56 -31.5 -100t-80.5 -64q34 -67 87.5 -149.5t89.5 -123.5q-23 -14 -55 -14q-52 0 -108 87q-32 51 -100 185h-85v-53q0 -171 4 -204zM360 433q0 55 -37 89t-93 34q-42 0 -64 -5v-243
q21 -8 62 -5.5t69 15.5q63 33 63 115zM209 -80q0 19 13.5 32t34.5 13q24 0 38 -18.5t14 -52.5q0 -55 -30.5 -89t-69.5 -35q-6 17 -1 33q21 -1 40.5 24t15.5 54q-21 -10 -38 2.5t-17 36.5z" />
    <glyph glyph-name="rcommaaccent" unicode="&#x157;" horiz-adv-x="334" 
d="M322 471q-2 -48 -28 -74q-16 14 -42 14q-25 0 -50 -16.5t-40 -45.5v-91q0 -182 9 -258h-98q6 78 6 239v27q0 99 -8 203l89 11q1 -26 -1 -76h3q45 76 119 76q23 0 41 -9zM89 -80q0 19 13.5 32t34.5 13q24 0 38 -18.5t14 -52.5q0 -55 -30.5 -89t-69.5 -35q-6 17 -1 33
q21 -1 40.5 24t15.5 54q-21 -10 -38 2.5t-17 36.5z" />
    <glyph glyph-name="Rcaron" unicode="&#x158;" horiz-adv-x="529" 
d="M170 0h-96q5 55 5 305v43q0 205 -5 256q82 12 156 12q107 0 163 -47.5t56 -132.5q0 -56 -31.5 -100t-80.5 -64q34 -67 87.5 -149.5t89.5 -123.5q-23 -14 -55 -14q-52 0 -108 87q-32 51 -100 185h-85v-53q0 -171 4 -204zM360 433q0 55 -37 89t-93 34q-42 0 -64 -5v-243
q21 -8 62 -5.5t69 15.5q63 33 63 115zM231 638l-128 141q3 13 15.5 26t26.5 18l107 -109l101 102q10 -1 21.5 -12t17.5 -24l-130 -142h-31z" />
    <glyph glyph-name="rcaron" unicode="&#x159;" horiz-adv-x="334" 
d="M322 471q-2 -48 -28 -74q-16 14 -42 14q-25 0 -50 -16.5t-40 -45.5v-91q0 -182 9 -258h-98q6 78 6 239v27q0 99 -8 203l89 11q1 -26 -1 -76h3q45 76 119 76q23 0 41 -9zM170 537l-128 141q3 13 15.5 26t26.5 18l107 -109l101 102q10 -1 21.5 -12t17.5 -24l-130 -142h-31z
" />
    <glyph glyph-name="Sacute" unicode="&#x15a;" horiz-adv-x="459" 
d="M393 588q-3 -38 -21 -68q-51 33 -121 33q-54 0 -77 -19.5t-23 -57.5q0 -29 19 -54.5t48 -44t62 -42t62 -46.5t48 -58.5t19 -76.5q0 -74 -55 -119.5t-138 -45.5q-104 0 -169 61q0 18 12.5 35t25.5 23q20 -24 57 -40.5t69 -16.5q47 0 76.5 21t29.5 67q0 34 -22 64
t-55.5 53.5t-68.5 47t-65 55t-40 67.5q-7 22 -5 51q4 65 57 102t124 37q86 0 151 -28zM420 779l-188 -135l-27 34l163 166q14 -1 33 -24t19 -41z" />
    <glyph glyph-name="sacute" unicode="&#x15b;" horiz-adv-x="429" 
d="M358 449q0 -11 -8 -27.5t-17 -24.5q-35 28 -96 28q-80 0 -80 -58q0 -24 22 -44.5t53.5 -38t63.5 -38t54 -52t22 -70.5q0 -59 -47.5 -97t-120.5 -38q-51 0 -88.5 19t-54.5 40q-1 16 8 32.5t22 24.5q41 -56 117 -56q78 0 78 68q0 29 -22 53t-53.5 42t-63.5 37t-54 48.5
t-22 66.5q0 52 42 86t116 34q54 0 91 -11.5t38 -23.5zM390 678l-188 -135l-27 34l163 166q14 -1 33 -24t19 -41z" />
    <glyph glyph-name="Scaron" unicode="&#x160;" horiz-adv-x="459" 
d="M393 588q-3 -38 -21 -68q-51 33 -121 33q-54 0 -77 -19.5t-23 -57.5q0 -29 19 -54.5t48 -44t62 -42t62 -46.5t48 -58.5t19 -76.5q0 -74 -55 -119.5t-138 -45.5q-104 0 -169 61q0 18 12.5 35t25.5 23q20 -24 57 -40.5t69 -16.5q47 0 76.5 21t29.5 67q0 34 -22 64
t-55.5 53.5t-68.5 47t-65 55t-40 67.5q-7 22 -5 51q4 65 57 102t124 37q86 0 151 -28zM213 679l-128 141q3 13 15.5 26t26.5 18l107 -109l101 102q10 -1 21.5 -12t17.5 -24l-130 -142h-31z" />
    <glyph glyph-name="scaron" unicode="&#x161;" horiz-adv-x="428" 
d="M358 449q0 -11 -8 -27.5t-17 -24.5q-35 28 -96 28q-80 0 -80 -58q0 -24 22 -44.5t53.5 -38t63.5 -38t54 -52t22 -70.5q0 -59 -47.5 -97t-120.5 -38q-51 0 -88.5 19t-54.5 40q-1 16 8 32.5t22 24.5q41 -56 117 -56q78 0 78 68q0 29 -22 53t-53.5 42t-63.5 37t-54 48.5
t-22 66.5q0 52 42 86t116 34q54 0 91 -11.5t38 -23.5zM198 545l-128 141q3 13 15.5 26t26.5 18l107 -109l101 102q10 -1 21.5 -12t17.5 -24l-130 -142h-31z" />
    <glyph glyph-name="Tcaron" unicode="&#x164;" horiz-adv-x="490" 
d="M18 535v70h458v-70q-57 5 -147 5h-38v-226q0 -249 6 -314h-101q6 70 6 318v222h-35q-101 0 -149 -5zM228 635l-128 141q3 13 15.5 26t26.5 18l107 -109l101 102q10 -1 21.5 -12t17.5 -24l-130 -142h-31z" />
    <glyph glyph-name="tcaron" unicode="&#x165;" horiz-adv-x="419" 
d="M85 97v314h-48q-10 29 0 60q58 11 85 84q7 3 24 2.5t24 -2.5v-84h107q5 -9 4.5 -31t-5.5 -29h-106v-264q0 -71 18.5 -85t95.5 -1q4 -7 4 -21t-4 -21q-13 -9 -51 -17t-68 -8q-41 0 -60.5 22.5t-19.5 80.5zM300 564q0 22 16.5 37.5t41.5 15.5q28 0 44.5 -21.5t16.5 -61.5
q0 -64 -36 -103.5t-82 -41.5q-6 17 -2 39q26 -1 48.5 27t17.5 62q-24 -11 -44.5 4t-20.5 43z" />
    <glyph glyph-name="Umacron" unicode="&#x16a;" horiz-adv-x="589" 
d="M65 605h100q-7 -37 -7 -199v-45q0 -161 39 -231.5t120 -70.5q52 0 82 28q53 57 53 227v30q0 217 -7 261h86q-6 -56 -6 -207v-69q0 -176 -54 -258t-171 -82q-123 0 -176.5 86t-53.5 252v62q0 174 -5 216zM164 731h274q5 -11 4.5 -35.5t-6.5 -32.5h-277q-7 11 -5 35t10 33z
" />
    <glyph glyph-name="umacron" unicode="&#x16b;" horiz-adv-x="532" 
d="M58 471h97q-6 -28 -6 -208v-44q0 -93 21 -130.5t75 -37.5q71 0 124 69v79q0 175 -7 272h97q-7 -77 -7 -237v-27q0 -125 10 -207l-85 -9q-3 27 -5 83h-3q-24 -35 -64.5 -60t-93.5 -25q-78 0 -111.5 46t-33.5 143v61q0 182 -8 232zM131 649h274q5 -11 4.5 -35.5t-6.5 -32.5
h-277q-7 11 -5 35t10 33z" />
    <glyph glyph-name="Uring" unicode="&#x16e;" horiz-adv-x="589" 
d="M65 605h100q-7 -37 -7 -199v-45q0 -161 39 -231.5t120 -70.5q52 0 82 28q53 57 53 227v30q0 217 -7 261h86q-6 -56 -6 -207v-69q0 -176 -54 -258t-171 -82q-123 0 -176.5 86t-53.5 252v62q0 174 -5 216zM395 740q0 -54 -30 -80.5t-68 -26.5q-44 0 -72 26.5t-28 69.5
q0 54 34 81t66 27q42 0 70 -27.5t28 -69.5zM244 736q0 -25 15.5 -40.5t41.5 -16.5q2 0 6 0.5t7 0.5q33 4 33 53q0 27 -16 43t-41 16q-8 0 -13.5 -1t-14 -6t-13.5 -17.5t-5 -31.5z" />
    <glyph glyph-name="uring" unicode="&#x16f;" horiz-adv-x="532" 
d="M58 471h97q-6 -28 -6 -208v-44q0 -93 21 -130.5t75 -37.5q71 0 124 69v79q0 175 -7 272h97q-7 -77 -7 -237v-27q0 -125 10 -207l-85 -9q-3 27 -5 83h-3q-24 -35 -64.5 -60t-93.5 -25q-78 0 -111.5 46t-33.5 143v61q0 182 -8 232zM365 655q0 -54 -30 -80.5t-68 -26.5
q-44 0 -72 26.5t-28 69.5q0 54 34 81t66 27q42 0 70 -27.5t28 -69.5zM214 651q0 -25 15.5 -40.5t41.5 -16.5q2 0 6 0.5t7 0.5q33 4 33 53q0 27 -16 43t-41 16q-8 0 -13.5 -1t-14 -6t-13.5 -17.5t-5 -31.5z" />
    <glyph glyph-name="Uhungarumlaut" unicode="&#x170;" horiz-adv-x="589" 
d="M65 605h100q-7 -37 -7 -199v-45q0 -161 39 -231.5t120 -70.5q52 0 82 28q53 57 53 227v30q0 217 -7 261h86q-6 -56 -6 -207v-69q0 -176 -54 -258t-171 -82q-123 0 -176.5 86t-53.5 252v62q0 174 -5 216zM253 639h-58l62 172q17 7 39.5 -3t27.5 -27zM376 639h-54l82 168
q17 6 39.5 -2t28.5 -26z" />
    <glyph glyph-name="uhungarumlaut" unicode="&#x171;" horiz-adv-x="532" 
d="M58 471h97q-6 -28 -6 -208v-44q0 -93 21 -130.5t75 -37.5q71 0 124 69v79q0 175 -7 272h97q-7 -77 -7 -237v-27q0 -125 10 -207l-85 -9q-3 27 -5 83h-3q-24 -35 -64.5 -60t-93.5 -25q-78 0 -111.5 46t-33.5 143v61q0 182 -8 232zM208 549h-58l62 172q17 7 39.5 -3
t27.5 -27zM331 549h-54l82 168q17 6 39.5 -2t28.5 -26z" />
    <glyph glyph-name="Uogonek" unicode="&#x172;" horiz-adv-x="589" 
d="M65 605h100q-7 -37 -7 -199v-45q0 -161 39 -231.5t120 -70.5q52 0 82 28q53 57 53 227v30q0 217 -7 261h86q-6 -56 -6 -207v-69q0 -137 -32 -216.5t-101 -107.5q-88 -62 -88 -135q0 -27 15.5 -43t37.5 -16q26 0 63 16q11 -10 15 -31q-37 -27 -100 -37q-47 0 -73 23
t-26 63t25 78.5t63 66.5q-4 0 -12 -0.5t-12 -0.5q-123 0 -176.5 86t-53.5 252v62q0 174 -5 216z" />
    <glyph glyph-name="uogonek" unicode="&#x173;" horiz-adv-x="532" 
d="M58 471h97q-6 -28 -6 -208v-44q0 -93 21 -130.5t75 -37.5q71 0 124 69v79q0 175 -7 272h97q-7 -77 -7 -237v-27q0 -125 10 -207l-26 -2q-88 -64 -88 -136q0 -27 15.5 -43t37.5 -16q26 0 63 16q11 -10 15 -31q-37 -27 -100 -37q-47 0 -73 23t-26 63q0 44 29.5 86t71.5 69
l-4 -1q-3 27 -5 83h-3q-24 -35 -64.5 -60t-93.5 -25q-78 0 -111.5 46t-33.5 143v61q0 182 -8 232z" />
    <glyph glyph-name="Ydieresis" unicode="&#x178;" horiz-adv-x="542" 
d="M295 301h4q126 249 139 304h89q-106 -181 -203 -376v-26q0 -167 6 -203h-104q7 42 7 197v32q-71 138 -215 376h121q5 -20 27.5 -64t66 -123.5t62.5 -116.5zM136 726q0 19 13 31.5t33 12.5q19 0 32.5 -12.5t13.5 -31.5q0 -18 -13.5 -30.5t-32.5 -12.5q-20 0 -33 12t-13 31
zM328 726q0 18 13.5 31t31.5 13q20 0 33 -12.5t13 -31.5t-13 -31t-33 -12q-18 0 -31.5 12.5t-13.5 30.5z" />
    <glyph glyph-name="Zacute" unicode="&#x179;" horiz-adv-x="488" 
d="M39 528v77h407v-67l-310 -471v-4l117 4q154 5 199 12v-79h-413v67l307 472v3l-113 -4q-169 -5 -194 -10zM420 779l-188 -135l-27 34l163 166q14 -1 33 -24t19 -41z" />
    <glyph glyph-name="zacute" unicode="&#x17a;" horiz-adv-x="433" 
d="M38 395v76h358v-65l-277 -338v-3l105 3q141 3 172 9v-77h-359v65l274 337v3l-95 -2q-156 -2 -178 -8zM382 678l-188 -135l-27 34l163 166q14 -1 33 -24t19 -41z" />
    <glyph glyph-name="Zdotaccent" unicode="&#x17b;" horiz-adv-x="488" 
d="M39 528v77h407v-67l-310 -471v-4l117 4q154 5 199 12v-79h-413v67l307 472v3l-113 -4q-169 -5 -194 -10zM187 704q0 21 16.5 35.5t38.5 14.5q24 0 40.5 -14.5t16.5 -35.5t-16.5 -35t-40.5 -14q-22 0 -38.5 14t-16.5 35z" />
    <glyph glyph-name="zdotaccent" unicode="&#x17c;" horiz-adv-x="433" 
d="M38 395v76h358v-65l-277 -338v-3l105 3q141 3 172 9v-77h-359v65l274 337v3l-95 -2q-156 -2 -178 -8zM159 611q0 21 16.5 35.5t38.5 14.5q24 0 40.5 -14.5t16.5 -35.5t-16.5 -35t-40.5 -14q-22 0 -38.5 14t-16.5 35z" />
    <glyph glyph-name="Zcaron" unicode="&#x17d;" horiz-adv-x="488" 
d="M39 528v77h407v-67l-310 -471v-4l117 4q154 5 199 12v-79h-413v67l307 472v3l-113 -4q-169 -5 -194 -10zM227 679l-128 141q3 13 15.5 26t26.5 18l107 -109l101 102q10 -1 21.5 -12t17.5 -24l-130 -142h-31z" />
    <glyph glyph-name="zcaron" unicode="&#x17e;" horiz-adv-x="433" 
d="M38 395v76h358v-65l-277 -338v-3l105 3q141 3 172 9v-77h-359v65l274 337v3l-95 -2q-156 -2 -178 -8zM200 545l-128 141q3 13 15.5 26t26.5 18l107 -109l101 102q10 -1 21.5 -12t17.5 -24l-130 -142h-31z" />
    <glyph glyph-name="longs" unicode="&#x17f;" horiz-adv-x="292" 
d="M251 715q62 0 116 -27q-2 -14 -12 -33.5t-20 -26.5q-43 27 -76 27q-37 0 -51 -28q-18 -41 -17 -156v-206q0 -185 6 -265h-97q8 91 8 272v139h-70q-4 11 -4 30t4 30h68q-12 244 145 244z" />
    <glyph glyph-name="florin" unicode="&#x192;" horiz-adv-x="252" 
d="M364 624q-21 14 -53 17.5t-59 -8.5q-23 -19 -34 -50t-18 -99h76q8 -36 -8 -62h-74l-18 -206q-22 -257 -86.5 -348.5t-190.5 -68.5q-5 14 -1.5 35t13.5 33q61 -16 105 8q38 46 57.5 153.5t39.5 393.5h-77q-8 35 8 62h72q16 220 208 220q35 0 50.5 -13.5t11 -32
t-21.5 -34.5z" />
    <glyph glyph-name="circumflex" unicode="&#x2c6;" horiz-adv-x="289" 
d="M171 700l112 -111q-4 -12 -19 -23t-29 -15l-93 82l-90 -77q-11 1 -22 11t-14 20l119 113q17 9 36 0z" />
    <glyph glyph-name="caron" unicode="&#x2c7;" horiz-adv-x="289" 
d="M153 545l-128 141q3 13 15.5 26t26.5 18l107 -109l101 102q10 -1 21.5 -12t17.5 -24l-130 -142h-31z" />
    <glyph glyph-name="breve" unicode="&#x2d8;" horiz-adv-x="289" 
d="M315 678q-20 -45 -59.5 -80t-91.5 -35q-55 0 -94.5 37.5t-49.5 78.5q3 12 15 21.5t22 11.5q1 -2 7 -11t9 -13t10.5 -13t13 -14t14 -12t17 -10.5t19.5 -6t22 -2.5q65 0 111 84q23 -7 35 -36z" />
    <glyph glyph-name="dotaccent" unicode="&#x2d9;" horiz-adv-x="258" 
d="M94 611q0 21 16.5 35.5t38.5 14.5q24 0 40.5 -14.5t16.5 -35.5t-16.5 -35t-40.5 -14q-22 0 -38.5 14t-16.5 35z" />
    <glyph glyph-name="ring" unicode="&#x2da;" horiz-adv-x="291" 
d="M286 655q0 -54 -30 -80.5t-68 -26.5q-44 0 -72 26.5t-28 69.5q0 54 34 81t66 27q42 0 70 -27.5t28 -69.5zM135 651q0 -25 15.5 -40.5t41.5 -16.5q2 0 6 0.5t7 0.5q33 4 33 53q0 27 -16 43t-41 16q-8 0 -13.5 -1t-14 -6t-13.5 -17.5t-5 -31.5z" />
    <glyph glyph-name="ogonek" unicode="&#x2db;" horiz-adv-x="195" 
d="M144 19l38 1q-44 -25 -77.5 -66t-33.5 -84q0 -27 15.5 -43t37.5 -16q26 0 63 16q11 -10 15 -31q-37 -27 -100 -37q-47 0 -73 23t-26 63q0 55 45 105.5t96 68.5z" />
    <glyph glyph-name="tilde" unicode="&#x2dc;" horiz-adv-x="314" 
d="M44 630q28 28 50.5 39.5t38 8.5t29.5 -11.5t27.5 -18t28 -14.5t35 2t45.5 29q9 -5 15.5 -24t3.5 -32q-39 -37 -70 -44.5t-51.5 4.5t-39.5 25.5t-43 12.5t-52 -29q-9 4 -13.5 22t-3.5 30z" />
    <glyph glyph-name="hungarumlaut" unicode="&#x2dd;" horiz-adv-x="415" 
d="M222 549h-58l62 172q17 7 39.5 -3t27.5 -27zM345 549h-54l82 168q17 6 39.5 -2t28.5 -26z" />
    <glyph glyph-name="Omega" unicode="&#x3a9;" horiz-adv-x="767" 
d="M691 0h-260q-5 9 -4.5 30t4.5 31q168 118 168 262q0 107 -62.5 170t-157.5 63q-89 0 -149.5 -61.5t-60.5 -160.5q0 -144 167 -271q4 -10 4 -31.5t-4 -31.5h-260v71q69 -12 189 -8q-78 44 -128.5 111.5t-50.5 151.5q0 133 86 211.5t221 78.5q126 0 207.5 -77t81.5 -201
q0 -170 -172 -275q97 -4 181 7v-70z" />
    <glyph glyph-name="Omega" unicode="&#x2126;" horiz-adv-x="767" 
d="M691 0h-260q-5 9 -4.5 30t4.5 31q168 118 168 262q0 107 -62.5 170t-157.5 63q-89 0 -149.5 -61.5t-60.5 -160.5q0 -144 167 -271q4 -10 4 -31.5t-4 -31.5h-260v71q69 -12 189 -8q-78 44 -128.5 111.5t-50.5 151.5q0 133 86 211.5t221 78.5q126 0 207.5 -77t81.5 -201
q0 -170 -172 -275q97 -4 181 7v-70z" />
    <glyph glyph-name="pi" unicode="&#x3c0;" horiz-adv-x="609" 
d="M225 471h176q63 0 93.5 5t45.5 22l9 -1v-83q-19 -25 -74 -27q-7 -32 -13 -106.5t-6 -126.5q0 -105 41 -105q27 0 58 29q10 -16 3 -38q-14 -20 -38.5 -35.5t-52.5 -15.5q-77 0 -77 133q0 52 8 139t16 125h-183q-5 -151 -26 -258t-49 -128h-85q41 41 72 146t30 238
q-37 4 -78 -26q-24 22 -18 56q44 57 148 57z" />
    <glyph glyph-name="afii10023" unicode="&#x401;" 
d="M421 0h-347q7 63 7 280v42q0 211 -7 283h340v-67q-46 4 -244 4v-202q159 0 216 4v-67q-55 4 -216 4v-216q204 0 251 4v-69zM105 696q0 19 13 31.5t33 12.5q19 0 32.5 -12.5t13.5 -31.5q0 -18 -13.5 -30.5t-32.5 -12.5q-20 0 -33 12t-13 31zM297 696q0 18 13.5 31t31.5 13
q20 0 33 -12.5t13 -31.5t-13 -31t-33 -12q-18 0 -31.5 12.5t-13.5 30.5z" />
    <glyph glyph-name="afii10051" unicode="&#x402;" horiz-adv-x="627" 
d="M312 540l-59 -1v-193h4q73 81 168 81q69 0 102 -43.5t33 -151.5v-68q0 -101 -38.5 -139t-116.5 -36q-9 24 -1 70q39 -3 56 21.5t17 98.5v34q0 83 -22 117.5t-69 34.5q-36 0 -72.5 -23t-60.5 -57v-47q0 -114 6 -238h-96q7 109 7 300v240h-22q-86 0 -130 -6v71h458v-71
q-53 6 -164 6z" />
    <glyph glyph-name="afii10052" unicode="&#x403;" horiz-adv-x="398" 
d="M179 0h-105q7 82 7 301v40q0 180 -7 264h330v-70q-56 5 -185 5h-49v-256q0 -210 9 -284zM430 788l-188 -135l-27 34l163 166q14 -1 33 -24t19 -41z" />
    <glyph glyph-name="afii10053" unicode="&#x404;" horiz-adv-x="519" 
d="M328 618q90 0 141 -22q1 -40 -17 -71q-57 24 -130 24q-69 0 -99 -23q-77 -65 -82 -192q143 -2 272 7q13 -33 0 -66q-135 10 -271 9q8 -100 62 -162t142 -62q69 0 122 34q18 -26 18 -54q-75 -51 -169 -51q-121 0 -196 81t-75 232q0 142 78.5 229t203.5 87z" />
    <glyph glyph-name="afii10054" unicode="&#x405;" horiz-adv-x="459" 
d="M393 588q-3 -38 -21 -68q-51 33 -121 33q-54 0 -77 -19.5t-23 -57.5q0 -29 19 -54.5t48 -44t62 -42t62 -46.5t48 -58.5t19 -76.5q0 -74 -55 -119.5t-138 -45.5q-104 0 -169 61q0 18 12.5 35t25.5 23q20 -24 57 -40.5t69 -16.5q47 0 76.5 21t29.5 67q0 34 -22 64
t-55.5 53.5t-68.5 47t-65 55t-40 67.5q-7 22 -5 51q4 65 57 102t124 37q86 0 151 -28z" />
    <glyph glyph-name="afii10055" unicode="&#x406;" horiz-adv-x="285" 
d="M197 0h-108q8 58 8 275v48q0 235 -8 282h108q-6 -54 -6 -252v-41q0 -243 6 -312z" />
    <glyph glyph-name="afii10056" unicode="&#x407;" horiz-adv-x="328" 
d="M220 0h-108q8 58 8 275v48q0 235 -8 282h108q-6 -54 -6 -252v-41q0 -243 6 -312zM25 702q0 19 13 31.5t33 12.5q19 0 32.5 -12.5t13.5 -31.5q0 -18 -13.5 -30.5t-32.5 -12.5q-20 0 -33 12t-13 31zM217 702q0 18 13.5 31t31.5 13q20 0 33 -12.5t13 -31.5t-13 -31t-33 -12
q-18 0 -31.5 12.5t-13.5 30.5z" />
    <glyph glyph-name="afii10057" unicode="&#x408;" horiz-adv-x="295" 
d="M203 234v-162q0 -56 -14.5 -94.5t-39.5 -57t-53 -24t-60 -0.5q-13 31 2 67q38 0 57 29t19 114v140q0 284 -9 359h104q-6 -124 -6 -371z" />
    <glyph glyph-name="afii10058" unicode="&#x409;" horiz-adv-x="791" 
d="M385 -1q6 64 6 311v230q-123 5 -162 0q0 -227 -23 -348.5t-63.5 -160.5t-113.5 -35q-14 40 -3 90q36 -6 60 17.5t37 75.5t18.5 116.5t5.5 153.5v69q0 56 -6 87h346q-7 -66 -7 -234q52 12 102 7t89.5 -22t63.5 -57.5t24 -99.5q0 -210 -252 -210q-67 0 -122 10zM669 188
q0 80 -48 114t-141 18v-266q26 -7 55 -7q45 0 76 14q58 35 58 127z" />
    <glyph glyph-name="afii10059" unicode="&#x40a;" horiz-adv-x="822" 
d="M415 -1q7 88 7 293q-31 2 -126 2t-126 -2q0 -204 6 -292h-102q7 89 7 280v31q0 215 -7 294h102q-6 -79 -6 -254q31 -2 126 -2t126 2q0 179 -6 254h100q-5 -70 -5 -247q123 33 200 -10t77 -155q0 -107 -63 -155.5t-185 -48.5q-70 0 -125 10zM700 181q0 81 -48.5 114.5
t-140.5 11.5v-253q28 -7 56 -7q43 0 76 14q57 36 57 120z" />
    <glyph glyph-name="afii10060" unicode="&#x40b;" horiz-adv-x="627" 
d="M312 540l-59 -1v-193h4q73 81 164 81q72 0 105.5 -44.5t33.5 -154.5v-69q0 -116 7 -159h-96q6 47 6 174v39q0 83 -22 117.5t-69 34.5q-36 0 -72.5 -23t-60.5 -57v-47q0 -114 6 -238h-96q7 109 7 300v240h-22q-81 0 -130 -9v74h458v-74q-57 9 -164 9z" />
    <glyph glyph-name="afii10061" unicode="&#x40c;" horiz-adv-x="545" 
d="M414 605h100q-63 -71 -236 -277q50 -72 132.5 -176t127.5 -147q-30 -16 -94 -16q-25 15 -91 96q-19 25 -62.5 86t-67 91t-31.5 30h-22q0 -204 6 -292h-102q7 91 7 283v33q0 198 -7 289h102q-6 -79 -6 -272h21q13 0 99 107.5t124 164.5zM487 788l-188 -135l-27 34l163 166
q14 -1 33 -24t19 -41z" />
    <glyph glyph-name="afii10062" unicode="&#x40e;" horiz-adv-x="520" 
d="M200 788q7 -41 32 -63t61 -22q71 0 94 76q29 2 41 -14q-7 -45 -47.5 -81t-105.5 -36q-62 0 -100 32t-43 81q18 25 68 27zM20 605h109q3 -16 165 -436h3q40 109 81 256t43 180h93q-13 -32 -29 -79t-37.5 -112t-33.5 -101l-26 -71q-35 -101 -71.5 -171t-59 -96t-38.5 -32
q-14 4 -29.5 23t-16.5 36q21 9 50 41t44 72h-39l-71 167q-97 244 -137 323z" />
    <glyph glyph-name="afii10145" unicode="&#x40f;" horiz-adv-x="644" 
d="M533 0h-191v-141h-74v141h-194q7 86 7 311v29q0 195 -7 265h102q-6 -74 -6 -246v-299q31 -4 137 -4t137 4v296q0 173 -6 249h102q-7 -80 -7 -295v-310z" />
    <glyph glyph-name="afii10017" unicode="&#x410;" horiz-adv-x="558" 
d="M549 0h-107q-14 51 -26 91l-28 83q-30 3 -115.5 3t-113.5 -3l-26 -72q-7 -16 -17.5 -52t-15.5 -50h-85q46 106 127 326t97 279h98q25 -84 95.5 -288.5t116.5 -316.5zM276 513l-96 -280q26 -3 94.5 -3t93.5 3l-88 280h-4z" />
    <glyph glyph-name="afii10018" unicode="&#x411;" horiz-adv-x="520" 
d="M74 605h362v-69q-40 6 -212 6h-54v-192q58 15 113.5 12.5t98.5 -17t69.5 -54.5t26.5 -102q0 -90 -63 -145t-189 -55q-77 0 -153 10q8 49 8 235v81q0 213 -7 290zM390 183q0 73 -58 105t-162 7v-242q13 -6 68 -6q64 0 108 24q44 37 44 112z" />
    <glyph glyph-name="afii10019" unicode="&#x412;" horiz-adv-x="522" 
d="M235 616q111 0 164 -39.5t53 -120.5q0 -55 -30.5 -91t-74.5 -48v-5q50 -7 87.5 -42t37.5 -97q0 -93 -67 -138.5t-176 -45.5q-67 0 -155 13q7 84 7 273v55q0 128 -7 275q11 0 72.5 5.5t88.5 5.5zM166 555v-218q65 -9 120 3q33 11 56.5 38t23.5 72q0 56 -37.5 83.5
t-96.5 27.5q-51 0 -66 -6zM166 279v-226q24 -8 73 -8q59 0 98 20q46 32 46 111q0 134 -217 103z" />
    <glyph glyph-name="afii10020" unicode="&#x413;" horiz-adv-x="398" 
d="M179 0h-105q7 82 7 301v40q0 180 -7 264h330v-70q-56 5 -185 5h-49v-256q0 -210 9 -284z" />
    <glyph glyph-name="afii10021" unicode="&#x414;" horiz-adv-x="617" 
d="M3 -141v204h32q31 0 55.5 40t39 103.5t22 134.5t7.5 140q0 54 -7 124h356q-6 -102 -6 -252v-67q0 -168 5 -223h79v-204h-73v141h-436v-141h-74zM239 540q0 -378 -88 -477h263v477q-19 2 -87.5 2t-87.5 -2z" />
    <glyph glyph-name="afii10022" unicode="&#x415;" 
d="M421 0h-347q7 63 7 280v42q0 211 -7 283h340v-67q-46 4 -244 4v-202q159 0 216 4v-67q-55 4 -216 4v-216q204 0 251 4v-69z" />
    <glyph glyph-name="afii10024" unicode="&#x416;" horiz-adv-x="781" 
d="M648 605h107q-13 -18 -91 -130t-104 -148q37 -65 108 -174t106 -146q-31 -14 -102 -14q-25 24 -66 90q-15 25 -35.5 60t-34 57.5t-27.5 44.5t-22.5 33t-12.5 11h-41v-68q0 -160 4 -221h-90q6 71 6 219v70h-40q-6 0 -18 -14.5t-29 -41.5t-32.5 -53.5t-37.5 -63t-34 -56.5
q-14 -24 -26.5 -42.5t-16.5 -25.5q-18 0 -54.5 4t-49.5 9q41 49 214 319q-21 30 -65.5 93.5t-79.5 113t-53 74.5h111q26 -59 91 -164t79 -105h41v69q0 146 -6 200h90q-4 -54 -4 -199v-70h39q15 0 81 103.5t95 165.5z" />
    <glyph glyph-name="afii10025" unicode="&#x417;" horiz-adv-x="487" 
d="M78 516q-17 33 -18 58q79 43 182 43q79 0 128.5 -40.5t49.5 -109.5q0 -58 -32.5 -93.5t-80.5 -51.5v-4q52 -6 92 -43.5t40 -101.5q0 -86 -65 -136t-157 -50q-120 0 -172 52q1 14 14 33t24 25q53 -44 133 -44q56 0 87 20q41 33 41 99q0 56 -35.5 85.5t-96.5 29.5
q-33 0 -76 -8q-6 10 -6 34t7 33q70 -10 106 -6q34 8 59 37t25 70q0 50 -34 77.5t-86 27.5q-62 0 -129 -36z" />
    <glyph glyph-name="afii10026" unicode="&#x418;" horiz-adv-x="624" 
d="M460 0v179q0 239 5 297h-4q-18 -34 -147.5 -223.5t-156.5 -252.5h-83q7 86 7 311v43q0 185 -7 251h92v-360q0 -84 -5 -115h5q17 34 147.5 225.5t157.5 249.5h81q-5 -68 -5 -255v-40q0 -226 5 -310h-92z" />
    <glyph glyph-name="afii10027" unicode="&#x419;" horiz-adv-x="624" 
d="M460 0v179q0 239 5 297h-4q-18 -34 -147.5 -223.5t-156.5 -252.5h-83q7 86 7 311v43q0 185 -7 251h92v-360q0 -84 -5 -115h5q17 34 147.5 225.5t157.5 249.5h81q-5 -68 -5 -255v-40q0 -226 5 -310h-92zM237 788q7 -42 32 -63.5t61 -21.5q70 0 93 76q28 2 40 -14
q-5 -44 -45.5 -80.5t-104.5 -36.5q-62 0 -100.5 32t-43.5 81q18 25 68 27z" />
    <glyph glyph-name="afii10028" unicode="&#x41a;" horiz-adv-x="545" 
d="M414 605h100q-63 -71 -236 -277q50 -72 132.5 -176t127.5 -147q-30 -16 -94 -16q-25 15 -91 96q-19 25 -62.5 86t-67 91t-31.5 30h-22q0 -204 6 -292h-102q7 91 7 283v33q0 198 -7 289h102q-6 -79 -6 -272h21q13 0 99 107.5t124 164.5z" />
    <glyph glyph-name="afii10029" unicode="&#x41b;" horiz-adv-x="576" 
d="M504 0h-102q8 64 8 310v230q-137 6 -181 0q0 -54 -2 -136q-6 -168 -32.5 -261t-65 -122t-101.5 -25q-6 11 -7 37.5t4 46.5q36 -5 60.5 19.5t37.5 77t18.5 118t5.5 154.5v69q0 56 -6 87h363q-6 -66 -6 -255v-63q0 -206 6 -287z" />
    <glyph glyph-name="afii10030" unicode="&#x41c;" horiz-adv-x="708" 
d="M140 0h-81q8 58 22 260t20 345h92q13 -32 43.5 -96.5t69.5 -144.5t57 -118l4 -1q17 41 77.5 179.5t76.5 180.5h92q3 -111 17 -336.5t21 -268.5h-101q2 87 -4 188l-1 39q-9 209 -5 265h-6l-159 -372h-57l-168 374h-4q3 -24 3.5 -66t-1 -74t-4 -76.5t-2.5 -48.5l-1 -44
q-3 -123 -1 -185z" />
    <glyph glyph-name="afii10031" unicode="&#x41d;" horiz-adv-x="617" 
d="M546 0h-102q6 88 6 281q-30 2 -139.5 2t-140.5 -2q0 -193 6 -281h-102q7 89 7 280v31q0 215 -7 294h102q-6 -79 -6 -264q30 -2 140 -2t140 2q0 189 -6 264h101q-6 -70 -6 -289v-33q0 -185 7 -283z" />
    <glyph glyph-name="afii10032" unicode="&#x41e;" horiz-adv-x="619" 
d="M319 626q115 0 186 -81t71 -232q0 -153 -77 -238.5t-194 -85.5q-111 0 -185 82t-74 228q0 158 80.5 242.5t192.5 84.5zM304 563q-50 0 -84 -23q-29 -26 -54 -81.5t-25 -130.5q0 -133 50.5 -205t126.5 -72q59 0 96 32q26 24 46.5 77t20.5 125q0 135 -47 206.5t-130 71.5z
" />
    <glyph glyph-name="afii10033" unicode="&#x41f;" horiz-adv-x="607" 
d="M534 0h-101q7 101 7 301v239q-31 3 -135 3t-135 -3v-239q0 -199 6 -301h-102q7 71 7 265v46q0 215 -7 294h460q-5 -100 -5 -295v-33q0 -185 5 -277z" />
    <glyph glyph-name="afii10034" unicode="&#x420;" horiz-adv-x="499" 
d="M175 0h-101q7 55 7 305v44q0 205 -7 256q86 11 171 11q109 0 165 -50t56 -138q0 -58 -22.5 -101t-59.5 -66t-78 -34t-85 -11q-35 0 -51 3q0 -183 5 -219zM378 418q0 65 -36.5 101.5t-102.5 36.5q-51 0 -69 -4v-270q17 -7 54 -7q64 0 95 18q24 18 41.5 51t17.5 74z" />
    <glyph glyph-name="afii10035" unicode="&#x421;" horiz-adv-x="513" 
d="M325 618q90 0 141 -22q1 -40 -17 -71q-57 24 -130 24q-69 0 -99 -23q-82 -70 -82 -206q0 -114 54.5 -187t150.5 -73q69 0 122 34q18 -26 18 -54q-75 -51 -169 -51q-121 0 -196 81t-75 232q0 142 78.5 229t203.5 87z" />
    <glyph glyph-name="afii10036" unicode="&#x422;" horiz-adv-x="482" 
d="M15 535v70h458v-70q-57 5 -147 5h-38v-226q0 -249 6 -314h-101q6 70 6 318v222h-35q-101 0 -149 -5z" />
    <glyph glyph-name="afii10037" unicode="&#x423;" horiz-adv-x="514" 
d="M14 605h109q2 -14 24.5 -73.5t70.5 -181.5t71 -181h2q40 111 81 257.5t43 178.5h93q-17 -42 -53.5 -151t-47.5 -141l-24 -71q-35 -101 -71.5 -171t-59 -96t-39.5 -32q-16 5 -31.5 24t-16.5 36q22 9 51.5 40.5t45.5 71.5h-41l-70 168q-103 252 -137 322z" />
    <glyph glyph-name="afii10038" unicode="&#x424;" horiz-adv-x="725" 
d="M412 -11h-93q5 26 5 95q-27 -4 -48 -4q-104 0 -167 60.5t-63 171.5q0 254 278 254q0 52 -5 71h93q-5 -25 -5 -75q22 4 45 4q106 0 169.5 -60t63.5 -174q0 -252 -278 -252q0 -59 5 -91zM429 514q-19 0 -25 -1q-5 -188 0 -375q14 -5 57 -1t67 17q68 54 68 171
q0 100 -47 144.5t-120 44.5zM310 132h17q6 222 0 378q-88 9 -133 -20q-59 -50 -59 -166q0 -89 47 -140.5t128 -51.5z" />
    <glyph glyph-name="afii10039" unicode="&#x425;" horiz-adv-x="541" 
d="M36 605h119q4 -16 25 -55t53.5 -96t49.5 -90h3q122 227 129 241h97q-103 -145 -178 -284q148 -249 196 -321h-120q-8 15 -60 109.5t-85 156.5h-4q-24 -45 -58 -106.5t-57.5 -103.5t-29.5 -56h-101q101 147 198 315q-82 139 -177 290z" />
    <glyph glyph-name="afii10040" unicode="&#x426;" horiz-adv-x="644" 
d="M533 60h82v-201h-74v141h-467q7 86 7 311v29q0 195 -7 265h102q-6 -74 -6 -246v-299q31 -4 137 -4t137 4v296q0 173 -6 249h102q-7 -80 -7 -295v-250z" />
    <glyph glyph-name="afii10041" unicode="&#x427;" horiz-adv-x="539" 
d="M36 605h102q-7 -64 -7 -144v-45q0 -82 29.5 -117t91.5 -35q71 0 121 26v68q0 156 -7 247h101q-6 -68 -6 -252v-49q0 -218 7 -304h-104q9 36 9 195v38q-70 -32 -162 -32q-150 0 -166 154q-3 25 -3 53v58q0 102 -6 139z" />
    <glyph glyph-name="afii10042" unicode="&#x428;" horiz-adv-x="793" 
d="M721 0h-647q7 72 7 288v40q0 213 -7 277h99q-7 -65 -7 -263v-282h189v282q0 184 -7 263h100q-7 -69 -7 -260v-285h189v285q0 191 -7 260h98q-6 -138 -6 -260v-50q0 -227 6 -295z" />
    <glyph glyph-name="afii10043" unicode="&#x429;" horiz-adv-x="811" 
d="M723 0h-649q7 72 7 239v124q0 178 -7 242h99q-7 -63 -7 -225v-320h189v321q0 159 -7 224h100q-7 -73 -7 -222v-323h189v320q0 157 -7 225h98q-6 -55 -6 -229v-316h81v-201h-73v141z" />
    <glyph glyph-name="afii10044" unicode="&#x42a;" horiz-adv-x="576" 
d="M7 605h246q-7 -26 -7 -181v-53q55 12 108.5 7t95.5 -22t67.5 -57.5t25.5 -99.5q0 -108 -68.5 -159t-190.5 -51q-77 0 -134 10q8 55 8 255v288h-33q-91 0 -118 -6v69zM454 188q0 78 -56.5 113.5t-151.5 18.5v-266q28 -7 66 -7q47 0 80 13q24 14 43 46t19 82z" />
    <glyph glyph-name="afii10045" unicode="&#x42b;" horiz-adv-x="709" 
d="M74 605h101q-5 -27 -5 -184v-50q51 12 102 7t91.5 -21.5t66 -57.5t25.5 -100q0 -104 -66 -157t-186 -53q-74 0 -129 10q7 56 7 252v56q0 234 -7 298zM367 188q0 79 -54.5 115t-146.5 17v-266q30 -7 66 -7q48 0 78 15q57 39 57 126zM637 0h-102q6 65 6 266v56
q0 219 -6 283h102q-7 -68 -7 -288v-51q0 -199 7 -266z" />
    <glyph glyph-name="afii10046" unicode="&#x42c;" horiz-adv-x="500" 
d="M76 605h100q-6 -33 -6 -181v-53q56 12 109 7t95 -22t67.5 -57.5t25.5 -99.5q0 -108 -68.5 -159t-191.5 -51q-78 0 -133 10q7 48 7 255v55q0 241 -5 296zM378 188q0 78 -56.5 113.5t-151.5 18.5v-266q30 -7 67 -7q47 0 79 14q62 36 62 127z" />
    <glyph glyph-name="afii10047" unicode="&#x42d;" horiz-adv-x="542" 
d="M218 -11q-65 0 -114 20.5t-60 38.5q1 13 14 30t24 24q58 -48 146 -48q61 0 110 32q73 64 73 201h-88q-145 0 -196 -6q-5 11 -4.5 33t5.5 34q72 -9 203 -9h78q0 88 -51.5 152.5t-145.5 64.5q-69 0 -133 -41q-21 29 -17 69q80 36 179 36q115 0 186.5 -78t71.5 -224
q0 -153 -76 -241t-205 -88z" />
    <glyph glyph-name="afii10048" unicode="&#x42e;" horiz-adv-x="797" 
d="M510 616q112 0 178 -86.5t66 -222.5q0 -142 -66 -230t-185 -88q-111 0 -170.5 82.5t-66.5 208.5q-14 1 -50 1t-50 -1v-60q0 -184 6 -220h-98q7 40 7 269v54q0 223 -7 282h98q-6 -47 -6 -185v-81q15 -3 50.5 -3t50.5 3q8 124 69.5 200.5t173.5 76.5zM493 553
q-144 0 -144 -235q0 -127 45 -195t113 -71q25 0 45 4q27 7 41 17q66 66 66 202q0 139 -46 208.5t-120 69.5z" />
    <glyph glyph-name="afii10049" unicode="&#x42f;" horiz-adv-x="540" 
d="M469 0h-102q7 66 7 164v75h-90q-6 0 -20 -23.5t-38.5 -67.5t-40.5 -70q-48 -79 -64 -89q-61 0 -91 11q33 40 82.5 119.5t77.5 132.5v3q-59 15 -90 58.5t-31 104.5q0 94 60 146t184 52q77 0 156 -11q-7 -69 -7 -298v-41q0 -196 7 -266zM374 290v258q-18 10 -73 10
q-57 0 -92 -20q-49 -42 -49 -125q0 -75 60 -109.5t154 -13.5z" />
    <glyph glyph-name="afii10065" unicode="&#x430;" horiz-adv-x="485" 
d="M417 302v-101q0 -166 7 -201l-81 -8q-4 19 -7 78h-3q-24 -32 -65 -55.5t-94 -23.5q-56 0 -93.5 34.5t-37.5 92.5q0 83 67.5 118.5t220.5 37.5q1 80 -20 114.5t-81 34.5q-66 0 -143 -42q-18 16 -18 50q108 52 196 52q77 0 114.5 -41.5t37.5 -139.5zM130 136q0 -41 25 -63
t58 -22q37 0 69 18.5t50 47.5v98q-37 8 -57 8q-89 0 -121 -24q-24 -27 -24 -63z" />
    <glyph glyph-name="afii10066" unicode="&#x431;" horiz-adv-x="517" 
d="M288 472q85 0 135.5 -58t50.5 -162q0 -118 -57 -190.5t-157 -72.5q-102 0 -159 80.5t-57 229.5q0 165 63.5 271t203.5 119q104 12 125 38q7 -16 8 -40t-5 -40q-22 -25 -130 -36q-51 -5 -89 -23t-59 -41.5t-35 -57.5t-18.5 -63t-6.5 -66h3q65 112 184 112zM132 247
q0 -94 37 -148t97 -54q47 0 76 28q43 50 43 152q0 90 -31 141t-86 51q-75 0 -117 -57q-19 -34 -19 -113z" />
    <glyph glyph-name="afii10067" unicode="&#x432;" horiz-adv-x="493" 
d="M237 483q186 0 186 -117q0 -40 -26 -70.5t-60 -38.5v-5q50 -6 77.5 -36t27.5 -79q0 -71 -61 -109.5t-164 -38.5q-91 0 -146 11q7 92 7 232v39q0 117 -7 200q88 12 166 12zM161 421v-151q62 -4 105 2q33 8 53 28.5t20 50.5q0 78 -108 78q-43 0 -70 -8zM161 219v-166
q18 -8 67 -8q66 0 90 12q39 25 39 83q0 44 -33 63.5t-81 19.5q-55 0 -82 -4z" />
    <glyph glyph-name="afii10068" unicode="&#x433;" horiz-adv-x="376" 
d="M169 0l-98 1q7 97 7 245v45q0 101 -7 180h292v-69q-48 6 -138 6h-64v-124q0 -210 8 -284z" />
    <glyph glyph-name="afii10069" unicode="&#x434;" horiz-adv-x="508" 
d="M-2 -119v179h31q38 0 65.5 102t27.5 209q0 54 -6 100h307q-6 -74 -6 -196v-32q0 -135 5 -183h63v-179h-72v119h-343v-119h-72zM195 411q-1 -133 -21 -225.5t-52 -125.5h212v351q-17 4 -69.5 4t-69.5 -4z" />
    <glyph glyph-name="afii10070" unicode="&#x435;" horiz-adv-x="493" 
d="M272 484q86 0 133 -48.5t47 -113.5q0 -29 -10 -59q-116 -26 -241 -32l-73 -6q3 -88 47 -129.5t115 -41.5q80 0 130 36q16 -18 16 -42q-22 -22 -71 -39.5t-103 -17.5q-103 0 -160.5 65.5t-57.5 178.5q0 103 60 176t168 73zM129 275q39 0 125 6t105 13q7 10 7 30
q0 46 -31 75t-77 29t-82 -23q-17 -17 -32 -58t-15 -72z" />
    <glyph glyph-name="afii10072" unicode="&#x436;" horiz-adv-x="676" 
d="M554 471h88q-15 -20 -75 -96.5t-83 -108.5q10 -15 49 -75.5t71 -107.5t53 -74q-24 -14 -80 -14q-8 6 -58 82q-14 22 -30.5 49t-27 43.5t-21 32t-17 23t-11.5 7.5h-36v-49q0 -119 7 -183h-85q6 63 6 180v52h-31q-4 0 -9.5 -4.5t-13.5 -14.5t-15 -19.5t-18.5 -27t-18.5 -29
t-20 -33t-20 -31.5q-44 -70 -57 -80q-16 0 -43 5t-38 12q20 24 53 70.5t72 104.5t54 80q-25 34 -84 108t-76 98h89q129 -204 156 -204h20v50q0 100 -6 154h85q-7 -63 -7 -154v-50h24q28 0 154 204z" />
    <glyph glyph-name="afii10073" unicode="&#x437;" horiz-adv-x="447" 
d="M71 394q-12 18 -15 54q68 36 165 36q74 0 112.5 -34t38.5 -85q0 -39 -23.5 -71t-58.5 -43v-5q47 -6 76 -34.5t29 -71.5q0 -76 -58 -114.5t-149 -38.5q-43 0 -88 13t-60 27q0 12 8.5 29t18.5 26q55 -37 127 -37q46 0 75 15q38 25 38 74q0 40 -31.5 62t-79.5 22
q-45 0 -69 -7q-15 31 0 61q23 -7 64 -7t68 23t27 57q0 37 -25 58.5t-72 21.5q-62 0 -118 -31z" />
    <glyph glyph-name="afii10074" unicode="&#x438;" horiz-adv-x="546" 
d="M474 0h-95q7 47 7 123v56q0 126 4 177h-3q-20 -34 -116 -171.5t-123 -184.5h-77q7 75 7 224v42q0 116 -7 205h95q-5 -27 -5 -122v-69q0 -112 -6 -164h5q19 33 119.5 175t120.5 180h74q-5 -96 -5 -206v-67q0 -117 5 -198z" />
    <glyph glyph-name="afii10075" unicode="&#x439;" horiz-adv-x="546" 
d="M474 0h-95q7 47 7 123v56q0 126 4 177h-3q-20 -34 -116 -171.5t-123 -184.5h-77q7 75 7 224v42q0 116 -7 205h95q-5 -27 -5 -122v-69q0 -112 -6 -164h5q19 33 119.5 175t120.5 180h74q-5 -96 -5 -206v-67q0 -117 5 -198zM197 689q18 -83 92 -83q70 0 90 75q29 2 38 -12
q-6 -46 -44 -80.5t-100 -34.5q-56 0 -92 29t-44 78q6 11 25.5 19t34.5 9z" />
    <glyph glyph-name="afii10076" unicode="&#x43a;" horiz-adv-x="478" 
d="M356 471h99q-19 -20 -93.5 -102t-98.5 -106q9 -12 52.5 -74t82.5 -113t64 -73q-27 -14 -90 -14q-15 10 -58 67q-8 11 -13 17q-20 27 -39 56t-29.5 46t-20.5 31.5t-17 20.5t-13 6h-21v-42q0 -132 6 -191h-96q7 89 7 222v35q0 123 -7 214h96q-6 -53 -6 -152v-46h21
q8 0 32 24.5t54 61t51 64t37 48.5z" />
    <glyph glyph-name="afii10077" unicode="&#x43b;" horiz-adv-x="507" 
d="M435 0h-96q8 57 8 204v207q-19 2 -74.5 2t-73.5 -2q1 -24 1 -73q0 -184 -41 -272.5t-137 -74.5q-14 33 -2 80q53 -8 79 57.5t26 216.5v27q0 62 -8 99h318q-5 -61 -5 -206v-37q0 -159 5 -228z" />
    <glyph glyph-name="afii10078" unicode="&#x43c;" horiz-adv-x="602" 
d="M135 0h-76q11 94 23 303l8 168h85q86 -188 131 -274h4q105 219 126 274h81l2 -111q7 -236 23 -360h-91q3 49 0.5 195.5t-2.5 168.5h-6q-32 -79 -88 -197l-39 -79h-47l-46 103q-5 11 -36.5 78t-42.5 97h-5q-9 -201 -4 -366z" />
    <glyph glyph-name="afii10079" unicode="&#x43d;" horiz-adv-x="541" 
d="M469 0h-95q7 65 7 181v39q-31 4 -110 4t-110 -4v-39q0 -125 6 -181h-96q7 86 7 220v29q0 153 -7 222h96q-6 -47 -6 -156v-36q31 -4 110 -4t110 4v42q0 99 -7 150h95q-6 -69 -6 -221v-32q0 -117 6 -218z" />
    <glyph glyph-name="afii10080" unicode="&#x43e;" horiz-adv-x="529" 
d="M275 488q100 0 155 -67.5t55 -181.5q0 -111 -62 -180.5t-159 -69.5q-103 0 -162 67t-59 176q0 115 65 185.5t167 70.5zM259 428q-58 0 -86 -28q-44 -46 -44 -143q0 -99 40.5 -153.5t109.5 -54.5q36 0 71 23q50 48 50 154q0 88 -35 145t-106 57z" />
    <glyph glyph-name="afii10081" unicode="&#x43f;" horiz-adv-x="534" 
d="M463 0h-96q8 88 8 275v136q-31 4 -107.5 4t-106.5 -4v-139q0 -184 6 -272h-96q7 124 7 224v43q0 93 -7 204h392q-6 -160 -6 -205v-37q0 -144 6 -229z" />
    <glyph glyph-name="afii10082" unicode="&#x440;" horiz-adv-x="526" 
d="M70 466l90 11q0 -46 -1 -69l-1 -9q18 27 49 45t62 18q38 14 69 12q68 -12 107 -67t39 -149q0 -126 -76 -197.5t-183 -71.5q-30 0 -64 8v-28q0 -105 6 -163h-97q8 69 8 318v49q0 208 -8 293zM161 349v-292q28 -12 69 -12q68 0 105 29q58 54 58 172q0 82 -30.5 125.5
t-85.5 45.5q-17 1 -38 -4q-48 -15 -78 -64z" />
    <glyph glyph-name="afii10083" unicode="&#x441;" horiz-adv-x="447" 
d="M272 484q54 0 90 -12.5t49 -27.5q-1 -13 -11.5 -32t-23.5 -29q-46 39 -116 39q-51 0 -78 -24q-50 -50 -50 -138q0 -93 46.5 -151t124.5 -58q51 0 100 26q14 -18 12 -43q-21 -18 -64 -31.5t-87 -13.5q-99 0 -159.5 67.5t-60.5 179.5q0 110 66.5 179t161.5 69z" />
    <glyph glyph-name="afii10084" unicode="&#x442;" horiz-adv-x="425" 
d="M15 402v69h395v-69q-30 6 -115 6h-40v-115q0 -219 8 -293h-101q9 65 9 296v112h-40q-78 0 -116 -6z" />
    <glyph glyph-name="afii10085" unicode="&#x443;" horiz-adv-x="456" 
d="M15 471h107q19 -85 133 -391h5q23 57 58.5 185t52.5 206h81q-16 -42 -49.5 -143t-43.5 -131l-37 -107q-82 -237 -131 -302q-19 1 -39 14.5t-25 31.5q47 47 103 166h-25q-17 40 -190 471z" />
    <glyph glyph-name="afii10086" unicode="&#x444;" horiz-adv-x="683" 
d="M390 -194h-95q6 54 6 169v21q-21 -6 -42 -6q-18 -1 -43 2q-76 13 -124 77.5t-48 168.5q0 118 73 185t182 58v42q0 135 -4 177q14 4 45 5t47 -3q-1 -16 -4 -186l-1 -44q40 10 65 10q15 1 45 -3q68 -14 108 -74t40 -150q0 -126 -67 -198t-191 -65v-24q0 -116 8 -162z
M430 428q-39 0 -52 -4q-4 -186 0 -379q75 -3 114 21q62 51 62 174q0 88 -36.5 138t-87.5 50zM270 45q25 0 35 3q4 112 -1 378q-11 5 -47.5 2.5t-58.5 -15.5q-30 -20 -49.5 -64t-19.5 -107q0 -89 41 -143t100 -54z" />
    <glyph glyph-name="afii10087" unicode="&#x445;" horiz-adv-x="477" 
d="M35 471h112q42 -85 100 -173h5q73 109 107 173h90q-112 -142 -163 -224q99 -154 167 -247h-108q-17 30 -65 106.5t-54 86.5h-4q-64 -100 -112 -193h-89q104 149 166 245q-72 116 -152 226z" />
    <glyph glyph-name="afii10088" unicode="&#x446;" horiz-adv-x="531" 
d="M453 60h64v-179h-72v119h-374q7 100 7 238v29q0 123 -7 204h96q-6 -75 -6 -207v-204q31 -4 104.5 -4t104.5 4v204q0 131 -7 207h96q-6 -81 -6 -216v-195z" />
    <glyph glyph-name="afii10089" unicode="&#x447;" horiz-adv-x="485" 
d="M42 471h96q-7 -77 -7 -143q0 -58 21 -83.5t71 -25.5q60 0 101 22v85q0 82 -7 145h97q-7 -78 -7 -211v-44q0 -145 7 -216h-99q9 36 9 141v55q-68 -36 -132 -36q-69 0 -106.5 34t-37.5 113v44q0 83 -6 120z" />
    <glyph glyph-name="afii10090" unicode="&#x448;" horiz-adv-x="710" 
d="M638 0h-567q7 96 7 223v42q0 142 -7 206h91q-6 -69 -6 -174v-237q22 -3 79.5 -2.5t79.5 2.5v235q0 112 -5 176h91q-7 -68 -7 -173v-238q22 -3 80 -2.5t80 2.5v235q0 107 -6 176h90q-6 -92 -6 -207v-40q0 -164 6 -224z" />
    <glyph glyph-name="afii10091" unicode="&#x449;" horiz-adv-x="728" 
d="M640 0h-569q7 72 7 228v37q0 142 -7 206h91q-6 -68 -6 -182v-229q23 -3 84 -2.5t84 2.5v226q0 122 -7 185h91q-7 -73 -7 -186v-225q23 -3 86 -3t83 3v225q0 113 -6 186h91q-7 -54 -7 -204v-207h64v-179h-72v119z" />
    <glyph glyph-name="afii10092" unicode="&#x44a;" horiz-adv-x="527" 
d="M4 471h230q-7 -42 -7 -135v-31q117 28 192.5 -11t75.5 -130q0 -85 -58.5 -127.5t-162.5 -42.5q-84 0 -136 12q6 56 6 190v212h-48q-60 0 -92 -6v69zM413 157q0 63 -51 90.5t-133 6.5q-10 -102 0 -194q18 -9 67 -9q50 0 77 16q40 28 40 90z" />
    <glyph glyph-name="afii10093" unicode="&#x44b;" horiz-adv-x="639" 
d="M71 471h96q-6 -30 -6 -112v-54q110 24 178.5 -15.5t68.5 -132.5q0 -71 -50 -117t-151 -46q-79 0 -136 11q7 63 7 227v39q0 142 -7 200zM328 157q0 63 -46.5 89.5t-123.5 7.5q-8 -102 0 -194q18 -9 68 -9q33 0 66 17q36 30 36 89zM482 226v48q0 107 -5 197h91
q-6 -54 -6 -193v-43q0 -172 6 -235h-93q7 96 7 226z" />
    <glyph glyph-name="afii10094" unicode="&#x44c;" horiz-adv-x="460" 
d="M71 471h96q-6 -29 -6 -113v-53q124 29 195.5 -12t71.5 -136q0 -74 -54.5 -118.5t-162.5 -44.5q-84 0 -139 11q6 67 6 237v37q0 144 -7 192zM345 157q0 63 -48.5 90t-135.5 7q-8 -102 0 -194q16 -8 66 -8q51 0 77 16q41 28 41 89z" />
    <glyph glyph-name="afii10095" unicode="&#x44d;" horiz-adv-x="462" 
d="M186 -11q-108 0 -150 49q2 14 11.5 29t21.5 21q45 -39 123 -39q52 0 83 23q57 47 57 145h-76q-106 0 -142 -7q-16 31 0 65q42 -7 143 -7h70q0 65 -41.5 109.5t-103.5 44.5q-61 0 -115 -27q-17 17 -17 50q74 37 161 37t147 -62t60 -175t-63.5 -184.5t-168.5 -71.5z" />
    <glyph glyph-name="afii10096" unicode="&#x44e;" horiz-adv-x="696" 
d="M430 432q-39 0 -67 -26q-43 -52 -43 -158q0 -95 35.5 -149t96.5 -54q36 0 65 19q47 41 47 168q0 90 -33 145t-101 55zM455 488q89 0 143 -63.5t54 -175.5q0 -120 -57 -190t-150 -70q-90 0 -144.5 64t-58.5 168q-8 3 -41 3t-40 -3v-49q0 -129 6 -172h-96q7 122 7 233v24
q0 155 -7 214h96q-6 -47 -6 -152v-44q7 -1 39.5 -1t42.5 1q8 94 65.5 153.5t146.5 59.5z" />
    <glyph glyph-name="afii10097" unicode="&#x44f;" horiz-adv-x="496" 
d="M336 0v200h-58q-6 0 -13.5 -7t-18 -22.5t-19 -30.5t-24 -42t-26.5 -45q-31 -54 -47 -63q-35 -3 -83 12q18 21 43 59t55 86.5t40 63.5l-1 1q-45 10 -77 39t-32 81q0 72 58 109t144 37q81 0 148 -12q-7 -65 -7 -207v-47q0 -116 7 -212h-89zM336 246v172q-18 5 -61 5
q-55 0 -81 -16q-34 -32 -34 -71q0 -94 135 -94q18 0 41 4z" />
    <glyph glyph-name="afii10071" unicode="&#x451;" horiz-adv-x="501" 
d="M279 484q86 0 133 -48.5t47 -113.5q0 -29 -10 -59q-116 -26 -241 -32l-73 -6q3 -88 47 -129.5t115 -41.5q80 0 130 36q16 -18 16 -42q-22 -22 -71 -39.5t-103 -17.5q-103 0 -160.5 65.5t-57.5 178.5q0 103 60 176t168 73zM136 275q39 0 125 6t105 13q7 10 7 30
q0 46 -31 75t-77 29t-82 -23q-17 -17 -32 -58t-15 -72zM123 592q0 19 13 31.5t33 12.5q19 0 32.5 -12.5t13.5 -31.5q0 -18 -13.5 -30.5t-32.5 -12.5q-20 0 -33 12t-13 31zM315 592q0 18 13.5 31t31.5 13q20 0 33 -12.5t13 -31.5t-13 -31t-33 -12q-18 0 -31.5 12.5
t-13.5 30.5z" />
    <glyph glyph-name="afii10099" unicode="&#x452;" horiz-adv-x="537" 
d="M356 541h-194q-1 -71 -1 -189h5q73 81 165 81q71 0 105 -46t34 -159v-243q0 -116 -39 -159.5t-124 -33.5q-6 16 -5.5 39t5.5 34q22 -1 34.5 2t24 17t16.5 44.5t5 80.5v194q0 94 -22 130.5t-71 36.5q-37 0 -73 -23t-60 -57v-47q0 -123 7 -243h-97q7 109 7 300v54
q0 127 -1 187h-77q-11 30 0 59h75q-2 68 -4 104q14 4 46.5 4.5t46.5 -3.5q0 -3 -0.5 -39t-0.5 -66h193q12 -28 0 -59z" />
    <glyph glyph-name="afii10100" unicode="&#x453;" horiz-adv-x="376" 
d="M169 0l-98 1q7 97 7 245v45q0 101 -7 180h292v-69q-48 6 -138 6h-64v-124q0 -210 8 -284zM430 678l-188 -135l-27 34l163 166q14 -1 33 -24t19 -41z" />
    <glyph glyph-name="afii10101" unicode="&#x454;" horiz-adv-x="457" 
d="M130 266h83q104 0 139 8q15 -30 0 -67q-44 9 -216 9q7 -68 50.5 -116t118.5 -48q52 0 101 26q14 -20 12 -44q-22 -18 -65.5 -31.5t-89.5 -13.5q-98 0 -158.5 68t-60.5 179q0 109 66.5 179t160.5 70q54 0 92 -14t48 -30q0 -13 -13 -32.5t-24 -24.5q-42 39 -106 42
q-15 1 -39 -3q-40 -8 -65.5 -42.5t-33.5 -114.5z" />
    <glyph glyph-name="afii10102" unicode="&#x455;" horiz-adv-x="428" 
d="M358 449q0 -11 -8 -27.5t-17 -24.5q-35 28 -96 28q-80 0 -80 -58q0 -24 22 -44.5t53.5 -38t63.5 -38t54 -52t22 -70.5q0 -59 -47.5 -97t-120.5 -38q-51 0 -88.5 19t-54.5 40q-1 16 8 32.5t22 24.5q41 -56 117 -56q78 0 78 68q0 29 -22 53t-53.5 42t-63.5 37t-54 48.5
t-22 66.5q0 52 42 86t116 34q54 0 91 -11.5t38 -23.5z" />
    <glyph glyph-name="afii10103" unicode="&#x456;" horiz-adv-x="279" 
d="M96 230v36q0 152 -10 205h107q-9 -54 -9 -208v-33q0 -176 9 -230h-107q10 59 10 230zM82 611q0 21 17 35.5t39 14.5q24 0 40 -14t16 -36q0 -21 -16 -35t-40 -14q-22 0 -39 14t-17 35z" />
    <glyph glyph-name="afii10104" unicode="&#x457;" horiz-adv-x="299" 
d="M41 618q0 18 13 31t32 13t33 -13t14 -31t-14 -30.5t-33 -12.5t-32 12.5t-13 30.5zM167 618q0 18 13.5 31t32.5 13t32.5 -13t13.5 -31t-13.5 -30.5t-32.5 -12.5t-32.5 12.5t-13.5 30.5zM105 230v36q0 152 -10 205h108q-9 -54 -9 -208v-33q0 -176 9 -230h-108q10 59 10 230
z" />
    <glyph glyph-name="afii10105" unicode="&#x458;" horiz-adv-x="289" 
d="M199 124v-162q0 -56 -14.5 -94.5t-39.5 -57t-53 -24t-60 -0.5q-13 31 2 67q38 0 57 29t19 114v140q0 284 -9 359h104q-6 -124 -6 -371zM104 611q0 21 16.5 35.5t38.5 14.5q24 0 40.5 -14.5t16.5 -35.5t-16.5 -35t-40.5 -14q-22 0 -38.5 14t-16.5 35z" />
    <glyph glyph-name="afii10106" unicode="&#x459;" horiz-adv-x="693" 
d="M322 0q6 57 6 204v207q-18 2 -69 2t-69 -2q1 -24 1 -74q0 -186 -39.5 -270t-131.5 -78q-8 12 -9.5 41.5t3.5 44.5q102 -26 102 268v28q0 63 -8 100h309q-6 -61 -6 -166q122 30 185.5 -10.5t63.5 -137.5q0 -74 -49.5 -118.5t-156.5 -44.5q-87 0 -132 6zM578 157
q0 136 -167 97q-10 -102 0 -194q18 -8 59 -8t71 16q37 27 37 89z" />
    <glyph glyph-name="afii10107" unicode="&#x45a;" horiz-adv-x="730" 
d="M356 0q6 56 6 189v39q-30 4 -99 4t-100 -4v-39q0 -124 7 -189h-96q7 86 7 220v29q0 153 -7 222h96q-7 -55 -7 -148v-36q31 -3 100 -3t99 3v42q0 98 -6 142h95q-6 -69 -6 -179q119 29 185 -8.5t66 -122.5q0 -78 -50.5 -122.5t-156.5 -44.5q-88 0 -133 6zM613 153
q0 59 -40.5 84t-125.5 5q-9 -96 0 -182q16 -8 58 -8q45 0 72 16q36 24 36 85z" />
    <glyph glyph-name="afii10108" unicode="&#x45b;" horiz-adv-x="537" 
d="M356 541h-194q-1 -71 -1 -189h5q73 81 165 81q71 0 105 -46t34 -159v-51q0 -103 6 -177h-97q8 70 8 174v29q0 79 -16 117t-49 47q-18 3 -37 0q-33 -1 -67 -23t-57 -54v-47q0 -123 7 -243h-97q7 109 7 300v54q0 127 -1 187h-77q-11 30 0 59h75q-2 68 -4 104q17 5 47 5.5
t47 -4.5q0 -5 -2 -105h193q12 -28 0 -59z" />
    <glyph glyph-name="afii10109" unicode="&#x45c;" horiz-adv-x="478" 
d="M356 471h99q-19 -20 -93.5 -102t-98.5 -106q9 -12 52.5 -74t82.5 -113t64 -73q-27 -14 -90 -14q-15 10 -58 67q-8 11 -13 17q-20 27 -39 56t-29.5 46t-20.5 31.5t-17 20.5t-13 6h-21v-42q0 -132 6 -191h-96q7 89 7 222v35q0 123 -7 214h96q-6 -53 -6 -152v-46h21
q8 0 32 24.5t54 61t51 64t37 48.5zM454 678l-188 -135l-27 34l163 166q14 -1 33 -24t19 -41z" />
    <glyph glyph-name="afii10110" unicode="&#x45e;" horiz-adv-x="488" 
d="M32 471h107q19 -85 133 -391h5q23 57 58.5 185t52.5 206h81q-16 -42 -49.5 -143t-43.5 -131l-37 -107q-82 -237 -131 -302q-19 1 -39 14.5t-25 31.5q47 47 103 166h-25q-17 40 -190 471zM175 689q18 -83 92 -83q70 0 90 75q29 2 38 -12q-6 -46 -44 -80.5t-100 -34.5
q-56 0 -92 29t-44 78q6 11 25.5 19t34.5 9z" />
    <glyph glyph-name="afii10193" unicode="&#x45f;" horiz-adv-x="532" 
d="M453 0h-156v-119h-73v119h-153q7 100 7 238v29q0 123 -7 204h96q-6 -75 -6 -207v-204q31 -4 104.5 -4t104.5 4v204q0 131 -7 207h97q-7 -81 -7 -216v-255z" />
    <glyph glyph-name="uni0462" unicode="&#x462;" horiz-adv-x="500" 
d="M76 605h100q-3 -19 -5 -91h209q10 -27 0 -55h-210v-35v-53q56 12 109 7t95 -22t67.5 -57.5t25.5 -99.5q0 -108 -68.5 -159t-191.5 -51q-78 0 -133 10q7 48 7 255v55q0 101 -1 150h-86q-10 28 0 55h86q-2 68 -4 91zM378 188q0 78 -56.5 113.5t-151.5 18.5v-266
q30 -7 67 -7q47 0 79 14q62 36 62 127z" />
    <glyph glyph-name="uni0463" unicode="&#x463;" horiz-adv-x="460" 
d="M340 410h-179v-111q124 29 195.5 -10.5t71.5 -134.5q0 -73 -54.5 -116.5t-162.5 -43.5q-84 0 -139 11q6 67 6 237v168h-67q-9 31 0 61h67v37q0 143 -7 192h96q-6 -30 -6 -113v-116h179q10 -31 0 -61zM345 154q0 63 -48.5 89t-135.5 6q-7 -99 0 -189q16 -8 66 -8
q51 0 77 16q41 28 41 86z" />
    <glyph glyph-name="afii10050" unicode="&#x490;" horiz-adv-x="398" 
d="M179 0h-105q7 82 7 301v40q0 180 -7 264h273v99h57v-170q-54 6 -185 6h-49v-256q0 -210 9 -284z" />
    <glyph glyph-name="afii10098" unicode="&#x491;" horiz-adv-x="378" 
d="M169 0l-98 1q7 97 7 245v45q0 101 -7 180h234v102h58v-171q-58 6 -138 6h-64v-124q0 -210 8 -284z" />
    <glyph glyph-name="endash" unicode="&#x2013;" horiz-adv-x="596" 
d="M491 267h-387q-11 34 0 67h387q13 -34 0 -67z" />
    <glyph glyph-name="emdash" unicode="&#x2014;" horiz-adv-x="781" 
d="M671 245h-562q-8 38 0 67h562q11 -33 0 -67z" />
    <glyph glyph-name="quoteleft" unicode="&#x2018;" horiz-adv-x="162" 
d="M157 543q0 -27 -16 -43t-41 -16q-28 0 -44.5 21t-16.5 59q0 59 37 94.5t81 36.5q6 -19 1 -40q-24 0 -42 -17.5t-17 -43.5q25 3 41.5 -12.5t16.5 -38.5z" />
    <glyph glyph-name="quoteright" unicode="&#x2019;" horiz-adv-x="160" 
d="M5 561q0 22 16.5 37.5t41.5 15.5q28 0 44.5 -21.5t16.5 -61.5q0 -64 -36 -103.5t-82 -41.5q-6 17 -2 39q26 -1 48.5 27t17.5 62q-24 -11 -44.5 4t-20.5 43z" />
    <glyph glyph-name="quotesinglbase" unicode="&#x201a;" horiz-adv-x="207" 
d="M73 51q0 22 16.5 37.5t41.5 15.5q28 0 44.5 -21.5t16.5 -61.5q0 -64 -36 -103.5t-82 -41.5q-6 17 -2 39q26 -1 48.5 27t17.5 62q-24 -11 -44.5 4t-20.5 43z" />
    <glyph glyph-name="quotedblleft" unicode="&#x201c;" horiz-adv-x="367" 
d="M157 543q0 -27 -16 -43t-41 -16q-28 0 -44.5 21t-16.5 59q0 59 37 94.5t81 36.5q6 -19 1 -40q-24 0 -42 -17.5t-17 -43.5q25 3 41.5 -12.5t16.5 -38.5zM322 543q0 -27 -16 -43t-41 -16q-28 0 -44.5 21t-16.5 59q0 59 37 94.5t81 36.5q6 -19 1 -40q-24 0 -42 -17.5
t-17 -43.5q25 3 41.5 -12.5t16.5 -38.5z" />
    <glyph glyph-name="quotedblright" unicode="&#x201d;" horiz-adv-x="396" 
d="M69 561q0 22 16.5 37.5t41.5 15.5q28 0 44.5 -21.5t16.5 -61.5q0 -64 -36 -103.5t-82 -41.5q-6 17 -2 39q26 -1 48.5 27t17.5 62q-24 -11 -44.5 4t-20.5 43zM214 561q0 22 16.5 37.5t41.5 15.5q28 0 44.5 -21.5t16.5 -61.5q0 -64 -36 -103.5t-82 -41.5q-6 17 -2 39
q26 -1 48.5 27t17.5 62q-24 -11 -44.5 4t-20.5 43z" />
    <glyph glyph-name="quotedblbase" unicode="&#x201e;" horiz-adv-x="363" 
d="M52 51q0 22 16.5 37.5t41.5 15.5q28 0 44.5 -21.5t16.5 -61.5q0 -64 -36 -103.5t-82 -41.5q-6 17 -2 39q26 -1 48.5 27t17.5 62q-24 -11 -44.5 4t-20.5 43zM198 51q0 22 16.5 37.5t41.5 15.5q28 0 44.5 -21.5t16.5 -61.5q0 -64 -36 -103.5t-82 -41.5q-6 17 -2 39
q26 -1 48.5 27t17.5 62q-24 -11 -44.5 4t-20.5 43z" />
    <glyph glyph-name="dagger" unicode="&#x2020;" horiz-adv-x="488" 
d="M420 387l-146 7q0 -298 16 -394h-97q15 114 15 394l-140 -7q-12 45 0 77l141 -8l-10 149q15 8 41.5 8t41.5 -8l-9 -149l147 8q5 -13 5 -37t-5 -40z" />
    <glyph glyph-name="daggerdbl" unicode="&#x2021;" horiz-adv-x="488" 
d="M274 234q0 -158 13 -234h-91q11 86 12 234l-134 -7q-12 45 0 76l134 -6v106l-134 -7q-12 45 0 77l135 -8l-10 140q15 8 41.5 8t41.5 -8l-9 -140l138 8q5 -14 5 -37.5t-5 -39.5l-137 7l-1 -107l138 7q5 -13 5 -36.5t-5 -39.5z" />
    <glyph glyph-name="bullet" unicode="&#x2022;" horiz-adv-x="343" 
d="M39 276q0 37 25 61t62 24q39 0 65 -24t26 -61q0 -35 -26.5 -60t-64.5 -25q-36 0 -61.5 25t-25.5 60z" />
    <glyph glyph-name="ellipsis" unicode="&#x2026;" horiz-adv-x="878" 
d="M696 48q0 23 16.5 39.5t39.5 16.5q25 0 42.5 -16.5t17.5 -39.5q0 -24 -17 -39.5t-43 -15.5q-24 0 -40 15.5t-16 39.5zM382 48q0 23 16.5 39.5t39.5 16.5q25 0 42.5 -16.5t17.5 -39.5q0 -24 -17 -39.5t-43 -15.5q-24 0 -40 15.5t-16 39.5zM69 48q0 23 16.5 39.5t39.5 16.5
q25 0 42.5 -16.5t17.5 -39.5q0 -24 -17 -39.5t-43 -15.5q-24 0 -40 15.5t-16 39.5z" />
    <glyph glyph-name="perthousand" unicode="&#x2030;" horiz-adv-x="1099" 
d="M118 32l499 547q30 -12 42 -43l-500 -548q-30 7 -41 44zM54 429q0 66 41.5 110.5t108.5 44.5t109 -44.5t42 -110.5t-42 -110.5t-109 -44.5t-108.5 44.5t-41.5 110.5zM194 528q-29 0 -46 -15q-30 -26 -30 -83q0 -46 26 -74t63 -28q26 0 53 15q31 31 31 82q0 48 -26.5 75.5
t-70.5 27.5zM421 144q0 66 41.5 110.5t108.5 44.5q68 0 109 -44.5t41 -110.5t-41 -110.5t-109 -44.5q-67 0 -108.5 44.5t-41.5 110.5zM562 244q-33 0 -47 -16q-31 -26 -31 -83q0 -46 26.5 -73t65.5 -27q29 0 51 14q31 31 31 81q0 48 -26 76t-70 28zM759 142q0 66 41.5 110.5
t109.5 44.5q67 0 108.5 -44.5t41.5 -110.5t-41.5 -110.5t-108.5 -44.5q-68 0 -109.5 44.5t-41.5 110.5zM901 242q-31 0 -47 -16q-31 -26 -31 -83q0 -46 26.5 -73.5t64.5 -27.5q28 0 52 15q30 28 30 80q0 49 -25.5 77t-69.5 28z" />
    <glyph glyph-name="guilsinglleft" unicode="&#x2039;" horiz-adv-x="266" 
d="M197 449l-106 -198l96 -183q-10 -13 -27 -18.5t-31 0.5l-108 209l107 195q16 8 35 6t34 -11z" />
    <glyph glyph-name="guilsinglright" unicode="&#x203a;" horiz-adv-x="266" 
d="M68 61l108 198l-96 183q9 12 26 17.5t32 0.5l107 -209l-106 -196q-15 -8 -35.5 -6t-35.5 12z" />
    <glyph glyph-name="fraction" unicode="&#x2044;" horiz-adv-x="209" 
d="M333 570l-413 -581q-31 5 -45 36l410 580q33 -7 48 -35z" />
    <glyph glyph-name="twoinferior" unicode="&#x2082;" horiz-adv-x="361" 
d="M66 228q-10 1 -21 11t-12 21q21 37 64 66.5t99 29.5q53 0 87 -28.5t34 -75.5q0 -117 -185 -190v-3l62 1q81 3 127 12v-72h-280q-7 23 0 54q6 3 29 15.5t30.5 17t27.5 16t28 18t22.5 18t21 20.5t14.5 21.5t11 25t3 26.5q0 37 -31 52q-18 7 -40 4q-48 -1 -91 -60z" />
    <glyph glyph-name="fourinferior" unicode="&#x2084;" horiz-adv-x="395" 
d="M312 353v-293h49q11 -31 0 -60h-49v-64h-83v64h-206q-11 26 0 54l214 299h75zM90 60h146v203z" />
    <glyph glyph-name="Euro" unicode="&#x20ac;" horiz-adv-x="578" 
d="M400 214h-216q20 -73 74 -117.5t128 -44.5q69 0 122 33q15 -17 18 -45q-27 -22 -72.5 -36.5t-89.5 -14.5q-109 0 -179 58.5t-91 166.5h-52q-11 25 0 52h44q-1 13 -1 49q0 6 4 42h-47q-9 29 0 52h57q26 97 97 155.5t179 58.5q39 0 137 -18q3 -33 -23 -71q-52 29 -132 29
q-61 0 -100 -23q-24 -17 -47.5 -54t-31.5 -77h275q2 -26 -21 -52h-262q-2 -14 -2 -40q0 -30 3 -51h250q2 -31 -21 -52z" />
    <glyph glyph-name="afii61352" unicode="&#x2116;" horiz-adv-x="865" 
d="M74 605h99q4 -23 54.5 -106t122 -196.5t102.5 -169.5h2v199q0 221 -7 273h76q-4 -62 -4 -423v-182h-90q-9 16 -130.5 213t-149.5 253h-4v-176q0 -225 7 -290h-78q7 74 7 286v44q0 224 -7 275zM563 494q0 53 32 87t84 34t84.5 -34.5t32.5 -86.5t-32.5 -86t-84.5 -34
t-84 34t-32 86zM673 564q-20 0 -32 -10q-22 -19 -22 -59q0 -33 18 -52t45 -19q17 0 37 9q21 23 21 57q0 35 -18 54.5t-49 19.5zM789 269h-220q-11 37 0 68h220q8 -30 0 -68z" />
    <glyph glyph-name="trademark" unicode="&#x2122;" horiz-adv-x="880" 
d="M84 542v63h327v-63q-47 8 -128 8v-144q0 -137 7 -186h-86q7 43 7 188v142q-90 0 -127 -8zM499 220h-67q12 34 29 161.5t23 223.5h69q21 -72 99 -232h2q8 20 32 76.5t38.5 93.5t19.5 62h72q4 -77 17.5 -204t24.5 -181h-80q2 51 -6.5 161t-9.5 127h-5l-93 -218h-47l-95 219
h-5q-1 -55 -9 -150t-9 -139z" />
    <glyph glyph-name="partialdiff" unicode="&#x2202;" horiz-adv-x="528" 
d="M266 472q62 0 95 -21l1 4q-20 67 -76.5 129.5t-125.5 91.5q2 17 13 30.5t27 16.5q28 -10 61.5 -30t74.5 -59t73.5 -88t54.5 -122t22 -155q0 -134 -60.5 -207t-155.5 -73q-106 0 -166 67t-60 173q0 112 63 177.5t159 65.5zM260 412q-60 0 -88 -30q-43 -45 -43 -133
q0 -92 41 -146t109 -54q39 0 64 20q57 52 57 172q0 80 -21 135q-42 36 -119 36z" />
    <glyph glyph-name="Delta" unicode="&#x2206;" horiz-adv-x="493" 
d="M274 616l183 -569l-32 -47h-364l-25 47l187 569h51zM232 484l-134 -424h271l-132 424h-5z" />
    <glyph glyph-name="product" unicode="&#x220f;" horiz-adv-x="658" 
d="M583 -198h-100q6 101 6 301v536q-30 3 -159 3t-160 -3v-536q0 -199 6 -301h-102q7 71 7 265v343q0 215 -7 294h509q-5 -100 -5 -295v-330q0 -185 5 -277z" />
    <glyph glyph-name="summation" unicode="&#x2211;" horiz-adv-x="492" 
d="M139 636l257 -380l-260 -387v-4l117 4q177 10 199 13v-80h-413v67l252 383l-252 383v68h413v-80q-27 4 -199 13l-114 4v-4z" />
    <glyph glyph-name="minus" unicode="&#x2212;" horiz-adv-x="540" 
d="M474 269h-407q-9 32 0 60h407q5 -25 0 -60z" />
    <glyph glyph-name="radical" unicode="&#x221a;" horiz-adv-x="674" 
d="M327 -11l-178 426h-123q-9 26 0 56h198q9 -45 32.5 -107.5t55.5 -137.5t44 -108h4l120 597h194q11 -27 0 -56h-150l-144 -670h-53z" />
    <glyph glyph-name="infinity" unicode="&#x221e;" horiz-adv-x="759" 
d="M51 288q0 85 48 143t122 58q51 0 91 -34.5t79 -100.5h2q23 48 67.5 91.5t97.5 43.5q62 0 105.5 -57.5t43.5 -148.5q0 -82 -51 -135.5t-114 -53.5q-56 0 -96 34.5t-78 98.5h-2q-71 -133 -166 -133q-63 0 -106 52t-43 142zM346 274q-36 70 -67 110t-63 40q-37 0 -56 -22
q-32 -35 -32 -106q0 -58 27 -98t69 -40q30 0 66 37.5t56 78.5zM413 305q69 -147 131 -147q27 0 54 20q32 32 32 108q0 57 -26.5 97t-65.5 40q-59 0 -125 -118z" />
    <glyph glyph-name="integral" unicode="&#x222b;" horiz-adv-x="297" 
d="M372 668q-27 12 -61 15t-70 -9q-18 -25 -26.5 -67t-8.5 -144v-379q0 -207 -57 -290t-171 -71q-6 14 -2.5 37t13.5 34q62 -3 102 14q6 10 11 22t8 29t5.5 32.5t4 40t2 43t0.5 51v54.5v62v66v287q0 253 201 253q44 0 64 -14q5 -13 -0.5 -38t-14.5 -28z" />
    <glyph glyph-name="approxequal" unicode="&#x2248;" horiz-adv-x="521" 
d="M449 172q-45 -36 -87.5 -37.5t-75.5 17t-65.5 37t-68 15.5t-71.5 -40q-1 2 -3.5 9.5t-3.5 10t-3 9t-2 10.5t1 10t3 11q39 40 78 43.5t72 -15t66.5 -37.5t73.5 -18t80 37q17 -30 6 -62zM448 313q-45 -36 -87.5 -37.5t-75.5 17t-65.5 37t-68 15.5t-71.5 -40q-1 2 -3.5 9.5
t-3.5 10t-3 9t-2 10.5t1 10t3 11q39 40 78 43.5t72 -15t66.5 -37.5t73.5 -18t80 37q17 -30 6 -62z" />
    <glyph glyph-name="notequal" unicode="&#x2260;" horiz-adv-x="537" 
d="M474 354h-145l-60 -116h205q5 -25 0 -60h-236l-86 -165q-32 1 -44 25l73 140h-114q-9 32 0 60h146l61 116h-207q-10 33 0 60h238l81 154q31 -8 42 -25l-67 -129h113q5 -23 0 -60z" />
    <glyph glyph-name="lessequal" unicode="&#x2264;" horiz-adv-x="480" 
d="M427 158l-400 111q-10 30 -1 51l392 227q22 -18 22 -45l-332 -191l338 -89q-3 -51 -19 -64zM423 37l-389 108q1 24 14 46l389 -107q3 -20 -14 -47z" />
    <glyph glyph-name="greaterequal" unicode="&#x2265;" horiz-adv-x="477" 
d="M64 547l386 -216q10 -30 1 -51l-395 -124q-22 14 -20 47l337 103l-338 184q0 35 29 57zM439 153l-390 -124q-16 24 -14 47l390 123q10 -20 14 -46z" />
    <glyph glyph-name="lozenge" unicode="&#x25ca;" horiz-adv-x="559" 
d="M266 674l206 -362l-206 -365l-203 365zM267 547l-128 -235l129 -235l128 235z" />
    <glyph glyph-name="ff" unicode="&#xfb00;" horiz-adv-x="613" 
d="M533 711q65 0 115 -26q-1 -15 -11 -33.5t-21 -25.5q-45 25 -75 25q-36 0 -52 -26q-23 -45 -20 -154h110q7 -8 6.5 -29t-7.5 -31h-104v-146q0 -185 7 -265h-98q8 80 8 272v139h-200v-146q0 -185 6 -265h-97q8 91 8 272v139h-70q-4 11 -4 30t4 30h68q-6 131 32 185.5
t111 54.5q57 0 112 -24q-1 -15 -10.5 -32.5t-20.5 -23.5q-42 20 -73 20q-35 0 -51 -26q-23 -45 -20 -154h203q-6 132 32.5 186t111.5 54z" />
    <glyph glyph-name="fi" unicode="&#xfb01;" horiz-adv-x="575" 
d="M391 230v36q0 76 -4 145h-196v-146q0 -185 6 -265h-97q8 91 8 272v139h-70q-4 11 -4 30t4 30h68q-12 244 142 244q58 0 89 -18q0 -13 -8.5 -32t-17.5 -27q-24 17 -55 17q-36 0 -50 -28q-22 -50 -20 -156h302q-8 -56 -8 -208v-33q0 -174 8 -230h-106q9 62 9 230zM378 611
q0 21 16.5 35.5t38.5 14.5q24 0 40.5 -14t16.5 -36q0 -21 -16.5 -35t-40.5 -14q-22 0 -38.5 14t-16.5 35z" />
    <glyph glyph-name="fl" unicode="&#xfb02;" horiz-adv-x="562" 
d="M372 90v384q0 70 -3 158q-42 23 -92 23q-21 0 -42.5 -7t-28.5 -21q-22 -50 -20 -156h75q7 -8 6.5 -29t-7.5 -31h-69v-146q0 -185 6 -265h-97q8 91 8 272v139h-70q-4 11 -4 30t4 30h68q-6 133 35 188.5t123 55.5q48 0 103 -11q61 12 96 1q0 -22 -2.5 -158.5t-2.5 -229.5
v-157q0 -80 15 -97t70 -6q8 -21 0 -38q-40 -25 -102 -25q-69 0 -69 96z" />
    <glyph glyph-name="Cyrbreve" horiz-adv-x="411" 
d="M251 788q7 -42 32 -63.5t61 -21.5q70 0 93 76q28 2 40 -14q-5 -44 -45.5 -80.5t-104.5 -36.5q-62 0 -100.5 32t-43.5 81q18 25 68 27z" />
    <glyph glyph-name="exclamdotdot" horiz-adv-x="881" 
d="M139 186l-29 421q58 21 110 0l-27 -421h-54zM734 48q0 23 16 39.5t40 16.5q25 0 42.5 -16.5t17.5 -39.5q0 -24 -17.5 -39.5t-42.5 -15.5q-24 0 -40 15.5t-16 39.5zM421 48q0 23 16 39.5t40 16.5q25 0 42.5 -16.5t17.5 -39.5q0 -24 -17.5 -39.5t-42.5 -15.5
q-24 0 -40 15.5t-16 39.5zM107 48q0 23 16 39.5t40 16.5q25 0 42.5 -16.5t17.5 -39.5q0 -24 -17.5 -39.5t-42.5 -15.5q-24 0 -40 15.5t-16 39.5z" />
    <glyph glyph-name="cyrbreve" horiz-adv-x="411" 
d="M226 689q18 -83 92 -83q70 0 90 75q29 2 38 -12q-6 -46 -44 -80.5t-100 -34.5q-56 0 -92 29t-44 78q6 11 25.5 19t34.5 9z" />
    <glyph glyph-name="apple" horiz-adv-x="612" 
d="M442 380q0 -2 2 -2q0 -2 3 -8q0 -8 1 -12q5 -12 6 -13q-1 -1 -1 -6q2 -2 2 -4q-1 -2 0 -4t0 -2l-1 -2q1 -1 1.5 -4t2.5 -4v-3q0 -2 1 -2q-4 0 -4 -1q1 0 2 -2t2 -2q0 -1 -1 -1q0 -1 2 -1l-1 -1q1 -2 1.5 -5t1.5 -5.5t3 -4.5l-1 -1l-1 1q-3 0 -1 -3q1 0 4 -3v-5q1 0 1 -3
t1 -3q-2 0 -2 -2q1 0 2 -1.5t2 -1.5v1q0 -6 1 -7q1 1 1 2v-7q2 -2 3 -5.5t2 -4.5l-1 -1q1 -2 1 -4v-3t1 -2.5t2 -2.5v-3l1 -1l2 -2l-1 1h-1l-1 -1q1 -1 2 -3l1 -1q0 -1 -1 -4t1 -4q-1 0 -1 -2q0 -1 1.5 -2t2.5 -3l-1 -2l3 -9l-2 2l-1 -2q2 -7 5 -8q-2 0 -2 -3q2 -1 3 -3.5
t2 -3.5q1 1 1 4h1l1 1q0 -4 1 -4q-1 0 -1 -5l1 -1l-1 -1q2 -6 0 -9q5 -2 1 -6l1 -1l-2 -6q0 -1 2 -1l-1 -1l2 -2q-1 0 -1 -1q1 -1 1 -7l4 -4l-1 -1q1 -1 3 -5.5t4 -6.5v-3q1 -1 3 -2l2 -1q-1 0 -1 -2q0 -1 1.5 -1t0.5 -2l-1 1q-2 0 -1 -3l2 -2q1 0 1 0.5t1 0.5q0 -1 1 -1
l-1 -1l1 -1q1 -3 2 -2q1 0 1 1q0 -3 -1 -4q1 -2 2 -2l-1 -1q0 -1 3 -1l3 -6v-4v-2l1 -1v-1v-2l4 -6l-1 -1q0 -1 1 -1t1 -1l-1 -1q2 0 3 -1.5t1.5 -3t1.5 -2.5q-2 0 -2 -1q1 -3 4 -6.5t4 -5.5q1 -1 1.5 -5t2.5 -6q-1 0 -1 -2q0 -1 2 -1q0 -4 2 -12t3 -13q1 -1 6 -4q0 -1 5 -8
v-3h-4v2q0 2 -2 2q-1 0 -1 -2l1 -2h-430q2 5 5 15.5t6 18.5t8 16l3 -1q1 0 5 4v2q7 11 20 22h2q1 1 8 5t11 6q11 3 15 10q2 3 1.5 4.5t-2 5t-1.5 4.5q0 3 -2 8.5t-3 8.5q-1 1 -3 2.5t-2 2.5q-13 19 -30 17q-3 0 -18.5 -4t-23.5 -3t-22 5q-6 2 -9 2q-10 4 -17 14q-7 11 0 42
q1 2 -2 5.5t-3 5.5q-1 1 -3 2t-2 2q-2 12 6 16q-4 3 -5 6.5t-1 10v9.5q0 8 -3 9q-1 1 -3 2q-1 1 -1.5 1t-1.5 1q-13 4 -17 11t1 17q3 3 8.5 9t8.5 9v3l1 1q4 6 13 15l11 11q8 14 7 20q0 1 -1 1l-2 1q3 0 3 1q-3 1 -3 6q1 0 4 3q-1 0 -1 5q2 2 2 7l5 20q2 0 2 1l-1 1q1 2 2 5
t2 4.5t3 2.5q-1 0 -1 1q4 18 22 38q1 1 -1 1q1 0 1 2l-2 2q-2 1 -3 3h-1v1q0 1 2.5 1.5t2.5 1.5q-1 1 -2 1q1 0 3 2l-1 1q1 0 1 3q4 -6 6 1h-2q2 0 3 2.5t0 4.5l-1 1q1 0 4 7q6 4 10 7q3 0 9.5 1t9.5 2q1 0 1 2q2 -1 4 1h1q1 0 1 2q10 7 24 12q-1 2 -2 3q8 5 11 6l-1 -1
q0 -1 4 -1q0 -2 1 -2q2 0 2 2q1 -1 3 -1q3 0 1 2q-1 0 -1 0.5t-1 0.5h11q6 -3 7 -3l2 1l11 -4q3 -1 29 -4h5h4h2h1h2q1 0 2.5 -1t2.5 -1h2q1 -1 5.5 -1t5.5 -1q0 1 2 1l1 -1l1 1q1 0 2 -1l1 -1q1 0 1 1q0 -1 1 -1h2q1 0 4 -1.5l4 -2t4 0.5q2 0 7 -1.5t7 -0.5l3 -3q2 0 2 1
l-2 2l3 -3l2 1q4 -1 8 -3.5t5 -2.5q14 -6 21 -13q2 -5 5 -7v-2q1 -2 4 -5.5t5 -5.5v-2q2 -4 3 -5v-2q8 -10 10 -18q11 -18 21 -45l1 -1l1 -1q0 -2 1.5 -9t1.5 -10l1 -2v-3zM125 471q2 0 3 1v-2zM493 187q0 -1 1 -2q0 1 -1 2t-1 2q1 -1 1 -2zM492 193v-4v4zM490 195l2 -2z
M215 540q2 0 2 -1zM124 481h-2q0 1 1 1q0 -1 1 -1zM122 481v1v-1zM465 291l1 -1q-1 0 -1 1zM480 235h1l1 -1q-1 0 -2 1zM471 273q0 -1 -0.5 -1t-0.5 -1q1 1 1 2zM470 271h1l-1 -1v1zM498 177l-1 -1z" />
    <glyph glyph-name="Acute" horiz-adv-x="337" 
d="M470 788l-188 -135l-27 34l163 166q14 -1 33 -24t19 -41z" />
    <glyph glyph-name="questiondotdot" horiz-adv-x="762" 
d="M193 537q-63 0 -107 -46q-13 7 -25 27.5t-10 31.5q12 13 29 26t53.5 26.5t77.5 13.5q76 0 120 -44.5t44 -115.5q0 -73 -45 -115.5t-106 -60.5q-5 -13 -5.5 -55.5t1.5 -52.5q-12 -5 -31 -5t-30 7q0 75 11 105.5t46 49.5q40 22 61 45.5t21 62.5q0 42 -25 71t-80 29zM758 48
q0 23 16.5 39.5t40.5 16.5q25 0 42 -16.5t17 -39.5q0 -24 -17 -39.5t-42 -15.5q-24 0 -40.5 15.5t-16.5 39.5zM444 48q0 23 16.5 39.5t40.5 16.5q25 0 42.5 -16.5t17.5 -39.5q0 -24 -17.5 -39.5t-42.5 -15.5q-24 0 -40.5 15.5t-16.5 39.5zM131 48q0 23 16.5 39.5t40.5 16.5
q25 0 42 -16.5t17 -39.5q0 -24 -17 -39.5t-42 -15.5q-24 0 -40.5 15.5t-16.5 39.5z" />
    <glyph glyph-name="commaaccent" horiz-adv-x="194" 
d="M233 -80q0 19 13.5 32t34.5 13q24 0 38 -18.5t14 -52.5q0 -55 -30.5 -89t-69.5 -35q-6 17 -1 33q21 -1 40.5 24t15.5 54q-21 -10 -38 2.5t-17 36.5z" />
    <glyph glyph-name="Imacron" horiz-adv-x="285" 
d="M197 0h-108q8 58 8 275v48q0 235 -8 282h108q-6 -54 -6 -252v-41q0 -243 6 -312zM10 734h274q5 -11 4.5 -35.5t-6.5 -32.5h-277q-7 11 -5 35t10 33z" />
    <glyph glyph-name="zerooldstyle" horiz-adv-x="571" 
d="M292 499q99 0 166.5 -69.5t67.5 -184.5q0 -119 -67.5 -187.5t-171.5 -68.5q-99 0 -170 67.5t-71 179.5q0 127 72 195t174 68zM279 439q-50 0 -86 -22q-11 -10 -23.5 -27.5t-25.5 -55t-13 -79.5q0 -96 51 -151t116 -55q44 0 76 15q23 15 44.5 59.5t21.5 107.5
q0 92 -46 150t-115 58z" />
    <glyph glyph-name="oneoldstyle" horiz-adv-x="299" 
d="M208 0h-100q9 79 9 148v236q-49 -26 -94 -19q-8 21 0 43q33 0 67 23t49 56h63v-347q0 -67 6 -140z" />
    <glyph glyph-name="twooldstyle" horiz-adv-x="424" 
d="M60 368q-24 14 -27 36q81 94 199 94q66 0 106.5 -38.5t40.5 -103.5q0 -88 -68 -162t-168 -128v-4l118 2q79 1 130 13v-77h-359q-7 23 0 53q253 145 253 280q0 45 -27 70.5t-73 25.5q-71 0 -125 -61z" />
    <glyph glyph-name="threeoldstyle" horiz-adv-x="421" 
d="M27 487h325q9 -35 0 -68l-163 -153q81 -6 131 -57t50 -125q0 -51 -22.5 -96t-58 -76t-78.5 -54t-85 -34t-78 -12q-17 18 -11 54q49 3 102 25.5t95 69.5t42 106q0 65 -49.5 109.5t-124.5 34.5q-8 22 0 40l163 166v4h-97q-94 0 -141 -5v71z" />
    <glyph glyph-name="fouroldstyle" horiz-adv-x="457" 
d="M363 494v-369h63q13 -32 0 -62h-63v-223h-89v223h-251q-10 24 0 57l259 374h81zM91 125h191v274z" />
    <glyph glyph-name="fiveoldstyle" horiz-adv-x="387" 
d="M112 417v-133q108 3 173 -50t65 -140q0 -52 -22.5 -97.5t-57 -77t-75.5 -55t-77.5 -34.5t-63.5 -13q-8 9 -11.5 27t-0.5 31q78 10 145.5 67t67.5 139q0 75 -58 114t-148 32v259h149q115 0 139 15q13 -32 7 -70q-28 -14 -135 -14h-97z" />
    <glyph glyph-name="sixoldstyle" horiz-adv-x="486" 
d="M251 -11q-94 0 -150.5 69t-56.5 194q0 154 91 273t243 145q6 -8 10 -24.5t1 -29.5q-95 -18 -171 -96t-91 -211l3 -1q54 67 149 67q77 0 124 -49t47 -135q0 -91 -58 -146.5t-141 -55.5zM255 49q45 0 70 20q42 37 42 104q0 73 -32 110t-91 37q-52 0 -85 -28t-33 -78
q0 -67 33.5 -116t95.5 -49z" />
    <glyph glyph-name="sevenoldstyle" horiz-adv-x="352" 
d="M11 412v74h334q9 -29 -4 -66q-58 -77 -106 -236.5t-48 -262.5q0 -50 5 -81h-93v14q0 114 46.5 278t124.5 284v4h-57q-157 0 -202 -8z" />
    <glyph glyph-name="eightoldstyle" horiz-adv-x="470" 
d="M237 654q78 0 122 -41t44 -102q0 -99 -106 -170v-4q126 -73 126 -185q0 -72 -53 -119t-135 -47q-90 0 -139 45t-49 117q0 53 34 100t86 73v4q-108 69 -108 172q0 68 51 112.5t127 44.5zM248 358q31 20 54.5 60t23.5 73q0 49 -24.5 78.5t-70.5 29.5q-50 0 -72 -21
q-23 -20 -23 -69q0 -85 112 -151zM220 303q-96 -62 -96 -143q0 -53 34 -86t82 -33q56 0 79 23q27 25 27 76q0 44 -28 83.5t-98 79.5z" />
    <glyph glyph-name="nineoldstyle" horiz-adv-x="489" 
d="M241 499q96 0 150.5 -60.5t54.5 -182.5q0 -181 -97 -305t-225 -136q-9 7 -14 25t-3 32q51 5 104.5 42t97.5 109.5t54 160.5l-5 1q-40 -72 -146 -72q-79 0 -127.5 48t-48.5 137q0 95 58.5 148t146.5 53zM231 439q-47 0 -71 -19q-41 -37 -41 -103q0 -149 129 -149
q48 0 81.5 36.5t33.5 86.5q0 67 -34 107.5t-98 40.5z" />
    <glyph glyph-name="ampersandsmall" horiz-adv-x="803" 
d="M742 584q-52 -55 -134 -37q73 -101 73 -231q0 -142 -84.5 -233.5t-217.5 -91.5q-134 0 -204 65.5t-70 181.5q0 101 60.5 173.5t167.5 72.5q86 0 133 -48.5t47 -113.5q0 -34 -10 -59q-112 -26 -241 -32l-73 -6q3 -87 59 -129t139 -42q111 0 173.5 79.5t60.5 182.5
q-2 87 -24 143.5t-63 110.5q-40 13 -66 18t-62.5 -2t-67.5 -33q-19 29 -7 57q48 32 96 37.5t86.5 -6t75 -23.5t75 -9.5t72.5 31.5q17 -28 6 -56zM190 275q38 0 124.5 6t105.5 13q7 10 7 30q0 46 -31 75t-77 29q-48 0 -81 -23q-18 -17 -33 -58t-15 -72z" />
    <glyph glyph-name="Th" horiz-adv-x="962" 
d="M508 624h-6q-29 -40 -82.5 -62t-107.5 -22h-21v-226q0 -249 6 -314h-101q6 70 6 318v222h-35q-101 0 -149 -5v70h227q91 0 153 20t118 75q45 14 74 4q-1 -43 -4 -295h5q75 79 157 79q77 0 112 -43t35 -154v-59q0 -183 7 -232h-98q8 26 8 211v49q0 93 -22 129t-71 36
q-36 0 -72 -21t-60 -52v-53q0 -196 6 -299h-96q7 109 7 300v54q0 173 4 270z" />
    <glyph glyph-name="oneNum" horiz-adv-x="299" 
d="M207 330h-96q6 42 6 115v135q-29 -16 -74 -14q-7 24 0 46q62 0 96 71h63v-246q0 -62 5 -107z" />
    <glyph glyph-name="twoNum" horiz-adv-x="361" 
d="M66 558q-10 1 -21 11t-12 21q21 37 64 66.5t99 29.5q53 0 87 -28.5t34 -75.5q0 -117 -185 -190v-3l62 1q68 3 127 12v-72h-280q-7 23 0 54q6 3 29 15.5t30.5 17t27.5 16t28 18t22.5 18t21 20.5t14.5 21.5t11 25t3 26.5q0 26 -14.5 43.5t-39.5 17.5q-39 0 -60.5 -14.5
t-47.5 -50.5z" />
    <glyph glyph-name="threeNum" horiz-adv-x="363" 
d="M40 674h266q7 -32 0 -62l-119 -70q67 -1 103 -20.5t36 -69.5q0 -57 -43.5 -95t-100.5 -52.5t-122 -14.5q-16 18 -9 52q78 2 135 27t57 75q0 36 -37 47t-120 3q-10 20 -1 40l128 77v3h-68q-69 0 -105 -4v64z" />
    <glyph glyph-name="fourNum" horiz-adv-x="395" 
d="M312 683v-241h49q11 -30 0 -60h-49v-105h-83v105h-206q-11 26 0 55l214 246h75zM95 442h141v159z" />
    <glyph glyph-name="zeroNum" horiz-adv-x="420" 
d="M216 694q81 0 125.5 -51t44.5 -132q0 -89 -44.5 -141.5t-131.5 -52.5q-83 0 -129 50.5t-46 137.5q0 88 48 138.5t133 50.5zM205 634q-39 0 -56 -11q-39 -32 -39 -108q0 -139 111 -139q34 0 57 13q32 32 32 107q0 66 -27 102t-78 36z" />
    <glyph glyph-name="fiveNum" horiz-adv-x="334" 
d="M102 619v-57q101 7 150 -24.5t49 -88.5q0 -53 -41.5 -91t-96 -54.5t-118.5 -20.5q-6 5 -8 22.5t1 26.5q70 7 122 35t52 77q0 44 -44.5 63.5t-126.5 10.5v164h133q97 0 117 10q3 -8 5 -31.5t0 -32.5q-19 -9 -113 -9h-81z" />
    <glyph glyph-name="sixNum" horiz-adv-x="398" 
d="M202 317q-79 0 -123 40.5t-44 115.5q0 94 72.5 163.5t207.5 85.5q6 -4 9 -21t1 -26q-80 -11 -140 -51t-75 -109h3q42 47 117 47q66 0 102.5 -31t36.5 -87q0 -59 -41.5 -93t-125.5 -34zM208 365q42 0 61 15q22 18 22 53q0 81 -93 81q-42 0 -63.5 -17t-21.5 -46
q0 -35 24 -60.5t71 -25.5z" />
    <glyph glyph-name="sevenNum" horiz-adv-x="322" 
d="M11 610v73h298q4 -9 2.5 -26.5t-6.5 -25.5q-53 -47 -93.5 -126.5t-40.5 -137.5q0 -32 3 -46h-84v8q0 145 136 284v2h-35q-138 0 -180 -5z" />
    <glyph glyph-name="eightNum" horiz-adv-x="403" 
d="M205 695q71 0 108.5 -25t37.5 -60q0 -65 -89 -88v-3q103 -34 103 -102q0 -46 -43 -73.5t-119 -27.5q-166 0 -166 92q0 31 26 56.5t70 36.5v2q-85 33 -85 95q0 42 42.5 69.5t114.5 27.5zM210 535q66 33 66 64q0 22 -19.5 35.5t-56.5 13.5q-40 0 -59 -10q-18 -11 -18 -32
q0 -37 87 -71zM184 485q-32 -11 -51.5 -28.5t-19.5 -37.5q0 -27 25.5 -42t66.5 -15q48 0 69 12q16 10 16 35q0 41 -106 76z" />
    <glyph glyph-name="nineNum" horiz-adv-x="412" 
d="M204 694q79 0 124.5 -41t45.5 -117q0 -118 -75 -180.5t-191 -69.5q-7 6 -10 24t1 26q173 13 201 150l-4 1q-39 -49 -115 -49q-63 0 -104 33.5t-41 89.5q0 59 48.5 96t119.5 37zM198 639q-35 0 -57 -13q-28 -19 -28 -59q0 -37 24.5 -57t69.5 -20q41 0 66 18t25 47
q0 40 -27.5 62t-72.5 22z" />
    <glyph glyph-name="zeroDenom" horiz-adv-x="420" 
d="M216 317q81 0 125.5 -51t44.5 -132q0 -89 -44.5 -141.5t-131.5 -52.5q-83 0 -129 50.5t-46 137.5q0 88 48 138.5t133 50.5zM205 257q-39 0 -56 -11q-39 -32 -39 -108q0 -139 111 -139q34 0 57 13q32 32 32 107q0 66 -27 102t-78 36z" />
    <glyph glyph-name="oneDenom" horiz-adv-x="299" 
d="M207 -50h-96q6 42 6 115v135q-29 -16 -74 -14q-7 24 0 46q62 0 96 71h63v-246q0 -62 5 -107z" />
    <glyph glyph-name="twoDenom" horiz-adv-x="361" 
d="M66 186q-10 1 -21 11t-12 21q21 37 64 66.5t99 29.5q53 0 87 -28.5t34 -75.5q0 -117 -185 -190v-3l62 1q68 3 127 12v-72h-280q-7 23 0 54q6 3 29 15.5t30.5 17t27.5 16t28 18t22.5 18t21 20.5t14.5 21.5t11 25t3 26.5q0 26 -14.5 43.5t-39.5 17.5q-39 0 -60.5 -14.5
t-47.5 -50.5z" />
    <glyph glyph-name="threeDenom" horiz-adv-x="363" 
d="M40 302h266q7 -32 0 -62l-119 -70q67 -1 103 -20.5t36 -69.5q0 -57 -43.5 -95t-100.5 -52.5t-122 -14.5q-16 18 -9 52q78 2 135 27t57 75q0 36 -37 47t-120 3q-10 20 -1 40l128 77v3h-68q-69 0 -105 -4v64z" />
    <glyph glyph-name="fourDenom" horiz-adv-x="395" 
d="M312 303v-241h49q11 -30 0 -60h-49v-105h-83v105h-206q-11 26 0 55l214 246h75zM95 62h141v159z" />
    <glyph glyph-name="fiveDenom" horiz-adv-x="334" 
d="M102 239v-57q101 7 150 -24.5t49 -88.5q0 -53 -41.5 -91t-96 -54.5t-118.5 -20.5q-6 5 -8 22.5t1 26.5q70 7 122 35t52 77q0 44 -44.5 63.5t-126.5 10.5v164h133q97 0 117 10q3 -8 5 -31.5t0 -32.5q-19 -9 -113 -9h-81z" />
    <glyph glyph-name="sixDenom" horiz-adv-x="398" 
d="M202 -75q-79 0 -123 40.5t-44 115.5q0 94 72.5 163.5t207.5 85.5q6 -4 9 -21t1 -26q-80 -11 -140 -51t-75 -109h3q42 47 117 47q66 0 102.5 -31t36.5 -87q0 -59 -41.5 -93t-125.5 -34zM208 -27q42 0 61 15q22 18 22 53q0 81 -93 81q-42 0 -63.5 -17t-21.5 -46
q0 -35 24 -60.5t71 -25.5z" />
    <glyph glyph-name="sevenDenom" horiz-adv-x="322" 
d="M11 230v73h298q4 -9 2.5 -26.5t-6.5 -25.5q-53 -47 -93.5 -126.5t-40.5 -137.5q0 -32 3 -46h-84v8q0 145 136 284v2h-35q-138 0 -180 -5z" />
    <glyph glyph-name="eightDenom" horiz-adv-x="403" 
d="M205 315q71 0 108.5 -25t37.5 -60q0 -65 -89 -88v-3q103 -34 103 -102q0 -46 -43 -73.5t-119 -27.5q-166 0 -166 92q0 31 26 56.5t70 36.5v2q-85 33 -85 95q0 42 42.5 69.5t114.5 27.5zM210 155q66 33 66 64q0 22 -19.5 35.5t-56.5 13.5q-40 0 -59 -10q-18 -11 -18 -32
q0 -37 87 -71zM184 105q-32 -11 -51.5 -28.5t-19.5 -37.5q0 -27 25.5 -42t66.5 -15q48 0 69 12q16 10 16 35q0 41 -106 76z" />
    <glyph glyph-name="nineDenom" horiz-adv-x="412" 
d="M204 314q79 0 124.5 -41t45.5 -117q0 -118 -75 -180.5t-191 -69.5q-7 6 -10 24t1 26q173 13 201 150l-4 1q-39 -49 -115 -49q-63 0 -104 33.5t-41 89.5q0 59 48.5 96t119.5 37zM198 259q-35 0 -57 -13q-28 -19 -28 -59q0 -37 24.5 -57t69.5 -20q41 0 66 18t25 47
q0 40 -27.5 62t-72.5 22z" />
    </font>
</defs>
</svg>
