<?xml version="1.0" standalone="no"?>
<!DOCTYPE svg PUBLIC "-//W3C//DTD SVG 1.1//EN" "http://www.w3.org/Graphics/SVG/1.1/DTD/svg11.dtd" >
<svg xmlns="http://www.w3.org/2000/svg" xmlns:xlink="http://www.w3.org/1999/xlink" version="1.1">
<metadata>
Created by FontForge 20170731 at Sun Oct 18 22:53:05 2009
 By Aleksey,,,
Copyright (c) 2009 by Alexandra Korolkova. All rights reserved.
</metadata>
<defs>
<font id="LeksaSans-Bold" horiz-adv-x="647" >
  <font-face 
    font-family="Leksa Sans"
    font-weight="700"
    font-stretch="normal"
    units-per-em="1000"
    panose-1="2 1 8 2 5 3 2 2 2 2"
    ascent="750"
    descent="-250"
    x-height="483"
    cap-height="605"
    bbox="-133 -307 1078 957"
    underline-thickness="50"
    underline-position="-200"
    unicode-range="U+0020-FB02"
  />
<missing-glyph horiz-adv-x="226" 
 />
    <glyph glyph-name=".notdef" horiz-adv-x="226" 
 />
    <glyph glyph-name=".null" horiz-adv-x="0" 
 />
    <glyph glyph-name="nonmarkingreturn" horiz-adv-x="333" 
 />
    <glyph glyph-name="space" unicode=" " horiz-adv-x="201" 
 />
    <glyph glyph-name="exclam" unicode="!" horiz-adv-x="275" 
d="M116 207l-41 399q90 23 173 0l-39 -399h-93zM81 68q0 33 23 55.5t56 22.5q35 0 58.5 -22.5t23.5 -55.5t-23.5 -55t-58.5 -22q-33 0 -56 22t-23 55z" />
    <glyph glyph-name="quotedbl" unicode="&#x22;" horiz-adv-x="353" 
d="M53 415l-18 190q17 13 58.5 13t60.5 -13l-17 -190h-84zM216 415l-18 190q17 13 58.5 13t60.5 -13l-17 -190h-84z" />
    <glyph glyph-name="numbersign" unicode="#" horiz-adv-x="682" 
d="M329 20l46 186h-155l-52 -209q-19 -5 -33 0.5t-36 22.5l46 186h-96q-11 46 1 86h118l32 133h-149q-13 49 0 86h172l49 196q35 6 68 -23l-45 -173h158l49 196q35 9 69 -22l-46 -174h107q13 -39 1 -86h-129l-31 -133h158q13 -36 1 -86h-181l-52 -209q-22 -5 -35.5 0.5
t-34.5 22.5zM274 432l-39 -147h164l38 147h-163z" />
    <glyph glyph-name="dollar" unicode="$" horiz-adv-x="465" 
d="M410 595q2 -59 -27 -106q-48 32 -106 32q-42 0 -57 -12t-15 -43q0 -24 23.5 -49t56.5 -49t66 -51.5t56.5 -67t23.5 -84.5q0 -76 -46.5 -124.5t-111.5 -51.5v-88q-41 -19 -86 0v88q-49 0 -95 22t-62 49q2 20 19.5 48t34.5 36q19 -26 49 -43t59 -17q70 0 74 47q6 23 -3 47
q-8 20 -42 48.5t-69.5 53.5t-66.5 67t-36 89q-3 22 0 45q8 64 52 99.5t96 35.5v88q45 17 86 0v-88q53 -1 127 -21z" />
    <glyph glyph-name="percent" unicode="%" horiz-adv-x="768" 
d="M100 52l519 546q44 -19 60 -62l-520 -548q-42 16 -59 64zM42 445q0 67 43 111t111 44t111 -44t43 -111t-43 -111t-111 -44t-111 44t-43 111zM187 523q-23 0 -33 -10q-19 -19 -19 -67q0 -38 18.5 -59t46.5 -21q22 0 39 11q19 22 19 64q0 82 -71 82zM424 144q0 67 43 111
t111 44q69 0 112 -44t43 -111t-43 -111t-112 -44q-68 0 -111 44t-43 111zM570 223q-24 0 -33 -11q-20 -18 -20 -67q0 -38 19 -59t47 -21q17 0 39 11q18 23 18 64q0 83 -70 83z" />
    <glyph glyph-name="ampersand" unicode="&#x26;" horiz-adv-x="686" 
d="M289 616q78 0 117 -31t39 -73q0 -66 -106 -146q62 -103 107 -139q33 48 55 129.5t15 148.5q30 2 66.5 -10t51.5 -30q7 -55 -28 -154.5t-82 -156.5q37 -38 116 -80q-5 -25 -21 -52t-34 -40q-27 7 -67 36t-72 64q-77 -93 -205 -93q-94 0 -151.5 50t-57.5 131q0 73 41 123.5
t113 90.5q-50 55 -50 118q0 55 44.5 84.5t108.5 29.5zM257 489q0 -35 28 -70q60 39 60 72q0 21 -12 34.5t-33 13.5q-20 0 -34 -9q-9 -14 -9 -41zM183 171q0 -39 24.5 -66.5t66.5 -27.5q31 0 63.5 20.5t47.5 50.5q-60 62 -118 163q-84 -53 -84 -140z" />
    <glyph glyph-name="quotesingle" unicode="'" horiz-adv-x="190" 
d="M53 415l-18 190q17 13 58.5 13t60.5 -13l-17 -190h-84z" />
    <glyph glyph-name="parenleft" unicode="(" horiz-adv-x="333" 
d="M291 -77q-8 -34 -36 -44q-87 41 -155 149.5t-68 254.5q0 134 73 242t150 150q27 -11 35 -43q-118 -146 -118 -358q0 -106 32.5 -198t86.5 -153z" />
    <glyph glyph-name="parenright" unicode=")" horiz-adv-x="333" 
d="M41 633q8 31 37 43q86 -40 154.5 -149t68.5 -254q0 -71 -23 -139t-58.5 -117.5t-72 -84t-69.5 -52.5q-29 12 -35 44q118 147 118 357q0 106 -32.5 198t-87.5 154z" />
    <glyph glyph-name="asterisk" unicode="*" horiz-adv-x="463" 
d="M308 705q-28 -95 -33 -120l4 -5q10 3 19 7t20.5 13t16.5 13t22 19.5t21 19.5q27 -13 38 -53.5t-1 -70.5q-80 6 -117 1v-6q32 -34 95 -73q-7 -33 -37 -58t-65 -26q-9 50 -36 121h-9q-29 -53 -52 -115q-35 -3 -66.5 20.5t-35.5 61.5q69 33 105 66l-3 8q-78 4 -119 0
q-11 29 -0.5 65.5t37.5 57.5q65 -54 101 -70l4 5q-21 91 -33 121q26 20 61.5 20t62.5 -22z" />
    <glyph glyph-name="plus" unicode="+" horiz-adv-x="584" 
d="M514 254h-189v-202q-36 -12 -78 0v202h-178q-11 44 0 80h178v196q46 12 78 0v-196h189q10 -37 0 -80z" />
    <glyph glyph-name="comma" unicode="," horiz-adv-x="219" 
d="M50 70q0 32 23 54t57 22q37 0 60 -27.5t23 -79.5q0 -78 -48 -122t-109 -44q-7 23 0 49q28 -2 50.5 20t20.5 54q-33 -5 -55 17.5t-22 56.5z" />
    <glyph glyph-name="hyphen" unicode="-" horiz-adv-x="362" 
d="M293 221h-224q-14 60 0 109h224q13 -52 0 -109z" />
    <glyph glyph-name="period" unicode="." horiz-adv-x="228" 
d="M42 68q0 33 23 55.5t56 22.5q35 0 58.5 -22.5t23.5 -55.5t-23.5 -55t-58.5 -22q-33 0 -56 22t-23 55z" />
    <glyph glyph-name="slash" unicode="/" horiz-adv-x="417" 
d="M0 41l345 615q48 -8 72 -43l-344 -616q-45 6 -73 44z" />
    <glyph glyph-name="zero" unicode="0" horiz-adv-x="539" 
d="M275 613q106 0 169.5 -83t63.5 -221q0 -150 -62.5 -235t-174.5 -85q-107 0 -173 82.5t-66 229.5t68 229.5t175 82.5zM259 525q-28 0 -49 -17q-7 -8 -14 -27t-13.5 -63.5t-6.5 -101.5q0 -111 28 -175t79 -64q31 0 53 18q27 30 27 183q0 247 -104 247z" />
    <glyph glyph-name="one" unicode="1" horiz-adv-x="338" 
d="M268 0h-169q16 84 16 285v184q-49 -15 -94 -2q-10 27 0 60q37 0 70.5 22t53.5 57h114v-328q0 -198 9 -278z" />
    <glyph glyph-name="two" unicode="2" horiz-adv-x="454" 
d="M64 461q-15 8 -24.5 24.5t-11.5 32.5q85 95 216 95q75 0 123.5 -46t48.5 -128q0 -93 -72.5 -185t-162.5 -151l1 -5l105 5q92 8 133 15v-118h-390q-11 44 0 87q83 46 152.5 139t69.5 173q0 46 -23 75.5t-62 29.5q-54 0 -103 -43z" />
    <glyph glyph-name="three" unicode="3" horiz-adv-x="440" 
d="M30 602h349q11 -50 0 -104l-157 -138q183 -17 183 -156q0 -61 -35 -113t-89 -84t-114.5 -50t-115.5 -20q-23 27 -15 86q83 7 143.5 47.5t60.5 111.5q0 51 -40 80t-106 27q-11 31 0 54l152 153v4h-75q-92 0 -141 -7v109z" />
    <glyph glyph-name="four" unicode="4" horiz-adv-x="503" 
d="M413 606v-386h71q17 -46 0 -95h-71v-145h-152v145h-239q-13 40 0 84l249 397h142zM123 220h155v256z" />
    <glyph glyph-name="five" unicode="5" horiz-adv-x="427" 
d="M150 493v-98q115 2 181.5 -45.5t66.5 -135.5q0 -55 -24.5 -101.5t-62.5 -77.5t-85 -53.5t-90 -32.5t-79 -11q-10 13 -15.5 40t-0.5 47q80 11 136 54t56 116q0 66 -49.5 102t-131.5 32v273h182q107 0 139 20q8 -17 11.5 -51.5t-2.5 -56.5q-31 -21 -152 -21h-80z" />
    <glyph glyph-name="six" unicode="6" horiz-adv-x="518" 
d="M262 -11q-106 0 -168 73t-62 196q0 97 42 181t128.5 141t202.5 63q9 -12 14 -37.5t2 -44.5q-91 -11 -162.5 -65.5t-91.5 -150.5l5 -2q50 66 144 66q75 0 124 -54.5t49 -138.5q0 -98 -66.5 -162.5t-160.5 -64.5zM270 77q31 0 48 14q33 31 33 101q0 64 -25 102t-74 38
q-34 0 -58 -31t-24 -81q0 -59 25 -101t75 -42z" />
    <glyph glyph-name="seven" unicode="7" horiz-adv-x="391" 
d="M12 485v117h365q13 -46 -1 -102q-58 -65 -101.5 -192.5t-43.5 -211.5q0 -74 8 -113h-154v15q0 113 52.5 254.5t128.5 243.5v4h-46q-148 0 -208 -15z" />
    <glyph glyph-name="eight" unicode="8" horiz-adv-x="503" 
d="M249 621q91 0 143.5 -41.5t52.5 -101.5q0 -92 -100 -150v-4q55 -33 86.5 -71t31.5 -93q0 -79 -59.5 -126t-152.5 -47q-100 0 -155.5 42.5t-55.5 116.5q0 104 106 158v4q-32 23 -49 38.5t-34 46.5t-17 67q0 71 59 116t144 45zM267 357q53 46 53 95q0 40 -18.5 65.5
t-58.5 25.5q-34 0 -57 -14q-17 -19 -17 -48q0 -39 22 -65.5t76 -58.5zM224 270q-60 -45 -60 -98q0 -49 29 -78t71 -29q40 0 57 14q18 20 18 55q0 41 -24.5 71t-90.5 65z" />
    <glyph glyph-name="nine" unicode="9" horiz-adv-x="525" 
d="M260 613q109 0 171 -71.5t62 -194.5q0 -89 -30 -163t-80 -122.5t-113.5 -76.5t-133.5 -32q-14 13 -22 38.5t-6 48.5q90 9 159.5 59.5t83.5 138.5l-5 2q-43 -52 -133 -52q-78 0 -131 54t-53 141q0 106 67.5 168t163.5 62zM247 525q-30 0 -50 -14q-31 -35 -31 -102
q0 -139 111 -139q34 0 56 25.5t22 73.5q0 68 -28 112t-80 44z" />
    <glyph glyph-name="colon" unicode=":" horiz-adv-x="273" 
d="M84 103q0 33 23 55.5t56 22.5q35 0 58.5 -22.5t23.5 -55.5t-23.5 -55t-58.5 -22q-33 0 -56 22t-23 55zM84 376q0 33 23 55.5t56 22.5q35 0 58.5 -22.5t23.5 -55.5t-23.5 -55t-58.5 -22q-33 0 -56 22t-23 55z" />
    <glyph glyph-name="semicolon" unicode=";" horiz-adv-x="256" 
d="M72 70q0 32 23 54t57 22q37 0 60 -27.5t23 -79.5q0 -78 -48 -122t-109 -44q-7 23 0 49q28 -2 50.5 20t20.5 54q-33 -5 -55 17.5t-22 56.5zM73 410q0 33 23 55.5t56 22.5q35 0 58.5 -22.5t23.5 -55.5t-23.5 -55t-58.5 -22q-33 0 -56 22t-23 55z" />
    <glyph glyph-name="less" unicode="&#x3c;" horiz-adv-x="511" 
d="M435 36l-406 213q-16 42 -1 73l413 212q28 -24 29 -64l-350 -174l353 -179q-1 -20 -11.5 -45t-26.5 -36z" />
    <glyph glyph-name="equal" unicode="=" horiz-adv-x="573" 
d="M507 336h-439q-10 38 0 88h439q9 -42 0 -88zM507 181h-439q-10 38 0 88h439q9 -42 0 -88z" />
    <glyph glyph-name="greater" unicode="&#x3e;" horiz-adv-x="511" 
d="M76 533l406 -212q16 -43 1 -74l-412 -212q-28 23 -30 64l350 175l-353 179q1 20 11.5 44.5t26.5 35.5z" />
    <glyph glyph-name="question" unicode="?" horiz-adv-x="424" 
d="M191 488q-54 0 -94 -40q-20 12 -37.5 46t-13.5 54q24 25 70 46.5t109 21.5q82 0 130 -46.5t48 -123.5q0 -73 -51 -118.5t-109 -53.5q-7 -25 -1 -73q-54 -17 -89 4q0 58 13.5 83.5t51.5 45.5q60 34 60 79q0 32 -21.5 53.5t-65.5 21.5zM122 68q0 33 23 55.5t57 22.5
t58 -22.5t24 -55.5t-24 -55t-58 -22t-57 22t-23 55z" />
    <glyph glyph-name="at" unicode="@" horiz-adv-x="977" 
d="M669 0q-47 0 -74.5 35.5t-26.5 109.5l-7 1q-19 -62 -61.5 -104t-99.5 -42q-58 0 -97.5 46t-39.5 126q0 145 89.5 232.5t206.5 87.5q84 0 145 -43q-32 -184 -33 -276q0 -79 43 -79q25 0 45 13q23 23 39.5 74t16.5 111q0 137 -84 224.5t-236 87.5q-131 0 -213 -57
q-52 -49 -86 -127.5t-34 -175.5q0 -149 87.5 -248t235.5 -99q89 0 147 44q32 -42 29 -86q-23 -23 -77 -38t-111 -15q-194 0 -308.5 119.5t-114.5 318.5q0 105 40 193t105.5 145.5t148.5 89t170 31.5q193 0 303.5 -111t110.5 -274q0 -136 -73 -225t-186 -89zM577 396
q-20 11 -57 9.5t-60 -17.5q-65 -70 -65 -194q0 -47 14 -73t35 -26q44 0 85.5 94.5t47.5 206.5z" />
    <glyph glyph-name="A" unicode="A" horiz-adv-x="626" 
d="M620 0h-181q-2 8 -10 40.5t-13 49.5l-18 56q-105 11 -193 0l-16 -50q-6 -16 -14.5 -49.5t-12.5 -46.5h-141q46 108 124 328t90 277h179q24 -85 90.5 -284t115.5 -321zM304 473l-73 -240q26 -4 71.5 -4t71.5 4l-66 240h-4z" />
    <glyph glyph-name="B" unicode="B" horiz-adv-x="568" 
d="M277 616q122 0 178.5 -39.5t56.5 -122.5q0 -55 -31 -90.5t-77 -45.5v-7q53 -5 91 -40t38 -100q0 -93 -71 -137.5t-191 -44.5q-113 0 -209 12q8 96 8 274v55q0 106 -8 274q176 12 215 12zM215 533v-187q62 -5 100 4q53 27 53 97q0 44 -28.5 68t-70.5 24q-40 0 -54 -6z
M215 268v-193q22 -8 61 -8q46 0 72 16q32 30 32 98q0 60 -43.5 81.5t-121.5 5.5z" />
    <glyph glyph-name="C" unicode="C" horiz-adv-x="536" 
d="M338 620q99 0 162 -23q1 -28 -6.5 -61.5t-19.5 -50.5q-62 26 -128 26q-59 0 -85 -18q-57 -57 -57 -165q0 -98 44.5 -161t130.5 -63q56 0 111 32q9 -11 16.5 -39t7.5 -47q-34 -27 -87 -44t-102 -17q-126 0 -206 81t-80 239q0 140 82.5 225.5t216.5 85.5z" />
    <glyph glyph-name="D" unicode="D" horiz-adv-x="594" 
d="M62 0q9 76 9 280v42q0 218 -9 283q64 8 164 10q41 1 78 -2q122 -8 190 -84.5t68 -227.5q0 -135 -70 -217t-199 -92q-48 -3 -87 -2q-84 1 -144 10zM216 518q-5 -79 -5.5 -217.5t5.5 -206.5q12 -7 44 -9q17 -2 35 0q37 4 61 17q22 21 38.5 73t16.5 120q0 226 -148 226
q-31 0 -47 -3z" />
    <glyph glyph-name="E" unicode="E" horiz-adv-x="487" 
d="M459 0h-397q9 69 9 280v42q0 211 -9 283h390v-100q-58 5 -229 5v-154q147 0 201 5v-96q-55 4 -201 4v-168q176 0 236 5v-106z" />
    <glyph glyph-name="F" unicode="F" horiz-adv-x="487" 
d="M246 0h-184q9 69 9 280v42q0 211 -9 283h403v-107q-85 6 -228 6v-166q152 0 204 6v-106q-49 6 -204 6q0 -146 9 -244z" />
    <glyph glyph-name="G" unicode="G" horiz-adv-x="584" 
d="M344 620q63 0 163 -20q2 -66 -24 -112q-57 23 -127 23t-101 -18q-58 -50 -58 -175q0 -104 40 -166t112 -62q46 0 75 18q8 82 0 131h-96q-14 48 0 87h221q-10 -120 0 -259q-119 -78 -231 -78q-118 0 -198.5 81t-80.5 240q0 137 86 223.5t219 86.5z" />
    <glyph glyph-name="H" unicode="H" horiz-adv-x="642" 
d="M586 0h-167q9 88 9 269q-30 4 -102.5 4t-103.5 -4q0 -181 8 -269h-168q8 87 8 280v31q0 215 -8 294h168q-8 -79 -8 -248q30 -3 103 -3t103 3q0 173 -9 248h167q-7 -82 -7 -289v-33q0 -185 7 -283z" />
    <glyph glyph-name="I" unicode="I" horiz-adv-x="316" 
d="M253 0h-184q10 58 10 275v48q0 235 -10 282h184q-9 -51 -9 -252v-41q0 -243 9 -312z" />
    <glyph glyph-name="J" unicode="J" horiz-adv-x="319" 
d="M252 234v-139q0 -121 -66 -170t-161 -33q-16 53 3 110q36 0 54 32t18 110v102q0 284 -15 359h173q-6 -124 -6 -371z" />
    <glyph glyph-name="K" unicode="K" horiz-adv-x="609" 
d="M412 605h167q-15 -20 -58 -77.5t-79 -106.5t-57 -81q44 -77 110 -180t106 -149q-21 -10 -70 -16t-84 -6q-29 18 -78 92q-22 36 -53 94t-47.5 85.5t-24.5 27.5h-22q0 -200 8 -288h-168q8 89 8 283v33q0 200 -8 289h168q-8 -79 -8 -264h18q15 0 78 100.5t94 163.5z" />
    <glyph glyph-name="L" unicode="L" horiz-adv-x="499" 
d="M483 0h-421q9 62 9 311v33q0 198 -9 261h184q-9 -83 -9 -267v-230h45q124 0 201 9v-117z" />
    <glyph glyph-name="M" unicode="M" horiz-adv-x="754" 
d="M168 0h-122q9 54 23 253.5t20 351.5h164q13 -36 65 -154.5t72 -167.5h4q13 39 56.5 158t57.5 164h164q2 -113 17.5 -338.5t25.5 -266.5h-169q4 71 0 188v39q-5 163 2 227h-9l-132 -367h-97l-145 370l-5 -1q8 -66 4 -227v-44q-1 -48 4 -185z" />
    <glyph glyph-name="N" unicode="N" horiz-adv-x="645" 
d="M62 605h165q10 -25 53 -94t104 -164t94 -152h4v137q0 221 -8 273h113q-6 -76 -6 -436v-169h-158q-19 42 -122 204t-126 205h-5v-116q0 -237 8 -293h-116q9 63 9 286v42q0 233 -9 277z" />
    <glyph glyph-name="O" unicode="O" 
d="M335 626q125 0 202.5 -80.5t77.5 -235.5q0 -153 -83.5 -237t-210.5 -84q-122 0 -202 81.5t-80 228.5q0 82 25.5 146.5t68 103t94 58t108.5 19.5zM320 531q-42 0 -67 -17q-49 -65 -49 -186q0 -120 36.5 -182.5t97.5 -62.5q42 0 67 20q17 18 30.5 65t13.5 111
q0 121 -32.5 186.5t-96.5 65.5z" />
    <glyph glyph-name="P" unicode="P" horiz-adv-x="547" 
d="M229 0h-167q8 55 8 305v44q0 204 -8 255q93 12 223 12q116 0 179 -53t63 -149q0 -59 -23.5 -103.5t-62.5 -69.5t-83 -37t-91 -12q-21 0 -45 2q0 -153 7 -194zM375 407q0 59 -27 90t-76 31q-36 0 -50 -3v-244q17 -5 39 -5q48 0 73 14q18 17 29.5 49.5t11.5 67.5z" />
    <glyph glyph-name="Q" unicode="Q" 
d="M335 626q125 0 202.5 -80.5t77.5 -235.5q0 -188 -124 -272q73 -109 135 -145q-15 -23 -42 -35t-53 -12q-40 0 -83 42t-76 105q-21 -4 -51 -4q-122 0 -202 81.5t-80 228.5q0 82 25.5 146.5t68 103t94 58t108.5 19.5zM320 531q-42 0 -67 -17q-49 -65 -49 -186
q0 -120 36.5 -182.5t97.5 -62.5q42 0 67 20q17 18 30.5 65t13.5 111q0 121 -32.5 186.5t-96.5 65.5z" />
    <glyph glyph-name="R" unicode="R" horiz-adv-x="581" 
d="M222 0h-160q7 55 7 305v43q0 205 -7 256q94 12 212 12q116 0 177.5 -47t61.5 -140q0 -108 -99 -167q92 -180 160 -263q-45 -21 -86 -21q-79 0 -129 82q-30 49 -86 186h-58v-42q0 -169 7 -204zM361 426q0 48 -27.5 75t-71.5 27q-34 0 -47 -4v-217q58 -13 103 7
q43 34 43 112z" />
    <glyph glyph-name="S" unicode="S" horiz-adv-x="465" 
d="M416 590q-1 -53 -28 -104q-53 35 -113 35q-41 0 -55 -12.5t-14 -42.5q0 -24 23 -48.5t56 -48.5t66.5 -51.5t56.5 -67t23 -84.5q0 -85 -62 -131t-148 -46q-115 0 -187 56q0 27 14 53.5t29 36.5q23 -21 57.5 -36.5t62.5 -15.5q75 0 75 64q0 25 -20.5 50t-51.5 48.5t-62 49
t-56 61.5t-31 75q-3 29 1 52q11 65 69.5 99t136.5 34q85 0 158 -26z" />
    <glyph glyph-name="T" unicode="T" horiz-adv-x="518" 
d="M14 497v108h497v-108q-64 7 -143 7h-30v-202q0 -237 8 -302h-167q7 58 7 306v198h-26q-93 0 -146 -7z" />
    <glyph glyph-name="U" unicode="U" horiz-adv-x="612" 
d="M53 605h164q-7 -37 -7 -183v-39q0 -145 31 -213.5t98 -68.5q46 0 68 22q37 54 37 211v26q0 201 -8 245h137q-6 -47 -6 -207v-51q0 -174 -59.5 -266t-194.5 -92q-137 0 -196 89.5t-59 260.5v50q0 174 -5 216z" />
    <glyph glyph-name="V" unicode="V" horiz-adv-x="595" 
d="M14 605h186q5 -30 22.5 -88t52.5 -170.5t60 -198.5h4q13 49 64.5 226t61.5 231h123q-31 -97 -91 -280t-84 -257l-22 -72h-164l-21 63q-118 354 -192 546z" />
    <glyph glyph-name="W" unicode="W" horiz-adv-x="856" 
d="M285 155h5q9 40 28.5 125t31.5 138.5t23 109t12 77.5h155q14 -133 98 -450h5l31 153q42 232 48 297h126q-73 -244 -138 -537l-16 -68h-161l-7 41q-9 45 -41.5 169t-45.5 196h-3q-13 -62 -47 -184.5t-44 -178.5l-8 -43h-161l-21 78q-15 55 -42.5 165t-50.5 198.5
t-46 163.5h183q8 -67 54 -297z" />
    <glyph glyph-name="X" unicode="X" horiz-adv-x="596" 
d="M36 605h189q3 -14 18 -48t39.5 -86t38.5 -86h5q13 28 36.5 80t39.5 88t23 52h154q-109 -161 -167 -283q108 -214 171 -322h-198q-6 16 -41.5 96.5t-58.5 141.5h-5q-19 -45 -43.5 -100t-41 -90.5t-20.5 -47.5h-161q126 206 175 315q-28 57 -86 164.5t-67 125.5z" />
    <glyph glyph-name="Y" unicode="Y" horiz-adv-x="585" 
d="M334 324h4q85 196 102 281h137q-115 -203 -199 -392v-26q0 -150 9 -187h-174q9 46 9 181v32q-76 160 -208 392h198q12 -44 122 -281z" />
    <glyph glyph-name="Z" unicode="Z" horiz-adv-x="501" 
d="M35 482v123h436v-113l-279 -392v-5l106 9q129 14 175 23v-127h-438v113l272 393v4l-114 -9q-129 -12 -158 -19z" />
    <glyph glyph-name="bracketleft" unicode="[" horiz-adv-x="357" 
d="M71 -125v829h261q12 -38 0 -86h-138v-656h138q13 -49 0 -87h-261z" />
    <glyph glyph-name="backslash" unicode="\" horiz-adv-x="443" 
d="M71 653l373 -663q-29 -40 -75 -46l-369 666q24 36 71 43z" />
    <glyph glyph-name="bracketright" unicode="]" horiz-adv-x="357" 
d="M287 704v-829h-262q-12 43 0 87h137v654h-137q-13 49 0 88h262z" />
    <glyph glyph-name="asciicircum" unicode="^" horiz-adv-x="389" 
d="M14 513l128 190q55 14 98 0l136 -190h-150l-60 99l-65 -99h-87z" />
    <glyph glyph-name="underscore" unicode="_" horiz-adv-x="209" 
d="M0 -182v95h209v-95h-209z" />
    <glyph glyph-name="grave" unicode="`" horiz-adv-x="242" 
d="M186 540l-186 146q0 26 29 56.5t52 32.5l161 -175z" />
    <glyph glyph-name="a" unicode="a" horiz-adv-x="525" 
d="M471 308v-99q0 -173 8 -208l-136 -10q-7 24 -9 76h-3q-60 -79 -160 -79q-65 0 -104 38.5t-39 99.5q0 89 73.5 124.5t224.5 42.5q0 62 -20 90t-75 28q-68 0 -150 -41q-23 28 -23 71q114 57 231 57q93 0 137.5 -45.5t44.5 -144.5zM174 148q0 -38 19 -55.5t47 -17.5
q57 0 88 53v83q-26 7 -53 7q-60 0 -83 -15q-18 -27 -18 -55z" />
    <glyph glyph-name="b" unicode="b" horiz-adv-x="553" 
d="M202 424h6q54 62 142 62q77 0 124 -56t47 -172q0 -128 -79.5 -198.5t-206.5 -70.5q-55 0 -179 22q9 108 9 289v66q0 214 -10 334q28 6 75 7.5t79 -3.5q-5 -117 -7 -280zM203 360v-281q19 -13 57 -13q49 0 75 21q42 55 42 154q0 158 -97 158q-52 0 -77 -39z" />
    <glyph glyph-name="c" unicode="c" horiz-adv-x="470" 
d="M288 498q114 0 159 -45q-3 -21 -17.5 -48.5t-33.5 -44.5q-48 44 -121 44q-34 0 -54 -16q-38 -44 -38 -113q0 -87 42 -139.5t110 -52.5q49 0 97 27q21 -27 18 -63q-24 -22 -73 -40t-101 -18q-109 0 -176.5 68.5t-67.5 182.5q0 112 73.5 185t182.5 73z" />
    <glyph glyph-name="d" unicode="d" horiz-adv-x="561" 
d="M509 0l-133 -10q-4 46 -5 69h-4q-40 -56 -103 -64q-25 -6 -60 -4q-74 7 -123 64t-49 163q0 128 76.5 200.5t185.5 72.5q39 0 67 -7v38q0 99 -7 178q32 6 79 7t70 -4q-5 -230 -5 -358v-109q0 -171 11 -236zM361 119v277q-26 18 -67 18q-42 0 -71 -19q-40 -59 -40 -150
q0 -76 28 -122.5t75 -46.5q45 0 75 43z" />
    <glyph glyph-name="e" unicode="e" horiz-adv-x="523" 
d="M283 498q100 0 154.5 -51t54.5 -126q0 -35 -13 -68q-93 -21 -229 -32l-76 -5q6 -66 46.5 -99t102.5 -33q80 0 132 37q19 -29 19 -66q-24 -24 -79.5 -44.5t-117.5 -20.5q-116 0 -180.5 67t-64.5 183q0 110 67 184t184 74zM171 281q128 0 167 14q9 15 9 39q0 38 -23 60.5
t-59 22.5q-37 0 -62 -17q-12 -17 -22 -53t-10 -66z" />
    <glyph glyph-name="f" unicode="f" horiz-adv-x="363" 
d="M263 711q80 0 138 -33q-2 -24 -17 -50t-30 -35q-39 30 -75 30q-23 0 -33 -14q-23 -35 -21 -126h112q9 -12 9 -42.5t-8 -45.5h-106v-97q0 -218 9 -298h-157q10 100 10 256v139h-66q-6 17 -6 44.5t6 43.5h65q-8 124 41.5 176t128.5 52z" />
    <glyph glyph-name="g" unicode="g" horiz-adv-x="554" 
d="M528 500q5 -14 5 -40t-5 -41l-91 15v-7q65 -38 65 -110q0 -68 -61 -112t-164 -44q-70 0 -106 18q-32 -11 -32 -37q0 -21 42.5 -32t139.5 -21q105 -12 157 -43t52 -91q0 -72 -73.5 -119.5t-194.5 -47.5q-104 0 -169 32t-65 85q0 40 25 65q4 6 36 5.5t48 -8.5
q-16 -18 -16 -37q0 -29 39.5 -50.5t110.5 -21.5q59 0 90 16t31 40q0 47 -133 70q-116 19 -163 46.5t-47 73.5q0 49 75 95q-86 42 -86 130q0 79 69.5 125t176.5 46q24 0 67.5 -5t55.5 -6q53 1 121 11zM262 429q-46 0 -66 -23t-20 -72q0 -46 27 -74.5t75 -28.5q46 0 66 21
t20 66q0 111 -102 111z" />
    <glyph glyph-name="h" unicode="h" horiz-adv-x="569" 
d="M202 425h6q73 75 156 75q80 0 116.5 -47.5t36.5 -160.5v-60q0 -178 9 -232h-157q11 42 11 211v42q0 84 -19 118.5t-60 34.5q-55 0 -98 -55v-52q0 -181 8 -299h-156q10 130 10 300v54q0 186 -10 346q27 7 76 9t75 -4q-1 -19 -4 -280z" />
    <glyph glyph-name="i" unicode="i" horiz-adv-x="307" 
d="M78 230v41q0 163 -14 212h179q-14 -53 -14 -215v-38q0 -171 14 -230h-179q14 52 14 230zM78 618q0 30 24 49.5t58 19.5q35 0 60 -19.5t25 -49.5q0 -31 -24.5 -50t-60.5 -19q-34 0 -58 19t-24 50z" />
    <glyph glyph-name="j" unicode="j" horiz-adv-x="308" 
d="M241 124v-132q0 -118 -62.5 -166t-166.5 -23q-6 25 -5.5 63t7.5 54q41 -5 58.5 22t17.5 100v94q0 276 -16 347h172q-5 -124 -5 -359zM78 618q0 30 24 49.5t58 19.5q35 0 59.5 -19.5t24.5 -49.5q0 -31 -24.5 -50t-59.5 -19t-58.5 19t-23.5 50z" />
    <glyph glyph-name="k" unicode="k" horiz-adv-x="524" 
d="M195 287h24q18 0 67 73.5t64 122.5q86 12 143 0q-48 -86 -145 -211q121 -209 170 -263q-23 -16 -85 -18q-30 -2 -45 1q-24 5 -41 31q-28 41 -58 97.5t-47 85.5t-27 29h-20v-55q0 -108 9 -180h-146q6 106 6 300v50q0 205 -9 350q29 6 73.5 8t72.5 -4q-6 -105 -6 -364v-53z
" />
    <glyph glyph-name="l" unicode="l" horiz-adv-x="288" 
d="M54 104v370q0 176 -6 226q110 12 158 1q0 -15 -3.5 -152.5t-3.5 -231.5v-121q0 -83 14.5 -105.5t63.5 -17.5q8 -27 0 -54q-54 -28 -127 -28q-96 0 -96 113z" />
    <glyph glyph-name="m" unicode="m" horiz-adv-x="823" 
d="M495 0h-151q12 44 12 210v55q0 81 -15.5 111t-49.5 30q-25 0 -49.5 -14t-37.5 -30v-89q0 -127 8 -273h-156q11 75 11 232v29q0 136 -12 217l147 14q0 -22 -4 -68h5q78 76 156 76q91 0 115 -87q27 36 72 61.5t88 25.5q74 0 105.5 -44.5t31.5 -152.5v-75q0 -181 9 -228
h-158q11 35 11 207v54q0 82 -14.5 113.5t-49.5 31.5q-47 0 -82 -41v-113q0 -212 8 -252z" />
    <glyph glyph-name="n" unicode="n" horiz-adv-x="573" 
d="M529 0h-158q11 35 11 206v43q0 85 -18 121t-61 36q-56 0 -98 -56v-74q0 -121 8 -276h-155q9 88 9 239v22q0 130 -11 217l148 14q-1 -11 -2.5 -34.5t-2.5 -34.5h5q75 77 166 77q79 0 114.5 -50t35.5 -156v-68q0 -180 9 -226z" />
    <glyph glyph-name="o" unicode="o" horiz-adv-x="558" 
d="M292 500q110 0 172 -68t62 -187q0 -116 -69 -186t-176 -70q-115 0 -182 67.5t-67 181.5q0 120 73 191t187 71zM274 413q-45 0 -69 -22q-29 -37 -29 -114q0 -98 30 -149t87 -51q29 0 57 17q32 38 32 124q0 195 -108 195z" />
    <glyph glyph-name="p" unicode="p" horiz-adv-x="571" 
d="M55 477l147 14q0 -17 -2 -53l-2 -20q25 35 65 35q51 37 106 36q76 -6 123 -64t47 -162q0 -131 -80 -202.5t-193 -71.5q-22 0 -62 6v-26q0 -105 8 -163h-156q11 69 11 318v49q0 211 -12 304zM204 355v-275q22 -13 62 -13q49 0 77 20q44 46 44 158q0 71 -23.5 111.5
t-65.5 45.5q-17 2 -30 -1q-43 -8 -64 -46z" />
    <glyph glyph-name="q" unicode="q" horiz-adv-x="553" 
d="M351 48h-6q-39 -59 -126 -59q-82 0 -134.5 61.5t-52.5 177.5q0 115 72.5 185t191.5 77q19 1 59 1q75 -4 143 -22q-9 -97 -9 -276v-90q0 -197 9 -297h-163q16 57 16 191v51zM351 126v275q-21 14 -58 14q-52 0 -74 -22q-43 -49 -43 -151q0 -74 22.5 -116.5t63.5 -47.5
q15 -2 28 1q39 9 61 47z" />
    <glyph glyph-name="r" unicode="r" horiz-adv-x="370" 
d="M370 483q-6 -66 -38 -117q-21 23 -56 23q-21 0 -41.5 -12.5t-30.5 -32.5v-86q0 -182 16 -258h-160q7 78 7 239v27q0 77 -12 212l147 14q-1 -32 -5 -76h6q43 76 119 76q24 0 48 -9z" />
    <glyph glyph-name="s" unicode="s" horiz-adv-x="423" 
d="M369 459q0 -19 -11.5 -43t-24.5 -34q-33 28 -82 28q-31 0 -43 -10.5t-12 -32.5q0 -19 19.5 -38t47 -37t55 -39t47 -52t19.5 -68q0 -69 -53.5 -106.5t-133.5 -37.5q-53 0 -94 19t-58 40q-3 25 9 47.5t30 33.5q15 -21 42.5 -36.5t55.5 -15.5q32 0 44.5 11.5t12.5 37.5
q0 27 -29.5 53.5t-64.5 46.5t-64.5 56t-29.5 81q0 57 49.5 95t130.5 39q58 1 97.5 -11t40.5 -27z" />
    <glyph glyph-name="t" unicode="t" horiz-adv-x="355" 
d="M74 109v286h-48q-4 17 -4 44t4 44q72 29 114 95q13 4 39.5 4t38.5 -4v-95h98q7 -13 6 -44.5t-7 -43.5h-97v-199q0 -84 18.5 -105.5t83.5 -14.5q12 -24 0 -56q-54 -29 -145 -29q-49 0 -75 27t-26 91z" />
    <glyph glyph-name="u" unicode="u" horiz-adv-x="560" 
d="M36 483h159q-8 -37 -8 -210v-41q0 -82 19 -115.5t62 -33.5q50 0 90 48v87q0 170 -11 265h158q-8 -75 -8 -234v-32q0 -141 13 -216l-135 -11q-4 23 -10 81h-5q-57 -82 -156 -82q-81 0 -118 48t-37 154v51q0 187 -13 241z" />
    <glyph glyph-name="v" unicode="v" horiz-adv-x="513" 
d="M11 483h168q37 -164 101 -355h5q87 302 95 355h123q-34 -75 -151 -408l-27 -79h-123l-31 79q-109 285 -160 408z" />
    <glyph glyph-name="w" unicode="w" horiz-adv-x="726" 
d="M8 483h169q-5 -101 71 -346h3q59 233 65 346h141q1 -15 2.5 -30t4.5 -34t5.5 -32.5t8 -37t8.5 -36.5t11 -41.5t11 -40.5t13 -46.5t13 -47.5h5q63 258 61 346h119q-96 -268 -136 -430l-15 -57h-119q-5 30 -35.5 137.5t-45.5 169.5h-3q-17 -69 -46 -170.5t-34 -136.5h-122
l-14 52q-59 210 -141 435z" />
    <glyph glyph-name="x" unicode="x" horiz-adv-x="518" 
d="M19 483h179q39 -86 81 -153h4q51 81 86 153h136q-119 -155 -165 -226q52 -83 174 -257h-177q-37 66 -104 173h-4q-46 -87 -88 -173h-138q153 226 169 251q-20 35 -46 74t-58 85.5t-49 72.5z" />
    <glyph glyph-name="y" unicode="y" horiz-adv-x="510" 
d="M11 483h178q5 -35 23.5 -100.5t45 -152t33.5 -110.5h7q19 56 48 176.5t40 186.5h128q-12 -33 -29 -81t-40 -115t-37 -106l-31 -87q-47 -132 -87 -212t-60 -100q-29 1 -57 22t-36 49q53 37 109 147h-41q-26 67 -100 249.5t-94 233.5z" />
    <glyph glyph-name="z" unicode="z" horiz-adv-x="452" 
d="M31 364v119h390v-100l-262 -278v-5l104 7q130 7 158 15v-122h-390v101l255 277v4l-114 -6q-115 -5 -141 -12z" />
    <glyph glyph-name="braceleft" unicode="{" horiz-adv-x="373" 
d="M27 216q-11 37 0 74q34 0 47 24.5t13 86.5v52q0 85 35.5 121.5t120.5 32.5l81 -2q10 -36 0 -77l-8 1q-52 9 -78 -16.5t-26 -100.5v-50q0 -90 -52 -105v-8q52 -13 52 -106v-49q0 -80 26 -109t78 -20l8 2q14 -40 0 -77l-81 -2q-84 -4 -120 38t-36 129v51q0 63 -13 85.5
t-47 24.5z" />
    <glyph glyph-name="bar" unicode="|" horiz-adv-x="234" 
d="M74 0v704q46 21 86 0v-704q-40 -19 -86 0z" />
    <glyph glyph-name="braceright" unicode="}" horiz-adv-x="373" 
d="M346 281q10 -40 0 -75q-35 0 -48 -26t-13 -95v-42q0 -85 -35 -121t-120 -33l-82 2q-9 35 0 78l8 -3q55 -9 80 19.5t25 111.5v37q0 90 52 105v9q-52 11 -52 117v37q0 80 -26.5 109t-78.5 20l-8 -2q-12 40 0 77l82 4q84 3 119.5 -39t35.5 -130v-50q0 -64 13 -86.5t48 -23.5
z" />
    <glyph glyph-name="asciitilde" unicode="~" horiz-adv-x="556" 
d="M473 253q-47 -37 -91 -39t-78 17.5t-67 39t-72 17.5t-79 -39q-15 58 -4 91q42 39 82 41.5t74 -17.5l68 -40t77 -19t88 39q14 -45 2 -91z" />
    <glyph glyph-name="uni00A0" unicode="&#xa0;" horiz-adv-x="201" 
 />
    <glyph glyph-name="exclamdown" unicode="&#xa1;" horiz-adv-x="275" 
d="M158 282l39 -400q-84 -23 -172 0l39 400h94zM34 415q0 33 23 55.5t57 22.5t58 -22.5t24 -55.5t-24 -55t-58 -22t-57 22t-23 55z" />
    <glyph glyph-name="cent" unicode="&#xa2;" horiz-adv-x="470" 
d="M337 -106q-34 -16 -84 -1v97q-101 8 -161 75t-60 175q0 102 62 172.5t159 82.5v103q43 19 84 0v-103q77 -9 110 -42q-3 -21 -17.5 -48.5t-33.5 -44.5q-33 28 -69 38l-1 -315h9q49 0 97 27q21 -27 18 -63q-39 -35 -112 -51zM183 275q0 -64 23.5 -110.5t64.5 -67.5l-1 307
q-30 -2 -49 -16q-38 -44 -38 -113z" />
    <glyph glyph-name="sterling" unicode="&#xa3;" horiz-adv-x="498" 
d="M398 284h-171q29 -121 -35 -178l1 -5q199 0 257 16v-117h-413q-14 43 0 90q93 0 93 102q0 43 -18 92h-77q-13 43 0 88h52q-18 32 -18 87q0 78 54 121t152 43q89 0 156 -23q3 -61 -22 -112q-53 33 -109 33q-34 0 -60 -12q-34 -25 -34 -77q0 -36 10 -60h182q15 -43 0 -88z
" />
    <glyph glyph-name="yen" unicode="&#xa5;" horiz-adv-x="585" 
d="M513 238h-135v-61h135q9 -34 0 -81h-135q2 -70 9 -96h-174q6 35 8 96h-147q-8 37 0 81h148v61h-148q-9 38 0 81h118q-27 49 -57 97.5t-69 108t-52 80.5h198q7 -20 21 -47t47.5 -86.5t53.5 -96.5h4q85 171 102 230h137q-107 -172 -170 -286h106q9 -34 0 -81z" />
    <glyph glyph-name="brokenbar" unicode="&#xa6;" horiz-adv-x="234" 
d="M74 281l86 1v-282q-40 -19 -86 0v281zM160 446l-86 -1v259q46 21 86 0v-258z" />
    <glyph glyph-name="section" unicode="&#xa7;" horiz-adv-x="547" 
d="M108 -143q3 20 15.5 45.5t31.5 37.5q23 -27 55 -44t60 -17q44 0 44 45q0 23 -23.5 46t-78.5 63q-90 62 -128 116.5t-38 124.5q0 64 41 114.5t96 80.5q-60 62 -60 114q0 59 56 95.5t115 36.5q85 0 124 -39q1 -16 -11.5 -40.5t-27.5 -39.5q-42 34 -98 34q-50 0 -50 -42
q0 -39 74 -97q14 -11 48.5 -35t53 -39.5t41.5 -40.5t33.5 -55t10.5 -66q1 -66 -37 -120.5t-92 -84.5q49 -52 53 -101q1 -17 -2 -38q-10 -48 -56.5 -82t-109.5 -34q-47 0 -85.5 17.5t-54.5 44.5zM303 92q34 43 47 102q4 27 3 51q-3 44 -23 79.5t-38 52t-55 44.5
q-53 -53 -53 -136q0 -111 119 -193z" />
    <glyph glyph-name="dieresis" unicode="&#xa8;" horiz-adv-x="343" 
d="M77 606q0 25 17.5 42t43.5 17t44 -17t18 -42t-18 -41.5t-44 -16.5t-43.5 16.5t-17.5 41.5zM271 606q0 25 18 42t43 17q26 0 44 -17t18 -42t-18 -41.5t-44 -16.5q-25 0 -43 16.5t-18 41.5z" />
    <glyph glyph-name="copyright" unicode="&#xa9;" horiz-adv-x="727" 
d="M29 248q0 128 84 216.5t215 88.5q132 0 216.5 -88.5t84.5 -216.5q0 -129 -84.5 -217.5t-216.5 -88.5q-131 0 -215 88.5t-84 217.5zM317 483q-92 0 -153 -61q-50 -63 -50 -157q0 -117 66 -185t168 -68q97 0 152 65q42 53 42 153q0 124 -64 188.5t-161 64.5zM343 417
q34 0 78 -14q5 -15 1.5 -40.5t-12.5 -38.5q-23 15 -57 15q-33 0 -49 -14q-24 -26 -24 -75q0 -40 24.5 -67.5t65.5 -27.5q31 0 61 17q7 -6 12.5 -26.5t3.5 -32.5q-45 -36 -110 -36q-67 0 -111.5 45t-44.5 127q0 74 44.5 121t117.5 47z" />
    <glyph glyph-name="ordfeminine" unicode="&#xaa;" horiz-adv-x="491" 
d="M443 467v-45q0 -145 7 -174l-133 -9q-7 23 -7 72h-3q-46 -73 -138 -73q-57 0 -92 30t-35 79q0 68 67 96.5t196 28.5q0 33 -16.5 50t-59.5 17q-65 0 -139 -40q-9 9 -16.5 28.5t-7.5 32.5q106 56 208 56q76 0 122.5 -39t46.5 -110zM176 360q0 -22 15 -34t39 -12t45.5 18
t30.5 42v34q-16 4 -42 4q-32 0 -69 -10q-19 -22 -19 -42z" />
    <glyph glyph-name="guillemotleft" unicode="&#xab;" horiz-adv-x="456" 
d="M236 452l-113 -218l92 -175q-43 -31 -87 -9l-107 206l106 198q53 25 109 -2zM403 450l-109 -195l113 -196q-14 -12 -49 -18.5t-62 -0.5l-108 190l119 224q38 21 96 -4z" />
    <glyph glyph-name="logicalnot" unicode="&#xac;" horiz-adv-x="552" 
d="M372 243h-288q-17 60 0 109h387v-252q-57 -15 -99 0v143z" />
    <glyph glyph-name="registered" unicode="&#xae;" horiz-adv-x="586" 
d="M84 475q0 101 66.5 170.5t169.5 69.5q111 0 174 -69t63 -171q0 -100 -65 -169.5t-172 -69.5q-109 0 -172.5 68.5t-63.5 170.5zM314 652q-154 0 -154 -165q0 -86 47.5 -137t118.5 -51q155 0 155 166q0 90 -47 138.5t-120 48.5zM296 360h-16q-39 0 -46.5 22t-7.5 100v18
q0 68 -5 92q50 6 101 6q98 0 98 -73q0 -40 -39 -66q24 -54 53 -90q-11 -13 -28 -16q-10 -2 -19 0q-13 3 -22.5 10t-19.5 25t-14 27t-16 39h-24v-41q0 -35 5 -53zM350 520q0 35 -44 35q-5 0 -15 -2v-72q24 -3 41.5 6t17.5 33z" />
    <glyph glyph-name="macron" unicode="&#xaf;" horiz-adv-x="359" 
d="M35 694h300q9 -16 8 -58t-11 -54h-301q-9 16 -7.5 58t11.5 54z" />
    <glyph glyph-name="degree" unicode="&#xb0;" horiz-adv-x="420" 
d="M87 560q0 66 43.5 110.5t110.5 44.5q68 0 111 -44.5t43 -110.5t-43 -110.5t-111 -44.5q-67 0 -110.5 44.5t-43.5 110.5zM232 637q-21 0 -33 -10q-20 -20 -20 -66q0 -37 18.5 -58t47.5 -21q19 0 39 11q19 21 19 62q0 82 -71 82z" />
    <glyph glyph-name="plusminus" unicode="&#xb1;" horiz-adv-x="564" 
d="M505 317h-188v-109q-38 -11 -77 0v109h-177q-11 46 0 80h177v197q43 12 77 0v-197h188q10 -38 0 -80zM501 59h-438q-9 41 0 88h438q10 -36 0 -88z" />
    <glyph glyph-name="twosuperior" unicode="&#xb2;" horiz-adv-x="393" 
d="M76 444q-16 3 -32 19t-17 30q23 41 75 72t113 31q63 0 102 -28t39 -80q0 -38 -19.5 -69t-55 -53t-61.5 -33t-62 -24l2 -6l75 6q31 2 121 15v-104h-320q-9 36 0 74q33 16 50 24.5t43.5 25t40 30t24 33t10.5 40.5q0 36 -29 44q-16 3 -36 -3q-34 -4 -63 -44z" />
    <glyph glyph-name="threesuperior" unicode="&#xb3;" horiz-adv-x="418" 
d="M44 585h298q10 -47 0 -90l-103 -61q130 -2 130 -100q0 -46 -27 -81t-72.5 -55t-98 -30t-108.5 -10q-23 27 -12 79q180 9 180 86q0 33 -31.5 42.5t-105.5 5.5q-10 29 0 56l113 66v4h-50q-59 0 -113 -6v94z" />
    <glyph glyph-name="acute" unicode="&#xb4;" horiz-adv-x="337" 
d="M519 667l-204 -131l-42 47l171 179q21 -2 48 -35t27 -60z" />
    <glyph glyph-name="mu" unicode="&#xb5;" horiz-adv-x="603" 
d="M74 483h109q-6 -44 -6 -140v-140q31 -72 109 -72q62 0 97 50t35 144v13q0 15 -5 145h111q-8 -76 -8 -193v-31q0 -174 18 -258l-99 -12q-10 35 -10 126h-7q-10 -54 -48.5 -90t-89.5 -36q-65 0 -98 52h-5q0 -195 10 -239q-23 -18 -60.5 -17.5t-55.5 17.5q8 80 8 332v73
q0 218 -5 276z" />
    <glyph glyph-name="paragraph" unicode="&#xb6;" horiz-adv-x="587" 
d="M498 -198h-109q9 139 9 405v310q-57 7 -111 0v-310q0 -306 8 -405h-109q9 108 9 372q-66 0 -116 57.5t-50 140.5q0 120 74.5 176.5t198.5 56.5h251q11 -39 0 -88h-63v-310q0 -292 8 -405z" />
    <glyph glyph-name="periodcentered" unicode="&#xb7;" horiz-adv-x="201" 
d="M21 282q0 33 23 55.5t56 22.5q35 0 58.5 -22.5t23.5 -55.5t-23.5 -55t-58.5 -22q-33 0 -56 22t-23 55z" />
    <glyph glyph-name="cedilla" unicode="&#xb8;" horiz-adv-x="170" 
d="M28 -111q-3 36 11 59q23 6 50 3t50.5 -11.5t39.5 -30.5t16 -54q0 -63 -49.5 -104.5t-128.5 -57.5q-17 23 -14 56q38 12 59.5 35.5t21.5 51.5q0 27 -16 41t-40 12z" />
    <glyph glyph-name="onesuperior" unicode="&#xb9;" horiz-adv-x="338" 
d="M265 220h-159q9 53 9 126v107q-27 -10 -74 -5q-9 30 0 66q36 0 59 18.5t45 56.5h114v-251q0 -64 6 -118z" />
    <glyph glyph-name="ordmasculine" unicode="&#xba;" horiz-adv-x="491" 
d="M35 423q0 86 55.5 139.5t154.5 53.5q103 0 156.5 -53t53.5 -140q0 -86 -55 -139t-155 -53q-101 0 -155.5 53t-54.5 139zM243 528q-34 0 -45 -13q-9 -10 -16.5 -36.5t-7.5 -53.5q0 -50 19 -78.5t54 -28.5q25 0 47 15q23 29 23 85q0 51 -19 80.5t-55 29.5z" />
    <glyph glyph-name="guillemotright" unicode="&#xbb;" horiz-adv-x="456" 
d="M220 51l113 218l-92 175q43 31 87 9l107 -206l-106 -198q-53 -25 -109 2zM53 53l109 195l-113 196q14 12 49 18.5t62 0.5l108 -190l-119 -224q-38 -21 -96 4z" />
    <glyph glyph-name="onequarter" unicode="&#xbc;" horiz-adv-x="831" 
d="M642 560l-408 -572q-46 13 -67 53l406 572q44 -11 69 -53zM253 220h-159q9 52 9 126v107q-27 -10 -74 -5q-9 30 0 66q36 0 59 18.5t45 56.5h114v-251q0 -64 6 -118zM743 369v-281h45q16 -42 0 -88h-45v-68h-138v68h-190q-14 38 0 80l200 289h128zM515 88h106v156z" />
    <glyph glyph-name="onehalf" unicode="&#xbd;" horiz-adv-x="867" 
d="M642 560l-408 -572q-46 13 -67 53l406 572q44 -11 69 -53zM253 220h-159q9 52 9 126v107q-27 -10 -74 -5q-9 30 0 66q36 0 59 18.5t45 56.5h114v-251q0 -64 6 -118zM540 224q-16 3 -32 19t-17 30q23 41 75 72t113 31q63 0 102 -28t39 -80q0 -38 -19.5 -69t-55 -53
t-61.5 -33t-62 -24l2 -6l75 6q56 4 121 15v-104h-320q-9 36 0 74q35 17 49.5 24.5t43 25t41 30.5t23.5 32.5t11 40.5q0 35 -29 44q-16 3 -36 -3q-34 -4 -63 -44z" />
    <glyph glyph-name="threequarters" unicode="&#xbe;" horiz-adv-x="888" 
d="M712 560l-408 -572q-46 13 -67 53l406 572q44 -11 69 -53zM809 369v-281h45q16 -42 0 -88h-45v-68h-138v68h-190q-14 38 0 80l200 289h128zM581 88h106v156zM35 585h298q10 -47 0 -90l-103 -61q130 -2 130 -100q0 -46 -27 -81t-72.5 -55t-98 -30t-108.5 -10
q-23 27 -12 79q180 9 180 86q0 33 -31.5 42.5t-105.5 5.5q-10 29 0 56l113 66v4h-50q-59 0 -113 -6v94z" />
    <glyph glyph-name="questiondown" unicode="&#xbf;" horiz-adv-x="424" 
d="M233 -2q55 0 93 40q20 -11 38.5 -45t14.5 -54q-69 -69 -179 -69q-82 0 -130.5 46.5t-48.5 123.5q0 73 51 118.5t108 54.5q5 18 2 72q51 16 89 -4q0 -58 -13 -83t-52 -46q-60 -35 -60 -79q0 -32 21.5 -53.5t65.5 -21.5zM146 415q0 33 22.5 55.5t55.5 22.5q35 0 59 -22.5
t24 -55.5t-24 -55t-59 -22q-33 0 -55.5 22t-22.5 55z" />
    <glyph glyph-name="Agrave" unicode="&#xc0;" horiz-adv-x="626" 
d="M620 0h-181q-2 8 -10 40.5t-13 49.5l-18 56q-105 11 -193 0l-16 -50q-6 -16 -14.5 -49.5t-12.5 -46.5h-141q46 108 124 328t90 277h179q24 -85 90.5 -284t115.5 -321zM304 473l-73 -240q26 -4 71.5 -4t71.5 4l-66 240h-4zM378 662l-186 146q0 26 29 56.5t52 32.5
l161 -175z" />
    <glyph glyph-name="Aacute" unicode="&#xc1;" horiz-adv-x="626" 
d="M620 0h-181q-2 8 -10 40.5t-13 49.5l-18 56q-105 11 -193 0l-16 -50q-6 -16 -14.5 -49.5t-12.5 -46.5h-141q46 108 124 328t90 277h179q24 -85 90.5 -284t115.5 -321zM304 473l-73 -240q26 -4 71.5 -4t71.5 4l-66 240h-4zM524 789l-204 -131l-42 47l171 179q21 -2 48 -35
t27 -60z" />
    <glyph glyph-name="Acircumflex" unicode="&#xc2;" horiz-adv-x="626" 
d="M620 0h-181q-2 8 -10 40.5t-13 49.5l-18 56q-105 11 -193 0l-16 -50q-6 -16 -14.5 -49.5t-12.5 -46.5h-141q46 108 124 328t90 277h179q24 -85 90.5 -284t115.5 -321zM304 473l-73 -240q26 -4 71.5 -4t71.5 4l-66 240h-4zM355 857l136 -128q-5 -17 -30.5 -36.5
t-48.5 -24.5l-101 89l-99 -83q-16 2 -31 19t-17 31l143 133q21 9 48 0z" />
    <glyph glyph-name="Atilde" unicode="&#xc3;" horiz-adv-x="626" 
d="M620 0h-181q-2 8 -10 40.5t-13 49.5l-18 56q-105 11 -193 0l-16 -50q-6 -16 -14.5 -49.5t-12.5 -46.5h-141q46 108 124 328t90 277h179q24 -85 90.5 -284t115.5 -321zM304 473l-73 -240q26 -4 71.5 -4t71.5 4l-66 240h-4zM177 785q33 35 60.5 48t45 7t36.5 -16t35 -20
t41 -6t54 26q12 -8 20 -45t3 -55q-40 -35 -74.5 -43t-58 2.5t-44.5 23.5t-45 13t-49 -24q-13 5 -19.5 37t-4.5 52z" />
    <glyph glyph-name="Adieresis" unicode="&#xc4;" horiz-adv-x="626" 
d="M620 0h-181q-2 8 -10 40.5t-13 49.5l-18 56q-105 11 -193 0l-16 -50q-6 -16 -14.5 -49.5t-12.5 -46.5h-141q46 108 124 328t90 277h179q24 -85 90.5 -284t115.5 -321zM304 473l-73 -240q26 -4 71.5 -4t71.5 4l-66 240h-4zM165 728q0 25 17.5 42t43.5 17t44 -17t18 -42
t-18 -41.5t-44 -16.5t-43.5 16.5t-17.5 41.5zM359 728q0 25 18 42t43 17q26 0 44 -17t18 -42t-18 -41.5t-44 -16.5q-25 0 -43 16.5t-18 41.5z" />
    <glyph glyph-name="Aring" unicode="&#xc5;" horiz-adv-x="626" 
d="M620 0h-181q-2 8 -10 40.5t-13 49.5l-18 56q-105 11 -193 0l-16 -50q-6 -16 -14.5 -49.5t-12.5 -46.5h-141q46 108 124 328t90 277h179q24 -85 90.5 -284t115.5 -321zM304 473l-73 -240q26 -4 71.5 -4t71.5 4l-66 240h-4zM435 789q0 -59 -36 -88.5t-76 -29.5
q-50 0 -82.5 29t-32.5 78q0 40 22 68.5t46.5 39t44.5 10.5q50 0 82 -29t32 -78zM279 788q0 -21 12 -35t32 -15q6 -2 12 0q29 0 29 41q0 24 -14 38.5t-34 14.5q-37 0 -37 -44z" />
    <glyph glyph-name="AE" unicode="&#xc6;" horiz-adv-x="843" 
d="M814 0h-396q6 57 7 148q-94 6 -151 -2l-28 -50q-22 -38 -45 -96h-180q64 106 186 327t147 278h453v-100q-57 5 -228 5v-154q146 0 200 5v-96q-55 4 -200 4v-168q176 0 235 5v-106zM422 473l-120 -240q52 -7 124 -2v49v42q0 94 -1 151h-3z" />
    <glyph glyph-name="Ccedilla" unicode="&#xc7;" horiz-adv-x="536" 
d="M338 620q99 0 162 -23q1 -28 -6.5 -61.5t-19.5 -50.5q-62 26 -128 26q-59 0 -85 -18q-57 -57 -57 -165q0 -98 44.5 -161t130.5 -63q56 0 111 32q9 -11 16.5 -39t7.5 -47q-34 -27 -87 -44t-102 -17q-126 0 -206 81t-80 239q0 140 82.5 225.5t216.5 85.5zM236 -111
q-3 36 11 59q23 6 50 3t50.5 -11.5t39.5 -30.5t16 -54q0 -63 -49.5 -104.5t-128.5 -57.5q-17 23 -14 56q38 12 59.5 35.5t21.5 51.5q0 27 -16 41t-40 12z" />
    <glyph glyph-name="Egrave" unicode="&#xc8;" horiz-adv-x="487" 
d="M459 0h-397q9 69 9 280v42q0 211 -9 283h390v-100q-58 5 -229 5v-154q147 0 201 5v-96q-55 4 -201 4v-168q176 0 236 5v-106zM281 662l-186 146q0 26 29 56.5t52 32.5l161 -175z" />
    <glyph glyph-name="Eacute" unicode="&#xc9;" horiz-adv-x="487" 
d="M459 0h-397q9 69 9 280v42q0 211 -9 283h390v-100q-58 5 -229 5v-154q147 0 201 5v-96q-55 4 -201 4v-168q176 0 236 5v-106zM443 789l-204 -131l-42 47l171 179q21 -2 48 -35t27 -60z" />
    <glyph glyph-name="Ecircumflex" unicode="&#xca;" horiz-adv-x="487" 
d="M459 0h-397q9 69 9 280v42q0 211 -9 283h390v-100q-58 5 -229 5v-154q147 0 201 5v-96q-55 4 -201 4v-168q176 0 236 5v-106zM291 857l136 -128q-5 -17 -30.5 -36.5t-48.5 -24.5l-101 89l-99 -83q-16 2 -31 19t-17 31l143 133q21 9 48 0z" />
    <glyph glyph-name="Edieresis" unicode="&#xcb;" horiz-adv-x="487" 
d="M459 0h-397q9 69 9 280v42q0 211 -9 283h390v-100q-58 5 -229 5v-154q147 0 201 5v-96q-55 4 -201 4v-168q176 0 236 5v-106zM100 728q0 25 17.5 42t43.5 17t44 -17t18 -42t-18 -41.5t-44 -16.5t-43.5 16.5t-17.5 41.5zM294 728q0 25 18 42t43 17q26 0 44 -17t18 -42
t-18 -41.5t-44 -16.5q-25 0 -43 16.5t-18 41.5z" />
    <glyph glyph-name="Igrave" unicode="&#xcc;" horiz-adv-x="316" 
d="M253 0h-184q10 58 10 275v48q0 235 -10 282h184q-9 -51 -9 -252v-41q0 -243 9 -312zM166 662l-186 146q0 26 29 56.5t52 32.5l161 -175z" />
    <glyph glyph-name="Iacute" unicode="&#xcd;" horiz-adv-x="316" 
d="M253 0h-184q10 58 10 275v48q0 235 -10 282h184q-9 -51 -9 -252v-41q0 -243 9 -312zM363 789l-204 -131l-42 47l171 179q21 -2 48 -35t27 -60z" />
    <glyph glyph-name="Icircumflex" unicode="&#xce;" horiz-adv-x="316" 
d="M253 0h-184q10 58 10 275v48q0 235 -10 282h184q-9 -51 -9 -252v-41q0 -243 9 -312zM187 857l136 -128q-5 -17 -30.5 -36.5t-48.5 -24.5l-101 89l-99 -83q-16 2 -31 19t-17 31l143 133q21 9 48 0z" />
    <glyph glyph-name="Idieresis" unicode="&#xcf;" horiz-adv-x="316" 
d="M253 0h-184q10 58 10 275v48q0 235 -10 282h184q-9 -51 -9 -252v-41q0 -243 9 -312zM4 728q0 25 17.5 42t43.5 17t44 -17t18 -42t-18 -41.5t-44 -16.5t-43.5 16.5t-17.5 41.5zM198 728q0 25 18 42t43 17q26 0 44 -17t18 -42t-18 -41.5t-44 -16.5q-25 0 -43 16.5t-18 41.5
z" />
    <glyph glyph-name="Eth" unicode="&#xd0;" horiz-adv-x="619" 
d="M87 0q9 75 9 245h-75q-15 62 0 108h75q0 185 -9 252q64 8 164 10q42 1 78 -2q121 -8 189.5 -85t68.5 -227q0 -132 -70 -215.5t-198 -93.5q-49 -3 -88 -2q-82 1 -144 10zM241 518q-6 -80 -6 -165h78q17 -53 0 -108h-78q0 -84 6 -150q8 -7 43 -9q17 -3 35 0q40 5 62 18
q21 19 37.5 72.5t16.5 118.5q0 226 -148 226q-31 0 -46 -3z" />
    <glyph glyph-name="Ntilde" unicode="&#xd1;" horiz-adv-x="644" 
d="M61 605h165q10 -25 53 -94t104 -164t94 -152h4v137q0 221 -8 273h113q-6 -76 -6 -436v-169h-158q-19 42 -122 204t-126 205h-5v-116q0 -237 8 -293h-116q9 63 9 286v42q0 233 -9 277zM171 785q33 35 60.5 48t45 7t36.5 -16t35 -20t41 -6t54 26q12 -8 20 -45t3 -55
q-40 -35 -74.5 -43t-58 2.5t-44.5 23.5t-45 13t-49 -24q-13 5 -19.5 37t-4.5 52z" />
    <glyph glyph-name="Ograve" unicode="&#xd2;" 
d="M335 626q125 0 202.5 -80.5t77.5 -235.5q0 -153 -83.5 -237t-210.5 -84q-122 0 -202 81.5t-80 228.5q0 82 25.5 146.5t68 103t94 58t108.5 19.5zM320 531q-42 0 -67 -17q-49 -65 -49 -186q0 -120 36.5 -182.5t97.5 -62.5q42 0 67 20q17 18 30.5 65t13.5 111
q0 121 -32.5 186.5t-96.5 65.5zM339 662l-186 146q0 26 29 56.5t52 32.5l161 -175z" />
    <glyph glyph-name="Oacute" unicode="&#xd3;" 
d="M335 626q125 0 202.5 -80.5t77.5 -235.5q0 -153 -83.5 -237t-210.5 -84q-122 0 -202 81.5t-80 228.5q0 82 25.5 146.5t68 103t94 58t108.5 19.5zM320 531q-42 0 -67 -17q-49 -65 -49 -186q0 -120 36.5 -182.5t97.5 -62.5q42 0 67 20q17 18 30.5 65t13.5 111
q0 121 -32.5 186.5t-96.5 65.5zM522 789l-204 -131l-42 47l171 179q21 -2 48 -35t27 -60z" />
    <glyph glyph-name="Ocircumflex" unicode="&#xd4;" 
d="M335 626q125 0 202.5 -80.5t77.5 -235.5q0 -153 -83.5 -237t-210.5 -84q-122 0 -202 81.5t-80 228.5q0 82 25.5 146.5t68 103t94 58t108.5 19.5zM320 531q-42 0 -67 -17q-49 -65 -49 -186q0 -120 36.5 -182.5t97.5 -62.5q42 0 67 20q17 18 30.5 65t13.5 111
q0 121 -32.5 186.5t-96.5 65.5zM361 857l136 -128q-5 -17 -30.5 -36.5t-48.5 -24.5l-101 89l-99 -83q-16 2 -31 19t-17 31l143 133q21 9 48 0z" />
    <glyph glyph-name="Otilde" unicode="&#xd5;" 
d="M335 626q125 0 202.5 -80.5t77.5 -235.5q0 -153 -83.5 -237t-210.5 -84q-122 0 -202 81.5t-80 228.5q0 82 25.5 146.5t68 103t94 58t108.5 19.5zM320 531q-42 0 -67 -17q-49 -65 -49 -186q0 -120 36.5 -182.5t97.5 -62.5q42 0 67 20q17 18 30.5 65t13.5 111
q0 121 -32.5 186.5t-96.5 65.5zM182 785q33 35 60.5 48t45 7t36.5 -16t35 -20t41 -6t54 26q12 -8 20 -45t3 -55q-40 -35 -74.5 -43t-58 2.5t-44.5 23.5t-45 13t-49 -24q-13 5 -19.5 37t-4.5 52z" />
    <glyph glyph-name="Odieresis" unicode="&#xd6;" 
d="M335 626q125 0 202.5 -80.5t77.5 -235.5q0 -153 -83.5 -237t-210.5 -84q-122 0 -202 81.5t-80 228.5q0 82 25.5 146.5t68 103t94 58t108.5 19.5zM320 531q-42 0 -67 -17q-49 -65 -49 -186q0 -120 36.5 -182.5t97.5 -62.5q42 0 67 20q17 18 30.5 65t13.5 111
q0 121 -32.5 186.5t-96.5 65.5zM168 728q0 25 17.5 42t43.5 17t44 -17t18 -42t-18 -41.5t-44 -16.5t-43.5 16.5t-17.5 41.5zM362 728q0 25 18 42t43 17q26 0 44 -17t18 -42t-18 -41.5t-44 -16.5q-25 0 -43 16.5t-18 41.5z" />
    <glyph glyph-name="multiply" unicode="&#xd7;" horiz-adv-x="584" 
d="M480 425l-136 -141l125 -132q-19 -36 -55 -57l-125 133l-125 -133q-39 24 -54 57l125 132l-133 141q13 23 23.5 35.5t30.5 22.5l133 -142l134 141q33 -18 57 -57z" />
    <glyph glyph-name="Oslash" unicode="&#xd8;" 
d="M335 626q61 0 109 -19l27 49q46 -8 73 -45l-27 -46q98 -83 98 -255q0 -153 -83.5 -237t-210.5 -84q-60 0 -115 22l-26 -48q-50 8 -73 46l27 47q-95 85 -95 243q0 82 25.5 146.5t68 103t94 58t108.5 19.5zM449 279q0 88 -18 148l-172 -308q31 -36 79 -36q42 0 67 20
q17 18 30.5 65t13.5 111zM320 531q-42 0 -67 -17q-49 -65 -49 -186q0 -84 18 -139l174 307q-30 35 -76 35z" />
    <glyph glyph-name="Ugrave" unicode="&#xd9;" horiz-adv-x="612" 
d="M53 605h164q-7 -37 -7 -183v-39q0 -145 31 -213.5t98 -68.5q46 0 68 22q37 54 37 211v26q0 201 -8 245h137q-6 -47 -6 -207v-51q0 -174 -59.5 -266t-194.5 -92q-137 0 -196 89.5t-59 260.5v50q0 174 -5 216zM325 662l-186 146q0 26 29 56.5t52 32.5l161 -175z" />
    <glyph glyph-name="Uacute" unicode="&#xda;" horiz-adv-x="612" 
d="M53 605h164q-7 -37 -7 -183v-39q0 -145 31 -213.5t98 -68.5q46 0 68 22q37 54 37 211v26q0 201 -8 245h137q-6 -47 -6 -207v-51q0 -174 -59.5 -266t-194.5 -92q-137 0 -196 89.5t-59 260.5v50q0 174 -5 216zM513 789l-204 -131l-42 47l171 179q21 -2 48 -35t27 -60z" />
    <glyph glyph-name="Ucircumflex" unicode="&#xdb;" horiz-adv-x="612" 
d="M53 605h164q-7 -37 -7 -183v-39q0 -145 31 -213.5t98 -68.5q46 0 68 22q37 54 37 211v26q0 201 -8 245h137q-6 -47 -6 -207v-51q0 -174 -59.5 -266t-194.5 -92q-137 0 -196 89.5t-59 260.5v50q0 174 -5 216zM348 857l136 -128q-5 -17 -30.5 -36.5t-48.5 -24.5l-101 89
l-99 -83q-16 2 -31 19t-17 31l143 133q21 9 48 0z" />
    <glyph glyph-name="Udieresis" unicode="&#xdc;" horiz-adv-x="612" 
d="M53 605h164q-7 -37 -7 -183v-39q0 -145 31 -213.5t98 -68.5q46 0 68 22q37 54 37 211v26q0 201 -8 245h137q-6 -47 -6 -207v-51q0 -174 -59.5 -266t-194.5 -92q-137 0 -196 89.5t-59 260.5v50q0 174 -5 216zM163 728q0 25 17.5 42t43.5 17t44 -17t18 -42t-18 -41.5
t-44 -16.5t-43.5 16.5t-17.5 41.5zM357 728q0 25 18 42t43 17q26 0 44 -17t18 -42t-18 -41.5t-44 -16.5q-25 0 -43 16.5t-18 41.5z" />
    <glyph glyph-name="Yacute" unicode="&#xdd;" horiz-adv-x="585" 
d="M334 324h4q85 196 102 281h137q-115 -203 -199 -392v-26q0 -150 9 -187h-174q9 46 9 181v32q-76 160 -208 392h198q12 -44 122 -281zM491 789l-204 -131l-42 47l171 179q21 -2 48 -35t27 -60z" />
    <glyph glyph-name="Thorn" unicode="&#xde;" horiz-adv-x="547" 
d="M229 0h-167q8 55 8 305v44q0 301 -7 352q22 7 82 8.5t80 -3.5q-3 -30 -3 -93q26 3 65 3q115 0 177.5 -53.5t62.5 -148.5q0 -59 -23.5 -103.5t-62.5 -69.5t-83 -37t-91 -12q-21 0 -45 2q0 -153 7 -194zM375 407q0 58 -27.5 89.5t-75.5 31.5q-36 0 -50 -3v-244q18 -5 39 -5
q48 0 73 14q18 17 29.5 50t11.5 67z" />
    <glyph glyph-name="germandbls" unicode="&#xdf;" horiz-adv-x="648" 
d="M441 401q-13 -17 -13 -34q0 -19 19.5 -37.5t48 -36.5t56.5 -38.5t47.5 -52t19.5 -68.5q0 -69 -55 -107t-135 -38q-51 0 -92 18.5t-58 39.5q-4 25 7.5 48.5t29.5 35.5q14 -21 42.5 -37.5t54.5 -16.5q31 0 46 8q16 16 16 43q0 22 -20 42.5t-48 37.5t-56 37t-48 50t-20 67
q0 34 21 65t42 63.5t21 70.5q0 32 -18.5 49t-47.5 17q-31 0 -45 -16q-28 -35 -24 -128v-185q0 -218 9 -298h-157q10 100 10 256v139h-66q-6 17 -6 44.5t6 43.5h65q-4 63 11 109.5t45.5 72.5t68.5 38t85 12q91 0 148 -45t57 -116q0 -24 -10.5 -52t-22 -47t-34.5 -54z" />
    <glyph glyph-name="agrave" unicode="&#xe0;" horiz-adv-x="525" 
d="M471 308v-99q0 -173 8 -208l-136 -10q-7 24 -9 76h-3q-60 -79 -160 -79q-65 0 -104 38.5t-39 99.5q0 89 73.5 124.5t224.5 42.5q0 62 -20 90t-75 28q-68 0 -150 -41q-23 28 -23 71q114 57 231 57q93 0 137.5 -45.5t44.5 -144.5zM174 148q0 -38 19 -55.5t47 -17.5
q57 0 88 53v83q-26 7 -53 7q-60 0 -83 -15q-18 -27 -18 -55zM319 540l-186 146q0 26 29 56.5t52 32.5l161 -175z" />
    <glyph glyph-name="aacute" unicode="&#xe1;" horiz-adv-x="525" 
d="M471 308v-99q0 -173 8 -208l-136 -10q-7 24 -9 76h-3q-60 -79 -160 -79q-65 0 -104 38.5t-39 99.5q0 89 73.5 124.5t224.5 42.5q0 62 -20 90t-75 28q-68 0 -150 -41q-23 28 -23 71q114 57 231 57q93 0 137.5 -45.5t44.5 -144.5zM174 148q0 -38 19 -55.5t47 -17.5
q57 0 88 53v83q-26 7 -53 7q-60 0 -83 -15q-18 -27 -18 -55zM430 667l-204 -131l-42 47l171 179q21 -2 48 -35t27 -60z" />
    <glyph glyph-name="acircumflex" unicode="&#xe2;" horiz-adv-x="525" 
d="M471 308v-99q0 -173 8 -208l-136 -10q-7 24 -9 76h-3q-60 -79 -160 -79q-65 0 -104 38.5t-39 99.5q0 89 73.5 124.5t224.5 42.5q0 62 -20 90t-75 28q-68 0 -150 -41q-23 28 -23 71q114 57 231 57q93 0 137.5 -45.5t44.5 -144.5zM174 148q0 -38 19 -55.5t47 -17.5
q57 0 88 53v83q-26 7 -53 7q-60 0 -83 -15q-18 -27 -18 -55zM290 735l136 -128q-5 -17 -30.5 -36.5t-48.5 -24.5l-101 89l-99 -83q-16 2 -31 19t-17 31l143 133q21 9 48 0z" />
    <glyph glyph-name="atilde" unicode="&#xe3;" horiz-adv-x="525" 
d="M471 308v-99q0 -173 8 -208l-136 -10q-7 24 -9 76h-3q-60 -79 -160 -79q-65 0 -104 38.5t-39 99.5q0 89 73.5 124.5t224.5 42.5q0 62 -20 90t-75 28q-68 0 -150 -41q-23 28 -23 71q114 57 231 57q93 0 137.5 -45.5t44.5 -144.5zM174 148q0 -38 19 -55.5t47 -17.5
q57 0 88 53v83q-26 7 -53 7q-60 0 -83 -15q-18 -27 -18 -55zM112 663q33 35 60.5 48t45 7t36.5 -16t35 -20t41 -6t54 26q12 -8 20 -45t3 -55q-40 -35 -74.5 -43t-58 2.5t-44.5 23.5t-45 13t-49 -24q-13 5 -19.5 37t-4.5 52z" />
    <glyph glyph-name="adieresis" unicode="&#xe4;" horiz-adv-x="525" 
d="M471 308v-99q0 -173 8 -208l-136 -10q-7 24 -9 76h-3q-60 -79 -160 -79q-65 0 -104 38.5t-39 99.5q0 89 73.5 124.5t224.5 42.5q0 62 -20 90t-75 28q-68 0 -150 -41q-23 28 -23 71q114 57 231 57q93 0 137.5 -45.5t44.5 -144.5zM174 148q0 -38 19 -55.5t47 -17.5
q57 0 88 53v83q-26 7 -53 7q-60 0 -83 -15q-18 -27 -18 -55zM113 606q0 25 17.5 42t43.5 17t44 -17t18 -42t-18 -41.5t-44 -16.5t-43.5 16.5t-17.5 41.5zM307 606q0 25 18 42t43 17q26 0 44 -17t18 -42t-18 -41.5t-44 -16.5q-25 0 -43 16.5t-18 41.5z" />
    <glyph glyph-name="aring" unicode="&#xe5;" horiz-adv-x="525" 
d="M471 308v-99q0 -173 8 -208l-136 -10q-7 24 -9 76h-3q-60 -79 -160 -79q-65 0 -104 38.5t-39 99.5q0 89 73.5 124.5t224.5 42.5q0 62 -20 90t-75 28q-68 0 -150 -41q-23 28 -23 71q114 57 231 57q93 0 137.5 -45.5t44.5 -144.5zM174 148q0 -38 19 -55.5t47 -17.5
q57 0 88 53v83q-26 7 -53 7q-60 0 -83 -15q-18 -27 -18 -55zM382 667q0 -59 -36 -88.5t-76 -29.5q-50 0 -82.5 29t-32.5 78q0 40 22 68.5t46.5 39t44.5 10.5q50 0 82 -29t32 -78zM226 666q0 -21 12 -35t32 -15q6 -2 12 0q29 0 29 41q0 24 -14 38.5t-34 14.5q-37 0 -37 -44z
" />
    <glyph glyph-name="ae" unicode="&#xe6;" horiz-adv-x="823" 
d="M173 155q0 -38 20 -59t46 -21q29 0 54 21t35 50v84q-15 5 -54 5q-48 0 -78 -15q-23 -29 -23 -65zM376 83h-6q-21 -33 -69.5 -64.5t-113.5 -31.5q-74 0 -116.5 37.5t-42.5 98.5q0 91 75 135t223 55q0 98 -93 98q-72 0 -153 -43q-22 26 -22 71q111 59 231 59q97 0 136 -61
q58 62 157 62q100 0 155 -52t55 -126q0 -39 -13 -68q-76 -20 -229 -32l-76 -5q6 -66 46 -99t102 -33q79 0 134 38q18 -29 18 -67q-24 -24 -80 -44.5t-117 -20.5q-135 0 -201 93zM471 281q125 0 168 15q8 16 8 37q0 39 -23 61.5t-59 22.5q-38 0 -63 -18q-12 -16 -21.5 -52
t-9.5 -66z" />
    <glyph glyph-name="ccedilla" unicode="&#xe7;" horiz-adv-x="470" 
d="M288 498q114 0 159 -45q-3 -21 -17.5 -48.5t-33.5 -44.5q-48 44 -121 44q-34 0 -54 -16q-38 -44 -38 -113q0 -87 42 -139.5t110 -52.5q49 0 97 27q21 -27 18 -63q-24 -22 -73 -40t-101 -18q-109 0 -176.5 68.5t-67.5 182.5q0 112 73.5 185t182.5 73zM176 -111
q-3 36 11 59q23 6 50 3t50.5 -11.5t39.5 -30.5t16 -54q0 -63 -49.5 -104.5t-128.5 -57.5q-17 23 -14 56q38 12 59.5 35.5t21.5 51.5q0 27 -16 41t-40 12z" />
    <glyph glyph-name="egrave" unicode="&#xe8;" horiz-adv-x="523" 
d="M283 498q100 0 154.5 -51t54.5 -126q0 -35 -13 -68q-93 -21 -229 -32l-76 -5q6 -66 46.5 -99t102.5 -33q80 0 132 37q19 -29 19 -66q-24 -24 -79.5 -44.5t-117.5 -20.5q-116 0 -180.5 67t-64.5 183q0 110 67 184t184 74zM171 281q128 0 167 14q9 15 9 39q0 38 -23 60.5
t-59 22.5q-37 0 -62 -17q-12 -17 -22 -53t-10 -66zM326 540l-186 146q0 26 29 56.5t52 32.5l161 -175z" />
    <glyph glyph-name="eacute" unicode="&#xe9;" horiz-adv-x="523" 
d="M283 498q100 0 154.5 -51t54.5 -126q0 -35 -13 -68q-93 -21 -229 -32l-76 -5q6 -66 46.5 -99t102.5 -33q80 0 132 37q19 -29 19 -66q-24 -24 -79.5 -44.5t-117.5 -20.5q-116 0 -180.5 67t-64.5 183q0 110 67 184t184 74zM171 281q128 0 167 14q9 15 9 39q0 38 -23 60.5
t-59 22.5q-37 0 -62 -17q-12 -17 -22 -53t-10 -66zM461 667l-204 -131l-42 47l171 179q21 -2 48 -35t27 -60z" />
    <glyph glyph-name="ecircumflex" unicode="&#xea;" horiz-adv-x="523" 
d="M283 498q100 0 154.5 -51t54.5 -126q0 -35 -13 -68q-93 -21 -229 -32l-76 -5q6 -66 46.5 -99t102.5 -33q80 0 132 37q19 -29 19 -66q-24 -24 -79.5 -44.5t-117.5 -20.5q-116 0 -180.5 67t-64.5 183q0 110 67 184t184 74zM171 281q128 0 167 14q9 15 9 39q0 38 -23 60.5
t-59 22.5q-37 0 -62 -17q-12 -17 -22 -53t-10 -66zM303 735l136 -128q-5 -17 -30.5 -36.5t-48.5 -24.5l-101 89l-99 -83q-16 2 -31 19t-17 31l143 133q21 9 48 0z" />
    <glyph glyph-name="edieresis" unicode="&#xeb;" horiz-adv-x="523" 
d="M283 498q100 0 154.5 -51t54.5 -126q0 -35 -13 -68q-93 -21 -229 -32l-76 -5q6 -66 46.5 -99t102.5 -33q80 0 132 37q19 -29 19 -66q-24 -24 -79.5 -44.5t-117.5 -20.5q-116 0 -180.5 67t-64.5 183q0 110 67 184t184 74zM171 281q128 0 167 14q9 15 9 39q0 38 -23 60.5
t-59 22.5q-37 0 -62 -17q-12 -17 -22 -53t-10 -66zM116 606q0 25 17.5 42t43.5 17t44 -17t18 -42t-18 -41.5t-44 -16.5t-43.5 16.5t-17.5 41.5zM310 606q0 25 18 42t43 17q26 0 44 -17t18 -42t-18 -41.5t-44 -16.5q-25 0 -43 16.5t-18 41.5z" />
    <glyph glyph-name="igrave" unicode="&#xec;" horiz-adv-x="289" 
d="M69 230v40q0 160 -15 213h180q-14 -53 -14 -216v-37q0 -43 4 -122.5t10 -107.5h-180q15 56 15 230zM181 540l-186 146q0 26 29 56.5t52 32.5l161 -175z" />
    <glyph glyph-name="iacute" unicode="&#xed;" horiz-adv-x="289" 
d="M69 230v40q0 160 -15 213h180q-14 -53 -14 -216v-37q0 -43 4 -122.5t10 -107.5h-180q15 56 15 230zM347 667l-204 -131l-42 47l171 179q21 -2 48 -35t27 -60z" />
    <glyph glyph-name="icircumflex" unicode="&#xee;" horiz-adv-x="289" 
d="M69 230v40q0 160 -15 213h180q-14 -53 -14 -216v-37q0 -43 4 -122.5t10 -107.5h-180q15 56 15 230zM173 735l136 -128q-5 -17 -30.5 -36.5t-48.5 -24.5l-101 89l-99 -83q-16 2 -31 19t-17 31l143 133q21 9 48 0z" />
    <glyph glyph-name="idieresis" unicode="&#xef;" horiz-adv-x="289" 
d="M69 230v40q0 160 -15 213h180q-14 -53 -14 -216v-37q0 -43 4 -122.5t10 -107.5h-180q15 56 15 230zM-11 606q0 25 17.5 42t43.5 17t44 -17t18 -42t-18 -41.5t-44 -16.5t-43.5 16.5t-17.5 41.5zM183 606q0 25 18 42t43 17q26 0 44 -17t18 -42t-18 -41.5t-44 -16.5
q-25 0 -43 16.5t-18 41.5z" />
    <glyph glyph-name="eth" unicode="&#xf0;" horiz-adv-x="557" 
d="M269 476q55 0 77 -18l2 4q-23 58 -62 105l-65 -56q-14 9 -27 26t-16 32l61 44q-33 27 -66 41q4 23 23 48t41 31q38 -14 84 -48l61 67q35 -19 53 -68l-59 -46q150 -146 150 -360q0 -139 -67 -214t-175 -75q-116 0 -184 66t-68 176q0 115 69 180t168 65zM273 388
q-46 0 -70 -24q-27 -35 -27 -107q0 -86 30 -133t87 -47q35 0 54 16q35 47 35 130q0 90 -19 136q-29 29 -90 29z" />
    <glyph glyph-name="ntilde" unicode="&#xf1;" horiz-adv-x="572" 
d="M529 0h-158q11 35 11 206v43q0 85 -18 121t-61 36q-56 0 -98 -56v-74q0 -121 8 -276h-155q9 88 9 239v22q0 130 -11 217l148 14q-1 -11 -2.5 -34.5t-2.5 -34.5h5q75 77 166 77q79 0 114.5 -50t35.5 -156v-68q0 -180 9 -226zM134 663q33 35 60.5 48t45 7t36.5 -16t35 -20
t41 -6t54 26q12 -8 20 -45t3 -55q-40 -35 -74.5 -43t-58 2.5t-44.5 23.5t-45 13t-49 -24q-13 5 -19.5 37t-4.5 52z" />
    <glyph glyph-name="ograve" unicode="&#xf2;" horiz-adv-x="557" 
d="M292 500q110 0 172 -68t62 -187q0 -116 -69 -186t-176 -70q-115 0 -182 67.5t-67 181.5q0 120 73 191t187 71zM274 413q-45 0 -69 -22q-29 -37 -29 -114q0 -98 30 -149t87 -51q29 0 57 17q32 38 32 124q0 195 -108 195zM321 540l-186 146q0 26 29 56.5t52 32.5l161 -175z
" />
    <glyph glyph-name="oacute" unicode="&#xf3;" horiz-adv-x="557" 
d="M292 500q110 0 172 -68t62 -187q0 -116 -69 -186t-176 -70q-115 0 -182 67.5t-67 181.5q0 120 73 191t187 71zM274 413q-45 0 -69 -22q-29 -37 -29 -114q0 -98 30 -149t87 -51q29 0 57 17q32 38 32 124q0 195 -108 195zM478 667l-204 -131l-42 47l171 179q21 -2 48 -35
t27 -60z" />
    <glyph glyph-name="ocircumflex" unicode="&#xf4;" horiz-adv-x="557" 
d="M292 500q110 0 172 -68t62 -187q0 -116 -69 -186t-176 -70q-115 0 -182 67.5t-67 181.5q0 120 73 191t187 71zM274 413q-45 0 -69 -22q-29 -37 -29 -114q0 -98 30 -149t87 -51q29 0 57 17q32 38 32 124q0 195 -108 195zM307 735l136 -128q-5 -17 -30.5 -36.5t-48.5 -24.5
l-101 89l-99 -83q-16 2 -31 19t-17 31l143 133q21 9 48 0z" />
    <glyph glyph-name="otilde" unicode="&#xf5;" horiz-adv-x="557" 
d="M292 500q110 0 172 -68t62 -187q0 -116 -69 -186t-176 -70q-115 0 -182 67.5t-67 181.5q0 120 73 191t187 71zM274 413q-45 0 -69 -22q-29 -37 -29 -114q0 -98 30 -149t87 -51q29 0 57 17q32 38 32 124q0 195 -108 195zM128 663q33 35 60.5 48t45 7t36.5 -16t35 -20
t41 -6t54 26q12 -8 20 -45t3 -55q-40 -35 -74.5 -43t-58 2.5t-44.5 23.5t-45 13t-49 -24q-13 5 -19.5 37t-4.5 52z" />
    <glyph glyph-name="odieresis" unicode="&#xf6;" horiz-adv-x="557" 
d="M292 500q110 0 172 -68t62 -187q0 -116 -69 -186t-176 -70q-115 0 -182 67.5t-67 181.5q0 120 73 191t187 71zM274 413q-45 0 -69 -22q-29 -37 -29 -114q0 -98 30 -149t87 -51q29 0 57 17q32 38 32 124q0 195 -108 195zM123 606q0 25 17.5 42t43.5 17t44 -17t18 -42
t-18 -41.5t-44 -16.5t-43.5 16.5t-17.5 41.5zM317 606q0 25 18 42t43 17q26 0 44 -17t18 -42t-18 -41.5t-44 -16.5q-25 0 -43 16.5t-18 41.5z" />
    <glyph glyph-name="divide" unicode="&#xf7;" horiz-adv-x="570" 
d="M213 488q0 27 18.5 45t46.5 18q27 0 46.5 -18t19.5 -45t-19.5 -45t-46.5 -18q-28 0 -46.5 18t-18.5 45zM213 108q0 27 18.5 45t46.5 18q27 0 46.5 -18t19.5 -45t-19.5 -45t-46.5 -18q-28 0 -46.5 18t-18.5 45zM507 257h-439q-10 38 0 88h439q9 -42 0 -88z" />
    <glyph glyph-name="oslash" unicode="&#xf8;" horiz-adv-x="557" 
d="M292 500q38 0 76 -10l28 49q47 -8 72 -43l-25 -45q83 -68 83 -206q0 -116 -69 -186t-176 -70q-43 0 -89 12l-27 -51q-52 3 -74 45l25 46q-84 67 -84 197q0 120 73 191t187 71zM274 413q-45 0 -69 -22q-29 -37 -29 -114q0 -74 16 -119l134 239q-22 16 -52 16zM382 218
q0 66 -15 116l-133 -238q23 -19 59 -19q29 0 57 17q32 38 32 124z" />
    <glyph glyph-name="ugrave" unicode="&#xf9;" horiz-adv-x="560" 
d="M36 483h159q-8 -37 -8 -210v-41q0 -82 19 -115.5t62 -33.5q50 0 90 48v87q0 170 -11 265h158q-8 -75 -8 -234v-32q0 -141 13 -216l-135 -11q-4 23 -10 81h-5q-57 -82 -156 -82q-81 0 -118 48t-37 154v51q0 187 -13 241zM295 540l-186 146q0 26 29 56.5t52 32.5l161 -175z
" />
    <glyph glyph-name="uacute" unicode="&#xfa;" horiz-adv-x="560" 
d="M36 483h159q-8 -37 -8 -210v-41q0 -82 19 -115.5t62 -33.5q50 0 90 48v87q0 170 -11 265h158q-8 -75 -8 -234v-32q0 -141 13 -216l-135 -11q-4 23 -10 81h-5q-57 -82 -156 -82q-81 0 -118 48t-37 154v51q0 187 -13 241zM445 667l-204 -131l-42 47l171 179q21 -2 48 -35
t27 -60z" />
    <glyph glyph-name="ucircumflex" unicode="&#xfb;" horiz-adv-x="560" 
d="M36 483h159q-8 -37 -8 -210v-41q0 -82 19 -115.5t62 -33.5q50 0 90 48v87q0 170 -11 265h158q-8 -75 -8 -234v-32q0 -141 13 -216l-135 -11q-4 23 -10 81h-5q-57 -82 -156 -82q-81 0 -118 48t-37 154v51q0 187 -13 241zM307 735l136 -128q-5 -17 -30.5 -36.5t-48.5 -24.5
l-101 89l-99 -83q-16 2 -31 19t-17 31l143 133q21 9 48 0z" />
    <glyph glyph-name="udieresis" unicode="&#xfc;" horiz-adv-x="560" 
d="M36 483h159q-8 -37 -8 -210v-41q0 -82 19 -115.5t62 -33.5q50 0 90 48v87q0 170 -11 265h158q-8 -75 -8 -234v-32q0 -141 13 -216l-135 -11q-4 23 -10 81h-5q-57 -82 -156 -82q-81 0 -118 48t-37 154v51q0 187 -13 241zM113 606q0 25 17.5 42t43.5 17t44 -17t18 -42
t-18 -41.5t-44 -16.5t-43.5 16.5t-17.5 41.5zM307 606q0 25 18 42t43 17q26 0 44 -17t18 -42t-18 -41.5t-44 -16.5q-25 0 -43 16.5t-18 41.5z" />
    <glyph glyph-name="yacute" unicode="&#xfd;" horiz-adv-x="510" 
d="M11 483h178q5 -35 23.5 -100.5t45 -152t33.5 -110.5h7q19 56 48 176.5t40 186.5h128q-12 -33 -29 -81t-40 -115t-37 -106l-31 -87q-47 -132 -87 -212t-60 -100q-29 1 -57 22t-36 49q53 37 109 147h-41q-26 67 -100 249.5t-94 233.5zM461 667l-204 -131l-42 47l171 179
q21 -2 48 -35t27 -60z" />
    <glyph glyph-name="thorn" unicode="&#xfe;" horiz-adv-x="571" 
d="M58 697q29 8 74 10.5t80 -4.5q-11 -119 -14 -284l5 -1q60 73 147 73q85 0 137 -59.5t52 -168.5q0 -128 -80.5 -201t-192.5 -73q-22 0 -62 6v-26q0 -110 8 -167h-156q11 68 11 322v263q0 187 -9 310zM204 351v-270q21 -14 62 -14q50 0 77 22q44 46 44 156q0 145 -89 156
q-32 1 -58 -20q-26 -8 -36 -30z" />
    <glyph glyph-name="ydieresis" unicode="&#xff;" horiz-adv-x="510" 
d="M11 483h178q5 -35 23.5 -100.5t45 -152t33.5 -110.5h7q19 56 48 176.5t40 186.5h128q-12 -33 -29 -81t-40 -115t-37 -106l-31 -87q-47 -132 -87 -212t-60 -100q-29 1 -57 22t-36 49q53 37 109 147h-41q-26 67 -100 249.5t-94 233.5zM112 606q0 25 17.5 42t43.5 17t44 -17
t18 -42t-18 -41.5t-44 -16.5t-43.5 16.5t-17.5 41.5zM306 606q0 25 18 42t43 17q26 0 44 -17t18 -42t-18 -41.5t-44 -16.5q-25 0 -43 16.5t-18 41.5z" />
    <glyph glyph-name="Amacron" unicode="&#x100;" horiz-adv-x="626" 
d="M620 0h-181q-2 8 -10 40.5t-13 49.5l-18 56q-105 11 -193 0l-16 -50q-6 -16 -14.5 -49.5t-12.5 -46.5h-141q46 108 124 328t90 277h179q24 -85 90.5 -284t115.5 -321zM304 473l-73 -240q26 -4 71.5 -4t71.5 4l-66 240h-4zM171 767h300q9 -16 8 -58t-11 -54h-301
q-9 16 -7.5 58t11.5 54z" />
    <glyph glyph-name="amacron" unicode="&#x101;" horiz-adv-x="525" 
d="M471 308v-99q0 -173 8 -208l-136 -10q-7 24 -9 76h-3q-60 -79 -160 -79q-65 0 -104 38.5t-39 99.5q0 89 73.5 124.5t224.5 42.5q0 62 -20 90t-75 28q-68 0 -150 -41q-23 28 -23 71q114 57 231 57q93 0 137.5 -45.5t44.5 -144.5zM174 148q0 -38 19 -55.5t47 -17.5
q57 0 88 53v83q-26 7 -53 7q-60 0 -83 -15q-18 -27 -18 -55zM121 694h300q9 -16 8 -58t-11 -54h-301q-9 16 -7.5 58t11.5 54z" />
    <glyph glyph-name="Aogonek" unicode="&#x104;" horiz-adv-x="626" 
d="M620 0h-30q-77 -59 -77 -136q0 -30 15.5 -47.5t36.5 -17.5q29 0 61 17q15 -15 18 -41q-19 -17 -52.5 -31t-60.5 -18q-55 0 -85.5 27t-30.5 70q0 55 36.5 102t87.5 75h-100q-2 8 -10 40.5t-13 49.5l-18 56q-105 11 -193 0l-16 -50q-6 -16 -14.5 -49.5t-12.5 -46.5h-141
q46 108 124 328t90 277h179q24 -85 90.5 -284t115.5 -321zM304 473l-73 -240q26 -4 71.5 -4t71.5 4l-66 240h-4z" />
    <glyph glyph-name="aogonek" unicode="&#x105;" horiz-adv-x="525" 
d="M471 308v-99q0 -173 8 -208l-18 -1q-37 -26 -61 -63.5t-24 -78.5q0 -30 15.5 -47.5t36.5 -17.5q29 0 61 17q15 -15 18 -41q-19 -17 -52.5 -31t-60.5 -18q-55 0 -85.5 27t-30.5 70q0 56 37.5 103.5t89.5 75.5l-62 -5q-7 24 -9 76h-3q-60 -79 -160 -79q-65 0 -104 38.5
t-39 99.5q0 89 73.5 124.5t224.5 42.5q0 62 -20 90t-75 28q-68 0 -150 -41q-23 28 -23 71q114 57 231 57q93 0 137.5 -45.5t44.5 -144.5zM174 148q0 -38 19 -55.5t47 -17.5q57 0 88 53v83q-26 7 -53 7q-60 0 -83 -15q-18 -27 -18 -55z" />
    <glyph glyph-name="Cacute" unicode="&#x106;" horiz-adv-x="536" 
d="M338 620q99 0 162 -23q1 -28 -6.5 -61.5t-19.5 -50.5q-62 26 -128 26q-59 0 -85 -18q-57 -57 -57 -165q0 -98 44.5 -161t130.5 -63q56 0 111 32q9 -11 16.5 -39t7.5 -47q-34 -27 -87 -44t-102 -17q-126 0 -206 81t-80 239q0 140 82.5 225.5t216.5 85.5zM518 771
l-204 -131l-42 47l171 179q21 -2 48 -35t27 -60z" />
    <glyph glyph-name="cacute" unicode="&#x107;" horiz-adv-x="470" 
d="M288 498q114 0 159 -45q-3 -21 -17.5 -48.5t-33.5 -44.5q-48 44 -121 44q-34 0 -54 -16q-38 -44 -38 -113q0 -87 42 -139.5t110 -52.5q49 0 97 27q21 -27 18 -63q-24 -22 -73 -40t-101 -18q-109 0 -176.5 68.5t-67.5 182.5q0 112 73.5 185t182.5 73zM462 667l-204 -131
l-42 47l171 179q21 -2 48 -35t27 -60z" />
    <glyph glyph-name="Ccaron" unicode="&#x10c;" horiz-adv-x="536" 
d="M338 620q99 0 162 -23q1 -28 -6.5 -61.5t-19.5 -50.5q-62 26 -128 26q-59 0 -85 -18q-57 -57 -57 -165q0 -98 44.5 -161t130.5 -63q56 0 111 32q9 -11 16.5 -39t7.5 -47q-34 -27 -87 -44t-102 -17q-126 0 -206 81t-80 239q0 140 82.5 225.5t216.5 85.5zM300 648l-143 152
q3 18 24 38.5t38 26.5l112 -96l99 89q11 -2 31 -20t27 -36l-147 -154h-41z" />
    <glyph glyph-name="ccaron" unicode="&#x10d;" horiz-adv-x="470" 
d="M288 498q114 0 159 -45q-3 -21 -17.5 -48.5t-33.5 -44.5q-48 44 -121 44q-34 0 -54 -16q-38 -44 -38 -113q0 -87 42 -139.5t110 -52.5q49 0 97 27q21 -27 18 -63q-24 -22 -73 -40t-101 -18q-109 0 -176.5 68.5t-67.5 182.5q0 112 73.5 185t182.5 73zM252 553l-143 152
q3 18 24 38.5t38 26.5l112 -96l99 89q11 -2 31 -20t27 -36l-147 -154h-41z" />
    <glyph glyph-name="Dcaron" unicode="&#x10e;" horiz-adv-x="594" 
d="M62 0q9 76 9 280v42q0 218 -9 283q64 8 164 10q41 1 78 -2q122 -8 190 -84.5t68 -227.5q0 -135 -70 -217t-199 -92q-48 -3 -87 -2q-84 1 -144 10zM216 518q-5 -79 -5.5 -217.5t5.5 -206.5q12 -7 44 -9q17 -2 35 0q37 4 61 17q22 21 38.5 73t16.5 120q0 226 -148 226
q-31 0 -47 -3zM243 642l-143 152q3 18 24 38.5t38 26.5l112 -96l99 89q11 -2 31 -20t27 -36l-147 -154h-41z" />
    <glyph glyph-name="dcaron" unicode="&#x10f;" horiz-adv-x="697" 
d="M509 0l-133 -10q-4 46 -5 69h-4q-40 -56 -103 -64q-25 -6 -60 -4q-74 7 -123 64t-49 163q0 128 76.5 200.5t185.5 72.5q39 0 67 -7v38q0 99 -7 178q32 6 79 7t70 -4q-5 -230 -5 -358v-109q0 -171 11 -236zM361 119v277q-26 18 -67 18q-42 0 -71 -19q-40 -59 -40 -150
q0 -76 28 -122.5t75 -46.5q45 0 75 43zM539 590q0 32 23 54t57 22q37 0 60 -27.5t23 -79.5q0 -78 -48 -122t-109 -44q-7 23 0 49q28 -2 50.5 20t20.5 54q-33 -5 -55 17.5t-22 56.5z" />
    <glyph glyph-name="Dcroat" unicode="&#x110;" horiz-adv-x="619" 
d="M87 0q9 75 9 245h-75q-15 62 0 108h75q0 185 -9 252q64 8 164 10q42 1 78 -2q121 -8 189.5 -85t68.5 -227q0 -132 -70 -215.5t-198 -93.5q-49 -3 -88 -2q-82 1 -144 10zM241 518q-6 -80 -6 -165h78q17 -53 0 -108h-78q0 -84 6 -150q8 -7 43 -9q17 -3 35 0q40 5 62 18
q21 19 37.5 72.5t16.5 118.5q0 226 -148 226q-31 0 -46 -3z" />
    <glyph glyph-name="dcroat" unicode="&#x111;" horiz-adv-x="561" 
d="M509 0l-133 -10q-4 46 -5 69h-4q-40 -56 -103 -64q-25 -6 -60 -4q-74 7 -123 64t-49 163q0 128 76.5 200.5t185.5 72.5q39 0 67 -7v38v27h-102q-13 42 0 76h100q-1 36 -5 75q32 6 79 7t70 -4q0 -6 -0.5 -17.5t-1 -29t-0.5 -31.5h52q10 -38 0 -76h-53q-2 -142 -2 -204
v-109q0 -171 11 -236zM361 119v277q-26 18 -67 18q-42 0 -71 -19q-40 -59 -40 -150q0 -76 28 -122.5t75 -46.5q45 0 75 43z" />
    <glyph glyph-name="Emacron" unicode="&#x112;" horiz-adv-x="487" 
d="M459 0h-397q9 69 9 280v42q0 211 -9 283h390v-100q-58 5 -229 5v-154q147 0 201 5v-96q-55 4 -201 4v-168q176 0 236 5v-106zM108 767h300q9 -16 8 -58t-11 -54h-301q-9 16 -7.5 58t11.5 54z" />
    <glyph glyph-name="emacron" unicode="&#x113;" horiz-adv-x="523" 
d="M283 498q100 0 154.5 -51t54.5 -126q0 -35 -13 -68q-93 -21 -229 -32l-76 -5q6 -66 46.5 -99t102.5 -33q80 0 132 37q19 -29 19 -66q-24 -24 -79.5 -44.5t-117.5 -20.5q-116 0 -180.5 67t-64.5 183q0 110 67 184t184 74zM171 281q128 0 167 14q9 15 9 39q0 38 -23 60.5
t-59 22.5q-37 0 -62 -17q-12 -17 -22 -53t-10 -66zM124 694h300q9 -16 8 -58t-11 -54h-301q-9 16 -7.5 58t11.5 54z" />
    <glyph glyph-name="Edotaccent" unicode="&#x116;" horiz-adv-x="487" 
d="M459 0h-397q9 69 9 280v42q0 211 -9 283h390v-100q-58 5 -229 5v-154q147 0 201 5v-96q-55 4 -201 4v-168q176 0 236 5v-106zM175 726q0 31 24.5 50.5t57.5 19.5q35 0 59 -19.5t24 -50.5t-24 -50.5t-59 -19.5q-33 0 -57.5 19.5t-24.5 50.5z" />
    <glyph glyph-name="edotaccent" unicode="&#x117;" horiz-adv-x="523" 
d="M283 498q100 0 154.5 -51t54.5 -126q0 -35 -13 -68q-93 -21 -229 -32l-76 -5q6 -66 46.5 -99t102.5 -33q80 0 132 37q19 -29 19 -66q-24 -24 -79.5 -44.5t-117.5 -20.5q-116 0 -180.5 67t-64.5 183q0 110 67 184t184 74zM171 281q128 0 167 14q9 15 9 39q0 38 -23 60.5
t-59 22.5q-37 0 -62 -17q-12 -17 -22 -53t-10 -66zM191 618q0 31 24.5 50.5t57.5 19.5q35 0 59 -19.5t24 -50.5t-24 -50.5t-59 -19.5q-33 0 -57.5 19.5t-24.5 50.5z" />
    <glyph glyph-name="Eogonek" unicode="&#x118;" horiz-adv-x="487" 
d="M459 0h-26q-77 -59 -77 -136q0 -30 15.5 -47.5t36.5 -17.5q29 0 61 17q15 -15 18 -41q-19 -17 -52.5 -31t-60.5 -18q-55 0 -85.5 27t-30.5 70q0 55 36.5 102t87.5 75h-320q9 69 9 280v42q0 211 -9 283h390v-100q-58 5 -229 5v-154q147 0 201 5v-96q-55 4 -201 4v-168
q176 0 236 5v-106z" />
    <glyph glyph-name="eogonek" unicode="&#x119;" horiz-adv-x="523" 
d="M283 498q100 0 154.5 -51t54.5 -126q0 -35 -13 -68q-93 -21 -229 -32l-76 -5q6 -66 46.5 -99t102.5 -33q80 0 132 37q19 -29 19 -66q-27 -27 -84 -46q-36 -26 -59.5 -63t-23.5 -77q0 -31 15.5 -48t36.5 -17q29 0 61 17q15 -15 18 -41q-19 -17 -52.5 -31t-60.5 -18
q-55 0 -85.5 27t-30.5 70q0 93 102 164q-22 -2 -34 -2q-116 0 -180.5 67t-64.5 183q0 110 67 184t184 74zM171 281q128 0 167 14q9 15 9 39q0 38 -23 60.5t-59 22.5q-37 0 -62 -17q-12 -17 -22 -53t-10 -66z" />
    <glyph glyph-name="Ecaron" unicode="&#x11a;" horiz-adv-x="487" 
d="M459 0h-397q9 69 9 280v42q0 211 -9 283h390v-100q-58 5 -229 5v-154q147 0 201 5v-96q-55 4 -201 4v-168q176 0 236 5v-106zM237 637l-143 152q3 18 24 38.5t38 26.5l112 -96l99 89q11 -2 31 -20t27 -36l-147 -154h-41z" />
    <glyph glyph-name="ecaron" unicode="&#x11b;" horiz-adv-x="523" 
d="M283 498q100 0 154.5 -51t54.5 -126q0 -35 -13 -68q-93 -21 -229 -32l-76 -5q6 -66 46.5 -99t102.5 -33q80 0 132 37q19 -29 19 -66q-24 -24 -79.5 -44.5t-117.5 -20.5q-116 0 -180.5 67t-64.5 183q0 110 67 184t184 74zM171 281q128 0 167 14q9 15 9 39q0 38 -23 60.5
t-59 22.5q-37 0 -62 -17q-12 -17 -22 -53t-10 -66zM254 553l-143 152q3 18 24 38.5t38 26.5l112 -96l99 89q11 -2 31 -20t27 -36l-147 -154h-41z" />
    <glyph glyph-name="Gcommaaccent" unicode="&#x122;" horiz-adv-x="584" 
d="M344 620q63 0 163 -20q2 -66 -24 -112q-57 23 -127 23t-101 -18q-58 -50 -58 -175q0 -104 40 -166t112 -62q46 0 75 18q8 82 0 131h-96q-14 48 0 87h221q-10 -120 0 -259q-119 -78 -231 -78q-118 0 -198.5 81t-80.5 240q0 137 86 223.5t219 86.5zM258 -97q0 28 19 46
t48 18q31 0 50 -23.5t19 -66.5q0 -66 -40 -102.5t-90 -37.5q-7 16 -1 42q24 -2 43 17t17 46q-28 -5 -46.5 13.5t-18.5 47.5z" />
    <glyph glyph-name="gcommaaccent" unicode="&#x123;" horiz-adv-x="554" 
d="M343 607q0 -28 -20.5 -47t-49.5 -19q-32 0 -52 23t-20 65q0 63 42 98.5t94 35.5q5 -18 1 -42q-26 0 -43 -14t-17 -37q30 1 47.5 -17.5t17.5 -45.5zM528 500q5 -14 5 -40t-5 -41l-91 15v-7q65 -38 65 -110q0 -68 -61 -112t-164 -44q-70 0 -106 18q-32 -11 -32 -37
q0 -21 42.5 -32t139.5 -21q105 -12 157 -43t52 -91q0 -72 -73.5 -119.5t-194.5 -47.5q-104 0 -169 32t-65 85q0 40 25 65q4 6 36 5.5t48 -8.5q-16 -18 -16 -37q0 -29 39.5 -50.5t110.5 -21.5q59 0 90 16t31 40q0 47 -133 70q-116 19 -163 46.5t-47 73.5q0 49 75 95
q-86 42 -86 130q0 79 69.5 125t176.5 46q24 0 67.5 -5t55.5 -6q53 1 121 11zM262 429q-46 0 -66 -23t-20 -72q0 -46 27 -74.5t75 -28.5q46 0 66 21t20 66q0 111 -102 111z" />
    <glyph glyph-name="imacron" unicode="&#x12b;" horiz-adv-x="289" 
d="M69 230v40q0 160 -15 213h180q-14 -53 -14 -216v-37q0 -43 4 -122.5t10 -107.5h-180q15 56 15 230zM-4 694h300q9 -16 8 -58t-11 -54h-301q-9 16 -7.5 58t11.5 54z" />
    <glyph glyph-name="Iogonek" unicode="&#x12e;" horiz-adv-x="316" 
d="M253 0h-30q-77 -59 -77 -136q0 -30 15.5 -47.5t36.5 -17.5q29 0 61 17q15 -15 18 -41q-19 -17 -52.5 -31t-60.5 -18q-55 0 -85.5 27t-30.5 70q0 55 36.5 102t87.5 75h-103q10 58 10 275v48q0 235 -10 282h184q-9 -51 -9 -252v-41q0 -243 9 -312z" />
    <glyph glyph-name="iogonek" unicode="&#x12f;" horiz-adv-x="307" 
d="M78 230v41q0 163 -14 212h179q-14 -53 -14 -215v-38q0 -171 14 -230h-30q-77 -59 -77 -136q0 -30 15.5 -47.5t36.5 -17.5q29 0 61 17q15 -15 18 -41q-19 -17 -52.5 -31t-60.5 -18q-55 0 -85.5 27t-30.5 70q0 55 36.5 102t87.5 75h-98q14 52 14 230zM78 618q0 30 24 49.5
t58 19.5q35 0 60 -19.5t25 -49.5q0 -31 -24.5 -50t-60.5 -19q-34 0 -58 19t-24 50z" />
    <glyph glyph-name="dotlessi" unicode="&#x131;" horiz-adv-x="289" 
d="M69 230v40q0 160 -15 213h180q-14 -53 -14 -216v-37q0 -43 4 -122.5t10 -107.5h-180q15 56 15 230z" />
    <glyph glyph-name="Kcommaaccent" unicode="&#x136;" horiz-adv-x="609" 
d="M412 605h167q-15 -20 -58 -77.5t-79 -106.5t-57 -81q44 -77 110 -180t106 -149q-21 -10 -70 -16t-84 -6q-29 18 -78 92q-22 36 -53 94t-47.5 85.5t-24.5 27.5h-22q0 -200 8 -288h-168q8 89 8 283v33q0 200 -8 289h168q-8 -79 -8 -264h18q15 0 78 100.5t94 163.5zM228 -97
q0 28 19 46t48 18q31 0 50 -23.5t19 -66.5q0 -66 -40 -102.5t-90 -37.5q-7 16 -1 42q24 -2 43 17t17 46q-28 -5 -46.5 13.5t-18.5 47.5z" />
    <glyph glyph-name="kcommaaccent" unicode="&#x137;" horiz-adv-x="524" 
d="M195 287h24q18 0 67 73.5t64 122.5q86 12 143 0q-48 -86 -145 -211q121 -209 170 -263q-23 -16 -85 -18q-30 -2 -45 1q-24 5 -41 31q-28 41 -58 97.5t-47 85.5t-27 29h-20v-55q0 -108 9 -180h-146q6 106 6 300v50q0 205 -9 350q29 6 73.5 8t72.5 -4q-6 -105 -6 -364v-53z
M195 -97q0 28 19 46t48 18q31 0 50 -23.5t19 -66.5q0 -66 -40 -102.5t-90 -37.5q-7 16 -1 42q24 -2 43 17t17 46q-28 -5 -46.5 13.5t-18.5 47.5z" />
    <glyph glyph-name="Lacute" unicode="&#x139;" horiz-adv-x="499" 
d="M483 0h-421q9 62 9 311v33q0 198 -9 261h184q-9 -83 -9 -267v-230h45q124 0 201 9v-117zM418 764l-204 -131l-42 47l171 179q21 -2 48 -35t27 -60z" />
    <glyph glyph-name="lacute" unicode="&#x13a;" horiz-adv-x="288" 
d="M54 104v370q0 176 -6 226q110 12 158 1q0 -15 -3.5 -152.5t-3.5 -231.5v-121q0 -83 14.5 -105.5t63.5 -17.5q8 -27 0 -54q-54 -28 -127 -28q-96 0 -96 113zM333 862l-204 -131l-42 47l171 179q21 -2 48 -35t27 -60z" />
    <glyph glyph-name="Lcommaaccent" unicode="&#x13b;" horiz-adv-x="499" 
d="M483 0h-421q9 62 9 311v33q0 198 -9 261h184q-9 -83 -9 -267v-230h45q124 0 201 9v-117zM183 -97q0 28 19 46t48 18q31 0 50 -23.5t19 -66.5q0 -66 -40 -102.5t-90 -37.5q-7 16 -1 42q24 -2 43 17t17 46q-28 -5 -46.5 13.5t-18.5 47.5z" />
    <glyph glyph-name="lcommaaccent" unicode="&#x13c;" horiz-adv-x="288" 
d="M54 104v370q0 176 -6 226q110 12 158 1q0 -15 -3.5 -152.5t-3.5 -231.5v-121q0 -83 14.5 -105.5t63.5 -17.5q8 -27 0 -54q-54 -28 -127 -28q-96 0 -96 113zM91 -97q0 28 19 46t48 18q31 0 50 -23.5t19 -66.5q0 -66 -40 -102.5t-90 -37.5q-7 16 -1 42q24 -2 43 17t17 46
q-28 -5 -46.5 13.5t-18.5 47.5z" />
    <glyph glyph-name="Lcaron" unicode="&#x13d;" horiz-adv-x="499" 
d="M483 0h-421q9 62 9 311v33q0 198 -9 261h184q-9 -83 -9 -267v-230h45q124 0 201 9v-117zM299 537q0 32 23 54t57 22q37 0 60 -27.5t23 -79.5q0 -78 -48 -122t-109 -44q-7 23 0 49q28 -2 50.5 20t20.5 54q-33 -5 -55 17.5t-22 56.5z" />
    <glyph glyph-name="lcaron" unicode="&#x13e;" horiz-adv-x="386" 
d="M54 104v370q0 176 -6 226q110 12 158 1q0 -15 -3.5 -152.5t-3.5 -231.5v-121q0 -83 14.5 -105.5t63.5 -17.5q8 -27 0 -54q-54 -28 -127 -28q-96 0 -96 113zM238 539q0 32 23 54t57 22q37 0 60 -27.5t23 -79.5q0 -78 -48 -122t-109 -44q-7 23 0 49q28 -2 50.5 20t20.5 54
q-33 -5 -55 17.5t-22 56.5z" />
    <glyph glyph-name="Lslash" unicode="&#x141;" horiz-adv-x="540" 
d="M524 0h-421q7 55 9 220l-71 -23q-8 21 -8 55t8 58l71 23v11q0 198 -9 261h183q-9 -76 -9 -217l121 41q8 -17 8.5 -54.5t-8.5 -61.5l-121 -40v-165h45q124 0 202 9v-117z" />
    <glyph glyph-name="lslash" unicode="&#x142;" horiz-adv-x="336" 
d="M80 106v141l-53 -17q-11 21 -12.5 56t8.5 57l57 18v113q0 180 -6 230q103 14 158 1q0 -23 -2.5 -127t-3.5 -169l85 28q9 -20 10 -55t-6 -58l-89 -29v-93q0 -88 14 -111t62 -18q11 -25 0 -53q-56 -29 -127 -29q-95 0 -95 115z" />
    <glyph glyph-name="Nacute" unicode="&#x143;" horiz-adv-x="645" 
d="M62 605h165q10 -25 53 -94t104 -164t94 -152h4v137q0 221 -8 273h113q-6 -76 -6 -436v-169h-158q-19 42 -122 204t-126 205h-5v-116q0 -237 8 -293h-116q9 63 9 286v42q0 233 -9 277zM519 764l-204 -131l-42 47l171 179q21 -2 48 -35t27 -60z" />
    <glyph glyph-name="nacute" unicode="&#x144;" horiz-adv-x="573" 
d="M529 0h-158q11 35 11 206v43q0 85 -18 121t-61 36q-56 0 -98 -56v-74q0 -121 8 -276h-155q9 88 9 239v22q0 130 -11 217l148 14q-1 -11 -2.5 -34.5t-2.5 -34.5h5q75 77 166 77q79 0 114.5 -50t35.5 -156v-68q0 -180 9 -226zM479 667l-204 -131l-42 47l171 179
q21 -2 48 -35t27 -60z" />
    <glyph glyph-name="Ncommaaccent" unicode="&#x145;" horiz-adv-x="645" 
d="M62 605h165q10 -25 53 -94t104 -164t94 -152h4v137q0 221 -8 273h113q-6 -76 -6 -436v-169h-158q-19 42 -122 204t-126 205h-5v-116q0 -237 8 -293h-116q9 63 9 286v42q0 233 -9 277zM256 -97q0 28 19 46t48 18q31 0 50 -23.5t19 -66.5q0 -66 -40 -102.5t-90 -37.5
q-7 16 -1 42q24 -2 43 17t17 46q-28 -5 -46.5 13.5t-18.5 47.5z" />
    <glyph glyph-name="ncommaaccent" unicode="&#x146;" horiz-adv-x="573" 
d="M529 0h-158q11 35 11 206v43q0 85 -18 121t-61 36q-56 0 -98 -56v-74q0 -121 8 -276h-155q9 88 9 239v22q0 130 -11 217l148 14q-1 -11 -2.5 -34.5t-2.5 -34.5h5q75 77 166 77q79 0 114.5 -50t35.5 -156v-68q0 -180 9 -226zM219 -97q0 28 19 46t48 18q31 0 50 -23.5
t19 -66.5q0 -66 -40 -102.5t-90 -37.5q-7 16 -1 42q24 -2 43 17t17 46q-28 -5 -46.5 13.5t-18.5 47.5z" />
    <glyph glyph-name="Ncaron" unicode="&#x147;" horiz-adv-x="645" 
d="M62 605h165q10 -25 53 -94t104 -164t94 -152h4v137q0 221 -8 273h113q-6 -76 -6 -436v-169h-158q-19 42 -122 204t-126 205h-5v-116q0 -237 8 -293h-116q9 63 9 286v42q0 233 -9 277zM306 637l-143 152q3 18 24 38.5t38 26.5l112 -96l99 89q11 -2 31 -20t27 -36
l-147 -154h-41z" />
    <glyph glyph-name="ncaron" unicode="&#x148;" horiz-adv-x="573" 
d="M529 0h-158q11 35 11 206v43q0 85 -18 121t-61 36q-56 0 -98 -56v-74q0 -121 8 -276h-155q9 88 9 239v22q0 130 -11 217l148 14q-1 -11 -2.5 -34.5t-2.5 -34.5h5q75 77 166 77q79 0 114.5 -50t35.5 -156v-68q0 -180 9 -226zM263 553l-143 152q3 18 24 38.5t38 26.5
l112 -96l99 89q11 -2 31 -20t27 -36l-147 -154h-41z" />
    <glyph glyph-name="Omacron" unicode="&#x14c;" 
d="M335 626q125 0 202.5 -80.5t77.5 -235.5q0 -153 -83.5 -237t-210.5 -84q-122 0 -202 81.5t-80 228.5q0 82 25.5 146.5t68 103t94 58t108.5 19.5zM320 531q-42 0 -67 -17q-49 -65 -49 -186q0 -120 36.5 -182.5t97.5 -62.5q42 0 67 20q17 18 30.5 65t13.5 111
q0 121 -32.5 186.5t-96.5 65.5zM187 774h300q9 -16 8 -58t-11 -54h-301q-9 16 -7.5 58t11.5 54z" />
    <glyph glyph-name="omacron" unicode="&#x14d;" horiz-adv-x="558" 
d="M292 500q110 0 172 -68t62 -187q0 -116 -69 -186t-176 -70q-115 0 -182 67.5t-67 181.5q0 120 73 191t187 71zM274 413q-45 0 -69 -22q-29 -37 -29 -114q0 -98 30 -149t87 -51q29 0 57 17q32 38 32 124q0 195 -108 195zM130 694h300q9 -16 8 -58t-11 -54h-301
q-9 16 -7.5 58t11.5 54z" />
    <glyph glyph-name="Ohungarumlaut" unicode="&#x150;" 
d="M335 626q125 0 202.5 -80.5t77.5 -235.5q0 -153 -83.5 -237t-210.5 -84q-122 0 -202 81.5t-80 228.5q0 82 25.5 146.5t68 103t94 58t108.5 19.5zM320 531q-42 0 -67 -17q-49 -65 -49 -186q0 -120 36.5 -182.5t97.5 -62.5q42 0 67 20q17 18 30.5 65t13.5 111
q0 121 -32.5 186.5t-96.5 65.5zM297 650h-91l59 182q23 12 59 -1t44 -39zM433 650h-83l83 176q20 14 58.5 3t47.5 -41z" />
    <glyph glyph-name="ohungarumlaut" unicode="&#x151;" horiz-adv-x="558" 
d="M292 500q110 0 172 -68t62 -187q0 -116 -69 -186t-176 -70q-115 0 -182 67.5t-67 181.5q0 120 73 191t187 71zM274 413q-45 0 -69 -22q-29 -37 -29 -114q0 -98 30 -149t87 -51q29 0 57 17q32 38 32 124q0 195 -108 195zM255 561h-91l59 182q23 12 59 -1t44 -39zM391 561
h-83l83 176q20 14 58.5 3t47.5 -41z" />
    <glyph glyph-name="OE" unicode="&#x152;" horiz-adv-x="853" 
d="M824 0h-395q0 5 1 8q-55 -19 -109 -19q-120 0 -201 82.5t-81 227.5q0 81 25.5 145.5t68 103t94.5 59t108 20.5q63 0 115 -22h367v-100q-57 5 -228 5v-154q146 0 200 5v-96q-55 4 -200 4v-168q176 0 235 5v-106zM322 532q-43 0 -69 -18q-49 -68 -49 -186t37 -181t98 -63
q41 0 66 20q21 23 32 91q1 29 1 85v42v75q-12 63 -42 99t-74 36z" />
    <glyph glyph-name="oe" unicode="&#x153;" horiz-adv-x="873" 
d="M273 413q-46 0 -70 -24q-27 -35 -27 -112q0 -96 30 -148t87 -52q32 0 57 19q32 41 32 122q0 85 -25.5 140t-83.5 55zM451 66q-60 -77 -170 -77q-114 0 -181.5 68.5t-67.5 180.5q0 119 73.5 191t185.5 72q113 0 166 -79q61 77 175 77q100 0 154.5 -52t54.5 -126
q0 -37 -12 -68q-79 -20 -230 -32l-75 -5q6 -66 46 -99t102 -33q77 0 134 38q17 -30 17 -67q-24 -24 -79.5 -44.5t-117.5 -20.5q-121 0 -175 76zM520 281q125 0 167 15q9 15 9 37q0 39 -23 61.5t-58 22.5q-40 0 -63 -18q-12 -16 -22 -52t-10 -66z" />
    <glyph glyph-name="Racute" unicode="&#x154;" horiz-adv-x="581" 
d="M222 0h-160q7 55 7 305v43q0 205 -7 256q94 12 212 12q116 0 177.5 -47t61.5 -140q0 -108 -99 -167q92 -180 160 -263q-45 -21 -86 -21q-79 0 -129 82q-30 49 -86 186h-58v-42q0 -169 7 -204zM361 426q0 48 -27.5 75t-71.5 27q-34 0 -47 -4v-217q58 -13 103 7
q43 34 43 112zM464 771l-204 -131l-42 47l171 179q21 -2 48 -35t27 -60z" />
    <glyph glyph-name="racute" unicode="&#x155;" horiz-adv-x="370" 
d="M370 483q-6 -66 -38 -117q-21 23 -56 23q-21 0 -41.5 -12.5t-30.5 -32.5v-86q0 -182 16 -258h-160q7 78 7 239v27q0 77 -12 212l147 14q-1 -32 -5 -76h6q43 76 119 76q24 0 48 -9zM389 667l-204 -131l-42 47l171 179q21 -2 48 -35t27 -60z" />
    <glyph glyph-name="Rcommaaccent" unicode="&#x156;" horiz-adv-x="581" 
d="M222 0h-160q7 55 7 305v43q0 205 -7 256q94 12 212 12q116 0 177.5 -47t61.5 -140q0 -108 -99 -167q92 -180 160 -263q-45 -21 -86 -21q-79 0 -129 82q-30 49 -86 186h-58v-42q0 -169 7 -204zM361 426q0 48 -27.5 75t-71.5 27q-34 0 -47 -4v-217q58 -13 103 7
q43 34 43 112zM219 -97q0 28 19 46t48 18q31 0 50 -23.5t19 -66.5q0 -66 -40 -102.5t-90 -37.5q-7 16 -1 42q24 -2 43 17t17 46q-28 -5 -46.5 13.5t-18.5 47.5z" />
    <glyph glyph-name="rcommaaccent" unicode="&#x157;" horiz-adv-x="370" 
d="M370 483q-6 -66 -38 -117q-21 23 -56 23q-21 0 -41.5 -12.5t-30.5 -32.5v-86q0 -182 16 -258h-160q7 78 7 239v27q0 77 -12 212l147 14q-1 -32 -5 -76h6q43 76 119 76q24 0 48 -9zM91 -97q0 28 19 46t48 18q31 0 50 -23.5t19 -66.5q0 -66 -40 -102.5t-90 -37.5
q-7 16 -1 42q24 -2 43 17t17 46q-28 -5 -46.5 13.5t-18.5 47.5z" />
    <glyph glyph-name="Rcaron" unicode="&#x158;" horiz-adv-x="581" 
d="M222 0h-160q7 55 7 305v43q0 205 -7 256q94 12 212 12q116 0 177.5 -47t61.5 -140q0 -108 -99 -167q92 -180 160 -263q-45 -21 -86 -21q-79 0 -129 82q-30 49 -86 186h-58v-42q0 -169 7 -204zM361 426q0 48 -27.5 75t-71.5 27q-34 0 -47 -4v-217q58 -13 103 7
q43 34 43 112zM258 637l-143 152q3 18 24 38.5t38 26.5l112 -96l99 89q11 -2 31 -20t27 -36l-147 -154h-41z" />
    <glyph glyph-name="rcaron" unicode="&#x159;" horiz-adv-x="370" 
d="M370 483q-6 -66 -38 -117q-21 23 -56 23q-21 0 -41.5 -12.5t-30.5 -32.5v-86q0 -182 16 -258h-160q7 78 7 239v27q0 77 -12 212l147 14q-1 -32 -5 -76h6q43 76 119 76q24 0 48 -9zM178 534l-143 152q3 18 24 38.5t38 26.5l112 -96l99 89q11 -2 31 -20t27 -36l-147 -154
h-41z" />
    <glyph glyph-name="Sacute" unicode="&#x15a;" horiz-adv-x="465" 
d="M416 590q-1 -53 -28 -104q-53 35 -113 35q-41 0 -55 -12.5t-14 -42.5q0 -24 23 -48.5t56 -48.5t66.5 -51.5t56.5 -67t23 -84.5q0 -85 -62 -131t-148 -46q-115 0 -187 56q0 27 14 53.5t29 36.5q23 -21 57.5 -36.5t62.5 -15.5q75 0 75 64q0 25 -20.5 50t-51.5 48.5t-62 49
t-56 61.5t-31 75q-3 29 1 52q11 65 69.5 99t136.5 34q85 0 158 -26zM445 771l-204 -131l-42 47l171 179q21 -2 48 -35t27 -60z" />
    <glyph glyph-name="sacute" unicode="&#x15b;" horiz-adv-x="428" 
d="M371 459q0 -19 -11.5 -43t-24.5 -34q-33 28 -82 28q-31 0 -43 -10.5t-12 -32.5q0 -19 19.5 -38t47 -37t55 -39t47 -52t19.5 -68q0 -69 -53.5 -106.5t-133.5 -37.5q-53 0 -94 19t-58 40q-3 25 9 47.5t30 33.5q15 -21 42.5 -36.5t55.5 -15.5q32 0 44.5 11.5t12.5 37.5
q0 27 -29.5 53.5t-64.5 46.5t-64.5 56t-29.5 81q0 57 49.5 95t130.5 39q58 1 97.5 -11t40.5 -27zM409 667l-204 -131l-42 47l171 179q21 -2 48 -35t27 -60z" />
    <glyph glyph-name="Scaron" unicode="&#x160;" horiz-adv-x="465" 
d="M416 590q-1 -53 -28 -104q-53 35 -113 35q-41 0 -55 -12.5t-14 -42.5q0 -24 23 -48.5t56 -48.5t66.5 -51.5t56.5 -67t23 -84.5q0 -85 -62 -131t-148 -46q-115 0 -187 56q0 27 14 53.5t29 36.5q23 -21 57.5 -36.5t62.5 -15.5q75 0 75 64q0 25 -20.5 50t-51.5 48.5t-62 49
t-56 61.5t-31 75q-3 29 1 52q11 65 69.5 99t136.5 34q85 0 158 -26zM210 675l-143 152q3 18 24 38.5t38 26.5l112 -96l99 89q11 -2 31 -20t27 -36l-147 -154h-41z" />
    <glyph glyph-name="scaron" unicode="&#x161;" horiz-adv-x="427" 
d="M371 459q0 -19 -11.5 -43t-24.5 -34q-33 28 -82 28q-31 0 -43 -10.5t-12 -32.5q0 -19 19.5 -38t47 -37t55 -39t47 -52t19.5 -68q0 -69 -53.5 -106.5t-133.5 -37.5q-53 0 -94 19t-58 40q-3 25 9 47.5t30 33.5q15 -21 42.5 -36.5t55.5 -15.5q32 0 44.5 11.5t12.5 37.5
q0 27 -29.5 53.5t-64.5 46.5t-64.5 56t-29.5 81q0 57 49.5 95t130.5 39q58 1 97.5 -11t40.5 -27zM190 553l-143 152q3 18 24 38.5t38 26.5l112 -96l99 89q11 -2 31 -20t27 -36l-147 -154h-41z" />
    <glyph glyph-name="Tcaron" unicode="&#x164;" horiz-adv-x="518" 
d="M14 497v108h497v-108q-64 7 -143 7h-30v-202q0 -237 8 -302h-167q7 58 7 306v198h-26q-93 0 -146 -7zM236 631l-143 152q3 18 24 38.5t38 26.5l112 -96l99 89q11 -2 31 -20t27 -36l-147 -154h-41z" />
    <glyph glyph-name="tcaron" unicode="&#x165;" horiz-adv-x="488" 
d="M74 109v286h-48q-4 17 -4 44t4 44q72 29 114 95q13 4 39.5 4t38.5 -4v-95h98q7 -13 6 -44.5t-7 -43.5h-97v-199q0 -84 18.5 -105.5t83.5 -14.5q12 -24 0 -56q-54 -29 -145 -29q-49 0 -75 27t-26 91zM338 545q0 32 23 54t57 22q37 0 60 -27.5t23 -79.5q0 -78 -48 -122
t-109 -44q-7 23 0 49q28 -2 50.5 20t20.5 54q-33 -5 -55 17.5t-22 56.5z" />
    <glyph glyph-name="Umacron" unicode="&#x16a;" horiz-adv-x="612" 
d="M53 605h164q-7 -37 -7 -183v-39q0 -145 31 -213.5t98 -68.5q46 0 68 22q37 54 37 211v26q0 201 -8 245h137q-6 -47 -6 -207v-51q0 -174 -59.5 -266t-194.5 -92q-137 0 -196 89.5t-59 260.5v50q0 174 -5 216zM165 767h300q9 -16 8 -58t-11 -54h-301q-9 16 -7.5 58t11.5 54
z" />
    <glyph glyph-name="umacron" unicode="&#x16b;" horiz-adv-x="560" 
d="M36 483h159q-8 -37 -8 -210v-41q0 -82 19 -115.5t62 -33.5q50 0 90 48v87q0 170 -11 265h158q-8 -75 -8 -234v-32q0 -141 13 -216l-135 -11q-4 23 -10 81h-5q-57 -82 -156 -82q-81 0 -118 48t-37 154v51q0 187 -13 241zM132 694h300q9 -16 8 -58t-11 -54h-301
q-9 16 -7.5 58t11.5 54z" />
    <glyph glyph-name="Uring" unicode="&#x16e;" horiz-adv-x="612" 
d="M53 605h164q-7 -37 -7 -183v-39q0 -145 31 -213.5t98 -68.5q46 0 68 22q37 54 37 211v26q0 201 -8 245h137q-6 -47 -6 -207v-51q0 -174 -59.5 -266t-194.5 -92q-137 0 -196 89.5t-59 260.5v50q0 174 -5 216zM426 747q0 -59 -36 -88.5t-76 -29.5q-50 0 -82.5 29t-32.5 78
q0 40 22 68.5t46.5 39t44.5 10.5q50 0 82 -29t32 -78zM270 746q0 -21 12 -35t32 -15q6 -2 12 0q29 0 29 41q0 24 -14 38.5t-34 14.5q-37 0 -37 -44z" />
    <glyph glyph-name="uring" unicode="&#x16f;" horiz-adv-x="560" 
d="M36 483h159q-8 -37 -8 -210v-41q0 -82 19 -115.5t62 -33.5q50 0 90 48v87q0 170 -11 265h158q-8 -75 -8 -234v-32q0 -141 13 -216l-135 -11q-4 23 -10 81h-5q-57 -82 -156 -82q-81 0 -118 48t-37 154v51q0 187 -13 241zM394 667q0 -59 -36 -88.5t-76 -29.5
q-50 0 -82.5 29t-32.5 78q0 40 22 68.5t46.5 39t44.5 10.5q50 0 82 -29t32 -78zM238 666q0 -21 12 -35t32 -15q6 -2 12 0q29 0 29 41q0 24 -14 38.5t-34 14.5q-37 0 -37 -44z" />
    <glyph glyph-name="Uhungarumlaut" unicode="&#x170;" horiz-adv-x="612" 
d="M53 605h164q-7 -37 -7 -183v-39q0 -145 31 -213.5t98 -68.5q46 0 68 22q37 54 37 211v26q0 201 -8 245h137q-6 -47 -6 -207v-51q0 -174 -59.5 -266t-194.5 -92q-137 0 -196 89.5t-59 260.5v50q0 174 -5 216zM277 639h-91l59 182q23 12 59 -1t44 -39zM413 639h-83l83 176
q20 14 58.5 3t47.5 -41z" />
    <glyph glyph-name="uhungarumlaut" unicode="&#x171;" horiz-adv-x="560" 
d="M36 483h159q-8 -37 -8 -210v-41q0 -82 19 -115.5t62 -33.5q50 0 90 48v87q0 170 -11 265h158q-8 -75 -8 -234v-32q0 -141 13 -216l-135 -11q-4 23 -10 81h-5q-57 -82 -156 -82q-81 0 -118 48t-37 154v51q0 187 -13 241zM226 561h-91l59 182q23 12 59 -1t44 -39zM362 561
h-83l83 176q20 14 58.5 3t47.5 -41z" />
    <glyph glyph-name="Uogonek" unicode="&#x172;" horiz-adv-x="612" 
d="M53 605h164q-7 -37 -7 -183v-39q0 -145 31 -213.5t98 -68.5q46 0 68 22q37 54 37 211v26q0 201 -8 245h137q-6 -47 -6 -207v-51q0 -281 -151 -341q-35 -25 -57.5 -61.5t-22.5 -75.5q0 -31 15.5 -48t36.5 -17q29 0 61 17q15 -15 18 -41q-19 -17 -52.5 -31t-60.5 -18
q-55 0 -85.5 27t-30.5 70q0 48 28.5 90.5t71.5 71.5q-4 0 -12.5 -0.5t-12.5 -0.5q-137 0 -196 89.5t-59 260.5v50q0 174 -5 216z" />
    <glyph glyph-name="uogonek" unicode="&#x173;" horiz-adv-x="560" 
d="M36 483h159q-8 -37 -8 -210v-41q0 -82 19 -115.5t62 -33.5q50 0 90 48v87q0 170 -11 265h158q-8 -75 -8 -234v-32q0 -141 13 -216l-32 -2q-75 -59 -75 -135q0 -30 15.5 -47.5t36.5 -17.5q29 0 61 17q15 -15 18 -41q-19 -17 -52.5 -31t-60.5 -18q-55 0 -85.5 27t-30.5 70
q0 52 32.5 96.5t80.5 74.5l-43 -4q-4 23 -10 81h-5q-57 -82 -156 -82q-81 0 -118 48t-37 154v51q0 187 -13 241z" />
    <glyph glyph-name="Ydieresis" unicode="&#x178;" horiz-adv-x="585" 
d="M334 324h4q85 196 102 281h137q-115 -203 -199 -392v-26q0 -150 9 -187h-174q9 46 9 181v32q-76 160 -208 392h198q12 -44 122 -281zM150 728q0 25 17.5 42t43.5 17t44 -17t18 -42t-18 -41.5t-44 -16.5t-43.5 16.5t-17.5 41.5zM344 728q0 25 18 42t43 17q26 0 44 -17
t18 -42t-18 -41.5t-44 -16.5q-25 0 -43 16.5t-18 41.5z" />
    <glyph glyph-name="Zacute" unicode="&#x179;" horiz-adv-x="501" 
d="M35 482v123h436v-113l-279 -392v-5l106 9q129 14 175 23v-127h-438v113l272 393v4l-114 -9q-129 -12 -158 -19zM446 771l-204 -131l-42 47l171 179q21 -2 48 -35t27 -60z" />
    <glyph glyph-name="zacute" unicode="&#x17a;" horiz-adv-x="452" 
d="M31 364v119h390v-100l-262 -278v-5l104 7q130 7 158 15v-122h-390v101l255 277v4l-114 -6q-115 -5 -141 -12zM410 667l-204 -131l-42 47l171 179q21 -2 48 -35t27 -60z" />
    <glyph glyph-name="Zdotaccent" unicode="&#x17b;" horiz-adv-x="501" 
d="M35 482v123h436v-113l-279 -392v-5l106 9q129 14 175 23v-127h-438v113l272 393v4l-114 -9q-129 -12 -158 -19zM167 717q0 31 24.5 50.5t57.5 19.5q35 0 59 -19.5t24 -50.5t-24 -50.5t-59 -19.5q-33 0 -57.5 19.5t-24.5 50.5z" />
    <glyph glyph-name="zdotaccent" unicode="&#x17c;" horiz-adv-x="452" 
d="M31 364v119h390v-100l-262 -278v-5l104 7q130 7 158 15v-122h-390v101l255 277v4l-114 -6q-115 -5 -141 -12zM142 618q0 31 24.5 50.5t57.5 19.5q35 0 59 -19.5t24 -50.5t-24 -50.5t-59 -19.5q-33 0 -57.5 19.5t-24.5 50.5z" />
    <glyph glyph-name="Zcaron" unicode="&#x17d;" horiz-adv-x="501" 
d="M35 482v123h436v-113l-279 -392v-5l106 9q129 14 175 23v-127h-438v113l272 393v4l-114 -9q-129 -12 -158 -19zM228 675l-143 152q3 18 24 38.5t38 26.5l112 -96l99 89q11 -2 31 -20t27 -36l-147 -154h-41z" />
    <glyph glyph-name="zcaron" unicode="&#x17e;" horiz-adv-x="452" 
d="M31 364v119h390v-100l-262 -278v-5l104 7q130 7 158 15v-122h-390v101l255 277v4l-114 -6q-115 -5 -141 -12zM203 553l-143 152q3 18 24 38.5t38 26.5l112 -96l99 89q11 -2 31 -20t27 -36l-147 -154h-41z" />
    <glyph glyph-name="longs" unicode="&#x17f;" horiz-adv-x="316" 
d="M267 715q80 0 140 -34q-2 -23 -17.5 -50t-30.5 -36q-39 32 -75 32q-24 0 -32 -15q-24 -37 -20 -129v-185q0 -218 9 -298h-157q10 100 10 256v139h-66q-6 17 -6 44.5t6 43.5h65q-8 124 43.5 178t130.5 54z" />
    <glyph glyph-name="florin" unicode="&#x192;" horiz-adv-x="304" 
d="M416 585q-25 18 -61 24.5t-62 -4.5q-17 -18 -24.5 -41.5t-12.5 -74.5h74q5 -16 1.5 -48t-12.5 -46h-73l-20 -196q-22 -233 -106 -333.5t-222 -70.5q-5 20 2.5 52.5t22.5 47.5q57 -14 100 3q31 50 47.5 159.5t34.5 337.5h-79q-4 18 -0.5 49.5t12.5 44.5h74q17 215 240 215
q56 0 80 -20t17.5 -47t-33.5 -52z" />
    <glyph glyph-name="circumflex" unicode="&#x2c6;" horiz-adv-x="329" 
d="M196 735l136 -128q-5 -17 -30.5 -36.5t-48.5 -24.5l-101 89l-99 -83q-16 2 -31 19t-17 31l143 133q21 9 48 0z" />
    <glyph glyph-name="caron" unicode="&#x2c7;" horiz-adv-x="329" 
d="M149 553l-143 152q3 18 24 38.5t38 26.5l112 -96l99 89q11 -2 31 -20t27 -36l-147 -154h-41z" />
    <glyph glyph-name="breve" unicode="&#x2d8;" horiz-adv-x="329" 
d="M325 690q-21 -53 -65.5 -92t-104.5 -39q-65 0 -109.5 43t-57.5 92q5 17 25 34.5t34 21.5q1 -2 8.5 -13t11.5 -16t12.5 -15.5t16.5 -16t18.5 -12t22.5 -9.5t26 -3q58 0 113 82q11 -2 28 -21t21 -36z" />
    <glyph glyph-name="dotaccent" unicode="&#x2d9;" horiz-adv-x="258" 
d="M68 618q0 31 24.5 50.5t57.5 19.5q35 0 59 -19.5t24 -50.5t-24 -50.5t-59 -19.5q-33 0 -57.5 19.5t-24.5 50.5z" />
    <glyph glyph-name="ring" unicode="&#x2da;" horiz-adv-x="305" 
d="M307 667q0 -59 -36 -88.5t-76 -29.5q-50 0 -82.5 29t-32.5 78q0 40 22 68.5t46.5 39t44.5 10.5q50 0 82 -29t32 -78zM151 666q0 -21 12 -35t32 -15q6 -2 12 0q29 0 29 41q0 24 -14 38.5t-34 14.5q-37 0 -37 -44z" />
    <glyph glyph-name="ogonek" unicode="&#x2db;" horiz-adv-x="205" 
d="M143 18l46 2q-42 -24 -71 -65t-29 -86q0 -31 15.5 -48t36.5 -17q29 0 61 17q15 -15 18 -41q-19 -17 -52.5 -31t-60.5 -18q-55 0 -85.5 27t-30.5 70q0 63 47.5 115t104.5 75z" />
    <glyph glyph-name="tilde" unicode="&#x2dc;" horiz-adv-x="317" 
d="M41 663q33 35 60.5 48t45 7t36.5 -16t35 -20t41 -6t54 26q12 -8 20 -45t3 -55q-40 -35 -74.5 -43t-58 2.5t-44.5 23.5t-45 13t-49 -24q-13 5 -19.5 37t-4.5 52z" />
    <glyph glyph-name="hungarumlaut" unicode="&#x2dd;" horiz-adv-x="423" 
d="M227 561h-91l59 182q23 12 59 -1t44 -39zM363 561h-83l83 176q20 14 58.5 3t47.5 -41z" />
    <glyph glyph-name="Omega" unicode="&#x3a9;" horiz-adv-x="743" 
d="M684 0h-270q-6 13 -6 47t6 47q124 110 124 239q0 88 -48 141.5t-123 53.5q-72 0 -117 -53.5t-45 -136.5q0 -130 124 -242q5 -13 5 -47.5t-5 -48.5h-271v104q45 -11 177 -9q-73 40 -120.5 102t-47.5 144q0 128 89 201.5t222 73.5t215.5 -72t82.5 -196q0 -84 -45 -148.5
t-116 -104.5q108 -2 169 8v-103z" />
    <glyph glyph-name="Omega" unicode="&#x2126;" horiz-adv-x="743" 
d="M684 0h-270q-6 13 -6 47t6 47q124 110 124 239q0 88 -48 141.5t-123 53.5q-72 0 -117 -53.5t-45 -136.5q0 -130 124 -242q5 -13 5 -47.5t-5 -48.5h-271v104q45 -11 177 -9q-73 40 -120.5 102t-47.5 144q0 128 89 201.5t222 73.5t215.5 -72t82.5 -196q0 -84 -45 -148.5
t-116 -104.5q108 -2 169 8v-103z" />
    <glyph glyph-name="pi" unicode="&#x3c0;" horiz-adv-x="636" 
d="M224 483h178q123 0 152 35l9 -3v-139q-25 -29 -74 -31q-15 -68 -15 -176q0 -100 43 -100q27 0 57 21q10 -25 2 -53q-46 -48 -110 -48q-41 0 -68.5 31t-27.5 101q0 43 7.5 113t16.5 110h-148q-12 -308 -61 -344h-123q35 37 66 135t30 208q-41 0 -71 -25q-14 10 -21.5 43
t-2.5 55q50 67 161 67z" />
    <glyph glyph-name="afii10023" unicode="&#x401;" horiz-adv-x="487" 
d="M459 0h-397q9 69 9 280v42q0 211 -9 283h390v-100q-58 5 -229 5v-154q147 0 201 5v-96q-55 4 -201 4v-168q176 0 236 5v-106zM101 702q0 25 17.5 42t43.5 17t44 -17t18 -42t-18 -41.5t-44 -16.5t-43.5 16.5t-17.5 41.5zM295 702q0 25 18 42t43 17q26 0 44 -17t18 -42
t-18 -41.5t-44 -16.5q-25 0 -43 16.5t-18 41.5z" />
    <glyph glyph-name="afii10051" unicode="&#x402;" horiz-adv-x="656" 
d="M344 504l-55 -1v-165h6q73 77 167 77q72 0 107 -44.5t35 -145.5v-43q0 -112 -49 -154t-151 -39q-15 37 -2 105q32 -1 48 18t16 69v23q0 116 -77 116q-55 0 -99 -60v-47q0 -48 8 -213h-155q9 117 9 300v204h-23q-74 0 -115 -8v109h497v-109q-48 8 -167 8z" />
    <glyph glyph-name="afii10052" unicode="&#x403;" horiz-adv-x="411" 
d="M236 0h-174q8 82 8 301v40q0 182 -8 264h363v-108q-63 7 -162 7h-41v-220q0 -204 14 -284zM479 777l-204 -131l-42 47l171 179q21 -2 48 -35t27 -60z" />
    <glyph glyph-name="afii10053" unicode="&#x404;" horiz-adv-x="536" 
d="M338 620q99 0 162 -23q1 -28 -6.5 -61.5t-19.5 -50.5q-62 26 -128 26q-59 0 -85 -18q-51 -51 -57 -144q124 0 240 13q21 -49 0 -97q-117 12 -237 12q10 -78 53.5 -125.5t118.5 -47.5q56 0 111 32q9 -11 16.5 -39t7.5 -47q-34 -27 -87 -44t-102 -17q-126 0 -206 81
t-80 239q0 140 82.5 225.5t216.5 85.5z" />
    <glyph glyph-name="afii10054" unicode="&#x405;" horiz-adv-x="465" 
d="M416 590q-1 -53 -28 -104q-53 35 -113 35q-41 0 -55 -12.5t-14 -42.5q0 -24 23 -48.5t56 -48.5t66.5 -51.5t56.5 -67t23 -84.5q0 -85 -62 -131t-148 -46q-115 0 -187 56q0 27 14 53.5t29 36.5q23 -21 57.5 -36.5t62.5 -15.5q75 0 75 64q0 25 -20.5 50t-51.5 48.5t-62 49
t-56 61.5t-31 75q-3 29 1 52q11 65 69.5 99t136.5 34q85 0 158 -26z" />
    <glyph glyph-name="afii10055" unicode="&#x406;" horiz-adv-x="316" 
d="M253 0h-184q10 58 10 275v48q0 235 -10 282h184q-9 -51 -9 -252v-41q0 -243 9 -312z" />
    <glyph glyph-name="afii10056" unicode="&#x407;" horiz-adv-x="366" 
d="M281 0h-184q10 58 10 275v48q0 235 -10 282h184q-9 -51 -9 -252v-41q0 -243 9 -312zM32 716q0 25 17.5 42t43.5 17t44 -17t18 -42t-18 -41.5t-44 -16.5t-43.5 16.5t-17.5 41.5zM226 716q0 25 18 42t43 17q26 0 44 -17t18 -42t-18 -41.5t-44 -16.5q-25 0 -43 16.5
t-18 41.5z" />
    <glyph glyph-name="afii10057" unicode="&#x408;" horiz-adv-x="319" 
d="M252 234v-139q0 -121 -66 -170t-161 -33q-16 53 3 110q36 0 54 32t18 110v102q0 284 -15 359h173q-6 -124 -6 -371z" />
    <glyph glyph-name="afii10058" unicode="&#x409;" horiz-adv-x="848" 
d="M376 0q9 64 9 310v194q-72 6 -107 0q0 -138 -11 -232.5t-29.5 -152t-51 -87t-68.5 -37.5t-90 -3q-8 25 -8 73t8 82q64 -11 86.5 62.5t22.5 239.5v69q0 50 -7 87h414q-8 -66 -8 -218q54 12 106.5 6.5t93.5 -23.5t66.5 -61t25.5 -106q0 -214 -277 -214q-105 0 -175 11z
M675 195q0 144 -139 116v-232q20 -5 44 -5q36 0 54 9q41 35 41 112z" />
    <glyph glyph-name="afii10059" unicode="&#x40a;" horiz-adv-x="866" 
d="M395 0q9 88 9 275q-31 4 -91 4t-91 -4q0 -187 8 -275h-168q8 87 8 280v31q0 215 -8 294h168q-8 -79 -8 -243q31 -3 91 -3t91 3q0 168 -9 243h166q-6 -70 -6 -225q123 28 206 -16t83 -164q0 -211 -269 -211q-111 0 -180 11zM693 192q0 146 -138 113v-226q22 -5 45 -5
q33 0 54 9q39 35 39 109z" />
    <glyph glyph-name="afii10060" unicode="&#x40b;" horiz-adv-x="656" 
d="M344 504l-55 -1v-165h6q73 77 159 77q77 0 113.5 -47.5t36.5 -153.5v-44q0 -125 9 -170h-155q8 41 8 169v35q0 116 -77 116q-55 0 -99 -60v-47q0 -48 8 -213h-155q9 117 9 300v204h-23q-58 0 -115 -15v116h497v-116q-56 15 -167 15z" />
    <glyph glyph-name="afii10061" unicode="&#x40c;" horiz-adv-x="591" 
d="M412 605h167q-15 -20 -58 -77.5t-79 -106.5t-57 -81q44 -77 110 -180t106 -149q-21 -10 -70 -16t-84 -6q-29 18 -78 92q-22 36 -53 94t-47.5 85.5t-24.5 27.5h-22q0 -200 8 -288h-168q8 89 8 283v33q0 200 -8 289h168q-8 -79 -8 -264h18q15 0 78 100.5t94 163.5zM555 777
l-204 -131l-42 47l171 179q21 -2 48 -35t27 -60z" />
    <glyph glyph-name="afii10062" unicode="&#x40e;" horiz-adv-x="541" 
d="M236 810q6 -43 32.5 -66t59.5 -23q72 0 94 77q15 2 34.5 -4t29.5 -15q-8 -55 -56 -97t-127 -42q-80 0 -126.5 40.5t-50.5 94.5q35 35 110 35zM18 605h181q4 -20 22 -75.5t51 -153t52 -156.5h4q32 103 57 226t23 159h150q-12 -29 -96 -292l-24 -71q-27 -84 -58 -147.5
t-57.5 -97t-46.5 -49.5t-33 -19q-21 6 -43 35.5t-26 56.5q22 7 54 35.5t48 65.5h-63l-51 127q-95 254 -144 356z" />
    <glyph glyph-name="afii10145" unicode="&#x40f;" horiz-adv-x="662" 
d="M570 0h-190v-141h-123v141h-195q8 86 8 311v29q0 195 -8 265h168q-8 -74 -8 -246v-271q31 -4 98 -4t98 4v268q0 173 -9 249h170q-9 -80 -9 -295v-310z" />
    <glyph glyph-name="afii10017" unicode="&#x410;" horiz-adv-x="599" 
d="M607 0h-181q-2 8 -10 40.5t-13 49.5l-18 56q-105 11 -193 0l-16 -50q-6 -16 -14.5 -49.5t-12.5 -46.5h-141q46 108 124 328t90 277h179q24 -85 90.5 -284t115.5 -321zM291 473l-73 -240q26 -4 72 -4t71 4l-66 240h-4z" />
    <glyph glyph-name="afii10018" unicode="&#x411;" horiz-adv-x="560" 
d="M62 605h422v-103q-49 8 -212 8h-50v-150q57 14 112.5 11t99.5 -17.5t71 -55t27 -101.5q0 -99 -67.5 -153.5t-202.5 -54.5q-118 0 -201 11q9 49 9 234v81q0 202 -8 290zM381 188q0 62 -39.5 87.5t-119.5 7.5v-203q14 -6 52 -6q42 0 74 15q33 30 33 99z" />
    <glyph glyph-name="afii10019" unicode="&#x412;" horiz-adv-x="564" 
d="M277 616q122 0 178.5 -39.5t56.5 -122.5q0 -55 -31 -90.5t-77 -45.5v-7q53 -5 91 -40t38 -100q0 -93 -71 -137.5t-191 -44.5q-113 0 -209 12q8 96 8 274v55q0 106 -8 274q176 12 215 12zM215 533v-187q62 -5 100 4q53 27 53 97q0 44 -28.5 68t-70.5 24q-40 0 -54 -6z
M215 268v-193q22 -8 61 -8q46 0 72 16q32 30 32 98q0 60 -43.5 81.5t-121.5 5.5z" />
    <glyph glyph-name="afii10020" unicode="&#x413;" horiz-adv-x="411" 
d="M236 0h-174q8 82 8 301v40q0 182 -8 264h363v-108q-63 7 -162 7h-41v-220q0 -204 14 -284z" />
    <glyph glyph-name="afii10021" unicode="&#x414;" horiz-adv-x="650" 
d="M-7 -141v236h27q59 0 89.5 117t30.5 269q0 57 -9 124h426q-7 -85 -7 -252v-67q0 -150 5 -191h81v-236h-122v141h-398v-141h-123zM276 504q0 -330 -79 -409h201v409q-19 3 -61 2.5t-61 -2.5z" />
    <glyph glyph-name="afii10022" unicode="&#x415;" horiz-adv-x="487" 
d="M459 0h-397q9 69 9 280v42q0 211 -9 283h390v-100q-58 5 -229 5v-154q147 0 201 5v-96q-55 4 -201 4v-168q176 0 236 5v-106z" />
    <glyph glyph-name="afii10024" unicode="&#x416;" horiz-adv-x="859" 
d="M672 605h178q-138 -209 -172 -262q29 -63 94 -177.5t98 -153.5q-21 -9 -77 -14.5t-97 -5.5q-18 25 -55 96q-12 24 -28 56.5t-26.5 53.5t-21.5 42t-19 31t-14 10h-29v-60q0 -148 6 -221h-150q7 69 7 219v62h-28q-7 0 -16.5 -11.5t-24 -38t-24 -46t-28.5 -59.5t-26 -54
q-10 -21 -21.5 -45t-16.5 -36q-35 0 -93.5 5t-79.5 13q60 84 190 327q-112 179 -178 269h181q21 -61 71.5 -159t63.5 -98h30v57q0 146 -7 200h150q-6 -65 -6 -199v-58h28q15 0 68 97.5t73 159.5z" />
    <glyph glyph-name="afii10025" unicode="&#x417;" horiz-adv-x="505" 
d="M73 481q-22 47 -24 98q91 40 213 40q86 0 140.5 -43t54.5 -115q0 -56 -37 -92.5t-85 -47.5v-7q57 -4 99 -38.5t42 -101.5q0 -94 -71 -142t-169 -48q-136 0 -210 63q3 22 20.5 50t34.5 39q57 -50 136 -50q44 0 65 14q29 24 29 80q0 92 -109 92q-33 0 -81 -9q-9 15 -9.5 47
t10.5 50q56 -14 120 -11q23 7 39.5 29.5t16.5 52.5q0 42 -28.5 64t-73.5 22q-58 0 -123 -36z" />
    <glyph glyph-name="afii10026" unicode="&#x418;" 
d="M440 0v185q0 155 7 217h-6q-18 -35 -115.5 -186t-126.5 -216h-137q8 86 8 311v43q0 185 -8 251h153v-287q0 -65 -8 -115h7q16 38 117 193t125 209h135q-5 -68 -5 -255v-40q0 -226 5 -310h-151z" />
    <glyph glyph-name="afii10027" unicode="&#x419;" 
d="M440 0v185q0 155 7 217h-6q-18 -35 -115.5 -186t-126.5 -216h-137q8 86 8 311v43q0 185 -8 251h153v-287q0 -65 -8 -115h7q16 38 117 193t125 209h135q-5 -68 -5 -255v-40q0 -226 5 -310h-151zM262 810q5 -43 31.5 -66t60.5 -23q72 0 92 77q16 2 36 -4t29 -15
q-6 -55 -54 -97t-127 -42q-80 0 -127.5 41t-49.5 94q15 16 46 25.5t63 9.5z" />
    <glyph glyph-name="afii10028" unicode="&#x41a;" horiz-adv-x="591" 
d="M412 605h167q-15 -20 -58 -77.5t-79 -106.5t-57 -81q44 -77 110 -180t106 -149q-21 -10 -70 -16t-84 -6q-29 18 -78 92q-22 36 -53 94t-47.5 85.5t-24.5 27.5h-22q0 -200 8 -288h-168q8 89 8 283v33q0 200 -8 289h168q-8 -79 -8 -264h18q15 0 78 100.5t94 163.5z" />
    <glyph glyph-name="afii10029" unicode="&#x41b;" horiz-adv-x="614" 
d="M558 0h-168q9 64 9 310v194q-82 7 -121 0q0 -80 -4 -135q-7 -124 -27 -204.5t-54 -119t-73.5 -49.5t-94.5 -4q-18 56 0 139q63 -11 87.5 70.5t24.5 247.5v69q0 50 -7 87h428q-7 -66 -7 -255v-63q0 -206 7 -287z" />
    <glyph glyph-name="afii10030" unicode="&#x41c;" horiz-adv-x="740" 
d="M161 0h-122q9 54 23 253.5t20 351.5h164q13 -36 65 -154.5t72 -167.5h4q13 39 56.5 158t57.5 164h164q2 -113 17.5 -338.5t25.5 -266.5h-169q4 71 0 188v39q-5 163 2 227h-9l-132 -367h-97l-145 370l-5 -1q8 -66 4 -227v-44q-1 -48 4 -185z" />
    <glyph glyph-name="afii10031" unicode="&#x41d;" horiz-adv-x="642" 
d="M586 0h-167q9 88 9 269q-30 4 -102.5 4t-103.5 -4q0 -181 8 -269h-168q8 87 8 280v31q0 215 -8 294h168q-8 -79 -8 -248q30 -3 103 -3t103 3q0 173 -9 248h167q-7 -82 -7 -289v-33q0 -185 7 -283z" />
    <glyph glyph-name="afii10032" unicode="&#x41e;" 
d="M335 626q125 0 202.5 -80.5t77.5 -235.5q0 -153 -83.5 -237t-210.5 -84q-122 0 -202 81.5t-80 228.5q0 82 25.5 146.5t68 103t94 58t108.5 19.5zM320 531q-42 0 -67 -17q-49 -65 -49 -186q0 -120 36.5 -182.5t97.5 -62.5q42 0 67 20q17 18 30.5 65t13.5 111
q0 121 -32.5 186.5t-96.5 65.5z" />
    <glyph glyph-name="afii10033" unicode="&#x41f;" horiz-adv-x="630" 
d="M573 0h-166q9 101 9 301v203q-31 4 -97 4t-97 -4v-203q0 -199 8 -301h-168q8 71 8 265v46q0 215 -8 294h511q-6 -80 -6 -295v-33q0 -203 6 -277z" />
    <glyph glyph-name="afii10034" unicode="&#x420;" horiz-adv-x="547" 
d="M229 0h-167q8 55 8 305v44q0 204 -8 255q93 12 223 12q116 0 179 -53t63 -149q0 -59 -23.5 -103.5t-62.5 -69.5t-83 -37t-91 -12q-21 0 -45 2q0 -153 7 -194zM375 407q0 59 -27 90t-76 31q-36 0 -50 -3v-244q17 -5 39 -5q48 0 73 14q18 17 29.5 49.5t11.5 67.5z" />
    <glyph glyph-name="afii10035" unicode="&#x421;" horiz-adv-x="521" 
d="M331 620q99 0 162 -23q1 -28 -6.5 -61.5t-19.5 -50.5q-62 26 -128 26q-59 0 -85 -18q-57 -57 -57 -165q0 -98 44.5 -161t130.5 -63q56 0 111 32q9 -11 16.5 -39t7.5 -47q-34 -27 -87 -44t-102 -17q-126 0 -206 81t-80 239q0 140 82.5 225.5t216.5 85.5z" />
    <glyph glyph-name="afii10036" unicode="&#x422;" horiz-adv-x="498" 
d="M7 497v108h497v-108q-64 7 -143 7h-30v-202q0 -237 8 -302h-167q7 58 7 306v198h-26q-93 0 -146 -7z" />
    <glyph glyph-name="afii10037" unicode="&#x423;" horiz-adv-x="527" 
d="M4 605h182q4 -20 20.5 -72.5t52.5 -159t52 -153.5h3q32 104 57.5 226.5t23.5 158.5h150q-14 -34 -29.5 -80.5t-35.5 -111.5t-32 -100l-24 -71q-27 -84 -57.5 -147.5t-57 -96.5t-47 -49t-34.5 -18q-21 6 -44 36t-25 56q24 8 56 35t48 64h-64l-51 128q-106 275 -144 355z
" />
    <glyph glyph-name="afii10038" unicode="&#x424;" horiz-adv-x="781" 
d="M473 -17h-152q7 37 7 89q-27 -4 -55 -4q-110 0 -172 61t-62 178q0 134 77.5 197.5t211.5 63.5q0 45 -7 66h152q-7 -53 -7 -72q25 6 54 6q111 0 173.5 -62.5t62.5 -177.5q0 -135 -79 -197.5t-211 -62.5q0 -49 7 -85zM485 492q-19 0 -25 -1q-8 -171 0 -342q15 -5 45.5 -2.5
t50.5 11.5q48 53 48 163q0 83 -32 127t-87 44zM317 143h17q9 194 0 345q-68 10 -103 -11q-41 -46 -41 -156q0 -80 33 -129t94 -49z" />
    <glyph glyph-name="afii10039" unicode="&#x425;" horiz-adv-x="576" 
d="M29 605h189q3 -14 18 -48t39.5 -86t38.5 -86h5q13 28 36.5 80t39.5 88t23 52h154q-109 -161 -167 -283q108 -214 171 -322h-198q-6 16 -41.5 96.5t-58.5 141.5h-5q-19 -45 -43.5 -100t-41 -90.5t-20.5 -47.5h-161q126 206 175 315q-28 57 -86 164.5t-67 125.5z" />
    <glyph glyph-name="afii10040" unicode="&#x426;" horiz-adv-x="662" 
d="M570 88h77v-229h-122v141h-463q8 86 8 311v29q0 195 -8 265h168q-8 -74 -8 -246v-271q31 -4 98 -4t98 4v268q0 173 -9 249h170q-9 -80 -9 -295v-222z" />
    <glyph glyph-name="afii10041" unicode="&#x427;" horiz-adv-x="581" 
d="M29 605h167q-9 -71 -9 -145v-55q0 -65 22 -95t68 -30q53 0 90 22v80q0 126 -9 223h167q-8 -78 -8 -252v-49q0 -218 8 -304h-173q15 42 15 179v39q-61 -33 -153 -33q-79 0 -125.5 42.5t-50.5 128.5q-2 34 -2 51v55q0 106 -7 143z" />
    <glyph glyph-name="afii10042" unicode="&#x428;" horiz-adv-x="847" 
d="M791 0h-729q8 83 8 288v40q0 203 -8 277h161q-8 -65 -8 -263v-254h139v254q0 185 -8 263h162q-9 -78 -9 -260v-257h140v257q0 191 -9 260h161q-7 -161 -7 -260v-50q0 -229 7 -295z" />
    <glyph glyph-name="afii10043" unicode="&#x429;" horiz-adv-x="868" 
d="M739 0h-677q8 83 8 239v124q0 168 -8 242h161q-8 -63 -8 -225v-292h139v293q0 159 -8 224h162q-9 -73 -9 -222v-295h140v292q0 157 -9 225h161q-7 -54 -7 -229v-288h77v-229h-122v141z" />
    <glyph glyph-name="afii10044" unicode="&#x42a;" horiz-adv-x="629" 
d="M4 605h307q-8 -35 -8 -157v-61q55 12 109.5 6.5t97.5 -23t70 -61t27 -106.5q0 -214 -279 -214q-115 0 -185 11q9 62 9 254v256h-26q-82 0 -122 -7v102zM456 195q0 66 -40 98.5t-113 17.5v-232q22 -5 54 -5q35 0 57 8q42 40 42 113z" />
    <glyph glyph-name="afii10045" unicode="&#x42b;" horiz-adv-x="803" 
d="M62 605h167q-7 -40 -7 -163v-55q43 6 85 7.5t80 -10.5t66.5 -33t45.5 -59t17 -89q0 -107 -72 -160.5t-206 -53.5q-96 0 -176 11q8 64 8 246v57q0 229 -8 302zM364 195q0 67 -39 100t-110 16v-232q24 -7 53 -7q35 0 59 11q37 37 37 112zM747 0h-170q9 73 9 266v56
q0 219 -9 283h170q-9 -68 -9 -288v-51q0 -199 9 -266z" />
    <glyph glyph-name="afii10046" unicode="&#x42c;" horiz-adv-x="549" 
d="M65 605h166q-8 -35 -8 -157v-61q55 12 110 6.5t98 -23t70 -61t27 -106.5q0 -214 -281 -214q-115 0 -185 11q9 54 9 254v55q0 230 -6 296zM376 195q0 66 -39.5 98.5t-113.5 17.5v-232q23 -5 54 -5q37 0 57 9q42 36 42 112z" />
    <glyph glyph-name="afii10047" unicode="&#x42d;" horiz-adv-x="552" 
d="M225 -11q-75 0 -130 25t-69 48q1 21 20 48.5t36 37.5q29 -26 71.5 -42t80.5 -16q58 0 88 23q22 21 36.5 65t14.5 98h-66q-129 0 -186 -10q-9 18 -8.5 48.5t8.5 48.5q64 -12 194 -12h55q-1 68 -44 118.5t-127 50.5q-60 0 -127 -38q-14 19 -19.5 50t-1.5 53q91 36 207 36
q118 0 190.5 -79.5t72.5 -226.5q0 -153 -78 -239.5t-218 -86.5z" />
    <glyph glyph-name="afii10048" unicode="&#x42e;" horiz-adv-x="861" 
d="M566 616q118 0 190.5 -87t72.5 -222q0 -140 -74.5 -229t-199.5 -89q-63 0 -111.5 23t-78 63.5t-45.5 88.5t-21 104q-14 2 -42.5 2t-41.5 -2v-48q0 -184 7 -220h-160q8 39 8 269v54q0 215 -8 282h160q-7 -45 -7 -185v-65q14 -3 42 -3t43 3q13 116 79 188.5t187 72.5z
M538 521q-18 0 -31 -3.5t-26 -15t-21 -32.5t-13 -57.5t-5 -87.5q0 -112 32 -172.5t81 -67.5q17 -1 33 0q28 7 35 12q14 16 27.5 61t13.5 108q0 255 -126 255z" />
    <glyph glyph-name="afii10049" unicode="&#x42f;" horiz-adv-x="582" 
d="M526 0h-166q9 89 8 163v66h-62q-5 0 -16.5 -20.5t-33 -66.5t-32.5 -68q-40 -73 -53 -85q-114 0 -157 11q30 39 74.5 120t70.5 137v3q-51 16 -78.5 57.5t-27.5 100.5q0 95 66.5 146.5t200.5 51.5q114 0 207 -11q-9 -78 -9 -298v-41q0 -196 8 -266zM368 293v229
q-20 9 -63 9q-38 0 -58 -11q-36 -38 -36 -115q0 -65 43 -97t114 -15z" />
    <glyph glyph-name="afii10065" unicode="&#x430;" horiz-adv-x="524" 
d="M473 308v-99q0 -173 8 -208l-136 -10q-7 24 -9 76h-3q-60 -79 -160 -79q-65 0 -104 38.5t-39 99.5q0 89 73.5 124.5t224.5 42.5q0 62 -20 90t-75 28q-68 0 -150 -41q-23 28 -23 71q114 57 231 57q93 0 137.5 -45.5t44.5 -144.5zM176 148q0 -38 19 -55.5t47 -17.5
q57 0 88 53v83q-26 7 -53 7q-60 0 -83 -15q-18 -27 -18 -55z" />
    <glyph glyph-name="afii10066" unicode="&#x431;" horiz-adv-x="548" 
d="M319 469q89 0 143.5 -58t54.5 -164q0 -112 -64 -185t-176 -73q-114 0 -179.5 84t-65.5 238q0 74 18 139.5t53.5 119.5t94.5 87t135 37q116 7 141 32q11 -27 11 -66t-11 -61q-35 -29 -162 -33q-51 -3 -88 -19t-56 -35.5t-30.5 -51t-14 -52t-4.5 -50.5h4q30 48 81.5 79.5
t114.5 31.5zM183 241q0 -83 26.5 -128.5t72.5 -45.5q36 0 56 19q28 44 28 132q0 173 -90 173q-49 0 -79 -34q-14 -30 -14 -116z" />
    <glyph glyph-name="afii10067" unicode="&#x432;" horiz-adv-x="523" 
d="M257 493q215 0 215 -123q0 -40 -28.5 -72.5t-65.5 -37.5v-7q52 -5 82.5 -35t30.5 -82q0 -73 -67.5 -110t-179.5 -37q-116 0 -188 12q7 93 7 236v39q0 110 -8 205q118 12 202 12zM202 409v-127q46 -8 85 0q45 22 45 68q0 67 -80 67q-26 0 -50 -8zM202 213v-138
q16 -8 53 -8q48 0 65 9q27 23 27 71q0 70 -86 70q-42 0 -59 -4z" />
    <glyph glyph-name="afii10068" unicode="&#x433;" horiz-adv-x="390" 
d="M215 0h-160q8 95 8 246v45q0 114 -8 192h328v-101q-40 6 -137 6h-44v-104q0 -204 13 -284z" />
    <glyph glyph-name="afii10069" unicode="&#x434;" horiz-adv-x="543" 
d="M-17 -119v207h28q38 0 65 89.5t27 193.5q0 71 -9 112h377q-8 -74 -8 -208v-32q0 -107 6 -155h63v-207h-122v119h-306v-119h-121zM226 395q-1 -119 -20.5 -198t-50.5 -109h171v307q-17 5 -50.5 5t-49.5 -5z" />
    <glyph glyph-name="afii10070" unicode="&#x435;" horiz-adv-x="520" 
d="M283 498q100 0 154.5 -51t54.5 -126q0 -35 -13 -68q-93 -21 -229 -32l-76 -5q6 -66 46.5 -99t102.5 -33q80 0 132 37q19 -29 19 -66q-24 -24 -79.5 -44.5t-117.5 -20.5q-116 0 -180.5 67t-64.5 183q0 110 67 184t184 74zM171 281q128 0 167 14q9 15 9 39q0 38 -23 60.5
t-59 22.5q-37 0 -62 -17q-12 -17 -22 -53t-10 -66z" />
    <glyph glyph-name="afii10072" unicode="&#x436;" horiz-adv-x="731" 
d="M572 483h138q-9 -13 -39.5 -57t-56 -81.5t-42.5 -65.5q97 -189 155 -270q-37 -16 -137 -16q-4 4 -48 83q-15 28 -36.5 73t-32.5 63.5t-19 18.5h-30v-43q0 -115 8 -188h-128q8 63 8 184v47h-26q-6 0 -13.5 -8.5t-17 -26t-18 -34.5t-22 -44.5t-22.5 -45.5q-40 -73 -47 -80
q-31 0 -76 5.5t-64 16.5q59 73 159 264q-23 37 -75 109.5t-66 95.5h143q28 -67 67 -134.5t62 -67.5h16v45q0 95 -8 157h128q-8 -62 -8 -157v-45h17q15 0 38.5 32.5t43.5 71t44 87.5q3 7 5 11z" />
    <glyph glyph-name="afii10073" unicode="&#x437;" horiz-adv-x="476" 
d="M72 376q-9 13 -15.5 39t-7.5 45q80 38 206 38q81 0 122.5 -35t41.5 -90q0 -43 -25.5 -73.5t-64.5 -42.5v-6q50 -5 80.5 -33.5t30.5 -76.5q0 -78 -66 -117.5t-170 -39.5q-48 0 -98 14.5t-69 32.5q1 19 13.5 42.5t26.5 35.5q55 -41 125 -41q36 0 60 11q27 23 27 65
q0 33 -26.5 52t-70.5 19q-37 0 -73 -9q-10 17 -10.5 40.5t11.5 41.5q48 -8 82 -8q29 0 50.5 17t21.5 45q0 69 -84 69q-62 0 -118 -35z" />
    <glyph glyph-name="afii10074" unicode="&#x438;" horiz-adv-x="577" 
d="M522 0h-153q8 46 8 123v36q0 75 7 154h-5q-20 -41 -98 -160t-97 -153h-129q8 68 8 230v49q0 122 -8 204h151q-4 -27 -4 -122v-48q0 -74 -8 -141h6q18 39 97 156t98 155h127q-7 -85 -7 -204v-68q0 -131 7 -211z" />
    <glyph glyph-name="afii10075" unicode="&#x439;" horiz-adv-x="577" 
d="M522 0h-153q8 46 8 123v36q0 75 7 154h-5q-20 -41 -98 -160t-97 -153h-129q8 68 8 230v49q0 122 -8 204h151q-4 -27 -4 -122v-48q0 -74 -8 -141h6q18 39 97 156t98 155h127q-7 -85 -7 -204v-68q0 -131 7 -211zM220 701q20 -84 88 -84q33 0 56.5 20.5t30.5 53.5
q14 2 31.5 -2.5t22.5 -12.5q-3 -55 -46.5 -95.5t-114.5 -40.5q-65 0 -108.5 33.5t-52.5 86.5q9 17 38.5 28.5t54.5 12.5z" />
    <glyph glyph-name="afii10076" unicode="&#x43a;" horiz-adv-x="524" 
d="M357 483h154q-39 -53 -159 -209q6 -11 33 -59t45 -79.5t42 -70t40 -57.5q-46 -19 -143 -19q-7 6 -50 74q-21 37 -43.5 84t-33 65.5t-19.5 18.5h-21v-40q0 -124 8 -191h-155q8 76 8 224v35q0 135 -8 224h155q-8 -50 -8 -152v-47h15q19 0 68 75t72 124z" />
    <glyph glyph-name="afii10077" unicode="&#x43b;" horiz-adv-x="545" 
d="M488 0h-154q10 57 10 204v191q-63 8 -108 0q1 -20 1 -64q0 -67 -5 -118t-19 -99t-38 -77t-64.5 -42.5t-94.5 -4.5q-22 50 -3 124q52 -7 74 47.5t22 182.5v38q0 65 -8 101h387q-6 -73 -6 -218v-37q0 -159 6 -228z" />
    <glyph glyph-name="afii10078" unicode="&#x43c;" horiz-adv-x="632" 
d="M155 0h-116q13 98 24 306l9 177h144q62 -143 107 -239h5q87 200 99 239h138v-107q6 -252 25 -376h-145q6 66 7 192t2 146h-8q-38 -105 -72 -180l-31 -70h-83l-36 84q-3 8 -31 72.5t-39 95.5h-8q1 -29 2.5 -158t6.5 -182z" />
    <glyph glyph-name="afii10079" unicode="&#x43d;" horiz-adv-x="570" 
d="M514 0h-152q9 84 9 173v38q-31 5 -84.5 5t-84.5 -5v-38q0 -109 8 -173h-155q8 86 8 228v29q0 157 -8 226h155q-8 -54 -8 -148v-36q31 -5 84.5 -5t84.5 5v42q0 76 -9 142h152q-6 -69 -6 -225v-32q0 -142 6 -226z" />
    <glyph glyph-name="afii10080" unicode="&#x43e;" horiz-adv-x="558" 
d="M292 500q110 0 172 -68t62 -187q0 -116 -69 -186t-176 -70q-115 0 -182 67.5t-67 181.5q0 120 73 191t187 71zM274 413q-45 0 -69 -22q-29 -37 -29 -114q0 -98 30 -149t87 -51q29 0 57 17q32 38 32 124q0 195 -108 195z" />
    <glyph glyph-name="afii10081" unicode="&#x43f;" horiz-adv-x="562" 
d="M506 0h-153q10 88 10 275v120q-31 5 -81.5 5t-79.5 -5v-123q0 -184 8 -272h-155q8 114 8 224v43q0 111 -8 216h451q-6 -160 -6 -217v-37q0 -158 6 -229z" />
    <glyph glyph-name="afii10082" unicode="&#x440;" horiz-adv-x="567" 
d="M52 477l147 14q0 -17 -2 -53l-2 -20q24 35 65 35q51 37 106 36q76 -6 123 -64t47 -162q0 -131 -80 -202.5t-193 -71.5q-22 0 -62 6v-26q0 -105 8 -163h-156q11 69 11 318v49q0 211 -12 304zM201 355v-275q22 -13 62 -13q49 0 77 20q44 46 44 158q0 71 -23.5 111.5
t-65.5 45.5q-17 2 -30 -1q-43 -8 -64 -46z" />
    <glyph glyph-name="afii10083" unicode="&#x441;" horiz-adv-x="470" 
d="M288 498q114 0 159 -45q-3 -21 -17.5 -48.5t-33.5 -44.5q-48 44 -121 44q-34 0 -54 -16q-38 -44 -38 -113q0 -87 42 -139.5t110 -52.5q49 0 97 27q21 -27 18 -63q-24 -22 -73 -40t-101 -18q-109 0 -176.5 68.5t-67.5 182.5q0 112 73.5 185t182.5 73z" />
    <glyph glyph-name="afii10084" unicode="&#x442;" horiz-adv-x="448" 
d="M8 380v103h434v-103q-31 8 -116 8h-32v-95q0 -216 13 -293h-165q13 77 13 296v92h-31q-73 0 -116 -8z" />
    <glyph glyph-name="afii10085" unicode="&#x443;" horiz-adv-x="502" 
d="M3 483h178q5 -35 23.5 -100.5t45 -152t33.5 -110.5h7q19 56 48 176.5t40 186.5h128q-12 -33 -29 -81t-40 -115t-37 -106l-31 -87q-47 -132 -87 -212t-60 -100q-29 1 -57 22t-36 49q53 37 109 147h-41q-26 67 -100 249.5t-94 233.5z" />
    <glyph glyph-name="afii10086" unicode="&#x444;" horiz-adv-x="740" 
d="M446 -194h-152q7 63 7 170v23q-22 -7 -40 -8q-27 -2 -45 0q-77 7 -130.5 71.5t-53.5 174.5q0 127 74 191.5t194 59.5v33q0 137 -6 179q20 5 71.5 6.5t79.5 -3.5q-2 -18 -3.5 -92.5t-2.5 -97.5l-1 -36q34 9 55 10q22 1 47 0q77 -8 122.5 -68.5t45.5 -162.5
q0 -129 -69 -199t-201 -66v-23q0 -116 8 -162zM475 412q-31 0 -44 -4q-5 -167 0 -341q54 -5 86 10q46 48 46 164q0 80 -23.5 125.5t-64.5 45.5zM276 67q22 0 32 4q9 149 -1 340q-50 11 -84 -6q-46 -50 -46 -158q0 -81 26.5 -130.5t72.5 -49.5z" />
    <glyph glyph-name="afii10087" unicode="&#x445;" horiz-adv-x="520" 
d="M20 483h179q39 -86 81 -153h4q51 81 86 153h136q-119 -155 -165 -226q52 -83 174 -257h-177q-37 66 -104 173h-4q-46 -87 -88 -173h-138q153 226 169 251q-20 35 -46 74t-58 85.5t-49 72.5z" />
    <glyph glyph-name="afii10088" unicode="&#x446;" horiz-adv-x="564" 
d="M493 88h65v-207h-122v119h-381q8 98 8 238v29q0 137 -8 216h155q-8 -75 -8 -219v-176q76 -11 153 0v176q0 143 -8 219h154q-8 -81 -8 -228v-167z" />
    <glyph glyph-name="afii10089" unicode="&#x447;" horiz-adv-x="525" 
d="M28 483h155q-9 -99 -9 -157q0 -49 17.5 -72t56.5 -23q40 0 75 19v76q0 95 -8 157h155q-8 -78 -8 -223v-44q0 -145 8 -216h-160q13 36 13 133v58q-60 -47 -133 -47q-154 0 -154 167v53q0 82 -8 119z" />
    <glyph glyph-name="afii10090" unicode="&#x448;" horiz-adv-x="745" 
d="M689 0h-634q8 110 8 223v42q0 144 -8 218h142q-8 -69 -8 -186v-209q53 -8 120 0v207q0 124 -8 188h143q-9 -68 -9 -185v-210q53 -7 121 0v207q0 119 -8 188h141q-7 -161 -7 -219v-40q0 -166 7 -224z" />
    <glyph glyph-name="afii10091" unicode="&#x449;" horiz-adv-x="761" 
d="M633 0h-578q8 62 8 228v37q0 144 -8 218h142q-8 -68 -8 -194v-201q53 -8 124 0v198q0 134 -8 197h143q-10 -73 -10 -198v-197q23 -3 64.5 -3t60.5 3v197q0 125 -8 198h142q-8 -61 -8 -216v-179h65v-207h-121v119z" />
    <glyph glyph-name="afii10092" unicode="&#x44a;" horiz-adv-x="576" 
d="M-3 483h289q-8 -48 -8 -123v-39q119 25 199.5 -15t80.5 -137q0 -178 -244 -178q-103 0 -181 12q7 65 7 193v192h-51q-61 0 -92 -7v102zM420 162q0 53 -36.5 76.5t-104.5 6.5q-10 -85 0 -163q19 -8 54 -8q36 0 59 11q28 23 28 77z" />
    <glyph glyph-name="afii10093" unicode="&#x44b;" horiz-adv-x="712" 
d="M55 483h154q-7 -35 -7 -118v-44q113 23 186 -17.5t73 -138.5q0 -174 -231 -174q-89 0 -175 12q8 68 8 216v40q0 153 -8 224zM330 162q0 52 -34.5 76t-99.5 7q-10 -85 0 -163q19 -8 54 -8q28 0 53 12q27 23 27 76zM517 226v48q0 83 -7 209h146q-7 -63 -7 -205v-43
q0 -161 7 -235h-146q7 96 7 226z" />
    <glyph glyph-name="afii10094" unicode="&#x44c;" horiz-adv-x="499" 
d="M55 483h154q-7 -34 -7 -121v-41q121 25 200 -16t79 -140q0 -174 -242 -174q-97 0 -183 12q7 65 7 239v37q0 156 -8 204zM343 162q0 53 -36 76.5t-105 6.5q-10 -85 0 -163q16 -6 49 -6q40 0 62 11q30 23 30 75z" />
    <glyph glyph-name="afii10095" unicode="&#x44d;" horiz-adv-x="495" 
d="M204 -11q-64 0 -109 16.5t-66 38.5q0 21 14 46t31 31q55 -44 132 -44q47 0 70 17q42 44 42 124h-64q-89 0 -141 -10q-10 19 -10 46t10 45q54 -9 142 -9h56q0 51 -33.5 85.5t-88.5 34.5q-62 0 -119 -31q-10 11 -18 35t-8 43q73 40 189 40q102 0 166 -63t64 -182
q0 -116 -70 -189.5t-189 -73.5z" />
    <glyph glyph-name="afii10096" unicode="&#x44e;" horiz-adv-x="761" 
d="M476 422q-30 0 -50 -17q-27 -45 -27 -150q0 -90 27 -139t74 -49q27 0 47 13q31 29 31 151q0 191 -102 191zM507 500q101 0 161.5 -67t60.5 -183q0 -120 -65.5 -190.5t-168.5 -70.5q-99 0 -159 60.5t-67 168.5q-11 3 -33.5 3t-33.5 -3v-46q0 -136 6 -172h-153q8 140 8 233
v24q0 159 -8 226h153q-6 -47 -6 -154v-40q11 -3 33.5 -3t34.5 3q12 99 76.5 155t160.5 56z" />
    <glyph glyph-name="afii10097" unicode="&#x44f;" horiz-adv-x="526" 
d="M325 0v197h-40q-3 0 -7 -3.5t-8.5 -11t-9.5 -15.5t-11.5 -22t-11.5 -25t-13.5 -29t-14.5 -30q-20 -45 -40 -70q-63 -7 -144 10q34 48 122 213v3q-94 28 -94 120q0 41 18.5 71.5t51.5 48t72.5 26t86.5 8.5q95 1 189 -16q-8 -65 -8 -210v-47q0 -124 8 -218h-146zM325 252
v157q-13 5 -46 5q-37 0 -57 -10q-24 -32 -24 -70q0 -41 25 -63.5t71 -22.5q9 0 31 4z" />
    <glyph glyph-name="afii10071" unicode="&#x451;" horiz-adv-x="523" 
d="M287 498q100 0 154.5 -51t54.5 -126q0 -35 -13 -68q-93 -21 -229 -32l-76 -5q6 -66 46.5 -99t102.5 -33q80 0 132 37q19 -29 19 -66q-24 -24 -79.5 -44.5t-117.5 -20.5q-116 0 -180.5 67t-64.5 183q0 110 67 184t184 74zM175 281q128 0 167 14q9 15 9 39q0 38 -23 60.5
t-59 22.5q-37 0 -62 -17q-12 -17 -22 -53t-10 -66zM115 606q0 25 17.5 42t43.5 17t44 -17t18 -42t-18 -41.5t-44 -16.5t-43.5 16.5t-17.5 41.5zM309 606q0 25 18 42t43 17q26 0 44 -17t18 -42t-18 -41.5t-44 -16.5q-25 0 -43 16.5t-18 41.5z" />
    <glyph glyph-name="afii10099" unicode="&#x452;" horiz-adv-x="569" 
d="M390 506h-186q-2 -120 -2 -154h6q73 77 160 77q77 0 113 -50t36 -165v-187q0 -143 -51.5 -199.5t-163.5 -36.5q-10 23 -9.5 59.5t8.5 53.5q20 0 31.5 3.5t24 16.5t18 44t5.5 81v131q0 84 -19 119t-60 35q-56 0 -98 -60v-47q0 -109 8 -227h-156q10 130 10 300v54
q0 54 -2 152h-76q-13 49 0 87h73q-1 37 -5 111q24 4 76 5t75 -3q0 -3 -0.5 -42.5t-0.5 -70.5h185q13 -40 0 -87z" />
    <glyph glyph-name="afii10100" unicode="&#x453;" horiz-adv-x="390" 
d="M215 0h-160q8 95 8 246v45q0 114 -8 192h328v-101q-40 6 -137 6h-44v-104q0 -204 13 -284zM479 667l-204 -131l-42 47l171 179q21 -2 48 -35t27 -60z" />
    <glyph glyph-name="afii10101" unicode="&#x454;" horiz-adv-x="493" 
d="M182 282h52q88 0 134 12q10 -20 10 -47.5t-10 -46.5q-59 11 -177 11q9 -54 45.5 -90.5t103.5 -36.5q51 0 99 27q21 -31 18 -64q-25 -22 -74.5 -40t-107.5 -18q-108 0 -175.5 69t-67.5 182q0 112 73.5 185.5t181.5 73.5q60 0 104 -16t57 -36q0 -20 -19 -47.5t-36 -36.5
q-40 43 -99 50q-13 1 -38 -1q-67 -8 -74 -130z" />
    <glyph glyph-name="afii10102" unicode="&#x455;" horiz-adv-x="427" 
d="M371 459q0 -19 -11.5 -43t-24.5 -34q-33 28 -82 28q-31 0 -43 -10.5t-12 -32.5q0 -19 19.5 -38t47 -37t55 -39t47 -52t19.5 -68q0 -69 -53.5 -106.5t-133.5 -37.5q-53 0 -94 19t-58 40q-3 25 9 47.5t30 33.5q15 -21 42.5 -36.5t55.5 -15.5q32 0 44.5 11.5t12.5 37.5
q0 27 -29.5 53.5t-64.5 46.5t-64.5 56t-29.5 81q0 57 49.5 95t130.5 39q58 1 97.5 -11t40.5 -27z" />
    <glyph glyph-name="afii10103" unicode="&#x456;" horiz-adv-x="304" 
d="M77 230v40q0 160 -15 213h181q-15 -57 -15 -216v-37q0 -44 4 -123t11 -107h-181q15 56 15 230zM70 618q0 31 24 50.5t57 19.5q35 0 59 -19.5t24 -50.5t-24 -50.5t-59 -19.5q-33 0 -57 19.5t-24 50.5z" />
    <glyph glyph-name="afii10104" unicode="&#x457;" horiz-adv-x="351" 
d="M38 630q0 24 17.5 41.5t42.5 17.5q26 0 44.5 -17.5t18.5 -41.5q0 -25 -18.5 -41.5t-44.5 -16.5q-25 0 -42.5 16.5t-17.5 41.5zM191 630q0 24 17.5 41.5t43.5 17.5q25 0 43.5 -17.5t18.5 -41.5t-18.5 -41t-43.5 -17q-26 0 -43.5 16.5t-17.5 41.5zM99 230v40q0 160 -15 213
h181q-14 -53 -14 -216v-37q0 -171 14 -230h-181q15 56 15 230z" />
    <glyph glyph-name="afii10105" unicode="&#x458;" horiz-adv-x="308" 
d="M242 124v-139q0 -121 -66 -170t-161 -33q-16 53 3 110q36 0 54 32t18 110v102q0 284 -15 359h173q-6 -124 -6 -371zM81 618q0 31 24.5 50.5t57.5 19.5q35 0 59 -19.5t24 -50.5t-24 -50.5t-59 -19.5q-33 0 -57.5 19.5t-24.5 50.5z" />
    <glyph glyph-name="afii10106" unicode="&#x459;" horiz-adv-x="754" 
d="M322 1q7 56 7 203v191q-55 8 -97 0q1 -20 1 -65q0 -196 -49.5 -275.5t-165.5 -65.5q-10 18 -12 63t6 68q27 -8 47 9t33 71t13 143v39q0 53 -8 101h378q-8 -73 -8 -162q120 25 193 -16t73 -140q0 -84 -54 -129t-177 -45q-98 0 -180 10zM596 162q0 113 -128 83
q-10 -85 0 -163q18 -6 46 -6t54 11q28 25 28 75z" />
    <glyph glyph-name="afii10107" unicode="&#x45a;" horiz-adv-x="782" 
d="M349 1q7 77 7 176v39q-74 9 -148 0v-39q0 -113 8 -177h-154q8 86 8 228v29q0 157 -8 226h154q-8 -54 -8 -144v-36q74 -9 148 0v42q0 81 -9 138h153q-6 -69 -6 -169q118 26 192 -13t74 -133q0 -177 -232 -177q-97 0 -179 10zM621 160q0 109 -127 80q-8 -83 0 -158
q18 -6 47 -6q30 0 54 12q26 19 26 72z" />
    <glyph glyph-name="afii10108" unicode="&#x45b;" horiz-adv-x="569" 
d="M390 506h-186q-2 -120 -2 -154h6q73 77 160 77q77 0 113 -50t36 -165v-38q0 -88 9 -176h-157q11 79 11 158v22q0 143 -63 152q-19 1 -37 -5q-45 -6 -77 -53v-47q0 -109 8 -227h-156q10 130 10 300v54q0 54 -2 152h-76q-13 49 0 87h73q-1 37 -5 111q28 7 78 8t76 -6
q-1 -19 -3 -113h184q13 -40 0 -87z" />
    <glyph glyph-name="afii10109" unicode="&#x45c;" horiz-adv-x="524" 
d="M357 483h154q-39 -53 -159 -209q6 -11 33 -59t45 -79.5t42 -70t40 -57.5q-46 -19 -143 -19q-7 6 -50 74q-21 37 -43.5 84t-33 65.5t-19.5 18.5h-21v-40q0 -124 8 -191h-155q8 76 8 224v35q0 135 -8 224h155q-8 -50 -8 -152v-47h15q19 0 68 75t72 124zM507 667l-204 -131
l-42 47l171 179q21 -2 48 -35t27 -60z" />
    <glyph glyph-name="afii10110" unicode="&#x45e;" horiz-adv-x="521" 
d="M14 483h178q5 -35 23.5 -100.5t45 -152t33.5 -110.5h7q19 56 48 176.5t40 186.5h128q-12 -33 -29 -81t-40 -115t-37 -106l-31 -87q-47 -132 -87 -212t-60 -100q-29 1 -57 22t-36 49q53 37 109 147h-41q-26 67 -100 249.5t-94 233.5zM204 701q20 -84 88 -84
q33 0 56.5 20.5t30.5 53.5q14 2 31.5 -2.5t22.5 -12.5q-3 -55 -46.5 -95.5t-114.5 -40.5q-65 0 -108.5 33.5t-52.5 86.5q9 17 38.5 28.5t54.5 12.5z" />
    <glyph glyph-name="afii10193" unicode="&#x45f;" horiz-adv-x="564" 
d="M493 0h-156v-119h-123v119h-159q8 98 8 238v29q0 137 -8 216h155q-8 -75 -8 -219v-176q76 -11 153 0v176q0 143 -8 219h155q-9 -81 -9 -228v-255z" />
    <glyph glyph-name="uni0462" unicode="&#x462;" horiz-adv-x="549" 
d="M65 605h166q-3 -13 -7 -73h193q7 -24 7 -38.5t-7 -37.5h-194v-8v-61q55 12 110 6.5t98 -23t70 -61t27 -106.5q0 -214 -281 -214q-115 0 -185 11q9 54 9 254v55q0 98 -1 147h-69q-7 25 -7.5 38.5t7.5 37.5h68q0 2 -4 73zM376 195q0 66 -39.5 98.5t-113.5 17.5v-232
q23 -5 54 -5q37 0 57 9q42 36 42 112z" />
    <glyph glyph-name="uni0463" unicode="&#x463;" horiz-adv-x="499" 
d="M390 394h-188v-86q122 25 200.5 -13t78.5 -136q0 -168 -242 -168q-97 0 -183 12q7 65 7 239v152h-58q-13 51 0 89h58v13q0 155 -8 204h154q-7 -35 -7 -121v-96h188q13 -44 0 -89zM343 156q0 51 -35.5 72t-105.5 5q-9 -79 0 -151q16 -6 49 -6q40 0 62 11q30 23 30 69z" />
    <glyph glyph-name="afii10050" unicode="&#x490;" horiz-adv-x="411" 
d="M236 0h-174q8 82 8 301v40q0 182 -8 264h279v99h84v-207q-79 7 -162 7h-41v-220q0 -204 14 -284z" />
    <glyph glyph-name="afii10098" unicode="&#x491;" horiz-adv-x="390" 
d="M215 0h-160q8 95 8 246v45q0 114 -8 192h244v106h84v-207q-56 6 -137 6h-44v-104q0 -204 13 -284z" />
    <glyph glyph-name="endash" unicode="&#x2013;" horiz-adv-x="614" 
d="M515 245h-417q-16 59 0 108h417q16 -50 0 -108z" />
    <glyph glyph-name="emdash" unicode="&#x2014;" horiz-adv-x="800" 
d="M689 223h-578q-14 61 0 108h578q14 -52 0 -108z" />
    <glyph glyph-name="quoteleft" unicode="&#x2018;" horiz-adv-x="200" 
d="M198 523q0 -34 -23.5 -56.5t-56.5 -22.5q-37 0 -60 27.5t-23 77.5q0 76 48 118t107 42q8 -24 1 -51q-28 0 -48 -16t-20 -43q34 1 54.5 -21t20.5 -55z" />
    <glyph glyph-name="quoteright" unicode="&#x2019;" horiz-adv-x="193" 
d="M3 539q0 32 23 54t57 22q37 0 60 -27.5t23 -79.5q0 -78 -48 -122t-109 -44q-7 23 0 49q28 -2 50.5 20t20.5 54q-33 -5 -55 17.5t-22 56.5z" />
    <glyph glyph-name="quotesinglbase" unicode="&#x201a;" horiz-adv-x="219" 
d="M50 70q0 32 23 54t57 22q37 0 60 -27.5t23 -79.5q0 -78 -48 -122t-109 -44q-7 23 0 49q28 -2 50.5 20t20.5 54q-33 -5 -55 17.5t-22 56.5z" />
    <glyph glyph-name="quotedblleft" unicode="&#x201c;" horiz-adv-x="440" 
d="M198 523q0 -34 -23.5 -56.5t-56.5 -22.5q-37 0 -60 27.5t-23 77.5q0 76 48 118t107 42q8 -24 1 -51q-28 0 -48 -16t-20 -43q34 1 54.5 -21t20.5 -55zM402 523q0 -34 -23.5 -56.5t-56.5 -22.5q-37 0 -60 27.5t-23 77.5q0 76 48 118t107 42q8 -24 1 -51q-28 0 -48 -16
t-20 -43q34 1 54.5 -21t20.5 -55z" />
    <glyph glyph-name="quotedblright" unicode="&#x201d;" horiz-adv-x="453" 
d="M57 539q0 32 23 54t57 22q37 0 60 -27.5t23 -79.5q0 -78 -48 -122t-109 -44q-7 23 0 49q28 -2 50.5 20t20.5 54q-33 -5 -55 17.5t-22 56.5zM237 539q0 32 23 54t57 22q37 0 60 -27.5t23 -79.5q0 -78 -48 -122t-109 -44q-7 23 0 49q28 -2 50.5 20t20.5 54q-33 -5 -55 17.5
t-22 56.5z" />
    <glyph glyph-name="quotedblbase" unicode="&#x201e;" horiz-adv-x="430" 
d="M47 70q0 32 23 54t57 22q37 0 60 -27.5t23 -79.5q0 -78 -48 -122t-109 -44q-7 23 0 49q28 -2 50.5 20t20.5 54q-33 -5 -55 17.5t-22 56.5zM228 70q0 32 23 54t57 22q37 0 60 -27.5t23 -79.5q0 -78 -48 -122t-109 -44q-7 23 0 49q28 -2 50.5 20t20.5 54q-33 -5 -55 17.5
t-22 56.5z" />
    <glyph glyph-name="dagger" unicode="&#x2020;" horiz-adv-x="530" 
d="M460 346l-150 8q0 -245 21 -354h-141q21 108 21 354l-142 -8q-14 64 0 112l145 -9l-16 156q24 8 62 8.5t62 -8.5l-15 -156l153 9q6 -22 6 -55t-6 -57z" />
    <glyph glyph-name="daggerdbl" unicode="&#x2021;" horiz-adv-x="530" 
d="M310 189q0 -121 14 -189h-127q14 74 14 189l-128 -8q-16 63 0 111l128 -6v89l-128 -8q-16 63 0 112l131 -9l-16 135q24 8 62 8.5t62 -8.5l-15 -135l132 9q7 -22 6.5 -54.5t-6.5 -57.5l-129 8l-3 -91l132 8q7 -22 6.5 -54t-6.5 -57z" />
    <glyph glyph-name="bullet" unicode="&#x2022;" horiz-adv-x="383" 
d="M35 276q0 46 31.5 76.5t77.5 30.5q48 0 80.5 -30.5t32.5 -76.5q0 -45 -32.5 -76t-80.5 -31q-46 0 -77.5 31.5t-31.5 75.5z" />
    <glyph glyph-name="ellipsis" unicode="&#x2026;" horiz-adv-x="880" 
d="M677 68q0 33 23 55.5t56 22.5q35 0 58.5 -22.5t23.5 -55.5t-23.5 -55t-58.5 -22q-33 0 -56 22t-23 55zM363 68q0 33 23 55.5t56 22.5q35 0 58.5 -22.5t23.5 -55.5t-23.5 -55t-58.5 -22q-33 0 -56 22t-23 55zM50 68q0 33 23 55.5t56 22.5q35 0 58.5 -22.5t23.5 -55.5
t-23.5 -55t-58.5 -22q-33 0 -56 22t-23 55z" />
    <glyph glyph-name="perthousand" unicode="&#x2030;" horiz-adv-x="1113" 
d="M100 52l519 546q44 -19 60 -62l-520 -548q-42 16 -59 64zM42 445q0 65 43.5 110t110.5 45q68 0 111 -44.5t43 -110.5t-43 -110.5t-111 -44.5q-67 0 -110.5 45t-43.5 110zM187 523q-22 0 -33 -11q-19 -19 -19 -66q0 -37 18.5 -58t46.5 -21q22 0 39 11q19 24 19 63
q0 82 -71 82zM424 144q0 65 43.5 110t110.5 45q69 0 112 -44.5t43 -110.5t-43 -110.5t-112 -44.5q-67 0 -110.5 45t-43.5 110zM570 222q-22 0 -33 -11q-20 -20 -20 -66q0 -37 19 -57.5t47 -20.5q19 0 39 10q18 25 18 63q0 82 -70 82zM769 142q0 66 43.5 110.5t111.5 44.5
t111 -44.5t43 -110.5t-43 -110.5t-111 -44.5t-111.5 44.5t-43.5 110.5zM915 220q-20 0 -33 -11q-20 -22 -20 -66q0 -37 18.5 -58t47.5 -21q17 0 39 11q18 23 18 62q0 83 -70 83z" />
    <glyph glyph-name="guilsinglleft" unicode="&#x2039;" horiz-adv-x="285" 
d="M236 452l-113 -218l92 -175q-43 -31 -87 -9l-107 206l106 198q53 25 109 -2z" />
    <glyph glyph-name="guilsinglright" unicode="&#x203a;" horiz-adv-x="285" 
d="M48 56l115 218l-93 175q43 29 88 10l106 -207l-105 -198q-52 -26 -111 2z" />
    <glyph glyph-name="fraction" unicode="&#x2044;" horiz-adv-x="209" 
d="M342 560l-408 -572q-46 13 -67 53l406 572q44 -11 69 -53z" />
    <glyph glyph-name="twoinferior" unicode="&#x2082;" horiz-adv-x="393" 
d="M76 224q-16 3 -32 19t-17 30q23 41 75 72t113 31q63 0 102 -28t39 -80q0 -38 -19.5 -69t-55 -53t-61.5 -33t-62 -24l2 -6l75 6q56 4 121 15v-104h-320q-9 36 0 74q35 17 49.5 24.5t43 25t41 30.5t23.5 32.5t11 40.5q0 35 -29 44q-16 3 -36 -3q-34 -4 -63 -44z" />
    <glyph glyph-name="fourinferior" unicode="&#x2084;" horiz-adv-x="428" 
d="M349 369v-281h45q16 -42 0 -88h-45v-68h-138v68h-190q-14 38 0 80l200 289h128zM121 88h106v156z" />
    <glyph glyph-name="Euro" unicode="&#x20ac;" horiz-adv-x="596" 
d="M433 205h-193q21 -57 67.5 -89t111.5 -32q59 0 111 32q23 -29 25 -66q-31 -27 -84 -44t-102 -17q-107 0 -180.5 55t-97.5 161h-55q-15 32 0 70h43q-1 12 -1 40q0 15 2 33h-44q-10 39 0 70h58q29 93 103.5 149t182.5 56q70 0 160 -19q4 -44 -29 -99q-54 30 -133 30
q-68 0 -102 -19q-15 -13 -29.5 -40.5t-20.5 -57.5h260q5 -35 -21 -70h-247q-2 -12 -2 -29q0 -25 3 -44h235q3 -38 -21 -70z" />
    <glyph glyph-name="afii61352" unicode="&#x2116;" horiz-adv-x="902" 
d="M62 605h173q2 -20 39 -88.5t92.5 -166t83.5 -154.5h3v137q0 220 -11 272h117q-7 -61 -7 -405v-200h-159q-9 18 -102 184.5t-116 222.5h-5v-122q0 -228 8 -285h-116q9 81 9 286v46q0 207 -9 273zM589 491q0 53 34.5 88.5t88.5 35.5q55 0 90 -35.5t35 -88.5t-35 -88.5
t-90 -35.5q-54 0 -88.5 35.5t-34.5 88.5zM706 548q-12 0 -24 -7q-14 -16 -14 -50q0 -28 13.5 -43t34.5 -15q16 0 29 8q13 16 13 46q0 61 -52 61zM824 225h-224q-14 60 0 109h224q13 -52 0 -109z" />
    <glyph glyph-name="trademark" unicode="&#x2122;" horiz-adv-x="916" 
d="M84 518v87h343v-87q-50 10 -116 10v-122q0 -134 10 -186h-133q11 51 11 188v120q-68 0 -115 -10zM531 220h-92q11 33 26 159.5t21 225.5h111q2 -12 7.5 -30t15 -42.5t17 -43.5t20 -48.5t17.5 -42.5h3q6 18 18.5 54t20 57.5t15 49t9.5 46.5h114q2 -83 12.5 -208t24.5 -177
h-119q5 36 2.5 132.5t-0.5 127.5h-6l-81 -208h-66l-87 210h-5q4 -54 1.5 -134.5t0.5 -127.5z" />
    <glyph glyph-name="partialdiff" unicode="&#x2202;" horiz-adv-x="557" 
d="M269 476q49 0 74 -14l3 5q-22 58 -69 110.5t-104 76.5q4 23 23 48t41 31q25 -9 58 -29t74.5 -59.5t75.5 -89t57.5 -123t23.5 -154.5q0 -139 -67 -214t-175 -75q-116 0 -184 66t-68 176q0 115 69 180t168 65zM273 388q-46 0 -70 -24q-27 -35 -27 -107q0 -86 30 -133
t87 -47q35 0 54 16q35 47 35 130q0 88 -19 139q-31 26 -90 26z" />
    <glyph glyph-name="Delta" unicode="&#x2206;" horiz-adv-x="511" 
d="M301 616l182 -542l-40 -74h-378l-36 74l186 542h86zM233 444l-112 -356h229l-110 356h-7z" />
    <glyph glyph-name="product" unicode="&#x220f;" horiz-adv-x="681" 
d="M618 -198h-166q9 101 9 301v500q-31 4 -119.5 4t-119.5 -4v-500q0 -199 8 -301h-168q8 71 8 265v343q0 215 -8 294h556q-6 -80 -6 -295v-330q0 -203 6 -277z" />
    <glyph glyph-name="summation" unicode="&#x2211;" horiz-adv-x="511" 
d="M196 603l253 -347l-257 -354v-5l106 10q136 15 175 24v-129h-438v113l237 338l-237 336v114h438v-129q-43 10 -175 24l-102 10v-5z" />
    <glyph glyph-name="minus" unicode="&#x2212;" horiz-adv-x="573" 
d="M507 257h-439q-10 38 0 88h439q9 -42 0 -88z" />
    <glyph glyph-name="radical" unicode="&#x221a;" horiz-adv-x="692" 
d="M323 -11l-173 417h-123q-11 38 0 77h243q8 -45 26.5 -98t45 -116.5t38.5 -97.5h6l99 544h214q14 -33 0 -78h-150l-133 -648h-93z" />
    <glyph glyph-name="infinity" unicode="&#x221e;" horiz-adv-x="759" 
d="M35 288q0 92 54 156.5t140 64.5q96 0 170 -112h3q21 43 61 77.5t91 34.5q69 0 119 -62.5t50 -163.5q0 -92 -56.5 -150.5t-131.5 -58.5q-55 0 -96.5 29.5t-81.5 85.5h-3q-23 -46 -62.5 -80.5t-91.5 -34.5q-68 0 -116.5 57.5t-48.5 156.5zM327 253q-5 10 -14.5 30.5t-15 32
t-14.5 28.5t-15.5 26.5t-14.5 19t-15.5 14t-15.5 4.5q-25 0 -42 -17q-21 -27 -21 -95q0 -50 22.5 -85.5t57.5 -35.5q23 0 48 23.5t40 54.5zM432 327q47 -102 66 -126q22 -26 40 -27q20 0 40 16q21 28 21 96q0 49 -22 85t-55 36q-48 0 -90 -80z" />
    <glyph glyph-name="integral" unicode="&#x222b;" horiz-adv-x="347" 
d="M415 619q-29 18 -65.5 23.5t-73.5 -5.5q-25 -45 -25 -203v-342q0 -73 -11.5 -133.5t-32.5 -101t-49 -70.5t-60 -42.5t-66.5 -16.5t-68.5 7q-6 21 2 58.5t23 52.5q55 -8 98 5q10 22 16 50.5t8.5 79t3 78.5t0 105.5t-0.5 102.5v190q0 149 62 220t167 71q65 0 88 -16
q9 -20 2.5 -63.5t-17.5 -49.5z" />
    <glyph glyph-name="approxequal" unicode="&#x2248;" horiz-adv-x="556" 
d="M474 157q-47 -37 -91 -39t-78 17.5t-67 39t-72 17.5t-79 -39q-15 58 -4 91q42 39 82 41.5t74 -17.5l68 -40t77 -19t88 39q14 -45 2 -91zM473 320q-47 -37 -91 -39t-78 17.5t-67 39t-72 17.5t-79 -39q-15 58 -4 91q42 39 82 41.5t74 -17.5l68 -40t77 -19t88 39
q14 -45 2 -91z" />
    <glyph glyph-name="notequal" unicode="&#x2260;" horiz-adv-x="586" 
d="M507 355h-156l-49 -105h205q9 -41 0 -88h-246l-79 -171q-40 -2 -59 30l66 141h-121q-10 38 0 88h162l49 105h-211q-10 39 0 88h253l72 154q39 -4 57 -30l-58 -124h115q9 -41 0 -88z" />
    <glyph glyph-name="lessequal" unicode="&#x2264;" horiz-adv-x="517" 
d="M454 148l-425 115q-15 42 -1 74l413 211q28 -24 28 -64l-322 -163l332 -80q-3 -76 -25 -93zM455 12l-422 114q1 34 18 66l422 -113q2 -36 -18 -67z" />
    <glyph glyph-name="greaterequal" unicode="&#x2265;" horiz-adv-x="511" 
d="M76 554l406 -212q16 -43 1 -74l-422 -119q-24 18 -20 67l331 89l-334 168q1 20 11.5 45t26.5 36zM474 130l-422 -122q-20 34 -18 67l422 121q15 -29 18 -66z" />
    <glyph glyph-name="lozenge" unicode="&#x25ca;" horiz-adv-x="575" 
d="M271 678l216 -372l-216 -375l-213 375zM272 470l-91 -166l90 -163l91 166z" />
    <glyph glyph-name="ff" unicode="&#xfb00;" horiz-adv-x="674" 
d="M575 711q80 0 138 -33q-2 -24 -16.5 -50t-30.5 -35q-41 30 -75 30q-23 0 -33 -14q-23 -35 -22 -126h113q10 -14 10 -43t-9 -45h-107v-97q0 -218 9 -298h-155q9 103 9 256v139h-174v-97q0 -218 9 -298h-157q10 100 10 256v139h-66q-6 17 -6 44.5t6 43.5h65
q-8 124 41.5 176t128.5 52q68 0 128 -28q-1 -23 -15 -46.5t-30 -32.5q-36 19 -67 19q-23 0 -33 -14q-23 -35 -21 -126h180q-8 124 41.5 176t128.5 52z" />
    <glyph glyph-name="fi" unicode="&#xfb01;" horiz-adv-x="630" 
d="M401 230v40q0 60 -4 125h-165v-97q0 -218 9 -298h-157q10 100 10 256v139h-66q-6 17 -6 44.5t6 43.5h65q-4 65 8.5 112t38 72t56 36.5t66.5 11.5q66 0 104 -19q1 -18 -10.5 -46t-23.5 -39q-21 16 -54 16q-22 0 -32 -15q-23 -37 -21 -129h341q-13 -55 -13 -216v-37
q0 -169 13 -230h-179q14 57 14 230zM394 618q0 31 24.5 50.5t57.5 19.5q35 0 59.5 -19.5t24.5 -50.5t-24.5 -50.5t-59.5 -19.5q-33 0 -57.5 19.5t-24.5 50.5z" />
    <glyph glyph-name="fl" unicode="&#xfb02;" horiz-adv-x="619" 
d="M386 106v368q0 25 -2 129q-38 24 -87 24q-41 0 -51 -15q-23 -37 -21 -129h73q10 -14 10 -43t-9 -45h-67v-97q0 -218 9 -298h-157q10 100 10 256v139h-66q-6 17 -6 44.5t6 43.5h65q-8 125 42.5 178.5t133.5 53.5q61 0 111 -11q102 14 157 1q0 -15 -3.5 -154.5t-3.5 -233.5
v-115q0 -88 14.5 -111t62.5 -18q11 -25 0 -53q-56 -29 -127 -29q-94 0 -94 115z" />
    <glyph glyph-name="Cyrbreve" horiz-adv-x="411" 
d="M260 810q5 -43 31.5 -66t60.5 -23q72 0 92 77q16 2 36 -4t29 -15q-6 -55 -54 -97t-127 -42q-80 0 -127.5 41t-49.5 94q15 16 46 25.5t63 9.5z" />
    <glyph glyph-name="exclamdotdot" horiz-adv-x="900" 
d="M116 207l-41 399q90 23 173 0l-39 -399h-93zM707 68q0 33 23 55.5t57 22.5q35 0 58.5 -22.5t23.5 -55.5t-23.5 -55t-58.5 -22q-34 0 -57 22t-23 55zM394 68q0 33 23 55.5t57 22.5t58 -22.5t24 -55.5t-24 -55t-58 -22t-57 22t-23 55zM80 68q0 33 23 55.5t57 22.5
q35 0 58.5 -22.5t23.5 -55.5t-23.5 -55t-58.5 -22q-34 0 -57 22t-23 55z" />
    <glyph glyph-name="cyrbreve" horiz-adv-x="411" 
d="M232 701q20 -84 88 -84q33 0 56.5 20.5t30.5 53.5q14 2 31.5 -2.5t22.5 -12.5q-3 -55 -46.5 -95.5t-114.5 -40.5q-65 0 -108.5 33.5t-52.5 86.5q9 17 38.5 28.5t54.5 12.5z" />
    <glyph glyph-name="apple" horiz-adv-x="612" 
d="M442 376q0 -2 2 -2q0 -2 3 -8q0 -8 1 -12q5 -13 6 -14q-1 0 -1 -5q2 -2 2 -4q-1 -2 0 -4t0 -2l-1 -2q1 -1 1.5 -4t2.5 -4v-3q0 -2 1 -2q-4 0 -4 -1l4 -4q0 -1 -1 -1q0 -1 2 -1l-1 -1q0 -1 1.5 -7t3.5 -9v-1l-1 2q-1 0 -1.5 -1t0.5 -2q1 0 4 -3v-5q1 -1 1 -3.5t1 -2.5
q-2 0 -2 -2q1 0 2 -1.5t2 -1.5v1q0 -6 1 -7q1 1 1 2v-7q2 -2 3 -5.5t2 -4.5l-1 -1q1 -2 1.5 -6.5t2.5 -6.5q-2 -2 0 -2l3 -3l-1 1h-1l-1 -1q1 -1 2 -3l1 -1q0 -1 -1 -4.5t1 -3.5q-1 0 -1 -2q0 -1 1.5 -2t2.5 -3l-1 -2q3 -9 3 -10q0 1 -2 2l-1 -1q2 -7 5 -8q-2 0 -2 -3
q2 -1 3 -3.5t2 -3.5q1 1 1 4h1l1 1q0 -4 1 -4q-1 0 -1 -5l1 -1l-1 -1q2 -7 0 -9q5 -2 1 -6l1 -1l-2 -6q0 -1 2 -1l-1 -1l2 -2q-1 0 -1 -1q1 -1 1 -7l4 -4l-1 -1q1 -2 3.5 -6.5t3.5 -6.5v-2q1 -1 3 -2l2 -1q-1 0 -1 -2q0 -1 1 -1q2 -1 1 -3l-1 2q-1 0 -1.5 -1t0.5 -2l2 -2
q1 0 1 0.5t1 0.5q0 -1 1 -1l-1 -1l1 -1q1 -3 2 -2q1 0 1 1q0 -3 -1 -5q1 -1 2 -1l-1 -1q0 -1 3 -1l1 -2q1 -3 2 -5v-3v-2l1 -1v-1v-2l4 -6l-1 -1q0 -1 1 -1t1 -1l-1 -1q2 0 3 -1.5t1.5 -3t1.5 -2.5q-2 0 -2 -1q1 -3 4 -6.5t4 -5.5q1 -1 1.5 -5t2.5 -6q-1 0 -1 -2q0 -1 2 -1
q0 -4 2 -12t3 -13q1 -1 6 -4q2 -4 5 -8v-3h-4v2q0 2 -2 2q-1 0 -1 -2l1 -2h-135.5h-159h-135.5q2 5 5 15.5t6 18.5t8 15l3 -1l5 5v2q7 11 20 22h2q1 1 8 5t11 6q12 3 15 10q2 3 1.5 4.5t-2 5t-1.5 4.5q0 3 -2 8.5t-3 8.5q-1 1 -3 2.5t-2 2.5q-13 19 -30 17q-35 -7 -42 -7
q-4 1 -11.5 2.5t-10.5 1.5q-4 3 -9 3q-10 4 -17 14q-7 11 0 42q1 2 -2 5q-3 4 -3 6q-1 1 -3 2t-2 2q-2 12 6 16q-4 3 -5 6.5t-1 10v9.5q0 8 -3 9q-1 1 -3 2q-1 1 -1.5 1t-1.5 1q-13 4 -17 11t1 17l8.5 8.5t8.5 9.5q0 1 0.5 2t0.5 2q4 6 13 15l11 11q8 14 7 20q0 1 -1 1l-2 1
q3 0 3 1q-3 1 -3 6q1 0 4 3q-1 0 -1 4q2 3 2 8l5 20q2 0 2 1l-1 1q1 2 2 5t2 4.5t3 2.5q-1 0 -1 1q4 18 22 38q1 1 -1 1q1 0 1 2l-2 2v-1v1q-2 1 -4 4q0 1 2.5 1.5t2.5 1.5q-1 1 -2 1q1 0 3 2l-1 1q1 0 1 2q4 -4 6 2h-2q2 0 3 2.5t0 4.5l-1 1q1 0 4 7q6 4 10 7q3 0 9.5 1
t9.5 2q1 0 1 2q2 -1 4 1h1q1 0 1 2q10 7 24 12q-1 1 -2 3q8 5 11 6l-1 -1q0 -1 4 -1q0 -2 1 -2q2 0 2 2q1 -1 3 -1q3 0 1 2q-1 0 -1 0.5t-1 0.5h11q6 -3 7 -3l2 1l11 -4q3 -1 29 -4h5h4h2h1h2q1 0 2.5 -1t2.5 -1h2q1 -1 5.5 -1t5.5 -1q0 1 2 1l1 -1l1 1q1 0 2 -1l1 -1
q1 0 1 1q0 -1 1 -1h2q1 0 4 -1.5l4 -2t4 0.5q2 0 7 -1.5t7 -0.5l3 -3q2 0 2 1l-2 2l3 -3l2 1q4 -1 8 -3.5t5 -2.5q15 -7 21 -14q2 -5 5 -6v-2q1 -2 4 -5.5t5 -5.5v-3q1 -1 3 -4v-2q9 -15 10 -18q11 -18 21 -45l1 -1l1 -1q0 -2 1.5 -9t1.5 -10l1 -2v-3zM125 467q2 0 3 1v-2z
M481 231l1 -2q-2 0 -2 1t1 1zM493 183q0 -1 1 -2l-1 2q-1 1 -1 2q1 -1 1 -2zM492 189v-4v4zM464 286l1 1l1 -2l-1 1h-1zM490 191l2 -2zM215 536q2 0 2 -1zM124 477h-2q0 1 1 1q0 -1 1 -1zM122 477v1v-1zM498 173l-1 -1zM471 269q0 -1 -0.5 -1t-0.5 -1q1 1 1 2zM470 267h1
l-1 -1v1z" />
    <glyph glyph-name="Acute" horiz-adv-x="337" 
d="M498 777l-204 -131l-42 47l171 179q21 -2 48 -35t27 -60z" />
    <glyph glyph-name="questiondotdot" horiz-adv-x="598" 
d="M191 488q-52 0 -94 -40q-19 12 -37 45.5t-14 53.5q69 69 179 69q81 0 129.5 -46.5t48.5 -123.5q0 -73 -51 -118.5t-109 -53.5q-7 -25 -1 -73q-54 -17 -89 4q0 58 13.5 83.5t51.5 45.5q60 34 60 79q0 32 -21.5 53.5t-65.5 21.5zM742 68q0 33 23 55.5t56 22.5
q35 0 58.5 -22.5t23.5 -55.5t-23.5 -55t-58.5 -22q-33 0 -56 22t-23 55zM428 68q0 33 23 55.5t57 22.5q35 0 58.5 -22.5t23.5 -55.5t-23.5 -55t-58.5 -22q-34 0 -57 22t-23 55zM115 68q0 33 23 55.5t56 22.5q35 0 58.5 -22.5t23.5 -55.5t-23.5 -55t-58.5 -22q-33 0 -56 22
t-23 55z" />
    <glyph glyph-name="commaaccent" horiz-adv-x="201" 
d="M211 -97q0 28 19 46t48 18q31 0 50 -23.5t19 -66.5q0 -66 -40 -102.5t-90 -37.5q-7 16 -1 42q24 -2 43 17t17 46q-28 -5 -46.5 13.5t-18.5 47.5z" />
    <glyph glyph-name="Imacron" horiz-adv-x="316" 
d="M253 0h-184q10 58 10 275v48q0 235 -10 282h184q-9 -51 -9 -252v-41q0 -243 9 -312zM14 774h300q9 -16 8 -58t-11 -54h-301q-9 16 -7.5 58t11.5 54z" />
    <glyph glyph-name="zerooldstyle" horiz-adv-x="578" 
d="M294 508q109 0 180.5 -70.5t71.5 -185.5q0 -122 -71 -192.5t-185 -70.5q-107 0 -181.5 69.5t-74.5 184.5q0 126 75.5 195.5t184.5 69.5zM279 420q-33 0 -61 -17q-13 -16 -27 -54t-14 -88q0 -82 36.5 -133t89.5 -51q33 0 57 14q14 11 27.5 49t13.5 87q0 84 -33 138.5
t-89 54.5z" />
    <glyph glyph-name="oneoldstyle" horiz-adv-x="338" 
d="M267 0h-164q12 79 12 159v198q-52 -16 -94 -2q-10 26 0 60q37 0 70.5 22t53.5 57h114v-343q0 -87 8 -151z" />
    <glyph glyph-name="twooldstyle" horiz-adv-x="454" 
d="M65 349q-15 7 -25 23t-12 31q86 102 227 102q71 0 116.5 -39.5t45.5 -106.5q0 -84 -69.5 -152t-162.5 -111l1 -5l101 5q80 4 133 20v-116h-390q-9 37 0 75q89 49 155.5 115.5t66.5 127.5q0 35 -23 56.5t-62 21.5q-55 0 -102 -47z" />
    <glyph glyph-name="threeoldstyle" horiz-adv-x="440" 
d="M30 494h349q11 -51 0 -104l-157 -130q80 -8 131.5 -61t51.5 -130q0 -61 -35 -114t-89 -85.5t-114.5 -51.5t-115.5 -20q-23 26 -15 85q82 7 143 49.5t61 114.5q0 56 -41.5 100.5t-104.5 40.5q-11 31 0 56l152 143v5h-75q-76 0 -141 -7v109z" />
    <glyph glyph-name="fouroldstyle" horiz-adv-x="503" 
d="M413 496v-350h63q17 -45 0 -95h-63v-218h-152v218h-239q-13 40 0 85l249 360h142zM123 146h155v224z" />
    <glyph glyph-name="fiveoldstyle" horiz-adv-x="427" 
d="M150 382v-97q113 2 180.5 -49.5t67.5 -140.5q0 -68 -37 -126t-91.5 -93.5t-111 -56t-101.5 -21.5q-11 14 -15.5 41t-0.5 46q77 10 134.5 63.5t57.5 127.5q0 65 -48.5 96t-132.5 28v291h182q108 0 139 21q8 -18 11.5 -52t-2.5 -57q-31 -21 -152 -21h-80z" />
    <glyph glyph-name="sixoldstyle" horiz-adv-x="518" 
d="M269 -11q-107 0 -172 73.5t-65 195.5q0 96 43 184t130 150t200 72q9 -12 14 -37.5t2 -44.5q-93 -14 -166 -79.5t-88 -173.5l5 -2q53 60 144 60q76 0 124.5 -49.5t48.5 -132.5q0 -96 -64.5 -156t-155.5 -60zM270 77q33 0 48 13q33 33 33 91q0 129 -99 129q-82 0 -82 -90
q0 -59 25 -101t75 -42z" />
    <glyph glyph-name="sevenoldstyle" horiz-adv-x="391" 
d="M12 374v117h365q13 -46 -1 -101q-57 -64 -101 -211t-44 -235q0 -74 8 -113h-154v15q0 117 54 278.5t127 260.5v5h-46q-144 0 -208 -16z" />
    <glyph glyph-name="eightoldstyle" horiz-adv-x="503" 
d="M249 646q92 0 144 -42.5t52 -104.5q0 -49 -30 -89.5t-70 -64.5v-5q118 -67 118 -176q0 -79 -59.5 -128t-152.5 -49q-99 0 -155 44.5t-56 118.5q0 50 30.5 93t74.5 66v4q-99 71 -99 168q0 71 59 118t144 47zM274 365q18 16 32 49.5t14 58.5q0 95 -77 95q-38 0 -57 -15
q-17 -17 -17 -51q0 -75 105 -137zM221 286q-57 -43 -57 -110q0 -49 29.5 -80t70.5 -31q37 0 57 16q18 18 18 57q0 43 -26 78t-92 70z" />
    <glyph glyph-name="nineoldstyle" horiz-adv-x="525" 
d="M260 508q110 0 171.5 -66.5t61.5 -187.5q0 -180 -108 -311t-249 -139q-14 13 -22 38t-6 48q81 9 155 88.5t88 184.5l-5 3q-36 -57 -133 -57q-81 0 -132.5 48t-51.5 138q0 104 66 158.5t165 54.5zM247 420q-32 0 -50 -13q-31 -35 -31 -86q0 -73 28 -104t83 -31q32 0 55 30
t23 72q0 61 -27.5 96.5t-80.5 35.5z" />
    <glyph glyph-name="ampersandsmall" horiz-adv-x="846" 
d="M797 590q-54 -54 -135 -47q66 -93 66 -220q0 -148 -93.5 -240.5t-243.5 -92.5q-141 0 -217.5 68t-76.5 188q0 106 67.5 179t183.5 73q100 0 154.5 -51t54.5 -126q0 -35 -13 -68q-92 -21 -229 -32l-76 -5q6 -66 54.5 -99t124.5 -33q102 0 162.5 70.5t58.5 172.5
q-1 145 -85 241q-51 15 -81.5 20.5t-74 -0.5t-77.5 -34q-22 47 -3 89q51 35 107 41t103.5 -6t93.5 -25t91 -9t81 35q19 -47 3 -89zM236 281q129 0 168 14q8 16 8 39q0 38 -23 60.5t-59 22.5t-61 -17q-12 -17 -22.5 -53t-10.5 -66z" />
    <glyph glyph-name="Th" horiz-adv-x="1021" 
d="M522 576h-5q-20 -32 -66 -52t-92 -20h-21v-202q0 -237 8 -302h-167q7 58 7 306v198h-26q-93 0 -146 -7v108h251q189 0 273 95q66 17 119 5q-1 -52 -4 -280h7q73 75 155 75q81 0 117.5 -47.5t36.5 -160.5v-60q0 -178 9 -232h-158q11 36 11 211v42q0 84 -18.5 118.5
t-59.5 34.5q-54 0 -99 -55v-52q0 -167 9 -299h-156q9 117 9 300v54q0 142 6 222z" />
    <glyph glyph-name="oneNum" horiz-adv-x="338" 
d="M265 330h-159q9 52 9 126v107q-27 -10 -74 -5q-9 30 0 66q36 0 59 18.5t45 56.5h114v-251q0 -64 6 -118z" />
    <glyph glyph-name="twoNum" horiz-adv-x="393" 
d="M76 554q-16 2 -31.5 18.5t-17.5 30.5q23 41 75 72t113 31q63 0 102 -28t39 -80q0 -38 -19.5 -69t-55 -53t-61.5 -33t-62 -24l2 -6l75 6q31 2 121 15v-104h-320q-9 36 0 74q35 17 50 25t42.5 25t40 30t23.5 32.5t11 40.5q0 23 -11 36t-30 13q-28 0 -47 -13t-39 -39z" />
    <glyph glyph-name="threeNum" horiz-adv-x="391" 
d="M35 694h298q9 -47 0 -89l-103 -62q130 -2 130 -100q0 -60 -48 -101.5t-115 -58t-144 -16.5q-21 27 -12 80q181 9 181 86q0 33 -32 42.5t-105 4.5q-11 26 0 56l112 66v5h-50q-67 0 -112 -7v94z" />
    <glyph glyph-name="fourNum" horiz-adv-x="428" 
d="M349 699v-233h45q16 -42 0 -87h-45v-91h-138v91h-190q-14 36 0 80l200 240h128zM123 466h104v122z" />
    <glyph glyph-name="zeroNum" horiz-adv-x="449" 
d="M229 711q93 0 143.5 -54.5t50.5 -137.5q0 -91 -51 -146.5t-147 -55.5q-93 0 -145.5 53.5t-52.5 142.5q0 90 54 144t148 54zM217 623q-27 0 -43 -9q-26 -26 -26 -90q0 -63 22 -91.5t66 -28.5q26 0 44 11q21 21 21 84t-19.5 93.5t-64.5 30.5z" />
    <glyph glyph-name="fiveNum" horiz-adv-x="367" 
d="M131 607v-41q206 11 206 -112q0 -43 -26 -76.5t-69.5 -53.5t-93 -31t-104.5 -14q-8 9 -11.5 34t-0.5 39q152 16 152 97q0 36 -38.5 51.5t-106.5 6.5v191h166q86 0 112 14q6 -11 9 -44.5t-2 -47.5q-22 -13 -122 -13h-71z" />
    <glyph glyph-name="sixNum" horiz-adv-x="430" 
d="M218 316q-94 0 -142.5 45.5t-48.5 125.5q0 98 79 170.5t234 84.5q7 -8 11.5 -33.5t1.5 -38.5q-176 -19 -210 -127l4 -1q45 47 116 47q65 0 104 -34t39 -95q0 -65 -48 -104.5t-140 -39.5zM221 380q29 0 42 10q16 20 16 55q0 80 -70 80q-27 0 -41 -17t-14 -46q0 -82 67 -82
z" />
    <glyph glyph-name="sevenNum" horiz-adv-x="347" 
d="M12 588v111h319q6 -16 5 -46.5t-6 -46.5q-52 -39 -86 -103t-34 -114q0 -44 6 -64h-138v9q0 70 38 138t111 123v2h-33q-133 0 -182 -9z" />
    <glyph glyph-name="eightNum" horiz-adv-x="443" 
d="M221 713q90 0 132 -26t42 -65q0 -65 -82 -82v-3q97 -28 97 -104q0 -118 -188 -118q-102 0 -145 25t-43 73q0 31 23 54.5t62 33.5v3q-80 31 -80 100q0 50 47 79.5t135 29.5zM235 557q1 1 5.5 4.5t7 5.5t6.5 5.5t6.5 6t5.5 6.5t5 7.5t3 7.5t1 8q0 21 -15.5 34t-44.5 13
q-26 0 -43 -7q-13 -10 -13 -26q0 -20 18.5 -34t57.5 -31zM196 483q-42 -23 -42 -56q0 -24 20.5 -39.5t52.5 -15.5q35 0 52 9q10 9 10 28q0 23 -20.5 39.5t-72.5 34.5z" />
    <glyph glyph-name="nineNum" horiz-adv-x="440" 
d="M218 711q90 0 140.5 -47t50.5 -123q0 -120 -80.5 -188.5t-212.5 -72.5q-11 9 -16 35t2 39q160 14 188 115l-5 2q-32 -39 -105 -39q-64 0 -107.5 36t-43.5 94q0 69 54 109t135 40zM211 634q-25 0 -41 -12q-20 -17 -20 -48q0 -35 19.5 -53.5t53.5 -18.5q29 0 46.5 14.5
t17.5 37.5q0 39 -20.5 59.5t-55.5 20.5z" />
    <glyph glyph-name="zeroDenom" horiz-adv-x="449" 
d="M229 324q93 0 143.5 -54.5t50.5 -137.5q0 -91 -51 -146.5t-147 -55.5q-93 0 -145.5 53.5t-52.5 142.5q0 90 54 144t148 54zM217 236q-27 0 -43 -9q-26 -26 -26 -90q0 -63 22 -91.5t66 -28.5q26 0 44 11q21 21 21 84t-19.5 93.5t-64.5 30.5z" />
    <glyph glyph-name="oneDenom" horiz-adv-x="338" 
d="M265 -63h-159q9 53 9 126v107q-27 -10 -74 -5q-9 30 0 66q36 0 59 18.5t45 56.5h114v-251q0 -64 6 -118z" />
    <glyph glyph-name="twoDenom" horiz-adv-x="393" 
d="M76 165q-16 2 -31.5 18.5t-17.5 30.5q23 41 75 72t113 31q63 0 102 -28t39 -80q0 -38 -19.5 -69t-55 -53t-61.5 -33t-62 -24l2 -6l75 6q31 2 121 15v-104h-320q-9 36 0 74q35 17 50 25t42.5 25t40 30t23.5 32.5t11 40.5q0 23 -11 36t-30 13q-28 0 -47 -13t-39 -39z" />
    <glyph glyph-name="threeDenom" horiz-adv-x="391" 
d="M35 305h298q9 -47 0 -89l-103 -62q130 -2 130 -100q0 -60 -48 -101.5t-115 -58t-144 -16.5q-21 27 -12 80q181 9 181 86q0 33 -32 42.5t-105 4.5q-11 26 0 56l112 66v5h-50q-67 0 -112 -7v94z" />
    <glyph glyph-name="fourDenom" horiz-adv-x="428" 
d="M349 306v-233h45q16 -42 0 -87h-45v-91h-138v91h-190q-14 36 0 80l200 240h128zM123 73h104v122z" />
    <glyph glyph-name="fiveDenom" horiz-adv-x="367" 
d="M131 214v-41q206 11 206 -112q0 -43 -26 -76.5t-69.5 -53.5t-93 -31t-104.5 -14q-8 9 -11.5 34t-0.5 39q152 16 152 97q0 36 -38.5 51.5t-106.5 6.5v191h166q86 0 112 14q6 -11 9 -44.5t-2 -47.5q-22 -13 -122 -13h-71z" />
    <glyph glyph-name="sixDenom" horiz-adv-x="430" 
d="M218 -93q-94 0 -142.5 45.5t-48.5 125.5q0 98 79 170.5t234 84.5q7 -8 11.5 -33.5t1.5 -38.5q-176 -19 -210 -127l4 -1q45 47 116 47q65 0 104 -34t39 -95q0 -65 -48 -104.5t-140 -39.5zM221 -29q29 0 42 10q16 20 16 55q0 80 -70 80q-27 0 -41 -17t-14 -46q0 -82 67 -82
z" />
    <glyph glyph-name="sevenDenom" horiz-adv-x="347" 
d="M12 195v111h319q6 -16 5 -46.5t-6 -46.5q-52 -39 -86 -103t-34 -114q0 -44 6 -64h-138v9q0 70 38 138t111 123v2h-33q-133 0 -182 -9z" />
    <glyph glyph-name="eightDenom" horiz-adv-x="443" 
d="M221 320q90 0 132 -26t42 -65q0 -65 -82 -82v-3q97 -28 97 -104q0 -118 -188 -118q-102 0 -145 25t-43 73q0 32 23 55t62 33v3q-80 31 -80 100q0 50 47 79.5t135 29.5zM235 164q1 1 5.5 4.5t7 5.5t6.5 5.5t6.5 6t5.5 6.5t5 7.5t3 7.5t1 8q0 21 -15.5 34t-44.5 13
q-26 0 -43 -7q-13 -10 -13 -26q0 -20 18.5 -34t57.5 -31zM196 90q-42 -23 -42 -56q0 -24 20.5 -39.5t52.5 -15.5q35 0 52 9q10 9 10 28q0 23 -20.5 39.5t-72.5 34.5z" />
    <glyph glyph-name="nineDenom" horiz-adv-x="440" 
d="M218 318q90 0 140.5 -47t50.5 -123q0 -120 -80.5 -188.5t-212.5 -72.5q-11 9 -16 35t2 39q160 14 188 115l-5 2q-32 -39 -105 -39q-64 0 -107.5 36t-43.5 94q0 69 54 109t135 40zM211 241q-25 0 -41 -12q-20 -17 -20 -48q0 -35 19.5 -53.5t53.5 -18.5q29 0 46.5 14.5
t17.5 37.5q0 39 -20.5 59.5t-55.5 20.5z" />
    </font>
</defs>
</svg>
